<svg xmlns="http://www.w3.org/2000/svg" width="123" height="25.375" viewBox="0 0 123 25.375"><g fill="#024F7D"><path fill-rule="evenodd" clip-rule="evenodd" d="M20.735 5.193l.29-.76.003-.005c.158-.447.347-.89.49-1.34.12-.367.218-.794.002-1.145-.22-.36-.644-.45-1.035-.468-.55-.026-1.176.058-1.72.133l-1.84.252C15.356.69 13.41 0 11.3 0S7.245.69 5.673 1.858l-1.837-.252c-.545-.074-1.17-.16-1.722-.132-.39.02-.814.108-1.035.468-.216.35-.117.778 0 1.144.146.45.335.894.492 1.34l.002.006.767 2.003c-.318.948-.49 1.962-.49 3.017 0 1.842.53 3.572 1.76 4.968.122.138.248.27.38.397l-.008.027c-.604.066-1.222-.204-1.575-.75-.047-.073-.07-.2-.094-.283-.037-.132-.085-.255-.16-.372-.352-.545-1.08-.702-1.626-.35-.625.404-.63 1.062-.34 1.674.068.145.15.284.237.418.843 1.305 2.39 1.88 3.823 1.55.06.167.123.327.184.472-.25.037-.504.033-.72-.008l-.298-.056-.115.28c-.233.574-.335 1.185-.28 1.803l.025.263 1.328 1.545c-.022.01-.043.017-.065.025l-.54.19.366.414.14.152 1.34 1.484.036.04.037.038.04.04.036.04.04.04.04.037.04.036.042.04.04.037.043.037.043.037.043.037.045.036.045.036.045.036.046.035.048.036.047.035.048.034.05.034.048.034.05.034.05.033.052.033.05.032.053.032.052.03.054.032.055.03.055.034.07.038.17.094.065.035.23-.242.03-.028.03-.027.035-.027.036-.026.037-.025.04-.024.042-.023.043-.022.045-.02.046-.02.047-.02.05-.017.05-.016.05-.014.053-.013.053-.01.054-.01.055-.01.055-.005.055-.005.056-.003h.112l.056.002.056.004.055.006.055.007.055.01.054.01.054.013.053.015.022.007.626 1.267.28.036.072.01.074.008.072.008.073.007.073.008.072.006.073.006.073.005.073.004.074.003.073.003.073.003h.073l.072.003h.073l.073.002h.448l.073-.002.073-.002h.073l.073-.004.072-.004.073-.004.073-.004.073-.005.074-.007.073-.006.073-.007.073-.007.073-.008.073-.008.07-.01.28-.035.606-1.222c.048-.05.1-.063.15-.08l.054-.01.055-.01.055-.008.055-.006.056-.004.057-.002h.112l.055.003.056.005.056.006.055.008.055.01.053.01.053.014.053.014.05.016.05.017.047.02.046.02.045.02.044.022.042.023.04.024.037.025.036.026.033.027.03.027.03.028.23.242.064-.035.167-.092.073-.04.055-.032.054-.03.053-.032.052-.032.052-.032.052-.033.05-.034.05-.033.05-.033.05-.034.05-.034.047-.035.047-.035.047-.035.046-.035.045-.036.045-.036.044-.036.043-.037.043-.037.043-.038.04-.037.043-.038.04-.038.04-.04.04-.038.037-.04.038-.038.038-.04.036-.04 1.34-1.485c.046-.05.093-.1.14-.153l.365-.413-.54-.19c-.022-.01-.044-.017-.065-.026l1.327-1.545.024-.262c.006-.06.01-.12.013-.18 1.016.34 2.168.456 2.948.12.03-.01.053-.028.07-.048.58-.275.93-.84 1.085-1.446.167-.655.115-1.372-.1-2.01-.177-.53-.477-1.037-.898-1.41-.39-.346-.884-.57-1.413-.54-.04 0-.08.005-.118.01l-.353-.69c1.097-.985 1.727-2.386 1.727-3.873.002-1.584-.707-3.004-1.825-3.96zM7.803 8.687c.932.25 1.585 1.02 1.73 1.914C9.1 9.97 8.446 9.48 7.648 9.268c-.8-.214-1.608-.12-2.3.21.573-.7 1.524-1.04 2.455-.79zm9.55-1.49c.132 0 .26.014.385.038-.21.106-.356.324-.356.577 0 .356.288.644.644.644.356 0 .644-.288.644-.644 0-.04-.003-.078-.01-.115.4.358.652.878.652 1.457 0 1.08-.876 1.956-1.956 1.956S15.4 10.234 15.4 9.154c-.002-1.08.874-1.956 1.954-1.956zm-5.104 6.22c.29.04.69-.252.97-.455.328-.237.285-.077.095.157-.25.305-.52.634-.926.7-.13.02-.255.016-.368-.002-.147-.024-.274-.07-.36-.115-.175-.092-.312-.138-.445-.138s-.27.046-.446.138c-.084.044-.21.09-.358.115-.113.018-.238.023-.367.002-.408-.066-.677-.396-.926-.7-.22-.27-.194-.365.093-.157.28.203.68.493.97.454.283-.037.527-.09.684-.196.145-.098.215-.252.167-.5-.005-.023-.01-.052-.013-.083-.49-.49-1.016-.346-1.194-.64-.1-.165-.056-.33.06-.475.394-.48 2.27-.48 2.662 0 .117.143.16.31.06.475-.172.286-.67.157-1.15.6-.007.048-.012.092-.02.124-.047.248.013.402.15.5 0 .002 0 .003.002.003.146.105.378.157.66.194zm-.322 6.495c.74.648 1.658.41 2.485-.72-.797.4-1.637.64-2.485.72zm-1.255 0c-.74.648-1.658.41-2.485-.72.797.4 1.637.64 2.485.72zm12.41-4.076c.392 1.17.076 2.413-.707 2.772-.783.36-1.737-.3-2.13-1.47-.392-1.17-.076-2.413.707-2.773.782-.36 1.736.3 2.13 1.47zm-3.797-.42c.093.036.19.053.29.05-.122.61-.062 1.265.135 1.852.18.53.478 1.037.9 1.41l.046.04c-1.002-.113-1.792-.477-2.358-1.04-.072-.624.764-2.26.988-2.312zM6.684 18.86c-.795-.084-1.158-.636-1.445-1.232.212-.033.434-.102.63-.192h.02c.43.47.893.872 1.378 1.21-.056.163-.226.25-.584.214zM2.02 14.343c.43.666 1.17 1.01 1.91.966.006.31.076.65.172.983-1.237.268-2.566-.235-3.293-1.36-.28-.434-.61-1.086-.035-1.458.332-.215.776-.12.99.213.135.207.113.434.255.655zm15.185 8.183c-.433.518-.86.962-1.443 1.33l.707-.892c.25-.136.497-.278.735-.438zm-10.35 1.326c-.568-.365-.974-.81-1.44-1.325.237.16.484.3.734.437l.704.888zm.36.212l-.963-1.212c.454-.498 1.278-.663 1.95-.546l.683 1.266-.013-.002c-.583-.08-1.24.056-1.658.494zm1.206-1.708c.552.162 1.24.676.93 1.355-.084-.038-.17-.067-.26-.092l-.67-1.262zm4.697 1.63l-.432.933c-.91.115-1.84.115-2.75 0l-.432-.934c1.18.155 2.434.155 3.614 0zm.324-.34c-.056.018-.114.04-.17.065-.28-.613.27-1.13.82-1.32l-.65 1.255zm1.965.417c-.435-.457-1.12-.586-1.724-.48l-.018.003.65-1.26c.69-.152 1.577.002 2.055.525l-.962 1.213zM4.825 20.99l-1.408-1.618h.005c.37-.07.774-.055 1.13.066.357.12.75.397.745.813-.006.308-.214.56-.47.74zm12.97 0l1.408-1.618h-.005c-.37-.07-.774-.055-1.13.066-.357.12-.752.397-.745.813.006.308.215.56.47.74zm-13.21-3.434c-.31.058-.636.063-.944.004-.218.538-.3 1.087-.252 1.628.86-.16 1.734.127 2.01.69.28.577-.154 1.24-.99 1.534.132.148.276.292.43.43l3.3-1.62c-.244-.252-.42-.536-.51-.84-.035-.05-.07-.105-.104-.158-.246.194-.58.23-.9.197-1.062-.11-1.56-.82-1.97-1.712-.022-.045-.045-.096-.07-.152zm13.31 4.184c.112-.107.218-.217.317-.328-.835-.295-1.27-.957-.988-1.533.275-.565 1.147-.85 2.01-.692.008-.094.012-.19.012-.284-.66-.265-1.227-.62-1.546-.99-.175-.204-.324-.423-.45-.654-.086-.053-.165-.11-.236-.175-.48.578-1.003 1.068-1.56 1.47l-.01.02c-.128.255-.274.512-.44.758-.073.283-.22.55-.43.79l3.32 1.617zm-6.585 2.163c.6.01 1.2-.024 1.797-.103-.305-.648.12-1.343.998-1.61.867-.263 1.893-.022 2.404.542.46-.25.866-.533 1.215-.838l-3.305-1.608c-.673.652-1.815 1.08-3.11 1.08-1.233 0-2.326-.387-3.01-.987l-3.287 1.614c.322.267.688.514 1.1.738.51-.564 1.536-.806 2.403-.542.88.267 1.303.962.998 1.61.594.08 1.197.113 1.796.103zm9.046-10.972l.453.886c-.03.01-.058.024-.087.037-.305.14-.548.36-.733.625l-.508-.992c-.642.316-1.364.494-2.128.494-2.664 0-4.825-2.16-4.825-4.825s2.16-4.826 4.824-4.826c2.665 0 4.826 2.16 4.826 4.825 0 1.53-.713 2.892-1.824 3.776zM17.354 5.4c2.073 0 3.753 1.682 3.753 3.754s-1.68 3.753-3.753 3.753c-2.072 0-3.753-1.68-3.753-3.753 0-2.073 1.682-3.753 3.754-3.753zM11.3.566c1.98 0 3.806.647 5.284 1.74l1.41-.128c.626-.086 1.255-.186 1.886-.23 1.898-.134 1.346.533.713 2.326l-.24.623c-.35-.247-.73-.452-1.136-.608-.11-.168-.225-.332-.344-.492.04-.05.084-.102.128-.153.577-.66 1.26-1.116 1.924-1.338-1.198-.098-2.035.783-2.638 1.652l.064.082c-.322-.064-.655-.096-.996-.096-2.876 0-5.208 2.332-5.208 5.208s2.332 5.208 5.208 5.208c.34 0 .68-.033 1.012-.1-1.624 1.683-4.184 2.518-7.065 2.518-4.907 0-8.886-2.42-8.886-7.33 0-2.087.72-4.007 1.927-5.524-.567-.873-1.48-1.803-2.664-1.62.665.222 1.348.678 1.923 1.338.043.05.085.102.127.153-.457.613-.84 1.28-1.14 1.992l-.58-1.513C1.38 2.497.832 1.826 2.67 1.944c.568.036 1.136.115 1.702.197.552.08 1.093.125 1.65.163C7.496 1.21 9.32.565 11.3.565zm6.054 5.218c-1.86 0-3.37 1.51-3.37 3.37s1.51 3.37 3.37 3.37 3.37-1.51 3.37-3.37-1.51-3.37-3.37-3.37zm1.762 8.49c.07-.086.14-.172.206-.26l.422.824c-.076.047-.155.075-.224.06-.206-.04-.346-.41-.404-.624z"/><path d="M26.802 16.895c.194.11.413.22.656.323.243.104.504.19.782.26s.563.104.855.104c.18 0 .368-.014.563-.042.195-.028.365-.083.51-.167.147-.083.27-.194.366-.333.097-.14.146-.32.146-.542 0-.403-.156-.69-.47-.865-.312-.174-.78-.323-1.406-.448-.403-.083-.792-.194-1.167-.333-.375-.14-.71-.323-1-.553-.293-.23-.526-.518-.7-.866-.173-.347-.26-.77-.26-1.27s.11-.94.333-1.314c.222-.375.518-.695.886-.96.368-.263.795-.46 1.282-.593.487-.132.994-.198 1.522-.198.556 0 1.053.04 1.49.124.438.084.817.195 1.136.334.61.25.93.577.96.98 0 .21-.067.455-.2.74-.13.285-.274.552-.427.802-.14-.11-.31-.226-.512-.344-.2-.118-.427-.23-.677-.334-.25-.104-.51-.19-.78-.26-.272-.07-.547-.105-.825-.105-.153 0-.313.01-.48.03-.166.022-.315.063-.447.126s-.243.153-.333.27c-.09.12-.135.275-.135.47 0 .472.507.82 1.52 1.042.418.083.83.19 1.24.323.41.132.78.316 1.106.552.327.236.59.535.792.896.2.36.302.813.302 1.355 0 .557-.108 1.05-.323 1.48-.215.432-.51.793-.886 1.085-.374.292-.815.514-1.323.667-.507.153-1.06.23-1.657.23-.61 0-1.13-.046-1.553-.136-.424-.09-.775-.198-1.053-.323-.195-.083-.407-.205-.636-.365-.23-.16-.344-.38-.344-.657 0-.235.07-.482.208-.74.14-.256.3-.523.48-.8.126.11.28.23.46.355zm8.88-11.132c.813 0 1.472.66 1.472 1.473 0 .814-.66 1.473-1.473 1.473-.813 0-1.472-.66-1.472-1.474s.66-1.473 1.473-1.473zM34.347 9.39c.04-.014.156-.03.344-.052.187-.02.392-.03.615-.03.222 0 .445.02.667.06.223.043.424.123.605.24.18.12.326.286.437.502.11.215.167.497.167.844v8.42c-.056.03-.18.05-.375.064-.195.014-.404.02-.626.02-.278 0-.528-.023-.75-.072-.223-.05-.415-.14-.574-.27-.16-.133-.285-.31-.376-.533-.09-.222-.135-.507-.135-.855V9.39h-.002zm4.168-3.106c.097-.014.202-.028.313-.04.096-.015.2-.025.31-.033.112-.006.224-.01.335-.01.222 0 .445.022.667.063.222.042.424.125.605.25.18.125.326.295.438.51.11.216.166.498.166.845v1.46h2.92v2.125h-2.92v4.46c0 .974.397 1.46 1.19 1.46.193 0 .378-.03.55-.094.175-.063.33-.133.47-.21.14-.075.26-.155.365-.24.104-.082.177-.145.22-.186.207.306.367.57.48.792.11.222.165.43.165.625 0 .182-.073.36-.22.532-.145.174-.35.334-.614.48-.264.146-.584.264-.96.354-.374.09-.784.135-1.228.135-.862 0-1.532-.166-2.012-.5-.48-.333-.816-.77-1.01-1.312-.098-.278-.16-.57-.188-.876-.028-.306-.042-.61-.042-.917v-9.67zm9.422 8.526c.056.764.292 1.4.71 1.907.416.507 1.076.76 1.98.76.347 0 .652-.037.916-.114.264-.076.5-.17.71-.28.207-.112.388-.234.54-.366.154-.132.293-.254.418-.365.167.208.34.476.52.802.18.327.272.594.272.803 0 .306-.174.584-.52.834-.293.223-.706.415-1.242.574-.535.16-1.164.24-1.886.24-.653 0-1.296-.083-1.928-.25-.632-.167-1.195-.458-1.69-.875-.492-.418-.892-.977-1.198-1.68-.306-.7-.46-1.587-.46-2.657 0-.876.136-1.63.407-2.262.27-.63.633-1.156 1.084-1.573.452-.417.963-.722 1.533-.917.57-.194 1.154-.292 1.75-.292.78 0 1.44.12 1.98.365.543.243.984.57 1.325.98.34.41.587.88.74 1.407.153.528.23 1.084.23 1.668v.292c0 .11-.004.23-.01.354l-.022.365c-.007.117-.017.21-.03.28h-6.128zm3.627-1.563c0-.667-.13-1.21-.386-1.626-.258-.416-.72-.624-1.387-.624-.57 0-1.025.198-1.365.594-.34.396-.51.948-.51 1.657h3.647zM56.172 16.895c.195.11.414.22.657.323.242.104.503.19.78.26.28.07.564.104.856.104.18 0 .368-.014.563-.042.193-.028.364-.083.51-.167.146-.083.268-.194.365-.333.097-.14.146-.32.146-.542 0-.403-.155-.69-.468-.865-.312-.174-.782-.323-1.407-.448-.403-.083-.792-.194-1.167-.333-.375-.14-.71-.323-1-.553-.292-.23-.525-.518-.698-.866-.174-.347-.26-.77-.26-1.27s.11-.94.333-1.314c.222-.375.517-.695.886-.96.367-.263.795-.46 1.28-.593.487-.132.995-.198 1.523-.198.556 0 1.052.04 1.49.124.438.084.817.195 1.136.334.61.25.93.577.958.98 0 .21-.067.455-.198.74-.132.285-.274.552-.428.802-.138-.11-.31-.226-.51-.344-.202-.118-.428-.23-.678-.334-.25-.104-.51-.19-.782-.26-.27-.07-.545-.105-.823-.105-.154 0-.314.01-.48.03-.168.022-.317.063-.45.126-.13.063-.242.153-.333.27-.09.12-.135.275-.135.47 0 .472.507.82 1.522 1.042.417.083.83.19 1.24.323.41.132.778.316 1.105.552.325.236.59.535.79.896.2.362.3.814.3 1.356 0 .556-.108 1.05-.323 1.48-.215.43-.51.792-.886 1.084-.374.292-.815.514-1.323.667-.507.153-1.06.23-1.657.23-.61 0-1.13-.046-1.553-.136-.424-.09-.775-.198-1.053-.323-.195-.083-.406-.205-.636-.365-.23-.16-.344-.38-.344-.658 0-.236.07-.483.208-.74.14-.257.3-.524.48-.802.127.11.28.23.46.355zM63.75 9.39c.07-.014.153-.028.25-.042.083-.014.18-.024.292-.03.11-.008.243-.012.396-.012.458 0 .848.077 1.167.23.32.152.52.41.605.77.222-.264.57-.53 1.042-.802.473-.27 1.07-.406 1.793-.406.514 0 1.004.087 1.47.26.465.174.878.456 1.24.845.36.39.65.903.865 1.543.215.64.323 1.424.323 2.356 0 1.084-.125 1.977-.375 2.678-.25.702-.573 1.258-.97 1.668-.396.41-.837.698-1.324.865-.486.167-.973.25-1.46.25-.402 0-.753-.045-1.05-.136-.3-.09-.553-.19-.762-.302-.21-.11-.368-.222-.48-.334s-.18-.187-.208-.228v3.153H63.75V9.39zm2.835 7.317c.11.11.31.243.594.396.284.153.614.23.99.23.708 0 1.23-.28 1.563-.835.333-.556.5-1.334.5-2.335 0-.417-.035-.806-.105-1.167-.07-.36-.184-.674-.344-.938-.16-.264-.375-.47-.646-.615-.27-.146-.6-.22-.99-.22-.584 0-.99.112-1.22.335-.23.222-.344.465-.344.73v4.42zM77.05 14.81c.054.764.29 1.4.707 1.907.417.507 1.078.76 1.98.76.35 0 .654-.037.92-.114.263-.077.5-.17.707-.28.21-.112.39-.234.542-.366.153-.132.292-.254.417-.365.166.21.34.476.52.803.18.327.272.594.272.803 0 .306-.174.583-.52.834-.293.222-.707.414-1.242.573-.534.16-1.164.24-1.886.24-.653 0-1.295-.084-1.928-.25-.634-.167-1.196-.46-1.69-.876-.493-.418-.892-.977-1.198-1.68-.306-.7-.46-1.587-.46-2.657 0-.876.137-1.63.408-2.262.27-.63.632-1.156 1.083-1.573.452-.417.962-.723 1.532-.917.57-.195 1.153-.292 1.75-.292.78 0 1.44.12 1.982.365.542.243.983.57 1.324.98.34.41.588.88.74 1.407s.23 1.084.23 1.668v.292c0 .11-.003.23-.01.354l-.02.365c-.008.117-.018.21-.032.28h-6.13zm3.625-1.563c0-.667-.128-1.21-.386-1.626-.258-.416-.72-.624-1.387-.624-.57 0-1.025.198-1.365.594-.34.396-.51.948-.51 1.657h3.647zm6.254 1.563c.054.764.29 1.4.708 1.907.417.507 1.077.76 1.98.76.348 0 .654-.037.918-.114.264-.077.5-.17.71-.28.207-.112.388-.234.54-.366.154-.132.293-.254.418-.365.167.21.34.476.52.803.182.327.272.594.272.803 0 .306-.174.583-.52.834-.293.222-.706.414-1.24.573-.536.16-1.165.24-1.887.24-.655 0-1.297-.084-1.93-.25-.632-.167-1.195-.46-1.688-.876-.493-.418-.892-.977-1.2-1.68-.304-.7-.458-1.587-.458-2.657 0-.876.136-1.63.407-2.262.272-.63.634-1.156 1.085-1.573.45-.417.962-.723 1.532-.917.57-.195 1.154-.292 1.752-.292.777 0 1.437.12 1.98.365.54.243.982.57 1.323.98.34.41.587.88.74 1.407.154.528.23 1.084.23 1.668v.292c0 .11-.003.23-.01.354l-.022.365c-.005.117-.016.21-.03.28h-6.13zm3.626-1.563c0-.667-.13-1.21-.386-1.626-.257-.416-.72-.624-1.386-.624-.57 0-1.025.198-1.366.594-.34.396-.51.948-.51 1.657h3.648zm10.172-1.376c-.11-.11-.302-.242-.573-.395-.27-.153-.587-.23-.948-.23-.723 0-1.257.265-1.605.793-.348.528-.52 1.285-.52 2.272 0 .486.034.928.103 1.324.07.396.188.733.355 1.01.166.28.39.494.667.647.278.154.633.23 1.063.23.404 0 .747-.083 1.032-.25.285-.167.427-.403.427-.71v-4.69h-.002zm.98 7.38c-.236 0-.424-.08-.563-.24-.14-.16-.21-.365-.21-.615-.194.236-.524.48-.99.73-.465.25-1.06.375-1.78.375-.515 0-1.012-.083-1.492-.25-.48-.167-.906-.445-1.28-.834-.376-.39-.675-.907-.897-1.553-.223-.646-.334-1.45-.334-2.408 0-.96.115-1.78.344-2.46.23-.68.535-1.233.917-1.657.382-.424.82-.737 1.314-.938.493-.202 1.01-.302 1.553-.302.625 0 1.14.108 1.542.323.404.216.702.428.896.637v-3.84c.097-.028.244-.05.438-.063.195-.014.37-.02.52-.02.223 0 .45.02.678.062.23.042.434.125.615.25.18.125.322.295.427.51.104.216.156.498.156.845v11.45h-1.855zM105.253 19.173c-.274-.3-.41-.67-.41-1.11s.143-.798.43-1.08c.287-.28.65-.42 1.09-.42.438 0 .8.14 1.088.42.29.282.433.64.433 1.08s-.137.805-.41 1.1c-.275.294-.645.44-1.11.44-.453 0-.823-.143-1.11-.43zm3.74-9.597c.04-.014.153-.03.338-.052.186-.02.388-.03.607-.03.22 0 .44.02.658.06.22.042.418.12.596.237.18.117.323.282.433.494.11.212.164.49.164.832v8.302c-.055.027-.178.048-.37.06-.192.015-.397.02-.616.02-.273 0-.52-.023-.74-.07-.218-.05-.407-.138-.564-.268-.158-.13-.28-.305-.37-.524-.088-.22-.133-.5-.133-.842V9.576zm-.004-2.24c0-.437.143-.797.43-1.078.288-.28.644-.42 1.07-.42.41 0 .763.14 1.057.42.295.28.443.64.443 1.08 0 .438-.148.794-.443 1.068-.294.274-.647.41-1.058.41-.426 0-.78-.136-1.07-.41-.287-.274-.43-.63-.43-1.07zm5.1 10.727c-.384-.48-.665-1.03-.843-1.654-.18-.624-.267-1.28-.267-1.963 0-.7.102-1.36.308-1.983.205-.623.51-1.172.914-1.644.404-.473.914-.846 1.532-1.12.616-.274 1.336-.41 2.158-.41.863 0 1.6.136 2.21.41.61.274 1.102.644 1.48 1.11.376.465.65 1.006.82 1.622.172.616.258 1.267.258 1.952s-.086 1.343-.257 1.973c-.17.63-.452 1.185-.842 1.664-.39.48-.893.864-1.51 1.152-.615.288-1.362.43-2.24.43-.876 0-1.62-.14-2.23-.42-.61-.28-1.107-.653-1.49-1.12zm2.712-.822c.274.18.61.268 1.007.268.41 0 .75-.09 1.016-.267.267-.177.476-.414.627-.708.15-.295.253-.627.31-.997.053-.37.08-.747.08-1.13 0-.37-.027-.736-.08-1.1-.056-.362-.16-.68-.31-.955-.15-.274-.356-.497-.616-.668-.26-.17-.59-.257-.987-.257s-.73.09-.996.267c-.267.178-.48.408-.637.688-.158.28-.27.6-.34.956-.068.356-.102.72-.102 1.09 0 .37.03.74.093 1.108.062.37.168.702.318.997.15.296.355.533.616.71z"/></g></svg>