<svg xmlns="http://www.w3.org/2000/svg" viewBox="0 0 601.2 82.6"><path fill-rule="evenodd" clip-rule="evenodd" fill="#010101" d="M67.5 16.9l.9-2.5c.5-1.5 1.1-2.9 1.6-4.4.4-1.2.7-2.6 0-3.7-.7-1.2-2.1-1.5-3.4-1.5-1.8-.1-3.8.2-5.6.4L55 6c-5-3.7-11.3-6-18.2-6-6.9 0-13.2 2.3-18.3 6.1l-6-.8c-1.8-.3-3.8-.6-5.6-.5-1.3.1-2.7.4-3.4 1.5-.7 1.1-.4 2.5 0 3.7.5 1.5 1.1 3 1.6 4.4L7.6 21c-1 3-1.6 6.3-1.6 9.8 0 6 1.7 11.6 5.7 16.2.4.4.8.9 1.2 1.3v.1c-2 .2-4-.7-5.1-2.4-.2-.2-.2-.7-.3-.9-.1-.4-.3-.8-.5-1.2-1.1-1.8-3.5-2.3-5.3-1.1-2 1.3-2.1 3.5-1.1 5.5.2.5.5.9.8 1.4 2.7 4.3 7.8 6.1 12.5 5 .2.5.4 1.1.6 1.5-.8.1-1.6.1-2.3 0l-1-.2-.4.9c-.8 1.9-1.1 3.9-.9 5.9l.1.9 4.3 5c-.1 0-.1.1-.2.1l-1.8.6 1.2 1.3c.1.2.3.3.5.5l4.4 4.8.1.1.1.1.1.1.1.1.1.1.1.1.1.1.1.1.1.1.1.1.1.1.1.1.1.1.1.1.1.1.1.1.2.1.2.1.2.1.2.1.2.1.2.1.2.1.2.1.2.1.2.1.2.1.2.1.2.1.2.1.2.1.6.3.2.1.8-.8.1-.1.1-.1.1-.1.1-.1.1-.1.1-.1.1-.1.1-.1.1-.1.2-.1.2-.1.2-.1.2-.1H30l2 4.1.9.1H40.3l.9-.1 2-4c.2-.2.3-.2.5-.3H46.9l.2.1.2.1.2.1.2.1.1.1.1.1.1.1.1.1.1.1.1.1.1.1.1.1.1.1.8.8.2-.1.5-.3.2-.1.2-.1.2-.1.2-.1.2-.1.2-.1.2-.1.2-.1.2-.1.2-.1.2-.1.2-.1.2-.1.2-.1.2-.1.2-.1.1-.1.1-.1.1-.1.1-.1.1-.1.1-.1.1-.1.1-.1.1-.1.1-.1.1-.1.1-.1.1-.1.1-.1.1-.1 4.4-4.8.5-.5 1.2-1.3-1.8-.6c-.1 0-.1-.1-.2-.1l4.3-5 .1-.9V62c3.3 1.1 7.1 1.5 9.6.4.1 0 .2-.1.2-.2 1.9-.9 3-2.7 3.5-4.7.5-2.1.4-4.5-.3-6.5-.6-1.7-1.6-3.4-2.9-4.6-1.3-1.1-2.9-1.9-4.6-1.8h-.4l-1.2-2.2c3.6-3.2 5.6-7.8 5.6-12.6.7-5.2-1.6-9.8-5.3-12.9zm-5.2 29.6c.2-.3.5-.6.7-.8l1.4 2.7c-.2.2-.5.2-.7.2-.8-.2-1.3-1.4-1.4-2.1z"/><path fill-rule="evenodd" clip-rule="evenodd" fill="#FFF" d="M6.6 46.7c1.4 2.2 3.8 3.3 6.2 3.1 0 1 .2 2.1.6 3.2-4 .9-8.4-.8-10.7-4.4-.9-1.4-2-3.5-.1-4.7 1.1-.7 2.5-.4 3.2.7.4.7.3 1.4.8 2.1z"/><path fill-rule="evenodd" clip-rule="evenodd" fill="#70953D" d="M58 68.4l4.6-5.3c-1.2-.2-2.5-.2-3.7.2-1.2.4-2.4 1.3-2.4 2.6-.1 1.1.6 1.9 1.5 2.5z"/><path fill-rule="evenodd" clip-rule="evenodd" fill="#DBB127" d="M56 73.4c-1.4 1.7-2.8 3.1-4.7 4.3l2.3-2.9c.9-.5 1.7-.9 2.4-1.4zm-33.7 4.3c-1.8-1.2-3.2-2.6-4.7-4.3.8.5 1.6 1 2.4 1.4l2.3 2.9zm1.2.7l-3.1-3.9c1.5-1.6 4.2-2.2 6.4-1.8l2.2 4.1c-2-.3-4.1.1-5.5 1.6zm3.9-5.6c1.8.5 4 2.2 3 4.4-.3-.1-.6-.2-.8-.3l-2.2-4.1zm15.3 5.3l-1.4 3c-3 .4-6 .4-9 0l-1.4-3c3.9.5 8 .5 11.8 0zm1.1-1.1c-.2.1-.4.1-.6.2-.9-2 .9-3.7 2.7-4.3L43.8 77zm6.4 1.4c-1.4-1.5-3.6-1.9-5.6-1.6h-.1l2.1-4.1c2.2-.5 5.1 0 6.7 1.7l-3.1 4z"/><path fill-rule="evenodd" clip-rule="evenodd" fill="#B92025" d="M15.7 68.4l-4.6-5.3c1.2-.2 2.5-.2 3.7.2 1.2.4 2.4 1.3 2.4 2.6 0 1.1-.6 1.9-1.5 2.5z"/><path fill-rule="evenodd" clip-rule="evenodd" fill="#9ACA3C" d="M58.3 70.8c.4-.3.7-.7 1-1.1-2.7-1-4.1-3.1-3.2-5 .9-1.8 3.7-2.8 6.5-2.2v-.9c-2.1-.9-4-2-5-3.2-.6-.7-1.1-1.4-1.5-2.1-.3-.2-.5-.4-.8-.6-1.6 1.9-3.3 3.5-5.1 4.8v.1c-.4.8-.9 1.7-1.4 2.5-.2.9-.7 1.8-1.4 2.6l10.9 5.1z"/><path fill-rule="evenodd" clip-rule="evenodd" fill="#ED2224" d="M14.9 57.2c-1 .2-2.1.2-3.1 0-.7 1.8-1 3.5-.8 5.3 2.8-.5 5.6.4 6.5 2.2.9 1.9-.5 4-3.2 5 .4.5.9 1 1.4 1.4l10.7-5.3c-.8-.8-1.4-1.7-1.7-2.7-.1-.2-.2-.3-.3-.5-.8.6-1.9.8-2.9.6-3.5-.4-5.1-2.7-6.4-5.6 0-.1-.1-.2-.2-.4z"/><path fill-rule="evenodd" clip-rule="evenodd" fill="#FFCD05" d="M36.8 77.8c1.9 0 3.9-.1 5.9-.3-1-2.1.4-4.4 3.2-5.2 2.8-.9 6.2-.1 7.8 1.8 1.5-.8 2.8-1.7 4-2.7L47 66.1c-2.2 2.1-5.9 3.5-10.1 3.5-4 0-7.6-1.3-9.8-3.2l-10.7 5.3c1 .9 2.2 1.7 3.6 2.4 1.7-1.8 5-2.6 7.8-1.8 2.9.9 4.2 3.1 3.2 5.2 1.9.3 3.9.4 5.8.3z"/><path fill-rule="evenodd" clip-rule="evenodd" fill="#0795D1" d="M17.6 51.8c9.9 15.1 28.4 15.1 38.3 0-5.7 3.4-12.6 4.7-19.2 4.7-6.4 0-13.4-1.3-19.1-4.7z"/><path fill-rule="evenodd" clip-rule="evenodd" fill="#02527D" d="M17.6 51.8c4.8 7.3 11.5 11 18.4 11.3.4 0 .9 0 1.3-.1-5.8-.6-11.4-3.7-15.7-9.2-1.4-.6-2.7-1.2-4-2z"/><path fill-rule="evenodd" clip-rule="evenodd" fill="#FFF" d="M36.8 1.8c6.4 0 12.4 2.1 17.2 5.7l4.6-.4c2-.3 4.1-.6 6.1-.8 6.2-.4 4.4 1.7 2.3 7.6l-.8 2c-1.1-.8-2.4-1.5-3.7-2-.4-.5-.7-1.1-1.1-1.6.1-.2.3-.3.4-.5 1.9-2.1 4.1-3.6 6.3-4.4-3.9-.3-6.6 2.6-8.6 5.4.1.1.1.2.2.3-1.1-.2-2.1-.3-3.2-.3-9.4 0-17 7.6-17 17s7.6 17 17 17c1.1 0 2.2-.1 3.3-.3-5.3 5.5-13.6 8.2-23 8.2-16 0-28.9-7.9-28.9-23.9 0-6.8 2.3-13.1 6.3-18-1.9-2.8-4.8-5.9-8.7-5.3 2.2.7 4.4 2.2 6.3 4.4.1.2.3.3.4.5-1.5 2-2.7 4.2-3.7 6.5L6.6 14c-2-5.8-3.8-8 2.2-7.6 1.9.1 3.7.4 5.5.6 1.8.3 3.6.4 5.4.5 4.7-3.6 10.7-5.7 17.1-5.7zm19.7 17c-6.1 0-11 4.9-11 11s4.9 11 11 11 11-4.9 11-11-4.9-11-11-11z"/><path fill-rule="evenodd" clip-rule="evenodd" fill="#E8E8E8" d="M26.6 53.5c-11-2.8-18.8-10.3-18.8-22.7 0-2.7.4-5.3 1-7.7 1-3.7 2.8-7.2 5.2-10.2-1.9-2.8-4.8-5.9-8.7-5.3 2.2.7 4.4 2.2 6.3 4.4.1.2.3.3.4.5-1.5 2-2.7 4.2-3.7 6.5l-1.9-4.9c-2-5.8-3.8-8 2.2-7.6 1.9.1 3.7.4 5.5.6 1.8.3 3.6.4 5.4.5.4-.3.8-.6 1.2-.8 2.8-1.8 5.8-3.2 9.2-4-10.3 4.6-17.5 15.5-17.5 28.1 0 11.3 5.7 18.8 14.2 22.6z"/><path fill="#010101" d="M39.9 43.7c.9.1 2.3-.8 3.2-1.5 1.1-.8.9-.3.3.5-.8 1-1.7 2.1-3 2.3-.4.1-.8.1-1.2 0-.5-.1-.9-.2-1.2-.4-.6-.3-1-.4-1.5-.4-.4 0-.9.2-1.5.4-.3.1-.7.3-1.2.4-.4.1-.8.1-1.2 0-1.3-.2-2.2-1.3-3-2.3-.7-.9-.6-1.2.3-.5.9.7 2.2 1.6 3.2 1.5.9-.1 1.7-.3 2.2-.6.5-.3.7-.8.5-1.6v-.3c-1.6-1.6-3.3-1.1-3.9-2.1-.3-.5-.2-1.1.2-1.5 1.3-1.6 7.4-1.6 8.7 0 .4.5.5 1 .2 1.5-.6.9-2.2.5-3.7 2 0 .2 0 .3-.1.4-.2.8 0 1.3.5 1.6.5.3 1.3.5 2.2.6z"/><path fill-rule="evenodd" clip-rule="evenodd" fill="#ED2224" d="M66.3 42.1l1.5 2.9c-.1 0-.2.1-.3.1-1 .5-1.8 1.2-2.4 2l-1.7-3.2c-2.1 1-4.4 1.6-6.9 1.6-8.7 0-15.7-7-15.7-15.7s7-15.7 15.7-15.7 15.7 7 15.7 15.7c0 5-2.3 9.4-5.9 12.3zm-9.8-24.5c6.7 0 12.2 5.5 12.2 12.2 0 6.7-5.5 12.2-12.2 12.2-6.7 0-12.2-5.5-12.2-12.2 0-6.7 5.5-12.2 12.2-12.2z"/><path fill-rule="evenodd" clip-rule="evenodd" fill="#9A1B1F" d="M65.1 47.1l-1.7-3.2c.4-.2 0 0 .5-.2l1.6 2.9c-.2.2-.3.4-.4.5zm-7.8-1.6h-.8c-8.7 0-15.7-7-15.7-15.7s7-15.7 15.7-15.7h.8c-20.8 1.2-21.5 30.1 0 31.4zm0-27.9c6.4.4 11.4 5.7 11.4 12.2 0 6.5-5 11.8-11.4 12.2.3 0 .5.1.8 0 15.7-2.1 14.6-23.2 0-24.4h-.8z"/><path fill-rule="evenodd" clip-rule="evenodd" fill="#FFF" d="M75.2 51.6c1.3 3.8.2 7.9-2.3 9-2.5 1.2-5.7-1-6.9-4.8-1.3-3.8-.2-7.9 2.3-9 2.5-1.2 5.6 1 6.9 4.8zm-14.6-4.3c.6 2.1 1.8 3.1 3.2 3.1-.4 2-.2 4.1.4 6 .6 1.7 1.6 3.4 2.9 4.6l.1.1c-5.3-.6-8.8-3.4-10.3-7.6.8-1.1 1.5-2.3 2.2-3.6l1.1-2.1.4-.5z"/><path fill-rule="evenodd" clip-rule="evenodd" fill="#D2D3D4" d="M69.5 60.4c-1.5-.8-2.8-2.4-3.6-4.6-1.2-3.6-.3-7.5 2-8.9-1.6 2.2-2 5.8-.8 9.3.5 1.8 1.4 3.2 2.4 4.2z"/><path fill-rule="evenodd" clip-rule="evenodd" fill="#010101" d="M56.5 23.4c.4 0 .8 0 1.2.1-.7.3-1.2 1.1-1.2 1.9 0 1.2.9 2.1 2.1 2.1 1.2 0 2.1-.9 2.1-2.1V25c1.3 1.2 2.1 2.9 2.1 4.7 0 3.5-2.9 6.4-6.4 6.4-3.5 0-6.4-2.9-6.4-6.4.1-3.4 3-6.3 6.5-6.3zM25.4 28.3c3 .8 5.2 3.3 5.6 6.2-1.4-2.1-3.5-3.6-6.1-4.3-2.6-.7-5.2-.4-7.5.7 1.9-2.3 5-3.4 8-2.6z"/><path fill-rule="evenodd" clip-rule="evenodd" fill="#0795D1" d="M60.6 47.3c.5 1.6 1.3 2.6 2.2 2.9-.7.2-3.5 5.5-3.2 7.5-1.2-1.2-2-2.6-2.6-4.2.8-1.1 1.5-2.3 2.2-3.6l1.1-2.1.3-.5z"/><path fill-rule="evenodd" clip-rule="evenodd" fill="#FFF" d="M38.8 64.8c2.4 2.1 5.4 1.3 8.1-2.3-2.6 1.3-5.3 2.1-8.1 2.3zM34.8 64.8c-2.4 2.1-5.4 1.3-8.1-2.3 2.6 1.3 5.3 2.1 8.1 2.3zM21.8 61.4c-2.8-.3-4-2.4-4.9-4.5-1.3-2.9-2-5-2.2-6.5 2.4 4.5 5.5 7.9 9 10.3-.2.6-.8.8-1.9.7z"/><path fill-rule="evenodd" clip-rule="evenodd" fill="#0795D1" d="M17.1 57.4c-.1-.2-.2-.3-.2-.5-1.3-2.9-2-5-2.2-6.5 1.3 2.4 2.8 4.6 4.5 6.4h-.1c-.6.3-1.3.5-2 .6z"/><path fill-rule="evenodd" clip-rule="evenodd" fill="#BDBEC0" d="M12.1 12.4c-.8 1.1-1.6 2.3-2.3 3.5-.7-2.9-1.6-5.7-3.9-8.2 2 .8 4.1 2.2 5.8 4.2.2.1.3.3.4.5z"/><path fill="#FFF" d="M90.1 55.6c.9.5 2 1.1 3.2 1.6 1.2.5 2.4.9 3.8 1.3 1.3.3 2.7.5 4.1.5.9 0 1.8-.1 2.7-.2.9-.1 1.8-.4 2.5-.8s1.3-.9 1.8-1.6c.5-.7.7-1.5.7-2.6 0-1.9-.8-3.3-2.3-4.2-1.5-.8-3.8-1.6-6.8-2.2-1.9-.4-3.8-.9-5.6-1.6-1.8-.7-3.4-1.6-4.8-2.7-1.5-1.1-2.6-2.5-3.4-4.1-.8-1.7-1.3-3.7-1.3-6.1s.5-4.5 1.6-6.3c1.1-1.8 2.5-3.3 4.3-4.6 1.8-1.3 3.8-2.2 6.2-2.9 2.3-.6 4.8-1 7.3-1 2.7 0 5.1.2 7.2.6 2.1.4 3.9.9 5.5 1.6 2.9 1.2 4.5 2.8 4.6 4.7 0 1-.3 2.2-1 3.6-.6 1.4-1.3 2.7-2.1 3.9-.7-.5-1.5-1.1-2.5-1.7-1-.6-2.1-1.1-3.3-1.6-1.2-.5-2.5-.9-3.8-1.3-1.3-.3-2.6-.5-4-.5-.7 0-1.5.1-2.3.2-.8.1-1.5.3-2.2.6-.6.3-1.2.7-1.6 1.3-.4.6-.7 1.3-.7 2.3 0 2.3 2.4 3.9 7.3 5 2 .4 4 .9 6 1.6 2 .6 3.7 1.5 5.3 2.7 1.6 1.1 2.8 2.6 3.8 4.3 1 1.7 1.5 3.9 1.5 6.5 0 2.7-.5 5-1.6 7.1-1 2.1-2.5 3.8-4.3 5.2-1.8 1.4-3.9 2.5-6.4 3.2-2.4.7-5.1 1.1-8 1.1-2.9 0-5.4-.2-7.5-.7-2-.4-3.7-1-5.1-1.6-.9-.4-2-1-3.1-1.8s-1.7-1.8-1.7-3.2c0-1.1.3-2.3 1-3.6.7-1.2 1.4-2.5 2.3-3.9 1.1.7 1.9 1.3 2.7 1.9zm42.8-53.5c3.9 0 7.1 3.2 7.1 7.1 0 3.9-3.2 7.1-7.1 7.1-3.9 0-7.1-3.2-7.1-7.1 0-4 3.1-7.1 7.1-7.1zm-6.5 17.4c.2-.1.8-.1 1.7-.3.9-.1 1.9-.2 3-.2s2.1.1 3.2.3c1.1.2 2 .6 2.9 1.2.9.6 1.6 1.4 2.1 2.4s.8 2.4.8 4.1v40.5c-.3.1-.9.2-1.8.3-.9.1-1.9.1-3 .1-1.3 0-2.5-.1-3.6-.4-1.1-.2-2-.7-2.8-1.3-.8-.6-1.4-1.5-1.8-2.6-.4-1.1-.7-2.4-.7-4.1v-40zm20.1-14.9c.5-.1 1-.1 1.5-.2s1-.1 1.5-.2h1.6c1.1 0 2.1.1 3.2.3 1.1.2 2 .6 2.9 1.2.9.6 1.6 1.4 2.1 2.5.5 1 .8 2.4.8 4.1v7h14v10.2h-14V51c0 4.7 1.9 7 5.7 7 .9 0 1.8-.2 2.7-.5.8-.3 1.6-.6 2.3-1 .7-.4 1.3-.8 1.8-1.2.5-.4.9-.7 1.1-.9 1 1.5 1.8 2.7 2.3 3.8.5 1.1.8 2.1.8 3 0 .9-.3 1.7-1.1 2.6-.7.8-1.7 1.6-3 2.3-1.3.7-2.8 1.3-4.6 1.7-1.8.4-3.8.7-5.9.7-4.1 0-7.4-.8-9.7-2.4-2.3-1.6-3.9-3.7-4.9-6.3-.5-1.3-.8-2.7-.9-4.2-.1-1.5-.2-2.9-.2-4.4V4.6zm45.3 41c.3 3.7 1.4 6.7 3.4 9.2 2 2.4 5.2 3.7 9.5 3.7 1.7 0 3.1-.2 4.4-.6 1.3-.4 2.4-.8 3.4-1.4 1-.5 1.9-1.1 2.6-1.8.7-.6 1.4-1.2 2-1.8.8 1 1.6 2.3 2.5 3.9.9 1.6 1.3 2.9 1.3 3.9 0 1.5-.8 2.8-2.5 4-1.4 1.1-3.4 2-6 2.8-2.6.8-5.6 1.2-9.1 1.2-3.1 0-6.2-.4-9.3-1.2-3-.8-5.7-2.2-8.1-4.2-2.4-2-4.3-4.7-5.8-8.1-1.5-3.4-2.2-7.6-2.2-12.8 0-4.2.7-7.8 2-10.9 1.3-3 3-5.6 5.2-7.6s4.6-3.5 7.4-4.4c2.7-.9 5.5-1.4 8.4-1.4 3.7 0 6.9.6 9.5 1.8 2.6 1.2 4.7 2.7 6.4 4.7 1.6 2 2.8 4.2 3.6 6.8.7 2.5 1.1 5.2 1.1 8v1.4c0 .5 0 1.1-.1 1.7 0 .6-.1 1.2-.1 1.8 0 .6-.1 1-.2 1.4h-29.3v-.1zm17.5-7.5c0-3.2-.6-5.8-1.9-7.8-1.2-2-3.5-3-6.7-3-2.7 0-4.9 1-6.6 2.9-1.6 1.9-2.5 4.6-2.5 8h17.7v-.1zM231.4 55.6c.9.5 2 1.1 3.2 1.6 1.2.5 2.4.9 3.8 1.3 1.3.3 2.7.5 4.1.5.9 0 1.8-.1 2.7-.2.9-.1 1.8-.4 2.5-.8s1.3-.9 1.8-1.6c.5-.7.7-1.5.7-2.6 0-1.9-.8-3.3-2.3-4.2-1.5-.8-3.8-1.6-6.8-2.2-1.9-.4-3.8-.9-5.6-1.6-1.8-.7-3.4-1.6-4.8-2.7s-2.5-2.5-3.4-4.2c-.8-1.7-1.3-3.7-1.3-6.1s.5-4.5 1.6-6.3c1.1-1.8 2.5-3.3 4.3-4.6 1.8-1.3 3.8-2.2 6.2-2.9 2.3-.6 4.8-1 7.3-1 2.7 0 5.1.2 7.2.6 2.1.4 3.9.9 5.5 1.6 2.9 1.2 4.5 2.8 4.6 4.7 0 1-.3 2.2-1 3.6-.6 1.4-1.3 2.7-2.1 3.9-.7-.5-1.5-1.1-2.5-1.7-1-.6-2.1-1.1-3.3-1.6-1.2-.5-2.5-.9-3.8-1.3-1.3-.3-2.6-.5-4-.5-.7 0-1.5.1-2.3.2-.8.1-1.5.3-2.2.6-.6.3-1.2.7-1.6 1.3-.4.6-.7 1.3-.7 2.3 0 2.3 2.4 3.9 7.3 5 2 .4 4 .9 6 1.6 2 .6 3.7 1.5 5.3 2.7 1.6 1.1 2.8 2.6 3.8 4.3 1 1.7 1.5 3.9 1.5 6.5 0 2.7-.5 5-1.6 7.1-1 2.1-2.5 3.8-4.3 5.2-1.8 1.4-3.9 2.5-6.4 3.2-2.4.7-5.1 1.1-8 1.1-2.9 0-5.4-.2-7.5-.7-2-.4-3.7-1-5.1-1.6-.9-.4-2-1-3.1-1.8s-1.7-1.8-1.7-3.2c0-1.1.3-2.3 1-3.6.7-1.2 1.4-2.5 2.3-3.9 1.1.8 1.9 1.4 2.7 2zm36.5-36.1c.3-.1.7-.1 1.2-.2.4-.1.9-.1 1.4-.1.5 0 1.2-.1 1.9-.1 2.2 0 4.1.4 5.6 1.1 1.5.7 2.5 2 2.9 3.7 1.1-1.3 2.7-2.6 5-3.9 2.3-1.3 5.1-2 8.6-2 2.5 0 4.8.4 7.1 1.3 2.2.8 4.2 2.2 6 4.1 1.7 1.9 3.1 4.3 4.2 7.4 1 3.1 1.6 6.9 1.6 11.3 0 5.2-.6 9.5-1.8 12.9-1.2 3.4-2.8 6-4.7 8-1.9 2-4 3.4-6.4 4.2-2.3.8-4.7 1.2-7 1.2-1.9 0-3.6-.2-5.1-.7s-2.7-.9-3.7-1.5c-1-.5-1.8-1.1-2.3-1.6-.5-.5-.9-.9-1-1.1v15.2h-13.5V19.5zm13.6 35.2c.5.5 1.5 1.2 2.9 1.9s3 1.1 4.8 1.1c3.4 0 5.9-1.3 7.5-4 1.6-2.7 2.4-6.4 2.4-11.2 0-2-.2-3.9-.5-5.6-.3-1.7-.9-3.2-1.7-4.5-.8-1.3-1.8-2.3-3.1-3-1.3-.7-2.9-1.1-4.8-1.1-2.8 0-4.8.5-5.9 1.6-1.1 1.1-1.7 2.2-1.7 3.5v21.3h.1zm50.3-9.1c.3 3.7 1.4 6.7 3.4 9.2 2 2.4 5.2 3.7 9.5 3.7 1.7 0 3.1-.2 4.4-.6 1.3-.4 2.4-.8 3.4-1.4 1-.5 1.9-1.1 2.6-1.8.7-.6 1.4-1.2 2-1.8.8 1 1.6 2.3 2.5 3.9.9 1.6 1.3 2.9 1.3 3.9 0 1.5-.8 2.8-2.5 4-1.4 1.1-3.4 2-6 2.8-2.6.8-5.6 1.2-9.1 1.2-3.1 0-6.2-.4-9.3-1.2-3-.8-5.8-2.2-8.1-4.2-2.4-2-4.3-4.7-5.8-8.1-1.5-3.4-2.2-7.6-2.2-12.8 0-4.2.7-7.8 2-10.9 1.3-3 3-5.6 5.2-7.6s4.6-3.5 7.4-4.4c2.7-.9 5.5-1.4 8.4-1.4 3.7 0 6.9.6 9.5 1.8 2.6 1.2 4.7 2.7 6.4 4.7 1.6 2 2.8 4.2 3.6 6.8.7 2.5 1.1 5.2 1.1 8v1.4c0 .5 0 1.1-.1 1.7 0 .6-.1 1.2-.1 1.8 0 .6-.1 1-.2 1.4h-29.3v-.1zm17.5-7.5c0-3.2-.6-5.8-1.9-7.8-1.2-2-3.5-3-6.7-3-2.7 0-4.9 1-6.6 2.9-1.6 1.9-2.5 4.6-2.5 8h17.7v-.1zm30.1 7.5c.3 3.7 1.4 6.7 3.4 9.2 2 2.4 5.2 3.7 9.5 3.7 1.7 0 3.1-.2 4.4-.6 1.3-.4 2.4-.8 3.4-1.4 1-.5 1.9-1.1 2.6-1.8.7-.6 1.4-1.2 2-1.8.8 1 1.6 2.3 2.5 3.9.9 1.6 1.3 2.9 1.3 3.9 0 1.5-.8 2.8-2.5 4-1.4 1.1-3.4 2-6 2.8-2.6.8-5.6 1.2-9.1 1.2-3.1 0-6.2-.4-9.3-1.2-3-.8-5.8-2.2-8.1-4.2-2.4-2-4.3-4.7-5.8-8.1-1.5-3.4-2.2-7.6-2.2-12.8 0-4.2.7-7.8 2-10.9 1.3-3 3-5.6 5.2-7.6s4.6-3.5 7.4-4.4c2.7-.9 5.5-1.4 8.4-1.4 3.7 0 6.9.6 9.5 1.8 2.6 1.2 4.7 2.7 6.4 4.7 1.6 2 2.8 4.2 3.6 6.8.7 2.5 1.1 5.2 1.1 8v1.4c0 .5 0 1.1-.1 1.7 0 .6-.1 1.2-.1 1.8 0 .6-.1 1-.2 1.4h-29.3v-.1zm17.4-7.5c0-3.2-.6-5.8-1.9-7.8-1.2-2-3.5-3-6.7-3-2.7 0-4.9 1-6.6 2.9-1.6 1.9-2.5 4.6-2.5 8h17.7v-.1zm49-6.7c-.5-.5-1.5-1.2-2.8-1.9-1.3-.7-2.8-1.1-4.6-1.1-3.5 0-6.1 1.3-7.7 3.8-1.7 2.5-2.5 6.2-2.5 10.9 0 2.3.2 4.5.5 6.4.3 1.9.9 3.5 1.7 4.9.8 1.3 1.9 2.4 3.2 3.1 1.3.7 3 1.1 5.1 1.1 1.9 0 3.6-.4 5-1.2 1.4-.8 2.1-1.9 2.1-3.4V31.4zm4.7 35.5c-1.1 0-2-.4-2.7-1.2-.7-.8-1-1.8-1-3-.9 1.1-2.5 2.3-4.8 3.5-2.2 1.2-5.1 1.8-8.6 1.8-2.5 0-4.9-.4-7.2-1.2-2.3-.8-4.4-2.1-6.2-4-1.8-1.9-3.2-4.4-4.3-7.5-1.1-3.1-1.6-7-1.6-11.6s.6-8.6 1.7-11.8c1.1-3.3 2.6-5.9 4.4-8 1.8-2 3.9-3.5 6.3-4.5s4.9-1.5 7.5-1.5c3 0 5.5.5 7.4 1.6 1.9 1 3.4 2.1 4.3 3.1V4.2c.5-.1 1.2-.2 2.1-.3.9-.1 1.8-.1 2.5-.1 1.1 0 2.2.1 3.3.3 1.1.2 2.1.6 3 1.2.9.6 1.6 1.4 2.1 2.5.5 1 .8 2.4.8 4.1V67h-9v-.1zM467.5 66.6c-1.3-1.4-2-3.2-2-5.3 0-2.1.7-3.8 2.1-5.2 1.4-1.4 3.1-2 5.2-2s3.9.7 5.2 2c1.4 1.4 2.1 3.1 2.1 5.2s-.7 3.9-2 5.3-3.1 2.1-5.3 2.1c-2.1-.1-3.9-.8-5.3-2.1zm18-46.2c.2-.1.7-.1 1.6-.2.9-.1 1.9-.1 2.9-.1 1.1 0 2.1.1 3.2.3 1.1.2 2 .6 2.9 1.1.9.6 1.5 1.4 2.1 2.4.5 1 .8 2.4.8 4v39.9c-.3.1-.9.2-1.8.3-.9.1-1.9.1-3 .1-1.3 0-2.5-.1-3.6-.3-1.1-.2-2-.7-2.7-1.3-.8-.6-1.4-1.5-1.8-2.5-.4-1.1-.6-2.4-.6-4.1V20.4zm0-10.8c0-2.1.7-3.8 2.1-5.2 1.4-1.4 3.1-2 5.1-2 2 0 3.7.7 5.1 2 1.4 1.4 2.1 3.1 2.1 5.2s-.7 3.8-2.1 5.1c-1.4 1.3-3.1 2-5.1 2-2 0-3.8-.7-5.1-2-1.4-1.2-2.1-3-2.1-5.1zM510 61.2c-1.8-2.3-3.2-5-4.1-8-.9-3-1.3-6.1-1.3-9.4 0-3.4.5-6.5 1.5-9.5s2.5-5.6 4.4-7.9c1.9-2.3 4.4-4.1 7.4-5.4 3-1.3 6.4-2 10.4-2 4.2 0 7.7.7 10.6 2 2.9 1.3 5.3 3.1 7.1 5.3 1.8 2.2 3.1 4.8 4 7.8.8 3 1.2 6.1 1.2 9.4 0 3.3-.4 6.5-1.2 9.5-.8 3-2.2 5.7-4.1 8-1.9 2.3-4.3 4.2-7.3 5.5-3 1.4-6.6 2.1-10.8 2.1s-7.8-.7-10.7-2c-2.8-1.3-5.2-3.1-7.1-5.4zm13.1-3.9c1.3.9 2.9 1.3 4.8 1.3 2 0 3.6-.4 4.9-1.3 1.3-.9 2.3-2 3-3.4.7-1.4 1.2-3 1.5-4.8.3-1.8.4-3.6.4-5.4 0-1.8-.1-3.5-.4-5.3-.3-1.7-.8-3.3-1.5-4.6-.7-1.3-1.7-2.4-3-3.2-1.3-.8-2.8-1.2-4.7-1.2-1.9 0-3.5.4-4.8 1.3-1.3.9-2.3 2-3.1 3.3-.8 1.4-1.3 2.9-1.6 4.6-.3 1.7-.5 3.5-.5 5.2 0 1.8.1 3.6.4 5.3.3 1.8.8 3.4 1.5 4.8.8 1.4 1.8 2.5 3.1 3.4z"/><text transform="translate(556.396 68.639)" fill="#FFF" font-family="'Verdana-Bold'" font-size="18">beta</text></svg>