<?xml version="1.0" encoding="utf-8"?>
<!-- Generator: Adobe Illustrator 18.1.1, SVG Export Plug-In . SVG Version: 6.00 Build 0)  -->
<svg version="1.1" id="Layer_1" xmlns="http://www.w3.org/2000/svg" xmlns:xlink="http://www.w3.org/1999/xlink" x="0px" y="0px"
	 viewBox="0 0 144.1 134.4" enable-background="new 0 0 144.1 134.4" xml:space="preserve">
<path fill-rule="evenodd" clip-rule="evenodd" fill="#010101" d="M113.7,25l1.4-3.7l0,0c0.8-2.2,1.7-4.3,2.4-6.5
	c0.6-1.8,1-3.8,0-5.5c-1.1-1.7-3.1-2.2-5-2.2c-2.6-0.1-5.7,0.3-8.3,0.6l-8.8,1.2C87.8,3.3,78.5,0,68.3,0C58.2,0,48.8,3.3,41.2,8.9
	l-8.8-1.2c-2.6-0.4-5.6-0.8-8.3-0.6c-1.9,0.1-3.9,0.5-5,2.2c-1,1.7-0.6,3.7,0,5.5c0.7,2.2,1.6,4.3,2.4,6.5l0,0l3.7,9.6
	c-1.5,4.6-2.4,9.4-2.4,14.5c0,8.9,2.6,17.2,8.5,23.9c0.6,0.7,1.2,1.3,1.8,1.9l0,0.1c-2.9,0.3-5.9-1-7.6-3.6c-0.2-0.3-0.3-1-0.5-1.4
	c-0.2-0.6-0.4-1.2-0.8-1.8c-1.7-2.6-5.2-3.4-7.8-1.7c-3,1.9-3,5.1-1.6,8.1c0.3,0.7,0.7,1.4,1.1,2c4.1,6.3,11.5,9,18.4,7.5
	c0.3,0.8,0.6,1.6,0.9,2.3c-1.2,0.2-2.4,0.2-3.5,0l-1.4-0.3l-0.6,1.4c-1.1,2.8-1.6,5.7-1.3,8.7l0.1,1.3l6.4,7.4
	c-0.1,0-0.2,0.1-0.3,0.1l-2.6,0.9l1.8,2c0.2,0.2,0.4,0.5,0.7,0.7l6.4,7.1l0.2,0.2l0.2,0.2l0.2,0.2l0.2,0.2l0.2,0.2l0.2,0.2l0.2,0.2
	l0.2,0.2l0.2,0.2l0.2,0.2l0.2,0.2l0.2,0.2l0.2,0.2l0.2,0.2l0.2,0.2l0.2,0.2l0.2,0.2l0.2,0.2l0.2,0.2l0.2,0.2l0.2,0.2l0.2,0.2
	l0.2,0.2l0.2,0.2l0.2,0.2l0.2,0.2l0.3,0.2l0.3,0.2l0.3,0.1l0.3,0.1l0.3,0.2l0.8,0.5L49,118l1.1-1.2l0.1-0.1l0.2-0.1l0.2-0.1l0.2-0.1
	l0.2-0.1l0.2-0.1l0.2-0.1l0.2-0.1l0.2-0.1l0.2-0.1l0.2-0.1l0.2-0.1l0.2-0.1l0.2-0.1l0.3-0.1l0.3-0.1l0.3,0l0.3,0l0.3,0l0.3,0l0.3,0
	l0.3,0l0.3,0l0.3,0l0.3,0l0.3,0l0.3,0l0.3,0l0.3,0.1l0.3,0.1l0.3,0.1l0.1,0l3,6.1l1.3,0.2l0.3,0l0.4,0l0.3,0l0.3,0l0.3,0l0.3,0
	l0.4,0l0.4,0l0.4,0l0.3,0l0.3,0l0.4,0l0.4,0l0.3,0l0.4,0l0.3,0l0.4,0l0.4,0l0.2,0l0.2,0l0.3,0l0.4,0l0.4,0l0.3,0l0.4,0l0.3,0l0.4,0
	l0.4,0l0.3,0l0.3,0l0.4,0l0.3,0l0.3,0l0.3,0l0.4,0l0.3,0l0.4,0l0.3,0l1.3-0.2l2.9-5.9c0.2-0.2,0.5-0.3,0.7-0.4l0.3-0.1l0.3,0l0.3,0
	l0.3,0l0.3,0l0.3,0l0.3,0l0.3,0l0.3,0l0.3,0l0.3,0l0.3,0l0.3,0l0.3,0.1l0.3,0.1l0.2,0.1l0.2,0.1l0.2,0.1l0.2,0.1l0.2,0.1l0.2,0.1
	l0.2,0.1l0.2,0.1l0.2,0.1l0.2,0.1l0.2,0.1l0.2,0.1l0.2,0.1l0.1,0.1l1.1,1.2l0.3-0.2l0.8-0.4l0.4-0.2l0.3-0.1l0.3-0.1l0.3-0.2
	l0.3-0.2l0.2-0.2l0.2-0.2l0.2-0.2l0.2-0.2l0.2-0.2l0.2-0.2l0.2-0.2l0.2-0.2l0.2-0.2l0.2-0.2l0.2-0.2l0.2-0.2l0.2-0.2l0.2-0.2
	l0.2-0.2l0.2-0.2l0.2-0.2l0.2-0.2l0.2-0.2l0.2-0.2l0.2-0.2l0.2-0.2l0.2-0.2l0.2-0.2l0.2-0.2l0.2-0.2l6.4-7.1
	c0.2-0.2,0.5-0.5,0.7-0.7l1.8-2l-2.6-0.9c-0.1,0-0.2-0.1-0.3-0.1l6.4-7.4l0.1-1.3c0-0.3,0-0.6,0.1-0.9c4.9,1.6,10.4,2.2,14.2,0.6
	c0.1-0.1,0.2-0.1,0.3-0.2c2.8-1.3,4.5-4,5.2-7c0.8-3.2,0.5-6.6-0.5-9.7c-0.9-2.6-2.3-5-4.3-6.8c-1.9-1.7-4.3-2.7-6.8-2.6
	c-0.2,0-0.4,0-0.6,0.1l-1.7-3.3c5.3-4.7,8.3-11.5,8.3-18.6C122.5,36.4,119.1,29.6,113.7,25L113.7,25z M105.9,68.7
	c0.3-0.4,0.7-0.8,1-1.3l2,4c-0.4,0.2-0.7,0.4-1.1,0.3C106.9,71.5,106.2,69.7,105.9,68.7L105.9,68.7z"/>
<path fill-rule="evenodd" clip-rule="evenodd" fill="#FFFFFF" d="M23.7,69c2.1,3.2,5.6,4.9,9.2,4.6c0,1.5,0.4,3.1,0.8,4.7
	c-6,1.3-12.3-1.1-15.8-6.5c-1.3-2.1-2.9-5.2-0.2-7c1.6-1,3.7-0.6,4.8,1C23.1,66.8,23,67.9,23.7,69L23.7,69z"/>
<path fill-rule="evenodd" clip-rule="evenodd" fill="#DBB127" d="M99.6,101l6.8-7.8l0,0c-1.8-0.3-3.7-0.3-5.4,0.3
	c-1.7,0.6-3.6,1.9-3.6,3.9C97.3,98.9,98.3,100.1,99.6,101L99.6,101z M37.2,101l-6.8-7.8l0,0c1.8-0.3,3.7-0.3,5.4,0.3
	c1.7,0.6,3.6,1.9,3.6,3.9C39.4,98.9,38.4,100.1,37.2,101L37.2,101z M96.7,108.4c-2.1,2.5-4.1,4.6-6.9,6.4l3.4-4.3l0,0
	C94.4,109.8,95.6,109.1,96.7,108.4L96.7,108.4z M46.9,114.7c-2.7-1.8-4.7-3.9-6.9-6.4c1.1,0.8,2.3,1.4,3.5,2.1L46.9,114.7
	L46.9,114.7z M48.7,115.8L48.7,115.8l-4.6-5.8c2.2-2.4,6.1-3.2,9.4-2.6l3.3,6.1l-0.1,0C53.8,113,50.7,113.6,48.7,115.8L48.7,115.8z
	 M54.5,107.5c2.6,0.8,6,3.3,4.5,6.5c-0.4-0.2-0.8-0.3-1.2-0.4L54.5,107.5L54.5,107.5z M77.1,115.4l-2.1,4.5c-4.4,0.6-8.8,0.6-13.2,0
	l-2.1-4.5C65.3,116.1,71.4,116.1,77.1,115.4L77.1,115.4z M78.6,113.7c-0.3,0.1-0.6,0.2-0.8,0.3c-1.3-3,1.3-5.4,3.9-6.4L78.6,113.7
	L78.6,113.7z M88.1,115.8c-2.1-2.2-5.4-2.8-8.3-2.3l-0.1,0l3.1-6.1c3.3-0.7,7.6,0,9.9,2.5L88.1,115.8L88.1,115.8z"/>
<path fill-rule="evenodd" clip-rule="evenodd" fill="#FFCD05" d="M68.4,115c2.9,0,5.8-0.1,8.6-0.5c-1.5-3.1,0.6-6.5,4.8-7.7
	c4.2-1.3,9.1-0.1,11.6,2.6c2.2-1.2,4.2-2.6,5.8-4l0,0l0.8-0.7l0,0c0.5-0.5,1.1-1,1.5-1.6c-4-1.4-6.1-4.6-4.8-7.4
	c1.3-2.7,5.5-4.1,9.7-3.3c0-0.5,0.1-0.9,0.1-1.4c-3.2-1.3-5.9-3-7.4-4.8c-0.8-1-1.6-2-2.2-3.1c-0.4-0.3-0.8-0.5-1.1-0.8
	c-2.3,2.8-4.8,5.1-7.5,7.1l0,0.1c-0.6,1.2-1.3,2.5-2.1,3.6c-0.3,1.3-1,2.5-1.9,3.6L83,97.9c-3.3,3-8.6,4.9-14.7,4.9
	c-5.7,0-10.7-1.7-14-4.4l0,0L52.8,97c-1-1.1-1.8-2.4-2.2-3.7c-0.2-0.3-0.3-0.5-0.5-0.8c-1.2,0.9-2.8,1.1-4.3,0.9
	c-5.1-0.5-7.5-4-9.5-8.2c-0.1-0.2-0.2-0.5-0.3-0.7c-1.5,0.3-3.1,0.3-4.5,0c-1.1,2.6-1.5,5.2-1.2,7.8c4.1-0.8,8.3,0.6,9.7,3.3
	c1.4,2.8-0.7,6-4.8,7.4c0.6,0.6,1.2,1.2,1.8,1.8l0,0c0.1,0.1,0.2,0.2,0.3,0.2l0,0l0.8,0.7l0,0c1.5,1.3,3.3,2.5,5.3,3.5
	c2.5-2.7,7.4-3.9,11.6-2.6c4.2,1.3,6.3,4.6,4.8,7.7C62.6,114.9,65.5,115,68.4,115L68.4,115z"/>
<path fill-rule="evenodd" clip-rule="evenodd" fill="#0795D1" d="M40,76.5c14.6,22.3,42,22.3,56.6,0c-8.4,5-18.6,6.9-28.3,6.9
	C58.7,83.4,48.4,81.5,40,76.5L40,76.5z"/>
<path fill-rule="evenodd" clip-rule="evenodd" fill="#02527D" d="M40,76.5c7,10.7,17.1,16.3,27.2,16.7c0.6,0,1.3-0.1,1.9-0.1
	c-8.5-0.9-16.8-5.4-23.2-13.7C43.8,78.6,41.9,77.6,40,76.5L40,76.5z"/>
<path fill-rule="evenodd" clip-rule="evenodd" fill="#FFFFFF" d="M68.3,2.7c9.5,0,18.3,3.1,25.4,8.4l6.8-0.6c3-0.4,6-0.9,9.1-1.1
	c9.1-0.6,6.5,2.6,3.4,11.2l-1.1,3c-1.7-1.2-3.5-2.2-5.5-2.9c-0.5-0.8-1.1-1.6-1.7-2.4c0.2-0.2,0.4-0.5,0.6-0.7
	c2.8-3.2,6.1-5.4,9.2-6.4c-5.8-0.5-9.8,3.8-12.7,7.9c0.1,0.1,0.2,0.3,0.3,0.4c-1.6-0.3-3.2-0.5-4.8-0.5C83.6,19,72.4,30.2,72.4,44
	c0,13.8,11.2,25.1,25.1,25.1c1.6,0,3.3-0.2,4.9-0.5c-7.8,8.1-20.1,12.1-34,12.1c-23.6,0-42.8-11.6-42.8-35.3c0-10,3.5-19.3,9.3-26.6
	c-2.7-4.2-7.1-8.7-12.8-7.8c3.2,1.1,6.5,3.3,9.2,6.4c0.2,0.2,0.4,0.5,0.6,0.7c-2.2,2.9-4,6.1-5.5,9.6l-2.8-7.3
	C20.6,12,18,8.8,26.8,9.3c2.7,0.2,5.5,0.6,8.2,1c2.7,0.4,5.3,0.6,7.9,0.8C50,5.8,58.8,2.7,68.3,2.7L68.3,2.7z M97.4,27.8
	c-9,0-16.2,7.3-16.2,16.2s7.3,16.2,16.2,16.2c9,0,16.2-7.3,16.2-16.2S106.4,27.8,97.4,27.8L97.4,27.8z"/>
<path fill-rule="evenodd" clip-rule="evenodd" fill="#E8E8E8" d="M53.3,79c-16.2-4.1-27.7-15.2-27.7-33.5c0-4,0.5-7.8,1.5-11.4l0,0
	l0.1-0.3l0.1-0.2c0.1-0.2,0.1-0.4,0.2-0.6l0.1-0.3c0.1-0.2,0.1-0.3,0.2-0.5l0.1-0.4l0.1-0.3c0.1-0.2,0.1-0.4,0.2-0.5l0.1-0.3
	c0.1-0.2,0.1-0.3,0.2-0.5c0.1-0.1,0.1-0.3,0.2-0.4c0.1-0.2,0.1-0.3,0.2-0.5l0.1-0.3l0.2-0.4c0.1-0.1,0.1-0.3,0.2-0.4l0.2-0.4
	c0.1-0.2,0.1-0.3,0.2-0.5l0.1-0.2c0.1-0.2,0.2-0.4,0.3-0.6l0.1-0.2c0.1-0.2,0.2-0.4,0.3-0.6l0.1-0.2c0.1-0.1,0.2-0.3,0.2-0.4
	c0.1-0.2,0.2-0.3,0.3-0.5l0.2-0.4l0.2-0.3c0.1-0.1,0.2-0.3,0.3-0.4l0.2-0.3c0.1-0.1,0.2-0.3,0.3-0.4l0.2-0.3
	c0.1-0.2,0.2-0.3,0.3-0.5c0.1-0.1,0.2-0.2,0.2-0.4l0.3-0.4l0.2-0.3c0.1-0.2,0.2-0.3,0.3-0.5l0.2-0.2c0.1-0.2,0.3-0.3,0.4-0.5
	l0.2-0.2c0.1-0.2,0.3-0.4,0.4-0.5l0,0c-2.7-4.2-7.1-8.7-12.8-7.8c3.2,1.1,6.5,3.3,9.2,6.4c0.2,0.2,0.4,0.5,0.6,0.7
	c-2.2,2.9-4,6.1-5.5,9.6l-2.8-7.3C20.6,12,18,8.8,26.8,9.3c2.7,0.2,5.5,0.6,8.2,1c2.7,0.4,5.3,0.6,7.9,0.8c0.6-0.4,1.1-0.8,1.7-1.2
	l0,0c4.1-2.7,8.6-4.7,13.5-5.9c-15.2,7-25.9,23-25.9,41.8C32.3,62.4,40.7,73.4,53.3,79L53.3,79z"/>
<path fill="#010101" d="M72.9,64.5c1.4,0.2,3.3-1.2,4.7-2.2c1.6-1.1,1.4-0.4,0.5,0.8c-1.2,1.5-2.5,3.1-4.5,3.4
	c-0.6,0.1-1.2,0.1-1.8,0c-0.7-0.1-1.3-0.3-1.7-0.6c-0.8-0.4-1.5-0.7-2.1-0.7c-0.6,0-1.3,0.2-2.1,0.7c-0.4,0.2-1,0.4-1.7,0.6
	c-0.5,0.1-1.1,0.1-1.8,0c-2-0.3-3.3-1.9-4.5-3.4c-1.1-1.3-0.9-1.8,0.5-0.8c1.3,1,3.3,2.4,4.7,2.2c1.4-0.2,2.5-0.4,3.3-0.9
	c0.7-0.5,1-1.2,0.8-2.4c0-0.1,0-0.3-0.1-0.4c-2.4-2.4-4.9-1.7-5.7-3.1c-0.5-0.8-0.3-1.6,0.3-2.3c1.9-2.3,10.9-2.3,12.8,0
	c0.6,0.7,0.8,1.5,0.3,2.3c-0.8,1.4-3.2,0.8-5.5,2.9c0,0.2-0.1,0.4-0.1,0.6c-0.2,1.2,0.1,1.9,0.7,2.4c0,0,0,0,0,0
	C70.4,64.1,71.5,64.4,72.9,64.5L72.9,64.5z"/>
<path fill-rule="evenodd" clip-rule="evenodd" fill="#ED2224" d="M111.9,62.2l2.2,4.3c-0.1,0.1-0.3,0.1-0.4,0.2
	c-1.5,0.7-2.6,1.7-3.5,3l-2.4-4.8c-3.1,1.5-6.6,2.4-10.2,2.4c-12.8,0-23.2-10.4-23.2-23.2c0-12.8,10.4-23.2,23.2-23.2
	c12.8,0,23.2,10.4,23.2,23.2C120.6,51.4,117.2,58,111.9,62.2L111.9,62.2z M97.4,26c10,0,18.1,8.1,18.1,18.1c0,10-8.1,18.1-18.1,18.1
	c-10,0-18.1-8.1-18.1-18.1C79.4,34.1,87.5,26,97.4,26L97.4,26z"/>
<path fill-rule="evenodd" clip-rule="evenodd" fill="#9A1B1F" d="M110.1,69.6l-2.4-4.8c0.7-0.3,0.1,0,0.7-0.3l2.3,4.3
	C110.5,69.2,110.3,69.4,110.1,69.6L110.1,69.6z M98.6,67.2c-0.4,0-0.8,0-1.2,0c-12.8,0-23.2-10.4-23.2-23.2
	c0-12.8,10.4-23.2,23.2-23.2c0.4,0,0.8,0,1.2,0C67.9,22.7,66.8,65.2,98.6,67.2L98.6,67.2z M98.6,26c9.4,0.6,16.9,8.4,16.9,18
	c0,9.6-7.5,17.4-16.9,18c0.4,0,0.8,0.1,1.2,0c23.2-3.1,21.6-34.2,0-36.1C99.4,25.9,99,26,98.6,26L98.6,26z"/>
<path fill-rule="evenodd" clip-rule="evenodd" fill="#FFFFFF" d="M125,76.2c1.9,5.6,0.4,11.6-3.4,13.3c-3.8,1.7-8.4-1.4-10.2-7.1
	c-1.9-5.6-0.4-11.6,3.4-13.3C118.5,67.4,123.1,70.5,125,76.2L125,76.2z M103.4,69.8c0.9,3,2.7,4.6,4.7,4.6c-0.6,2.9-0.3,6.1,0.7,8.9
	c0.9,2.6,2.3,5,4.3,6.8c0.1,0.1,0.1,0.1,0.2,0.2c-7.8-0.9-13-5-15.2-11.2c1.2-1.7,2.2-3.4,3.2-5.3l1.6-3L103.4,69.8L103.4,69.8z"/>
<path fill-rule="evenodd" clip-rule="evenodd" fill="#D2D3D4" d="M116.6,89.3c-2.2-1.1-4.2-3.6-5.3-6.8c-1.8-5.4-0.5-11.1,2.9-13.1
	c-2.3,3.3-2.9,8.6-1.2,13.8C113.9,85.6,115.1,87.7,116.6,89.3L116.6,89.3z"/>
<path fill-rule="evenodd" clip-rule="evenodd" fill="#010101" d="M97.4,34.6c0.6,0,1.2,0.1,1.8,0.2c-1,0.5-1.7,1.6-1.7,2.8
	c0,1.7,1.4,3.1,3.1,3.1s3.1-1.4,3.1-3.1c0-0.2,0-0.4-0.1-0.6c1.9,1.7,3.1,4.2,3.1,7c0,5.2-4.2,9.4-9.4,9.4c-5.2,0-9.4-4.2-9.4-9.4
	C88,38.8,92.2,34.6,97.4,34.6L97.4,34.6z"/>
<path fill-rule="evenodd" clip-rule="evenodd" fill="#010101" d="M51.5,41.8c4.5,1.2,7.6,4.9,8.3,9.2c-2.1-3-5.2-5.4-9.1-6.4
	c-3.8-1-7.7-0.6-11.1,1C42.4,42.2,47,40.6,51.5,41.8L51.5,41.8z"/>
<path fill-rule="evenodd" clip-rule="evenodd" fill="#0795D1" d="M103.4,69.8c0.7,2.3,1.9,3.8,3.3,4.3c-1.1,0.2-5.1,8.1-4.8,11.1
	c-1.7-1.7-3-3.8-3.8-6.2c1.2-1.7,2.2-3.4,3.2-5.3l1.6-3L103.4,69.8L103.4,69.8z"/>
<path fill-rule="evenodd" clip-rule="evenodd" fill="#FFFFFF" d="M71.3,95.8c3.6,3.1,8,2,12-3.5C79.5,94.3,75.4,95.4,71.3,95.8
	L71.3,95.8z"/>
<path fill-rule="evenodd" clip-rule="evenodd" fill="#FFFFFF" d="M65.3,95.8c-3.6,3.1-8,2-12-3.5C57.2,94.3,61.2,95.4,65.3,95.8
	L65.3,95.8z"/>
<path fill-rule="evenodd" clip-rule="evenodd" fill="#FFFFFF" d="M46.1,90.7c-4.2-0.4-5.9-3.5-7.3-6.7c-2-4.3-2.9-7.4-3.2-9.6
	c3.6,6.6,8.2,11.7,13.3,15.3C48.6,90.5,47.8,90.9,46.1,90.7L46.1,90.7z"/>
<path fill-rule="evenodd" clip-rule="evenodd" fill="#0795D1" d="M39.2,84.8c-0.1-0.2-0.2-0.5-0.4-0.7c-2-4.3-2.9-7.4-3.2-9.6
	c2,3.6,4.2,6.7,6.7,9.4l-0.1,0C41.2,84.3,40.2,84.6,39.2,84.8L39.2,84.8z"/>
<path fill-rule="evenodd" clip-rule="evenodd" fill="#BDBEC0" d="M31.9,18.3c-1.2,1.7-2.4,3.4-3.4,5.2c-1.2-4.3-2.4-8.5-5.8-12.1
	c3,1.1,6,3.2,8.6,6.2C31.5,17.8,31.7,18,31.9,18.3L31.9,18.3z"/>
<path fill-rule="evenodd" clip-rule="evenodd" fill="#010101" d="M17.9,130.7L17.9,130.7l-0.2,0l-0.2,0l-0.2,0l-0.2,0l-0.2,0l-0.2,0
	l-0.2,0l-0.2,0l-0.2,0l-0.2,0l-0.2,0l-0.2,0l-0.2,0l-0.2,0l-0.2,0l-0.2,0l-0.2,0l-0.2,0l-0.6-0.1l-1.4-2.7l0,0l-0.1,0l-0.1,0l-0.1,0
	l-0.1,0l-0.1,0l-0.1,0l-0.1,0l-0.1,0l-0.1,0l-0.1,0l-0.1,0l-0.1,0l-0.1,0l-0.1,0l-0.1,0l-0.1,0l-0.1,0l-0.1,0l-0.1,0l-0.1,0l-0.1,0
	l-0.1,0l-0.1,0l-0.1,0l-0.1,0l-0.1,0.1l-0.1,0.1l-0.1,0.1l-0.1,0.1l-0.1,0.1l-0.1,0.1l-0.5,0.5l-0.1-0.1l-0.4-0.2l-0.2-0.1l-0.1-0.1
	l-0.1-0.1l-0.1-0.1l-0.1-0.1L8,128.2l-0.1-0.1L7.8,128l-0.1-0.1l-0.1-0.1l-0.1-0.1l-0.1-0.1l-0.1-0.1l-0.1-0.1l-0.1-0.1L7,127.4
	l-0.1-0.1l-0.1-0.1l-0.1-0.1l-0.1-0.1L6.5,127L6.4,127l-0.1-0.1l-0.1-0.1l-0.1-0.1L6,126.6l-0.1-0.1l-0.1-0.1l-0.1-0.1l-0.1-0.1
	l-0.1-0.1L2.7,123c-0.1-0.1-0.2-0.2-0.3-0.3l-0.8-0.9l1.2-0.4c0,0,0.1,0,0.1-0.1L0.1,118L0,117.4c-0.1-1.3,0.1-2.6,0.6-3.9l0.2-0.6
	l0.6,0.1c1,0.2,2.5,0,3.4-0.7l-1.5-2.8l0.8-0.7c1.2-1,2.6-1.8,4.1-2.4l0.6-0.2l0.4,0.5c0.3,0.4,0.9,0.6,1.4,0.7
	c0.7,0.2,1.5,0.1,2.2-0.1c0.5-0.1,1-0.4,1.4-0.7c0.7-0.6,0.4-1.2,0.1-1.9l0.9-0.1c0.9-0.1,1.8-0.2,2.7-0.2h0h0
	c0.9,0,1.8,0.1,2.7,0.2l0.8,0.1c-0.3,0.7-0.5,1.2,0.2,1.9c0.4,0.3,0.9,0.6,1.4,0.7c0.7,0.2,1.5,0.2,2.2,0.1c0.5-0.1,1.1-0.3,1.4-0.7
	l0.4-0.5l0.6,0.2c1.4,0.6,2.8,1.4,4.1,2.4l0.8,0.7l-1.5,2.8c0.9,0.7,2.3,0.9,3.4,0.7l0.6-0.1l0.2,0.6c0.5,1.2,0.7,2.6,0.6,3.9
	l-0.1,0.6l-2.9,3.3c0,0,0.1,0,0.1,0.1l1.2,0.4l-0.8,0.9c-0.1,0.1-0.2,0.2-0.3,0.3l-2.9,3.2l-0.1,0.1l-0.1,0.1l-0.1,0.1l-0.1,0.1
	l-0.1,0.1l-0.1,0.1l-0.1,0.1l-0.1,0.1l-0.1,0.1l-0.1,0.1l-0.1,0.1l-0.1,0.1l-0.1,0.1l-0.1,0.1l-0.1,0.1l-0.1,0.1l-0.1,0.1l-0.1,0.1
	l-0.1,0.1l-0.1,0.1l-0.1,0.1l-0.1,0.1L28,128l-0.1,0.1l-0.1,0.1l-0.1,0.1l-0.1,0.1l-0.1,0.1l-0.1,0.1l-0.1,0.1l-0.2,0.1l-0.4,0.2
	l-0.1,0.1l-0.5-0.5l-0.1-0.1l-0.1-0.1l-0.1-0.1l-0.1-0.1l-0.1-0.1l-0.1-0.1l-0.1,0l-0.1,0l-0.1,0l-0.1,0l-0.1,0l-0.1,0l-0.1,0
	l-0.1,0l-0.1,0l-0.1,0l-0.1,0l-0.1,0l-0.1,0l-0.1,0l-0.1,0l-0.1,0l-0.1,0l-0.1,0l-0.1,0l-0.1,0l-0.1,0l-0.1,0l-0.1,0
	c-0.1,0-0.2,0.1-0.3,0.2l-1.3,2.6l-0.6,0.1l-0.2,0l-0.2,0l-0.2,0l-0.2,0l-0.2,0l-0.2,0l-0.2,0l-0.2,0l-0.2,0l-0.2,0l-0.2,0l-0.2,0
	l-0.2,0l-0.2,0l-0.2,0l-0.2,0l-0.2,0L17.9,130.7L17.9,130.7L17.9,130.7z M24.7,117.6c-1.8-1.4-4.8-2-6.8-2c-2,0-5,0.6-6.8,2
	C14.3,121,21.5,121,24.7,117.6L24.7,117.6z"/>
<path fill-rule="evenodd" clip-rule="evenodd" fill="#70953D" d="M8.3,127.4L8.3,127.4c-1.3-0.8-2.1-1.8-3.1-2.9
	c0.4,0.3,0.9,0.6,1.3,0.8l0.3,0.1L8.3,127.4L8.3,127.4z M5.7,112.1l-1.2-2.3l0.2,0.1C5.6,110.3,6.4,111.1,5.7,112.1L5.7,112.1z
	 M30.1,112.1l1.2-2.3l-0.2,0.1C30.2,110.3,29.4,111.1,30.1,112.1L30.1,112.1z M25.1,117.1c-1.5-1.2-4.2-2.1-7.2-2.1
	c-3,0-5.7,0.9-7.2,2.1c-0.2-0.3-0.3-0.6-0.4-1c0-0.2-0.1-0.4-0.1-0.6c0-0.2,0-0.4,0.1-0.6c0.3-1.3,1.3-2.3,2.4-2.9
	c1.5-0.9,3.4-1.3,5.2-1.3c1.8,0,3.6,0.4,5.2,1.3c1.1,0.6,2.2,1.6,2.4,2.9c0,0.2,0.1,0.4,0.1,0.6c0,0.2,0,0.4-0.1,0.6
	C25.4,116.5,25.3,116.8,25.1,117.1L25.1,117.1z M3.9,121.2l-3-3.5l0,0c0.8-0.1,1.7-0.1,2.4,0.1c0.6,0.2,1.2,0.6,1.5,1.1
	c0.1,0.2,0.1,0.4,0.1,0.6C4.9,120.3,4.5,120.8,3.9,121.2L3.9,121.2z M31.9,121.2l3-3.5l0,0c-0.8-0.1-1.7-0.1-2.4,0.1
	c-0.6,0.2-1.2,0.6-1.5,1.1c-0.1,0.2-0.1,0.4-0.1,0.6C30.9,120.3,31.3,120.8,31.9,121.2L31.9,121.2z M30.6,124.5c-1,1.1-1.8,2-3,2.8
	l-0.1,0.1l1.5-1.9v0l0.3-0.2C29.8,125.1,30.2,124.8,30.6,124.5L30.6,124.5z M26.7,127.9c-0.9-1-2.4-1.3-3.7-1l0,0l1.4-2.7
	c1.5-0.3,3.4,0,4.4,1.1L26.7,127.9L26.7,127.9z M22.5,127l-0.3,0.1l-0.1,0c-0.1-0.3-0.2-0.6-0.1-0.9c0.1-1,1-1.6,1.9-1.9L22.5,127
	L22.5,127z M21.8,127.7l-0.9,2c-2,0.3-4,0.3-5.9,0l-0.9-2c1.3,0.2,2.6,0.2,3.9,0.2C19.2,127.9,20.5,127.9,21.8,127.7L21.8,127.7z
	 M11.7,124.2C11.7,124.2,11.7,124.2,11.7,124.2c1,0.3,2,1,2.2,2c0,0.3,0,0.6-0.2,0.9c-0.2-0.1-0.4-0.1-0.6-0.2L11.7,124.2
	L11.7,124.2z M9.1,127.9L9.1,127.9L7,125.2c1-1.1,2.8-1.4,4.2-1.2l1.5,2.7C11.4,126.6,10,126.9,9.1,127.9L9.1,127.9z"/>
<path fill-rule="evenodd" clip-rule="evenodd" fill="#9ACA3C" d="M17.9,127.5c1.3,0,2.6-0.1,3.9-0.2c-0.7-1.4,0.3-2.9,2.2-3.5
	c1.9-0.6,4.1,0,5.2,1.2c1.5-0.8,2.7-1.8,3.7-2.8c-1.8-0.6-2.7-2.1-2.1-3.3c0.6-1.2,2.5-1.8,4.3-1.5c0.1-1.2-0.1-2.4-0.5-3.5
	c-1.7,0.3-3.7-0.3-4.6-1.4c-0.9-1.1-0.3-2.4,1.2-2.9c-1.1-0.9-2.5-1.7-3.9-2.3c-0.8,1-2.7,1.4-4.4,0.9c-1.7-0.5-2.7-1.6-2.3-2.7
	c-0.8-0.1-1.7-0.2-2.6-0.2c-0.9,0-1.7,0.1-2.6,0.2c0.4,1-0.5,2.2-2.3,2.7c-1.8,0.5-3.7,0-4.4-0.9c-1.4,0.6-2.8,1.4-3.9,2.3
	c1.5,0.5,2.1,1.8,1.2,2.9c-0.9,1.1-2.9,1.7-4.6,1.4c-0.5,1.2-0.7,2.3-0.5,3.5c1.9-0.3,3.7,0.3,4.3,1.5c0.6,1.2-0.3,2.7-2.1,3.3
	c0.9,1.1,2.2,2,3.7,2.8c1.1-1.2,3.3-1.7,5.2-1.2c1.9,0.6,2.8,2.1,2.2,3.5C15.3,127.5,16.6,127.5,17.9,127.5L17.9,127.5z M17.9,110.1
	c4.6,0,8.4,2.5,8.4,5.5c0,3-3.8,5.5-8.4,5.5c-4.6,0-8.4-2.5-8.4-5.5C9.5,112.6,13.3,110.1,17.9,110.1L17.9,110.1z"/>
<path fill-rule="evenodd" clip-rule="evenodd" fill="#010101" d="M122,134.4l-0.1,0h-0.2l-0.2,0l-0.2,0l-0.2,0l-0.2,0l-0.2,0l-0.2,0
	l-0.2,0l-0.2,0l-0.2,0l-0.2,0l-0.2,0l-0.2,0l-0.2,0l-0.2,0l-0.2,0l-0.2,0l-0.2,0l-0.7-0.1l-1.7-3.4l-0.1,0l-0.1,0l-0.1,0l-0.1,0
	l-0.1,0l-0.1,0l-0.1,0l-0.1,0l-0.2,0l-0.1,0l-0.1,0l-0.2,0l-0.1,0l-0.1,0l-0.1,0l-0.1,0l-0.1,0l-0.1,0l-0.1,0l-0.1,0l-0.1,0l-0.1,0
	l-0.1,0.1l-0.1,0.1l-0.1,0.1l-0.1,0.1l-0.1,0.1l-0.1,0.1l-0.1,0.1l-0.1,0.1l-0.1,0.1l-0.1,0.1l-0.6,0.6l-0.2-0.1l-0.5-0.2l-0.2-0.1
	l-0.1-0.1l-0.1-0.1l-0.1-0.1l-0.1-0.1l-0.1-0.1l-0.1-0.1l-0.1-0.1l-0.1-0.1l-0.1-0.1l-0.1-0.1l-0.1-0.1l-0.1-0.1l-0.1-0.1l-0.1-0.1
	l-0.1-0.1l-0.1-0.1l-0.1-0.1l-0.1-0.1L108,130l-0.1-0.1l-0.1-0.1l-0.1-0.1l-0.1-0.1l-0.1-0.1l-0.1-0.1l-0.1-0.1l-0.1-0.1l-0.1-0.1
	L107,129l-0.1-0.1l-3.6-3.9c-0.1-0.1-0.3-0.3-0.4-0.4l-1-1.1l1.4-0.5c0.1,0,0.1,0,0.2-0.1l-3.5-4.1L100,118
	c-0.1-1.6,0.1-3.3,0.7-4.8l0.3-0.7l0.8,0.2c1.3,0.2,3.1,0,4.2-0.8l-1.8-3.4l1-0.8c1.5-1.2,3.2-2.2,5-3l0.7-0.3l0.5,0.6
	c0.4,0.5,1.1,0.7,1.7,0.9c0.9,0.2,1.9,0.1,2.7-0.1c0.6-0.2,1.2-0.4,1.7-0.9c0.8-0.8,0.5-1.4,0.1-2.3l1.1-0.2
	c1.1-0.1,2.2-0.2,3.3-0.2h0h0c1.1,0,2.2,0.1,3.3,0.2l1,0.2c-0.4,0.9-0.6,1.5,0.2,2.3c0.5,0.4,1.1,0.7,1.7,0.9
	c0.9,0.2,1.8,0.3,2.7,0.1c0.6-0.1,1.3-0.4,1.7-0.9l0.5-0.6l0.7,0.3c1.8,0.8,3.5,1.8,5,3l1,0.8l-1.8,3.4c1.1,0.8,2.9,1.1,4.2,0.8
	l0.8-0.2l0.3,0.7c0.6,1.5,0.9,3.1,0.7,4.8l-0.1,0.7l-3.5,4.1c0.1,0,0.1,0,0.2,0.1l1.4,0.5l-1,1.1c-0.1,0.1-0.2,0.3-0.4,0.4l-3.6,4
	l-0.1,0.1l-0.1,0.1l-0.1,0.1l-0.1,0.1l-0.1,0.1l-0.1,0.1l-0.1,0.1l-0.1,0.1l-0.1,0.1l-0.1,0.1L136,130l-0.1,0.1l-0.1,0.1l-0.1,0.1
	l-0.1,0.1l-0.1,0.1l-0.1,0.1l-0.1,0.1l-0.1,0.1l-0.1,0.1l-0.1,0.1l-0.1,0.1l-0.1,0.1l-0.1,0.1l-0.1,0.1l-0.1,0.1l-0.1,0.1l-0.1,0.1
	l-0.1,0.1l-0.1,0.1l-0.2,0.1l-0.4,0.2l-0.2,0.1l-0.6-0.6l-0.1-0.1l-0.1-0.1l-0.1-0.1l-0.1-0.1l-0.1-0.1l-0.1-0.1l-0.1-0.1l-0.1-0.1
	l-0.1-0.1l-0.1-0.1l-0.1,0l-0.1,0l-0.1,0l-0.1,0l-0.1,0l-0.1,0l-0.1,0l-0.1,0l-0.1,0l-0.1,0l-0.2,0l-0.1,0l-0.1,0l-0.2,0l-0.1,0
	l-0.1,0l-0.1,0l-0.1,0l-0.1,0c-0.1,0-0.3,0.1-0.4,0.2l-1.6,3.3l-0.7,0.1l-0.2,0l-0.2,0l-0.2,0l-0.2,0l-0.2,0l-0.2,0l-0.2,0l-0.2,0
	l-0.2,0l-0.2,0l-0.2,0l-0.2,0l-0.2,0l-0.2,0l-0.2,0l-0.2,0l-0.2,0h-0.2L122,134.4L122,134.4z M130.4,118.3c-2.2-1.7-5.9-2.4-8.4-2.4
	c-2.5,0-6.2,0.7-8.4,2.4C117.6,122.4,126.4,122.5,130.4,118.3L130.4,118.3z"/>
<path fill-rule="evenodd" clip-rule="evenodd" fill="#B92025" d="M110.2,130.3l-0.1-0.1c-1.4-1-2.5-2.2-3.7-3.5
	c0.5,0.4,1.1,0.7,1.6,1l0.3,0.2L110.2,130.3L110.2,130.3z M106.9,111.5l-1.5-2.8l0.2,0.1C106.9,109.2,107.8,110.3,106.9,111.5
	L106.9,111.5z M137.1,111.5l1.5-2.8l-0.2,0.1C137.2,109.2,136.2,110.3,137.1,111.5L137.1,111.5z M130.9,117.7
	c-1.9-1.5-5.2-2.5-8.9-2.5c-3.7,0-7,1.1-8.9,2.6c-0.2-0.4-0.4-0.8-0.5-1.2c-0.1-0.2-0.1-0.5-0.1-0.7c0-0.2,0-0.5,0.1-0.7
	c0.3-1.6,1.6-2.8,3-3.5c1.9-1.1,4.2-1.6,6.4-1.6c2.2,0,4.5,0.5,6.4,1.6c1.3,0.8,2.7,2,3,3.5c0,0.2,0.1,0.5,0.1,0.7
	c0,0.2,0,0.5-0.1,0.7C131.3,116.9,131.2,117.3,130.9,117.7L130.9,117.7z M104.8,122.7l-3.7-4.3l0,0c1-0.2,2.1-0.1,3,0.2
	c0.7,0.2,1.5,0.7,1.8,1.4c0.1,0.2,0.2,0.5,0.2,0.8C106,121.6,105.5,122.3,104.8,122.7L104.8,122.7z M139.3,122.7l3.7-4.3l0,0
	c-1-0.2-2.1-0.1-3,0.2c-0.7,0.2-1.5,0.7-1.8,1.4c-0.1,0.2-0.2,0.5-0.2,0.8C138,121.6,138.6,122.3,139.3,122.7L139.3,122.7z
	 M137.7,126.8c-1.2,1.3-2.3,2.5-3.8,3.5l1.9-2.4l0,0l0.3-0.2C136.6,127.5,137.2,127.2,137.7,126.8L137.7,126.8z M132.9,130.9
	c-1.2-1.2-3-1.6-4.6-1.3l-0.1,0l1.7-3.3c1.8-0.4,4.2,0,5.5,1.4L132.9,130.9L132.9,130.9z M127.7,129.8l-0.4,0.1l-0.1,0
	c-0.2-0.4-0.2-0.8-0.2-1.2c0.2-1.2,1.3-2,2.4-2.4L127.7,129.8L127.7,129.8z M126.8,130.7l-1.1,2.5c-2.4,0.3-4.9,0.3-7.3,0l-1.1-2.5
	c1.6,0.2,3.2,0.3,4.8,0.3C123.6,131,125.3,130.9,126.8,130.7L126.8,130.7z M114.4,126.4c0,0,0.1,0,0.1,0c1.1,0.3,2.4,1.1,2.5,2.4
	c0.1,0.4,0,0.8-0.2,1.2c-0.2-0.1-0.5-0.2-0.7-0.2L114.4,126.4L114.4,126.4z M111.1,130.9L111.1,130.9l-2.6-3.2
	c1.2-1.3,3.4-1.8,5.2-1.5l1.8,3.4l0,0C114,129.4,112.3,129.7,111.1,130.9L111.1,130.9z"/>
<path fill-rule="evenodd" clip-rule="evenodd" fill="#ED2224" d="M122,130.5c1.6,0,3.2-0.1,4.8-0.3c-0.8-1.7,0.3-3.6,2.7-4.3
	c2.3-0.7,5-0.1,6.4,1.4c1.8-1,3.4-2.2,4.5-3.5c-2.2-0.8-3.4-2.5-2.6-4.1c0.7-1.5,3.1-2.3,5.3-1.8c0.1-1.4-0.1-2.9-0.7-4.3
	c-2.1,0.4-4.6-0.3-5.6-1.7c-1.1-1.4-0.4-2.9,1.5-3.6c-1.4-1.1-3-2.1-4.8-2.8c-0.9,1.2-3.3,1.7-5.5,1.1c-2.2-0.6-3.3-2-2.8-3.3
	c-1-0.1-2.1-0.2-3.2-0.2c-1.1,0-2.1,0.1-3.2,0.2c0.5,1.3-0.6,2.7-2.8,3.3c-2.2,0.6-4.5,0.1-5.5-1.1c-1.8,0.8-3.4,1.7-4.8,2.8
	c1.9,0.7,2.5,2.2,1.5,3.6c-1.1,1.4-3.5,2.1-5.6,1.7c-0.6,1.4-0.8,2.9-0.7,4.3c2.3-0.4,4.6,0.3,5.3,1.8c0.7,1.5-0.4,3.3-2.6,4.1
	c1.2,1.3,2.7,2.5,4.5,3.5c1.4-1.5,4.1-2.1,6.4-1.4c2.3,0.7,3.5,2.6,2.7,4.3C118.8,130.4,120.4,130.5,122,130.5L122,130.5z M122,109
	c5.7,0,10.4,3,10.4,6.8c0,3.7-4.6,6.8-10.4,6.8c-5.7,0-10.4-3-10.4-6.8C111.7,112.1,116.3,109,122,109L122,109z"/>
</svg>
