<svg class="custom-icon" xmlns="http://www.w3.org/2000/svg" viewBox="0 0 100 100" style="height:100px;width:100px" width="100px" height="100px"><circle class="outer-shape" cx="50" cy="50" r="48" fill="#3B5998"/><path class="inner-shape" d="M66.334 25.5H33.668c-4.492 0-8.168 3.676-8.168 8.168v32.664c0 4.496 3.675 8.168 8.167 8.168h32.666c4.493 0 8.167-3.672 8.167-8.167V33.67c0-4.493-3.674-8.17-8.166-8.17zM67.16 50h-7.973v21.438H50V50h-4.428v-7.014H50v-4.554c0-6.19 2.67-9.87 9.947-9.87h8.386v7.588h-6.85c-2.033-.004-2.285 1.06-2.285 3.04l-.01 3.796h9.187L67.16 50z" fill="#f7f7f7"/></svg>
