<svg class="custom-icon" xmlns="http://www.w3.org/2000/svg" viewBox="0 0 100 100" style="height:100px;width:100px" width="100px" height="100px"><path class="inner-shape" d="M66.27 25.5H33.73c-4.526 0-8.23 3.704-8.23 8.23v32.54c0 4.526 3.704 8.23 8.23 8.23h32.54c4.526 0 8.23-3.704 8.23-8.23V33.73c0-4.526-3.704-8.23-8.23-8.23zM43.874 65.313H37.75V43.874h6.125v21.438zm-3.063-24.5c-1.69 0-3.062-1.372-3.062-3.063s1.37-3.063 3.062-3.063 3.063 1.372 3.063 3.063-1.37 3.063-3.063 3.063zm24.5 24.5h-6.124v-12.25c0-1.692-1.372-3.063-3.063-3.063s-3.063 1.37-3.063 3.063v12.25h-6.124V43.874h6.124v3.803c1.264-1.735 3.195-3.803 5.36-3.803 3.806 0 6.89 3.428 6.89 7.656v13.782z" fill="#f7f7f7"/></svg>
