<svg class="custom-icon" xmlns="http://www.w3.org/2000/svg" viewBox="0 0 100 100" style="height:100px;width:100px" width="100px" height="100px"><path class="inner-shape" d="M50 25.744c-13.53 0-24.5 10.86-24.5 24.256 0 9.932 6.033 18.465 14.665 22.216-.07-1.694-.012-3.727.427-5.57l3.152-13.216s-.783-1.55-.783-3.838c0-3.594 2.105-6.28 4.726-6.28 2.23 0 3.305 1.658 3.305 3.642 0 2.218-1.428 5.536-2.162 8.608-.614 2.573 1.303 4.67 3.867 4.67 4.642 0 7.768-5.9 7.768-12.894 0-5.317-3.616-9.295-10.195-9.295-7.432 0-12.062 5.487-12.062 11.616 0 2.112.63 3.602 1.615 4.756.455.53.518.744.354 1.352-.118.447-.388 1.52-.5 1.947-.163.615-.666.834-1.226.607-3.423-1.383-5.018-5.094-5.018-9.267 0-6.89 5.87-15.152 17.51-15.152 9.355 0 15.512 6.702 15.512 13.895 0 9.515-5.343 16.624-13.22 16.624-2.644 0-5.133-1.416-5.986-3.024 0 0-1.422 5.59-1.724 6.668-.52 1.87-1.535 3.74-2.465 5.196 2.203.643 4.53.994 6.943.994 13.53 0 24.5-10.86 24.5-24.256S63.53 25.745 50 25.745z" fill="#f7f7f7"/></svg>
