<svg class="custom-icon" xmlns="http://www.w3.org/2000/svg" viewBox="0 0 100 100" style="height:100px;width:100px" width="100px" height="100px"><circle class="outer-shape" cx="50" cy="50" r="48" fill="#00ACED"/><path class="inner-shape" d="M74.5 34.714c-1.802.804-3.74 1.347-5.773 1.592 2.075-1.252 3.67-3.233 4.42-5.595-1.942 1.16-4.093 2-6.383 2.455-1.834-1.965-4.447-3.193-7.338-3.193-5.552 0-10.054 4.527-10.054 10.11 0 .794.09 1.565.26 2.306-8.355-.423-15.762-4.448-20.72-10.566-.866 1.494-1.362 3.23-1.362 5.084 0 3.51 1.775 6.604 4.473 8.417-1.648-.052-3.2-.507-4.553-1.264v.126c0 4.9 3.464 8.986 8.063 9.916-.844.23-1.73.355-2.648.355-.648 0-1.278-.064-1.892-.182 1.28 4.017 4.992 6.94 9.39 7.023-3.44 2.712-7.774 4.328-12.484 4.328-.813 0-1.613-.048-2.4-.14 4.45 2.868 9.734 4.543 15.41 4.543 18.492 0 28.604-15.41 28.604-28.773 0-.438-.01-.874-.03-1.308 1.964-1.428 3.67-3.21 5.017-5.236z" fill="#f7f7f7"/></svg>
