<svg xmlns="http://www.w3.org/2000/svg" viewBox="0 0 71.5 112.3"><path fill-rule="evenodd" clip-rule="evenodd" fill="#010101" d="M30.8 45.8c-6.5-.6-13-2.3-18.6-5.5C6.7 37.3 1.5 32.4.3 26c-.2-1-.3-2-.3-3s.1-2 .3-2.9C1.5 13.7 6.7 8.8 12.2 5.7c7-4 15.5-5.7 23.6-5.7 8 0 16.5 1.7 23.6 5.7 5.5 3.1 10.7 8 11.9 14.4.2 1 .3 1.9.3 2.9s-.1 2-.3 2.9c-1.3 6.4-6.4 11.3-11.9 14.4-5.6 3.1-12.1 4.9-18.6 5.5l-5 6.8-5-6.8z"/><path fill-rule="evenodd" clip-rule="evenodd" fill="#EC252C" d="M35.8 1.2C54.9 1.2 70.4 11 70.4 23c0 10.9-12.6 19.9-29.1 21.6.5-.7 1.1-2 1.2-3.1-2.2 3.1-4.5 6.1-6.7 9.2l-4.3-5.9C14.4 43.4 1.2 34.2 1.2 23c0-12 15.5-21.8 34.6-21.8z"/><path fill-rule="evenodd" clip-rule="evenodd" fill="#010101" d="M49.3 26.8c.5.1 1 .3 1.4.7.6.5.9 1.2.9 2 0 .9-.3 1.6-1 2.2-.7.6-1.6.9-2.6.9-.5 0-.9-.1-1.3-.3-.3-.2-.6-.4-.9-.7-.5-.6-.7-1.2-.7-2 0-1.2.6-2.2 1.7-2.7h.1l.3-1c.5-1.8.9-3.6 1.4-5.5.4-1.8.9-3.7 1.4-5.5l.1-.5.5-.1c.3-.1.7-.1 1-.1.4-.1.7-.1 1.1-.2.4-.1.7-.1 1.1-.2.3 0 .6-.1.8-.1l1.4-.3-.6 1.4c-.8 1.9-1.5 3.7-2.2 5.6-.7 1.9-1.3 3.8-2 5.8l-.2.5h-.6c-.2 0-.6.1-1.1.1zm-12.1-4.7c.1-.3.1-.6.2-1 .4-1.9.7-3.9 1-5.9l.1-.6.6-.1c.7-.1 1.3-.2 2-.3.7-.1 1.5-.2 2.3-.2.8 0 1.6.1 2.3.5.7.3 1.2.7 1.7 1.3.9 1.1 1.2 2.6 1.2 4 0 1.9-.5 3.7-1.4 5.4-.9 1.9-2.1 3.5-3.7 4.8-1.7 1.3-3.6 2.1-5.8 2.1-.5 0-.9-.1-1.4-.1h-1l.1-.4c-.2 0-.3.1-.5.1-.4.1-.9.1-1.3.2s-.8.1-1.2.2l-1 .2.1-1c.1-1 .2-1.9.3-2.9h-.5l-.9 3.2-.5.1c-.4.1-.8.1-1.2.2-.4.1-.9.1-1.3.2-.5.1-.9.1-1.4.2l-1.2.2.4-1.2c.1-.3.2-.7.3-1-.3.3-.7.5-1.1.7-.6.3-1.3.6-2 .9-1.3.5-2.7.7-4.1.7-.6 0-1.1 0-1.7-.1l-.8-.2.2-1.3c.7-2.6 1.3-5.2 1.7-7.8.4-2.7.8-5.4 1.2-8l.1-.5.5-.1c1.7-.3 3.5-.7 5.2-.7 1.6 0 3.1.5 3.9 2 .3.6.5 1.2.5 1.9v.1c0-.2.1-.3.1-.5.2-.7.4-1.5.6-2.2l.2-.5h.6c2-.1 4.1-.3 6.1-.7l1-.2-.1 1.1c-.2 1.7-.2 3.4-.3 5.1 0 .6-.1 1.3-.1 2.1zm-9.9 1.6c.1-.4.2-.8.4-1.2.2-.6.4-1.2.5-1.8-.1.2-.2.3-.3.5-.4.5-.8 1-1.4 1.4.4.2.6.6.8 1.1zm-5.2 2.1c.5-.1.9-.3 1.2-.7.1-.1.2-.2.2-.4v-.3c-.1-.1-.2-.2-.3-.2-.2-.1-.5-.2-.8-.2 0 .1 0 .2-.1.3 0 .3-.1.5-.1.8 0 .3 0 .5-.1.7zm1.2-6.4c.4-.1.8-.3.9-.5-.1-.1-.6-.2-.7-.3h-.1c0 .2-.1.4-.1.6v.2zm18.2 6.4c.3-.6.6-1.2.8-1.7.4-.9.7-1.8.9-2.8.1-.5.2-1.2.2-1.7 0-.2-.1-.4-.2-.6-.1 0-.2 0-.3-.1-.2 1.1-.5 2.2-.7 3.4-.3 1.1-.5 2.3-.7 3.5z"/><path fill="#FFF" d="M26.9 25.7c0 .5-.1 1.1-.4 1.6-.3.5-.6 1-1 1.4-.4.4-.9.8-1.5 1.1-.6.3-1.2.6-1.8.8-1.3.4-2.5.7-3.9.7-.6 0-1.1 0-1.6-.1.7-2.6 1.3-5.3 1.7-7.9.4-2.7.8-5.3 1.2-8 2.1-.4 3.7-.6 5-.6 1.5 0 2.6.5 3.2 1.6.2.4.3.9.3 1.5s-.1 1.1-.3 1.6c-.2.5-.4 1-.7 1.4-.6.8-1.3 1.4-2.2 1.7 1.4.6 2 1.7 2 3.2zm-5.7 1.1c1.3-.1 2.3-.5 2.8-1.1.2-.3.4-.6.4-.9 0-.3-.1-.6-.2-.8-.1-.2-.3-.3-.5-.4-.4-.2-.9-.4-1.4-.4h-.5c-.1.4-.1.7-.2 1-.1.3-.1.5-.1.8 0 .3-.1.5-.1.8-.1.3-.2.7-.2 1zm1.1-6.3c1.8-.4 2.7-.9 2.7-1.5s-.5-.9-1.4-1.1c-.2 0-.4-.1-.6-.1h-.2c0 .2-.1.4-.1.6 0 .2-.1.5-.1.7 0 .2-.1.5-.1.7-.1.3-.2.5-.2.7zm8.4 6.9l-.9 3.2c-.3 0-.7.1-1.2.2-.4.1-.9.1-1.3.2s-.9.1-1.4.2c.6-2 1.1-3.7 1.5-5.1.4-1.4.8-2.5 1-3.4.3-.9.5-1.8.8-2.6.3-.9.5-1.7.7-2.5.2-.8.5-1.6.6-2.2 2.7-.2 4.8-.4 6.2-.7-.1 1.4-.2 3.2-.3 5.1-.2 3.9-.3 7.6-.5 10.9-.4.1-.9.1-1.3.2s-.9.1-1.3.2-.9.1-1.2.2c.2-1.4.3-2.7.4-3.8h-1.8v-.1zm.5-2.2l1.6-.1v-.4c0-.2 0-.5.1-.7.1-1.6.2-3 .4-4.4l.2-2h-.4l-1.9 7.6zm8.9 3.4c1-.7 2-2 2.8-4.1.5-1.2.8-2.1 1-2.9.2-.8.2-1.4.2-1.9s-.2-.8-.5-1.2c-.3-.3-.8-.5-1.4-.5-.3 1.3-.5 2.6-.9 4.1-.4 2.5-.8 4.6-1.2 6.5zm-3.9 2.7c1.6-8 2.6-13.4 2.9-15.9.6-.1 1.3-.2 2-.3.7-.1 1.4-.2 2.1-.2.8 0 1.4.1 2 .4.6.3 1 .6 1.4 1.1.7.9 1 2 1 3.5 0 1.6-.4 3.3-1.3 5.1-.9 1.9-2.1 3.4-3.5 4.5-1.7 1.3-3.4 2-5.3 2-.4-.1-.8-.1-1.3-.2zm18.6-16.8c-.8 1.9-1.5 3.8-2.2 5.7-.7 1.9-1.3 3.8-2 5.8h-1.3c-.4 0-.9.1-1.3.1.5-1.8.9-3.7 1.4-5.5.4-1.8.9-3.7 1.4-5.5.3 0 .6-.1 1-.1.4-.1.7-.1 1.1-.2.4-.1.7-.1 1.1-.2.3 0 .6-.1.8-.1zm-6.7 17.3c-.4 0-.7-.1-1-.2-.2-.1-.5-.3-.6-.5-.3-.4-.5-.9-.5-1.5 0-1 .4-1.6 1.3-2 .3-.1.6-.2 1-.2.9 0 1.5.2 2 .6.4.4.6.9.6 1.4 0 .6-.2 1.2-.7 1.6-.6.6-1.3.8-2.1.8z"/><path fill-rule="evenodd" clip-rule="evenodd" fill="#010101" d="M46.8 107c-.8 3-4.9 5.4-9.8 5.4-4.8 0-8.9-2.3-9.7-5.2-.1-.2-.3-.4-.4-.6-.7.7-1.6.8-2.6.7-2.8-.3-4.1-2.2-5.2-4.5-.3-.6-.8-1.7-1.2-2.8-3.7.7-7.6-.8-9.7-4.2-.2-.4-.4-.7-.6-1.1-.8-1.6-.8-3.4.9-4.4 1.4-.9 3.4-.5 4.3.9.2.3.3.6.4 1 .1.2.1.6.2.7.9 1.4 2.4 2.1 3.9 2-.3-.3-.5-.5-.7-.8-3.2-3.7-4.7-8.3-4.7-13.1 0-2.8.5-5.5 1.3-8l-2-5.3c-.4-1.2-.9-2.4-1.3-3.5-.3-1-.6-2.1 0-3 .6-1 1.7-1.2 2.7-1.2 1.5-.1 3.1.2 4.5.4l4.9.7c4.2-3.1 9.3-4.9 14.9-4.9s10.7 1.8 14.9 4.9l4.9-.7c1.4-.2 3.1-.4 4.5-.4 1 0 2.2.3 2.7 1.2.6.9.3 2.1 0 3-.4 1.2-.9 2.4-1.3 3.5l-2 5.3c.8 2.5 1.3 5.2 1.3 8 0 4.9-1.4 9.4-4.7 13.1-.3.3-.5.6-.8.8.9 2.2-1 6.3-1.7 7.9-1.1 2.4-2.4 4.2-5.2 4.5-.9.1-1.9 0-2.6-.7.1.1 0 .2-.1.4z"/><path fill-rule="evenodd" clip-rule="evenodd" fill="#FFF" d="M24.6 105.7c-2.3-.2-3.2-1.9-4-3.7-1.3-2.8-1.8-4.7-1.8-5.9l.1.2c1.9 3.7 4.5 6.6 7.3 8.6-.1.6-.6.9-1.6.8zM49.5 105.7c2.3-.2 3.2-1.9 4-3.7 1.3-2.8 1.8-4.7 1.8-5.9l-.1.2c-1.9 3.7-4.5 6.6-7.3 8.6.1.6.5.9 1.6.8zM38.7 108.5c2 1.7 4.4 1.1 6.6-1.9-2.2 1-4.4 1.7-6.6 1.9zM35.4 108.5c-2 1.7-4.4 1.1-6.6-1.9 2.1 1 4.3 1.7 6.6 1.9z"/><path fill-rule="evenodd" clip-rule="evenodd" fill="#0795D1" d="M21.5 97.9c8 12.2 23.1 12.2 31.1 0-4.6 2.7-10.2 3.8-15.5 3.8-5.4 0-11-1.1-15.6-3.8z"/><path fill-rule="evenodd" clip-rule="evenodd" fill="#02527D" d="M21.5 97.9c3.9 5.9 9.4 9 14.9 9.2.3 0 .7 0 1-.1-4.7-.5-9.3-3-12.8-7.5-1-.5-2.1-1-3.1-1.6z"/><path fill-rule="evenodd" clip-rule="evenodd" fill="#FFF" d="M37 57.4c5.2 0 10.1 1.7 14 4.6 2-.1 4-.4 5.9-.6 8.2-1.1 6.6.4 4.7 5.8l-1.5 4c-.8-1.9-1.8-3.6-3-5.3.1-.1.2-.3.3-.4 1.5-1.7 3.3-2.9 5.1-3.5-1.6-.2-3.6.5-5.3 2.1-.7.7-1.2 1.3-1.7 2.2 3.1 4 5 9 5 14.5 0 13-10.5 19.4-23.5 19.4s-23.5-6.4-23.5-19.4c0-5.5 1.9-10.6 5.1-14.6-.5-.8-1-1.4-1.6-2.1-1.7-1.7-3.8-2.5-5.4-2.2 1.8.6 3.6 1.8 5.1 3.5.1.1.2.3.3.4-1.2 1.6-2.2 3.4-3 5.3l-1.5-4c-1.9-5.5-3.6-7 4.7-5.8 2 .3 3.9.5 5.9.6 3.9-2.8 8.7-4.5 13.9-4.5z"/><path fill-rule="evenodd" clip-rule="evenodd" fill="#E5E5E5" d="M28.8 99.2c-8.9-2.2-15.2-8.3-15.2-18.4 0-5.5 1.9-10.6 5.1-14.6-.5-.8-1-1.4-1.6-2.1-1.7-1.7-3.8-2.5-5.4-2.2 1.8.6 3.6 1.8 5.1 3.5.1.1.2.3.3.4-1.2 1.6-2.2 3.4-3 5.3l-1.5-4c-1.9-5.5-3.6-7 4.7-5.8 2 .3 3.9.5 5.9.6 2.5-1.8 5.3-3.2 8.4-3.9-8.5 3.9-14.4 12.7-14.4 23 0 9.1 4.7 15.2 11.6 18.2z"/><path fill-rule="evenodd" clip-rule="evenodd" fill="#B3B3B3" d="M11.8 61.9c.1 0 .1 0 .2.1-.1-.1-.1-.1-.2-.1zm3.4 6.9c-.6-2.4-1.3-4.7-3.2-6.7 1.6.6 3.3 1.8 4.7 3.4.1.1.2.3.3.4-.7.9-1.3 1.9-1.8 2.9z"/><path fill-rule="evenodd" clip-rule="evenodd" fill="#010101" d="M38.4 88.6c1-.5 1.9-.4 2.3-1.1.3-.4.1-.9-.2-1.3-1-1.3-6-1.3-7 0-.3.4-.4.8-.2 1.3.4.7 1.4.5 2.5 1.2.3.2.6.4.7.7.1.4 0 .7-.1 1-.2.3-.4.4-.7.5-1.1.3-2.1.6-3 1.2-.4.3-.7.7-1 1.1-.5.6-.6 1 .2.4.4-.3.8-.6 1.3-.9.5-.3 1.5-.6 2.4-.8.8-.2 1.5-.3 2.3-.1 1 .2 2.4.6 2.9.9.5.2.9.6 1.3.9.9.6.8.2.2-.4-.3-.4-.6-.8-1-1.1-.8-.6-1.8-.9-2.9-1.2-.4-.1-.6-.1-.9-.5-.2-.2-.2-.6-.1-1 .3-.4.5-.5 1-.8z"/><path fill-rule="evenodd" clip-rule="evenodd" fill="#FFF" d="M12.5 93.4c1.1 1.7 2.9 2.6 4.8 2.6 0 .8.1 1.7.4 2.7-3.2.5-6.5-.8-8.3-3.7-.7-1.1-1.6-2.9-.1-3.9.9-.6 2-.3 2.6.6.3.5.2 1.1.6 1.7z"/><path fill-rule="evenodd" clip-rule="evenodd" fill="#0795D1" d="M53.5 102.2l.1-.1c1.3-2.8 1.8-4.7 1.8-5.9l-.1.2c-1 2-2.2 3.7-3.6 5.2l1.8.6zM20.6 102.2l-.1-.1c-1.3-2.8-1.8-4.7-1.8-5.9l.1.2c1 2 2.2 3.7 3.6 5.2l-1.8.6z"/><path fill-rule="evenodd" clip-rule="evenodd" fill="#010101" d="M50.2 80c.2.5.2 1 .2 1.5 0 2.2-1.6 4-3.5 4s-3.5-1.8-3.5-4c0-1.3.5-2.5 1.4-3.2 1.4.9 3.3 1.5 5.4 1.7zm-21-1.8c.8.7 1.4 1.9 1.4 3.2 0 2.2-1.6 4-3.5 4s-3.5-1.8-3.5-4c0-.5.1-1 .2-1.5 2.2-.1 4-.7 5.4-1.7zm.1 2.3c.6 0 1.1.5 1.1 1.1 0 .6-.5 1.1-1.1 1.1-.6 0-1.1-.5-1.1-1.1 0-.6.5-1.1 1.1-1.1zm19.7 0c.6 0 1.1.5 1.1 1.1 0 .6-.5 1.1-1.1 1.1-.6 0-1.1-.5-1.1-1.1 0-.6.5-1.1 1.1-1.1z"/></svg>