<svg xmlns="http://www.w3.org/2000/svg" viewBox="0 0 458.1 459.9"><path fill-rule="evenodd" clip-rule="evenodd" fill="#CBCBCB" d="M185.8 415.4c76.1 0 137.7 10 137.7 22.2 0 12.3-61.7 22.2-137.7 22.2-76.1 0-137.7-10-137.7-22.2-.1-12.2 61.6-22.2 137.7-22.2z"/><path fill-rule="evenodd" clip-rule="evenodd" d="M187.4 0c33.2 0 63.8 10.3 88.5 27.8l28.9-3.8c8.6-1.1 18.4-2.4 27.1-2 6.1.3 12.8 1.6 16.3 7 3.4 5.3 1.8 11.6 0 17.1-2.3 6.7-5.2 13.4-7.7 20v.1l-12.1 29.9c5 14.2 7.7 29.3 7.7 45.1 0 11.9-1.6 23.5-4.9 34.5 2.4-.1 4.8-.2 7.2-.2 66 0 119.6 53.6 119.6 119.6s-53.6 119.6-119.6 119.6c-22.2 0-43-6.1-60.8-16.6l.5 5.3c7.5 4.6 14.2 10.8 18.9 18.5 5.5 8.9 3.4 16.5-5 18.5-2.1.5-4.2.6-6.5.6l-52.6.1c-11.1 0-21-8-20.3-19.6.2-3.3.9-6.3 2-9l-7.9-27.3c-3.5.5-7 .8-10.7.8-3.3.3-6.7.5-10.2.5-3.9 0-7.6-.2-11.3-.6-2-.1-3.9-.3-5.8-.6l-7.9 27.2c1.1 2.7 1.8 5.7 2 9 .7 11.6-9.1 19.6-20.3 19.6l-52.2-.1c-2.3 0-4.4-.1-6.5-.6-8.4-2-10.5-9.6-5-18.5 4.8-7.7 11.4-13.9 18.9-18.5l1.2-12.3c-11.5 5-24.1 7-36.8 5.8-19.8-1.9-37.9-11.5-50.6-26.8-2.1-2.6-4.1-5.2-5.9-8.1-7.3-11.6-8.9-24.8 2.8-34.5 10-8.3 25-6.8 33.3 3.2 1.8 2.2 3 4.5 4.1 7.1.8 1.9 1.6 4.5 2.9 6 4.7 5.7 10.9 9.6 17.6 11.6-2.6-8.7-2.4-18.3-1.1-27.3 2.9-19.2 8.9-37.7 15.8-55.9 3.8-10.1 7.1-18.7 14.2-27.1 1.5-1.7 3-3.3 4.6-4.8-12.5-6.4-23.8-14.6-33.4-24.9-19.3-20.9-27.7-46.7-27.7-74.3 0-15.8 2.7-30.9 7.7-45.1l-12-29.7v-.1c-2.5-6.7-5.5-13.3-7.7-20-1.9-5.5-3.4-11.8 0-17.1 3.5-5.4 10.1-6.7 16.3-7 8.7-.4 18.5.9 27.1 2L99 27.9C123.6 10.3 154.3 0 187.4 0z"/><path fill-rule="evenodd" clip-rule="evenodd" fill="#FFF" d="M42.2 349.3c7.5 9.1 17.8 14.5 28.6 15.9.7 1 1.4 2 2.2 3 8 9.6 18.3 13.7 27.1 11.6l-.1 1.4c-27.2 14.2-61.5 8-81.8-16.6-7-8.4-15.5-21.3-4.3-30.6 6.5-5.3 16-4.4 21.4 2 3.3 4.2 3.4 9 6.9 13.3z"/><path fill-rule="evenodd" clip-rule="evenodd" fill="#E4E4E4" d="M42.2 349.3c7.5 9.1 17.8 14.5 28.6 15.9-44.2 0-27.5-26.2-51.8-33.9 5.7-1.8 12.2-.1 16.2 4.8 3.4 4.1 3.5 8.9 7 13.2z"/><path fill-rule="evenodd" clip-rule="evenodd" fill="#FFF" d="M101 371.5c-6.9 3.3-15.8-.7-22.1-8.2-8.7-10.5-7.4-25.7-6.1-34 1.9-12.7 5.2-25.2 9.5-38l21.8 5.8-3.6 35.1c-1 9.8-1.7 14.5 2.7 17.3l-2.2 22z"/><path fill-rule="evenodd" clip-rule="evenodd" fill="#E4E4E4" d="M100.1 371.9c-6.8 2.5-15.2-1.4-21.2-8.6-8.7-10.5-7.4-25.7-6.1-34 1.9-12.7 5.2-25.2 9.5-38l8.4 2.2c-3.9 12-7 23.8-8.8 35.8-1.2 8.2-2.6 23.5 6.1 34 3.5 4.2 7.8 7.2 12.1 8.6z"/><path fill-rule="evenodd" clip-rule="evenodd" fill="#004E7D" d="M104.8 290.6l-20.4-5.5c1.2-3.3 2.4-6.7 3.7-10.1 2.3-6 7.2-21.9 19.3-31 2.3 1 4.6 1.9 6.9 2.8-4.3 9.7-7.2 20.2-8.3 31.1l-1.2 12.7z"/><path fill-rule="evenodd" clip-rule="evenodd" fill="#FFF" d="M235.6 356.1c8.4 14.1 19.5 26.3 32.7 35.9l.9 8.6c-11.8-2.8-25.8-.8-32.7 7 22.6-13.6 43.9.6 53.3 17.1 4.7 8.2-3.9 7.7-6.6 7.7l-52.6.1c-3.1 0-9.2-.9-8.8-8.1.2-3.2 1.1-6.2 2.5-8.9l-9.7-33.2c8.9-2.9 15.6-7.2 19-12.3-13.6 4.4-30 6.9-47.6 6.9s-34-2.6-47.6-7c3.8 5.7 11.9 10.4 22.5 13.4l-9.4 32.2c1.5 2.7 2.3 5.7 2.5 8.9.4 7.2-5.7 8.1-8.8 8.1l-52.6-.1c-2.7 0-11.5.3-6.6-7.7 3.9-6.2 9.9-13.7 19.4-18.1 9.9-4.7 24.8-5.9 33.9 1-6.9-7.8-20.9-9.9-32.7-7l4.8-48.3c.4.1.8.1 1.2.2 24.8 3.7 49.5 6.5 74.6 6.5 16.4-.1 32.4-1.1 48.4-2.9z"/><path fill-rule="evenodd" clip-rule="evenodd" fill="#E4E4E4" d="M146.1 432.4h-.8l-52.6-.1c-2.7 0-11.5.3-6.6-7.7 3.9-6.2 9.9-13.7 19.4-18.1 6.5-3.1 15.1-4.7 22.9-3.4-4.2.6-8.3 1.8-11.8 3.4-9.4 4.4-15.5 12-19.4 18.1-5 8 3.9 7.7 6.6 7.7l42.3.1zM118 399.3c-3.8-.1-7.6.3-11.2 1.2l4.8-48.3c.4.1.8.1 1.2.2 3.2.5 6.5 1 9.7 1.4l-4.5 45.5z"/><path fill-rule="evenodd" clip-rule="evenodd" fill="#008ED4" d="M112.2 301.2l2.3-22.3c1.1-10.3 3.8-20.2 7.9-29.2 20.9 6.8 43.4 9.6 65 9.6 12.5 0 25.3-.9 37.9-3-4.2 12.2-6.5 25.3-6.5 38.9 0 3.4.2 6.8.4 10.2-35.6 1.9-71.1.5-107-4.2z"/><path fill-rule="evenodd" clip-rule="evenodd" fill="#004E7D" d="M112.2 301.2l2.3-22.3c1.1-10.3 3.8-20.2 7.9-29.2 4.9 1.6 9.9 3 14.9 4.1-4.2 16.4-7.3 32.8-8.8 49.3-5.3-.5-10.7-1.2-16.3-1.9z"/><path fill-rule="evenodd" clip-rule="evenodd" fill="#FFF" d="M109.2 330.4l2.7-25.9c35.7 4.7 71.3 6.2 107.7 4.1 1.6 14 5.6 27.2 11.5 39.3-39 4.1-70.5 3-113.5-3.3-7-1-9.6-2.1-8.4-14.2z"/><path fill-rule="evenodd" clip-rule="evenodd" fill="#E4E4E4" d="M109.2 330.4l2.7-25.9c5.5.7 10.9 1.4 16.4 1.9-1 13.2-1.1 26.5.1 39.7-3.5-.5-7-1-10.6-1.5-7.2-1-9.8-2.1-8.6-14.2z"/><path fill-rule="evenodd" clip-rule="evenodd" fill="#FF3800" d="M116.4 305.1c6 .8 12 1.4 18.1 2l-.8 13.8-1.4 25.8c-4.7-.6-9.6-1.3-14.6-2-1.8-.3-3.3-.6-4.6-1.1l3.3-38.5zm39.1 3.6c7 .4 14 .7 21.1.8l-.2 11.4-.5 29.3c-7.2-.2-14.4-.6-21.9-1.3l1-28.1.5-12.1zm42.3.8c7-.1 14-.4 21.1-.8l.3 12.2.6 28.2c-7.5.6-14.7 1-21.9 1.2l-.1-29.4v-11.4z"/><path fill-rule="evenodd" clip-rule="evenodd" fill="#A62200" d="M116.4 305.1c3.9.5 7.9.9 11.8 1.4-1 13.2-1.1 26.5.1 39.7-3.5-.5-7-.9-10.6-1.5-1.8-.3-3.3-.6-4.6-1.1l3.3-38.5z"/><path fill-rule="evenodd" clip-rule="evenodd" fill="#008ED4" d="M187.4 8.4c31.1 0 59.9 9.7 83.1 26l14.7-1 20.6-2.7c49.1-6.4 39.3 2.1 27.8 33l-9.1 22.6c-4.7-10.6-10.8-20.6-17.9-29.7.7-.8 1.3-1.5 2-2.3 9.1-9.9 19.8-16.7 30.3-20-10.8-1.6-24.6 4.1-35.2 15.6-2.2 2.4-4.5 5.5-7.1 8.2.2.3 1.2 1.4 1.4 1.7 18.3 22.5 29.2 50.7 29.2 81.3 0 13-2 24.8-5.6 35.4-9.2 1.3-18.1 3.6-26.5 6.9l-4.2-12.2-61.6-11.6c-11.2-11.9-24.2-21.6-38.9-28.7l-2.9-1.4-2.9 1.4c-14.8 7.1-27.8 16.8-38.9 28.7L84 171.4l-12.5 36.7c-15-17.1-23.8-39.3-23.8-66.8 0-31.2 11.3-59.9 30.3-82.6-2.3-3.1-4.3-6-6.7-8.6C60.6 38.6 46.9 32.9 36 34.5c10.5 3.3 21.2 10.1 30.3 20 .7.8 1.4 1.5 2 2.3-7.2 9.1-13.2 19.1-17.9 29.7l-9.1-22.6C29.8 33 20 24.5 69 30.8l19.9 2.6 15.5 1c23.2-16.3 51.9-26 83-26z"/><path fill-rule="evenodd" clip-rule="evenodd" fill="#004E7D" d="M71.4 208.1c-15-17.1-23.8-39.3-23.8-66.8 0-31.2 11.3-59.9 30.3-82.6-2.3-3.1-4.3-6-6.7-8.6C60.6 38.6 46.9 32.9 36 34.5c10.5 3.3 21.2 10.1 30.3 20 .7.8 1.4 1.5 2 2.3-7.2 9.1-13.2 19.1-17.9 29.7l-9.1-22.6C29.8 33 20 24.5 69 30.8l19.9 2.6 15.5 1c14.7-10.3 31.6-18 49.9-22.2C104.5 33.8 69.6 83.8 69.6 142c0 17.2 3.1 32.6 8.7 46l-6.9 20.1z"/><path fill-rule="evenodd" clip-rule="evenodd" fill="#003B5F" d="M36 34.5c10.5 3.3 21.2 10.1 30.3 20 .7.8 1.4 1.5 2 2.3-4.1 5.2-7.8 10.6-11 16.2C53.2 59.1 48 46.2 36 34.5z"/><path fill-rule="evenodd" clip-rule="evenodd" fill="#FFF" d="M229 247c-13.1 2.5-27.1 3.8-41.5 3.8-45.1 0-85.2-12.4-110.7-37.2l12.4-36.3 59.9-11.2c9.9-10.8 22.5-21.2 38.4-28.8 16 7.7 28.5 18 38.4 28.8l59.9 11.2 3.1 9c-26.7 12.2-48.1 33.9-59.9 60.7z"/><path fill-rule="evenodd" clip-rule="evenodd" fill="#E4E4E4" d="M110.4 236l-.4-.2c-.7-.3-1.3-.6-2-.9-.7-.3-1.3-.6-2-1l-.5-.2c-.5-.2-1-.5-1.5-.7l-.6-.3-1.2-.6-.7-.4c-.6-.3-1.2-.7-1.8-1l-.3-.2-1.5-.9-.5-.3c-.4-.3-.9-.5-1.3-.8l-.5-.3c-.4-.3-.9-.5-1.3-.8-.4-.3-.8-.5-1.2-.8-.3-.2-.5-.3-.8-.5l-.9-.6-.6-.4c-.3-.2-.7-.5-1-.7l-.3-.2c-.7-.5-1.4-1-2-1.5l-.5-.4c-.4-.3-.7-.6-1.1-.8l-.3-.2c-1.2-1-2.4-1.9-3.6-2.9l-.2-.2c-1.7-1.4-3.3-2.9-4.8-4.4l-.1-.1 5.8-16.9c11.9 22.2 31.5 38.4 55.8 48.6-10.1-2.4-19.4-5.5-28.1-9.4z"/><path fill-rule="evenodd" clip-rule="evenodd" d="M245.1 113.2c11 0 19.9 8.9 19.9 19.9 0 11-8.9 19.9-19.9 19.9-11 0-19.9-8.9-19.9-19.9 0-11 8.9-19.9 19.9-19.9zm-115.4 0c11 0 19.9 8.9 19.9 19.9 0 11-8.9 19.9-19.9 19.9-11 0-19.9-8.9-19.9-19.9 0-11 8.9-19.9 19.9-19.9zM190.9 171.6c4.6-3.5 9.1-2.5 10.8-5.3 1-1.7.6-3.4-.6-4.9-4-4.9-23.2-4.9-27.3 0-1.2 1.5-1.7 3.2-.6 4.9 1.7 2.8 6.5 1.7 11.3 5.7 1.3 1.1 1.2 1.5 1.2 3.1v3.5c0 1.3.1 2.3-.8 3.5-.9 1.3-2.4 2.5-4.5 3.6-11.8 6.3-23.2 1.6-33.3-4.1-5.8-3.3-6.3-1.8-1.9 2.5 11.6 11.1 21.8 25.7 42.3 25.7 20.4 0 30.6-14.5 42.2-25.7 3.8-3.7 4.7-6.2-1.9-2.5-9.7 5.5-21.4 10.5-32.8 4.1h-.1c-2-1.2-3.6-2.3-4.5-3.5-.9-1.1-1.1-2.2-1.1-3.6V174.9c-.1-1.8.1-2.1 1.6-3.3z"/><path fill-rule="evenodd" clip-rule="evenodd" fill="#F48000" d="M167.9 199.1c5.2 4.1 12.7 6.1 19.6 6.1 6.8 0 14.4-2 19.6-6.1-5.2-4.1-12.8-6.1-19.6-6.1-6.9.1-14.5 2.1-19.6 6.1z"/><path fill-rule="evenodd" clip-rule="evenodd" fill="#FFF" d="M187.4 261.2l6.9 14.4 18.2 1.1-13.9 10 4.3 15-15.5-8.1-15.5 8.1 4.4-15-14-10 18.2-1.1 6.9-14.4"/><path fill-rule="evenodd" clip-rule="evenodd" fill="#FF3800" d="M338.5 184c61.3 0 111.1 49.8 111.1 111.1s-49.8 111.1-111.1 111.1-111.1-49.8-111.1-111.1S277.1 184 338.5 184z"/><path fill-rule="evenodd" clip-rule="evenodd" fill="#A62200" d="M338.5 184c22.2 0 42.9 6.5 60.3 17.8-16.1-9.5-34.8-14.9-54.8-14.9-59.8 0-108.2 48.5-108.2 108.2 0 59.8 48.5 108.2 108.2 108.2 20 0 38.8-5.4 54.8-14.9-17.4 11.2-38 17.8-60.3 17.8-61.3 0-111.1-49.8-111.1-111.1S277.1 184 338.5 184z"/><path fill-rule="evenodd" clip-rule="evenodd" fill="#FFF" d="M338.5 201.4c51.7 0 93.7 42 93.7 93.7s-42 93.7-93.7 93.7-93.7-42-93.7-93.7 41.9-93.7 93.7-93.7zm0 19.3c41.1 0 74.5 33.3 74.5 74.5 0 41.1-33.3 74.5-74.5 74.5-41.1 0-74.5-33.3-74.5-74.5s33.3-74.5 74.5-74.5z"/><path fill-rule="evenodd" clip-rule="evenodd" fill="#004E7D" d="M338.5 240.9c30 0 54.2 24.3 54.2 54.2 0 30-24.3 54.2-54.2 54.2-30 0-54.2-24.3-54.2-54.2-.1-29.9 24.2-54.2 54.2-54.2z"/><path fill-rule="evenodd" clip-rule="evenodd" fill="#FFF" d="M338.5 249.8l12.2 30 32.4 2.4-24.8 20.9 7.7 31.5-27.5-17.1-27.6 17.1 7.7-31.5-24.7-20.9 32.3-2.4 12.3-30"/><path fill="#FFF" d="M153 86.6l9.6-20.8c4.3 2.7 8.2 4.6 11.5 5.9 3.4 1.2 6.5 1.9 9.5 1.9 2.1 0 3.7-.3 4.9-1 1.2-.7 1.8-1.6 1.8-2.8 0-2.1-3-3.6-8.9-4.7-1.9-.4-3.4-.7-4.5-.9-6.3-1.4-11-3.8-14.4-7.2-3.3-3.4-5-7.7-5-12.9 0-8 3.2-14.5 9.7-19.5 6.5-5 14.9-7.5 25.4-7.5 4.8 0 9.6.6 14.2 1.7 4.7 1.1 9.4 2.8 14.1 5.1l-9.2 19.4c-2.9-1.9-5.8-3.3-8.7-4.3-2.9-1-5.7-1.5-8.5-1.5-2.1 0-3.7.3-4.9.9-1.2.6-1.7 1.5-1.7 2.6 0 2.1 4.2 4 12.6 5.5 1.3.3 2.4.5 3.1.6 5.8 1.1 10.3 3.5 13.6 7.1 3.3 3.6 5 7.8 5 12.9 0 8.2-3.3 14.9-10 20.1-6.7 5.2-15.4 7.8-26.2 7.8-5.5 0-11-.7-16.5-2.1-5.6-1.4-11.1-3.5-16.5-6.3z"/><path fill-rule="evenodd" clip-rule="evenodd" fill="#FFF" d="M140.1 118.6c3.5 0 6.4 2.9 6.4 6.4 0 3.5-2.9 6.4-6.4 6.4-3.5 0-6.4-2.9-6.4-6.4 0-3.5 2.8-6.4 6.4-6.4zm115.4 0c3.5 0 6.4 2.9 6.4 6.4 0 3.5-2.9 6.4-6.4 6.4-3.5 0-6.4-2.9-6.4-6.4 0-3.5 2.8-6.4 6.4-6.4z"/></svg>