<svg xmlns="http://www.w3.org/2000/svg" width="217.838" height="99.491" viewBox="0 0 217.838 99.491"><path fill-rule="evenodd" clip-rule="evenodd" fill="#2BACE2" d="M49.44 0c27.468 0 49.745 22.276 49.745 49.745 0 27.47-22.277 49.746-49.746 49.746-27.47 0-49.747-22.275-49.747-49.745S21.97 0 49.44 0z"/><path fill-rule="evenodd" clip-rule="evenodd" fill="#010101" d="M49.44 8.31c10.07 0 19.374 3.3 26.885 8.877l8.778-1.202c2.604-.357 5.595-.76 8.223-.634 1.867.09 3.893.517 4.946 2.235 1.028 1.68.556 3.72-.006 5.468-.69 2.15-1.594 4.272-2.348 6.408l-.01.028-1.576 4.115c1.87 1.622 3.53 3.552 4.894 5.77 3.723 6.055 4.662 13.333 2.665 20.088l18.05 10.972-4.46 7.333L98.064 67.18c-1.893 2.57-4.264 4.746-6.997 6.427-1.092.67-2.216 1.247-3.36 1.732-.482.633-.99 1.256-1.525 1.864C77.107 87.51 62.71 91.18 49.44 91.18c-13.27 0-27.667-3.67-36.742-13.976C6.825 70.534 4.28 62.27 4.28 53.468c0-5.04.83-9.886 2.352-14.413L2.97 29.49l-.01-.027c-.754-2.136-1.658-4.26-2.348-6.408-.562-1.75-1.035-3.787-.007-5.468 1.052-1.72 3.08-2.144 4.946-2.234 2.63-.126 5.62.276 8.224.634l8.778 1.202c7.513-5.58 16.816-8.88 26.887-8.88z"/><path fill-rule="evenodd" clip-rule="evenodd" fill="#FFF" d="M49.44 11.008c9.454 0 18.186 3.093 25.243 8.32l4.455-.304 6.264-.858c14.9-2.04 11.927.686 8.44 10.562l-1.32 3.448c-1.51-1.08-3.127-1.98-4.816-2.69-.654-1.042-1.35-2.054-2.082-3.036 2.547-3.147 5.924-5.826 9.8-7.12-5.996-.03-9.727 3.744-12.605 7.896.237.303.47.61.702.92-6.12-1.387-12.762-.476-18.525 3.07-11.705 7.196-15.36 22.526-8.162 34.23C62.43 74.54 72.933 78.772 82.83 76.83c-7.774 7.787-19.84 11.652-33.39 11.652-23.446 0-42.46-11.568-42.46-35.015 0-9.977 3.444-19.15 9.206-26.397l-1.6-2.31-.038.045c-.133-.163-.27-.324-.41-.484-3.205-3.675-7.394-5.498-10.682-4.99 3.176 1.06 6.44 3.242 9.19 6.395.208.24.413.48.61.726-2.182 2.917-4.018 6.106-5.45 9.51l-2.77-7.23c-3.487-9.877-6.46-12.604 8.44-10.563l6.033.826 4.705.32c7.054-5.218 15.78-8.305 25.224-8.305zm20.155 27.685c-7.575 4.658-9.94 14.578-5.282 22.153 4.658 7.575 14.58 9.94 22.153 5.28s9.94-14.577 5.28-22.15c-4.657-7.576-14.576-9.94-22.15-5.283z"/><path fill-rule="evenodd" clip-rule="evenodd" fill="#E8E8E8" d="M34.507 86.733C18.427 82.698 6.98 71.66 6.98 53.468c0-5.724 1.134-11.183 3.19-16.166h-.002l.134-.32c1.497-3.542 3.48-6.878 5.867-9.892l.015-.02c-.69-.995-1.31-1.904-2.047-2.75-3.206-3.675-7.395-5.498-10.683-4.99 3.176 1.06 6.44 3.242 9.19 6.395.208.24.413.48.61.726-2.182 2.917-4.018 6.106-5.45 9.51l-2.77-7.23c-3.487-9.877-6.46-12.604 8.44-10.563l6.033.826 4.706.32c.316-.232.635-.462.957-.687v.003c4.235-2.956 9.033-5.16 14.2-6.42C24.25 19.12 13.655 35.1 13.655 53.704c0 16.537 8.372 27.514 20.853 33.03z"/><path fill-rule="evenodd" clip-rule="evenodd" fill="#010101" d="M50.19 68.492c2.29-2.11 4.678-1.495 5.504-2.86.477-.79.266-1.584-.293-2.268-1.877-2.296-10.833-2.296-12.71 0-.56.684-.77 1.48-.295 2.268.85 1.406 3.36.712 5.708 3.06.02.147.04.283.062.4.23 1.178-.1 1.91-.796 2.387-.75.51-1.914.76-3.262.936-1.393.184-3.304-1.2-4.64-2.17-1.373-.993-1.505-.545-.45.747 1.19 1.46 2.476 3.035 4.424 3.35.612.1 1.212.078 1.75-.008.703-.113 1.31-.338 1.715-.55.842-.44 1.493-.66 2.132-.66.637 0 1.288.22 2.13.66.406.212 1.012.437 1.714.55.54.086 1.14.108 1.753.01 1.948-.317 3.233-1.893 4.424-3.352.91-1.116 1.12-1.883-.447-.748-1.336.97-3.248 2.354-4.642 2.17-1.342-.176-2.45-.424-3.148-.925l-.014-.01c-.65-.476-.938-1.21-.707-2.39.034-.156.06-.365.09-.598z"/><path fill-rule="evenodd" clip-rule="evenodd" fill="#ED2224" d="M99.702 60.27l17.725 10.776-2.56 4.21-17.337-10.54c-1.82 2.892-4.315 5.422-7.423 7.333-10.845 6.67-25.046 3.283-31.715-7.562-6.67-10.844-3.284-25.047 7.56-31.717C76.798 26.104 91 29.49 97.67 40.334c3.83 6.226 4.34 13.56 2.032 19.938zM68.638 37.138c8.434-5.188 19.48-2.554 24.668 5.88 5.187 8.436 2.553 19.48-5.88 24.67-8.436 5.186-19.482 2.553-24.67-5.882-5.188-8.435-2.553-19.482 5.882-24.668z"/><path fill-rule="evenodd" clip-rule="evenodd" fill="#9A1B1F" d="M115.407 74.37l-.538.885-17.34-10.54c.422-.552.072-.01.44-.594l17.437 10.25zm-24.323-2.955c-.318.218-.644.43-.976.634-10.845 6.67-25.046 3.283-31.715-7.562-6.67-10.844-3.284-25.047 7.56-31.717.334-.203.67-.397 1.007-.583-25.016 17.49-3.816 54.087 24.124 39.228zM69.648 36.56c8.287-4.393 18.674-1.644 23.657 6.457 4.982 8.102 2.748 18.61-4.91 24.025.34-.18.707-.33 1.01-.576 18.02-14.67.462-40.21-18.786-30.55-.35.177-.657.422-.972.643z"/><path fill-rule="evenodd" clip-rule="evenodd" fill="#010101" d="M78.362 42.7c.627 0 1.24.06 1.832.18-1.01.504-1.703 1.548-1.703 2.753 0 1.7 1.378 3.076 3.077 3.076 1.7 0 3.077-1.378 3.077-3.077 0-.188-.017-.372-.05-.55 1.91 1.71 3.113 4.195 3.113 6.96 0 5.16-4.185 9.346-9.345 9.346-5.16 0-9.344-4.186-9.344-9.346s4.185-9.345 9.344-9.345zM32.732 49.812c4.45 1.192 7.57 4.873 8.268 9.143-2.075-3.02-5.195-5.346-9.01-6.368-3.818-1.022-7.682-.57-10.99 1.01 2.738-3.35 7.28-4.978 11.732-3.785z"/><path fill-rule="evenodd" clip-rule="evenodd" fill="#BDBEC0" d="M3.74 19.16c.136.032.27.065.4.1-.095.005-.19.012-.284.02l-.115-.12zm9.515 7.29c-1.23 1.646-2.35 3.378-3.35 5.185-1.148-4.315-2.43-8.417-5.777-12.064 2.96 1.133 5.96 3.225 8.516 6.154.21.24.413.483.61.727z"/><path d="M125.68 36.48c1.326.817 3.264 1.497 5.304 1.497 3.025 0 4.793-1.598 4.793-3.91 0-2.142-1.224-3.365-4.317-4.555-3.74-1.326-6.052-3.264-6.052-6.494 0-3.57 2.958-6.22 7.412-6.22 2.346 0 4.045.543 5.065 1.12l-.816 2.415c-.75-.408-2.278-1.088-4.353-1.088-3.128 0-4.317 1.87-4.317 3.434 0 2.14 1.394 3.195 4.556 4.418 3.876 1.496 5.848 3.366 5.848 6.73 0 3.537-2.618 6.596-8.023 6.596-2.21 0-4.623-.646-5.847-1.462l.747-2.48zM145.807 17.17v9.588h11.083V17.17h2.992v22.915h-2.992V29.342h-11.083v10.743h-2.957V17.17h2.957zM168.723 32.878l-2.38 7.207h-3.06l7.785-22.914h3.57l7.82 22.915h-3.163l-2.447-7.207h-8.125zm7.514-2.312l-2.244-6.595c-.51-1.495-.85-2.855-1.19-4.18h-.067c-.34 1.36-.714 2.753-1.155 4.146l-2.243 6.63h6.9zM185.826 17.477c1.496-.306 3.638-.476 5.677-.476 3.162 0 5.202.58 6.63 1.87 1.156 1.02 1.802 2.585 1.802 4.353 0 3.026-1.904 5.03-4.317 5.848v.103c1.768.612 2.82 2.244 3.365 4.624.748 3.196 1.292 5.406 1.768 6.29h-3.06c-.373-.646-.883-2.618-1.528-5.474-.68-3.162-1.904-4.352-4.59-4.453h-2.788v9.927h-2.957v-22.61zm2.957 10.437h3.026c3.16 0 5.166-1.734 5.166-4.352 0-2.958-2.142-4.25-5.27-4.283-1.428 0-2.447.135-2.924.27v8.364zM215.982 29.342h-8.907v8.26h9.928v2.483h-12.885V17.17h12.374v2.482h-9.417v7.242h8.907v2.448zM141.932 60.486h-6.97V57.97h16.965v2.516h-7.004v20.398h-2.99V60.486zM157.435 57.97v9.59h11.083v-9.59h2.992v22.915h-2.992V70.142h-11.083v10.743h-2.957V57.97h2.957zM179.603 57.97v22.915h-2.957V57.97h2.957zM184.364 77.28c1.326.816 3.264 1.497 5.304 1.497 3.025 0 4.793-1.6 4.793-3.91 0-2.142-1.223-3.365-4.316-4.556-3.74-1.324-6.052-3.263-6.052-6.492 0-3.57 2.958-6.22 7.412-6.22 2.346 0 4.045.542 5.065 1.12l-.817 2.414c-.748-.408-2.277-1.088-4.352-1.088-3.127 0-4.316 1.87-4.316 3.434 0 2.142 1.394 3.195 4.556 4.42 3.876 1.495 5.848 3.365 5.848 6.73 0 3.536-2.618 6.596-8.023 6.596-2.21 0-4.624-.646-5.848-1.462l.747-2.48zM200.853 79.15c0-1.224.85-2.107 2.006-2.107 1.224 0 2.005.884 2.005 2.108 0 1.19-.78 2.108-2.006 2.108-1.19 0-2.007-.917-2.007-2.107zm.85-4.86l-.476-16.32h3.264l-.475 16.32h-2.31z"/></svg>