<svg xmlns="http://www.w3.org/2000/svg" viewBox="0 0 144.1 134.4"><path fill-rule="evenodd" clip-rule="evenodd" fill="#010101" d="M113.7 25l1.4-3.7c.8-2.2 1.7-4.3 2.4-6.5.6-1.8 1-3.8 0-5.5-1.1-1.7-3.1-2.2-5-2.2-2.6-.1-5.7.3-8.3.6l-8.8 1.2C87.8 3.3 78.5 0 68.3 0 58.2 0 48.8 3.3 41.2 8.9l-8.8-1.2c-2.6-.4-5.6-.8-8.3-.6-1.9.1-3.9.5-5 2.2-1 1.7-.6 3.7 0 5.5.7 2.2 1.6 4.3 2.4 6.5l3.7 9.6c-1.5 4.6-2.4 9.4-2.4 14.5 0 8.9 2.6 17.2 8.5 23.9.6.7 1.2 1.3 1.8 1.9v.1c-2.9.3-5.9-1-7.6-3.6-.2-.3-.3-1-.5-1.4-.2-.6-.4-1.2-.8-1.8-1.7-2.6-5.2-3.4-7.8-1.7-3 1.9-3 5.1-1.6 8.1.3.7.7 1.4 1.1 2 4.1 6.3 11.5 9 18.4 7.5.3.8.6 1.6.9 2.3-1.2.2-2.4.2-3.5 0l-1.4-.3-.6 1.4c-1.1 2.8-1.6 5.7-1.3 8.7l.1 1.3 6.4 7.4c-.1 0-.2.1-.3.1l-2.6.9 1.8 2c.2.2.4.5.7.7l6.4 7.1.2.2.2.2.2.2.2.2.2.2.2.2.2.2.2.2.2.2.2.2.2.2.2.2.2.2.2.2.2.2.2.2.2.2.2.2.2.2.2.2.2.2.2.2.2.2.2.2.2.2.2.2.3.2.3.2.3.1.3.1.3.2.8.5.6-.5 1.1-1.2.1-.1.2-.1.2-.1.2-.1.2-.1.2-.1.2-.1.2-.1.2-.1.2-.1.2-.1.2-.1.2-.1.2-.1.3-.1.3-.1H57l.3.1.3.1.3.1h.1l3 6.1 1.3.2H75.2l1.3-.2 2.9-5.9c.2-.2.5-.3.7-.4l.3-.1H84l.3.1.3.1.2.1.2.1.2.1.2.1.2.1.2.1.2.1.2.1.2.1.2.1.2.1.2.1.2.1.1.1 1.1 1.2.3-.2.8-.4.4-.2.3-.1.3-.1.3-.2.3-.2.2-.2.2-.2.2-.2.2-.2.2-.2.2-.2.2-.2.2-.2.2-.2.2-.2.2-.2.2-.2.2-.2.2-.2.2-.2.2-.2.2-.2.2-.2.2-.2.2-.2.2-.2.2-.2.2-.2.2-.2.2-.2.2-.2 6.4-7.1.7-.7 1.8-2-2.6-.9c-.1 0-.2-.1-.3-.1l6.4-7.4.1-1.3c0-.3 0-.6.1-.9 4.9 1.6 10.4 2.2 14.2.6.1-.1.2-.1.3-.2 2.8-1.3 4.5-4 5.2-7 .8-3.2.5-6.6-.5-9.7-.9-2.6-2.3-5-4.3-6.8-1.9-1.7-4.3-2.7-6.8-2.6-.2 0-.4 0-.6.1l-1.7-3.3c5.3-4.7 8.3-11.5 8.3-18.6-.5-7.1-3.9-13.9-9.3-18.5zm-7.8 43.7c.3-.4.7-.8 1-1.3l2 4c-.4.2-.7.4-1.1.3-.9-.2-1.6-2-1.9-3z"/><path fill-rule="evenodd" clip-rule="evenodd" fill="#FFF" d="M23.7 69c2.1 3.2 5.6 4.9 9.2 4.6 0 1.5.4 3.1.8 4.7-6 1.3-12.3-1.1-15.8-6.5-1.3-2.1-2.9-5.2-.2-7 1.6-1 3.7-.6 4.8 1 .6 1 .5 2.1 1.2 3.2z"/><path fill-rule="evenodd" clip-rule="evenodd" fill="#DBB127" d="M99.6 101l6.8-7.8c-1.8-.3-3.7-.3-5.4.3-1.7.6-3.6 1.9-3.6 3.9-.1 1.5.9 2.7 2.2 3.6zm-62.4 0l-6.8-7.8c1.8-.3 3.7-.3 5.4.3 1.7.6 3.6 1.9 3.6 3.9 0 1.5-1 2.7-2.2 3.6zm59.5 7.4c-2.1 2.5-4.1 4.6-6.9 6.4l3.4-4.3c1.2-.7 2.4-1.4 3.5-2.1zm-49.8 6.3c-2.7-1.8-4.7-3.9-6.9-6.4 1.1.8 2.3 1.4 3.5 2.1l3.4 4.3zm1.8 1.1l-4.6-5.8c2.2-2.4 6.1-3.2 9.4-2.6l3.3 6.1h-.1c-2.9-.5-6 .1-8 2.3zm5.8-8.3c2.6.8 6 3.3 4.5 6.5-.4-.2-.8-.3-1.2-.4l-3.3-6.1zm22.6 7.9l-2.1 4.5c-4.4.6-8.8.6-13.2 0l-2.1-4.5c5.6.7 11.7.7 17.4 0zm1.5-1.7c-.3.1-.6.2-.8.3-1.3-3 1.3-5.4 3.9-6.4l-3.1 6.1zm9.5 2.1c-2.1-2.2-5.4-2.8-8.3-2.3h-.1l3.1-6.1c3.3-.7 7.6 0 9.9 2.5l-4.6 5.9z"/><path fill-rule="evenodd" clip-rule="evenodd" fill="#FFCD05" d="M68.4 115c2.9 0 5.8-.1 8.6-.5-1.5-3.1.6-6.5 4.8-7.7 4.2-1.3 9.1-.1 11.6 2.6 2.2-1.2 4.2-2.6 5.8-4l.8-.7c.5-.5 1.1-1 1.5-1.6-4-1.4-6.1-4.6-4.8-7.4 1.3-2.7 5.5-4.1 9.7-3.3 0-.5.1-.9.1-1.4-3.2-1.3-5.9-3-7.4-4.8-.8-1-1.6-2-2.2-3.1-.4-.3-.8-.5-1.1-.8-2.3 2.8-4.8 5.1-7.5 7.1v.1c-.6 1.2-1.3 2.5-2.1 3.6-.3 1.3-1 2.5-1.9 3.6L83 97.9c-3.3 3-8.6 4.9-14.7 4.9-5.7 0-10.7-1.7-14-4.4L52.8 97c-1-1.1-1.8-2.4-2.2-3.7-.2-.3-.3-.5-.5-.8-1.2.9-2.8 1.1-4.3.9-5.1-.5-7.5-4-9.5-8.2-.1-.2-.2-.5-.3-.7-1.5.3-3.1.3-4.5 0-1.1 2.6-1.5 5.2-1.2 7.8 4.1-.8 8.3.6 9.7 3.3 1.4 2.8-.7 6-4.8 7.4l1.8 1.8c.1.1.2.2.3.2l.8.7c1.5 1.3 3.3 2.5 5.3 3.5 2.5-2.7 7.4-3.9 11.6-2.6 4.2 1.3 6.3 4.6 4.8 7.7 2.8.6 5.7.7 8.6.7z"/><path fill-rule="evenodd" clip-rule="evenodd" fill="#0795D1" d="M40 76.5c14.6 22.3 42 22.3 56.6 0-8.4 5-18.6 6.9-28.3 6.9-9.6 0-19.9-1.9-28.3-6.9z"/><path fill-rule="evenodd" clip-rule="evenodd" fill="#02527D" d="M40 76.5c7 10.7 17.1 16.3 27.2 16.7.6 0 1.3-.1 1.9-.1-8.5-.9-16.8-5.4-23.2-13.7-2.1-.8-4-1.8-5.9-2.9z"/><path fill-rule="evenodd" clip-rule="evenodd" fill="#FFF" d="M68.3 2.7c9.5 0 18.3 3.1 25.4 8.4l6.8-.6c3-.4 6-.9 9.1-1.1 9.1-.6 6.5 2.6 3.4 11.2l-1.1 3c-1.7-1.2-3.5-2.2-5.5-2.9-.5-.8-1.1-1.6-1.7-2.4.2-.2.4-.5.6-.7 2.8-3.2 6.1-5.4 9.2-6.4-5.8-.5-9.8 3.8-12.7 7.9.1.1.2.3.3.4-1.6-.3-3.2-.5-4.8-.5-13.7 0-24.9 11.2-24.9 25s11.2 25.1 25.1 25.1c1.6 0 3.3-.2 4.9-.5-7.8 8.1-20.1 12.1-34 12.1-23.6 0-42.8-11.6-42.8-35.3 0-10 3.5-19.3 9.3-26.6-2.7-4.2-7.1-8.7-12.8-7.8 3.2 1.1 6.5 3.3 9.2 6.4.2.2.4.5.6.7-2.2 2.9-4 6.1-5.5 9.6l-2.8-7.3C20.6 12 18 8.8 26.8 9.3c2.7.2 5.5.6 8.2 1 2.7.4 5.3.6 7.9.8C50 5.8 58.8 2.7 68.3 2.7zm29.1 25.1c-9 0-16.2 7.3-16.2 16.2s7.3 16.2 16.2 16.2c9 0 16.2-7.3 16.2-16.2s-7.2-16.2-16.2-16.2z"/><path fill-rule="evenodd" clip-rule="evenodd" fill="#E8E8E8" d="M53.3 79c-16.2-4.1-27.7-15.2-27.7-33.5 0-4 .5-7.8 1.5-11.4l.1-.3.1-.2c.1-.2.1-.4.2-.6l.1-.3c.1-.2.1-.3.2-.5l.1-.4.1-.3c.1-.2.1-.4.2-.5l.1-.3c.1-.2.1-.3.2-.5.1-.1.1-.3.2-.4.1-.2.1-.3.2-.5l.1-.3.2-.4c.1-.1.1-.3.2-.4l.2-.4c.1-.2.1-.3.2-.5l.1-.2.3-.6.1-.2.3-.6.1-.2c.1-.1.2-.3.2-.4.1-.2.2-.3.3-.5l.2-.4.2-.3c.1-.1.2-.3.3-.4l.2-.3c.1-.1.2-.3.3-.4l.2-.3c.1-.2.2-.3.3-.5.1-.1.2-.2.2-.4l.3-.4.2-.3c.1-.2.2-.3.3-.5l.2-.2c.1-.2.3-.3.4-.5l.2-.2c.1-.2.3-.4.4-.5-2.7-4.2-7.1-8.7-12.8-7.8 3.2 1.1 6.5 3.3 9.2 6.4.2.2.4.5.6.7-2.2 2.9-4 6.1-5.5 9.6l-2.8-7.3C20.6 12 18 8.8 26.8 9.3c2.7.2 5.5.6 8.2 1 2.7.4 5.3.6 7.9.8.6-.4 1.1-.8 1.7-1.2 4.1-2.7 8.6-4.7 13.5-5.9-15.2 7-25.9 23-25.9 41.8.1 16.6 8.5 27.6 21.1 33.2z"/><path fill="#010101" d="M72.9 64.5c1.4.2 3.3-1.2 4.7-2.2 1.6-1.1 1.4-.4.5.8-1.2 1.5-2.5 3.1-4.5 3.4-.6.1-1.2.1-1.8 0-.7-.1-1.3-.3-1.7-.6-.8-.4-1.5-.7-2.1-.7-.6 0-1.3.2-2.1.7-.4.2-1 .4-1.7.6-.5.1-1.1.1-1.8 0-2-.3-3.3-1.9-4.5-3.4-1.1-1.3-.9-1.8.5-.8 1.3 1 3.3 2.4 4.7 2.2 1.4-.2 2.5-.4 3.3-.9.7-.5 1-1.2.8-2.4 0-.1 0-.3-.1-.4-2.4-2.4-4.9-1.7-5.7-3.1-.5-.8-.3-1.6.3-2.3 1.9-2.3 10.9-2.3 12.8 0 .6.7.8 1.5.3 2.3-.8 1.4-3.2.8-5.5 2.9 0 .2-.1.4-.1.6-.2 1.2.1 1.9.7 2.4.5.5 1.6.8 3 .9z"/><path fill-rule="evenodd" clip-rule="evenodd" fill="#ED2224" d="M111.9 62.2l2.2 4.3c-.1.1-.3.1-.4.2-1.5.7-2.6 1.7-3.5 3l-2.4-4.8c-3.1 1.5-6.6 2.4-10.2 2.4-12.8 0-23.2-10.4-23.2-23.2 0-12.8 10.4-23.2 23.2-23.2 12.8 0 23.2 10.4 23.2 23.2-.2 7.3-3.6 13.9-8.9 18.1zM97.4 26c10 0 18.1 8.1 18.1 18.1 0 10-8.1 18.1-18.1 18.1-10 0-18.1-8.1-18.1-18.1.1-10 8.2-18.1 18.1-18.1z"/><path fill-rule="evenodd" clip-rule="evenodd" fill="#9A1B1F" d="M110.1 69.6l-2.4-4.8c.7-.3.1 0 .7-.3l2.3 4.3c-.2.4-.4.6-.6.8zm-11.5-2.4h-1.2c-12.8 0-23.2-10.4-23.2-23.2 0-12.8 10.4-23.2 23.2-23.2h1.2c-30.7 1.9-31.8 44.4 0 46.4zm0-41.2c9.4.6 16.9 8.4 16.9 18S108 61.4 98.6 62c.4 0 .8.1 1.2 0 23.2-3.1 21.6-34.2 0-36.1-.4 0-.8.1-1.2.1z"/><path fill-rule="evenodd" clip-rule="evenodd" fill="#FFF" d="M125 76.2c1.9 5.6.4 11.6-3.4 13.3-3.8 1.7-8.4-1.4-10.2-7.1-1.9-5.6-.4-11.6 3.4-13.3 3.7-1.7 8.3 1.4 10.2 7.1zm-21.6-6.4c.9 3 2.7 4.6 4.7 4.6-.6 2.9-.3 6.1.7 8.9.9 2.6 2.3 5 4.3 6.8l.2.2c-7.8-.9-13-5-15.2-11.2 1.2-1.7 2.2-3.4 3.2-5.3l1.6-3 .5-1z"/><path fill-rule="evenodd" clip-rule="evenodd" fill="#D2D3D4" d="M116.6 89.3c-2.2-1.1-4.2-3.6-5.3-6.8-1.8-5.4-.5-11.1 2.9-13.1-2.3 3.3-2.9 8.6-1.2 13.8.9 2.4 2.1 4.5 3.6 6.1z"/><path fill-rule="evenodd" clip-rule="evenodd" fill="#010101" d="M97.4 34.6c.6 0 1.2.1 1.8.2-1 .5-1.7 1.6-1.7 2.8 0 1.7 1.4 3.1 3.1 3.1s3.1-1.4 3.1-3.1c0-.2 0-.4-.1-.6 1.9 1.7 3.1 4.2 3.1 7 0 5.2-4.2 9.4-9.4 9.4s-9.4-4.2-9.4-9.4c.1-5.2 4.3-9.4 9.5-9.4zM51.5 41.8c4.5 1.2 7.6 4.9 8.3 9.2-2.1-3-5.2-5.4-9.1-6.4-3.8-1-7.7-.6-11.1 1 2.8-3.4 7.4-5 11.9-3.8z"/><path fill-rule="evenodd" clip-rule="evenodd" fill="#0795D1" d="M103.4 69.8c.7 2.3 1.9 3.8 3.3 4.3-1.1.2-5.1 8.1-4.8 11.1-1.7-1.7-3-3.8-3.8-6.2 1.2-1.7 2.2-3.4 3.2-5.3l1.6-3 .5-.9z"/><path fill-rule="evenodd" clip-rule="evenodd" fill="#FFF" d="M71.3 95.8c3.6 3.1 8 2 12-3.5-3.8 2-7.9 3.1-12 3.5zM65.3 95.8c-3.6 3.1-8 2-12-3.5 3.9 2 7.9 3.1 12 3.5zM46.1 90.7c-4.2-.4-5.9-3.5-7.3-6.7-2-4.3-2.9-7.4-3.2-9.6 3.6 6.6 8.2 11.7 13.3 15.3-.3.8-1.1 1.2-2.8 1z"/><path fill-rule="evenodd" clip-rule="evenodd" fill="#0795D1" d="M39.2 84.8c-.1-.2-.2-.5-.4-.7-2-4.3-2.9-7.4-3.2-9.6 2 3.6 4.2 6.7 6.7 9.4h-.1c-1 .4-2 .7-3 .9z"/><path fill-rule="evenodd" clip-rule="evenodd" fill="#BDBEC0" d="M31.9 18.3c-1.2 1.7-2.4 3.4-3.4 5.2-1.2-4.3-2.4-8.5-5.8-12.1 3 1.1 6 3.2 8.6 6.2.2.2.4.4.6.7z"/><path fill-rule="evenodd" clip-rule="evenodd" fill="#010101" d="M17.9 130.7H14.3l-.6-.1-1.4-2.7H9.8l-.1.1-.1.1-.1.1-.1.1-.1.1-.1.1-.5.5-.1-.1-.4-.2-.2-.1-.1-.1-.1-.1-.1-.1-.1-.1H8l-.1-.1-.1-.1-.1-.1-.1-.1-.1-.1-.1-.1-.1-.1-.1-.1-.1-.1-.1.1-.1-.1-.1-.1-.1-.1-.1-.1h-.2l-.1-.1-.1-.1-.1-.1-.1-.1-.1-.1-.1-.1-.1-.1-.1-.1-.1-.1-2.8-3.1-.3-.3-.8-.9 1.2-.4s.1 0 .1-.1L.1 118l-.1-.6c-.1-1.3.1-2.6.6-3.9l.2-.6.6.1c1 .2 2.5 0 3.4-.7l-1.5-2.8.8-.7c1.2-1 2.6-1.8 4.1-2.4l.6-.2.4.5c.3.4.9.6 1.4.7.7.2 1.5.1 2.2-.1.5-.1 1-.4 1.4-.7.7-.6.4-1.2.1-1.9l.9-.1c.9-.1 1.8-.2 2.7-.2.9 0 1.8.1 2.7.2l.8.1c-.3.7-.5 1.2.2 1.9.4.3.9.6 1.4.7.7.2 1.5.2 2.2.1.5-.1 1.1-.3 1.4-.7l.4-.5.6.2c1.4.6 2.8 1.4 4.1 2.4l.8.7-1.5 2.8c.9.7 2.3.9 3.4.7l.6-.1.2.6c.5 1.2.7 2.6.6 3.9l-.1.6-2.9 3.3s.1 0 .1.1l1.2.4-.8.9-.3.3-2.9 3.2-.1.1-.1.1-.1.1-.1.1-.1.1-.1.1-.1.1-.1.1-.1.1-.1.1-.1.1-.1.1-.1.1-.1.1-.1.1-.1.1-.1.1-.1.1-.1.1-.1.1-.1.1-.1.1.1-.4-.1.1-.1.1-.1.1-.1.1-.1.1-.1.1-.1.1-.2.1-.4.2-.1.1-.5-.5-.1-.1-.1-.1-.1-.1-.1-.1-.1-.1-.1-.1H23.2c-.1 0-.2.1-.3.2l-1.3 2.6-.6.1H17.6l.3-.2zm6.8-13.1c-1.8-1.4-4.8-2-6.8-2s-5 .6-6.8 2c3.2 3.4 10.4 3.4 13.6 0z"/><path fill-rule="evenodd" clip-rule="evenodd" fill="#70953D" d="M8.3 127.4c-1.3-.8-2.1-1.8-3.1-2.9.4.3.9.6 1.3.8l.3.1 1.5 2zm-2.6-15.3l-1.2-2.3.2.1c.9.4 1.7 1.2 1 2.2zm24.4 0l1.2-2.3-.2.1c-.9.4-1.7 1.2-1 2.2zm-5 5c-1.5-1.2-4.2-2.1-7.2-2.1s-5.7.9-7.2 2.1c-.2-.3-.3-.6-.4-1 0-.2-.1-.4-.1-.6 0-.2 0-.4.1-.6.3-1.3 1.3-2.3 2.4-2.9 1.5-.9 3.4-1.3 5.2-1.3 1.8 0 3.6.4 5.2 1.3 1.1.6 2.2 1.6 2.4 2.9 0 .2.1.4.1.6 0 .2 0 .4-.1.6-.1.4-.2.7-.4 1zm-21.2 4.1l-3-3.5c.8-.1 1.7-.1 2.4.1.6.2 1.2.6 1.5 1.1.1.2.1.4.1.6 0 .8-.4 1.3-1 1.7zm28 0l3-3.5c-.8-.1-1.7-.1-2.4.1-.6.2-1.2.6-1.5 1.1-.1.2-.1.4-.1.6 0 .8.4 1.3 1 1.7zm-1.3 3.3c-1 1.1-1.8 2-3 2.8l-.1.1 1.5-1.9.3-.2c.5-.2.9-.5 1.3-.8zm-3.9 3.4c-.9-1-2.4-1.3-3.7-1l1.4-2.7c1.5-.3 3.4 0 4.4 1.1l-2.1 2.6zm-4.2-.9l-.3.1h-.1c-.1-.3-.2-.6-.1-.9.1-1 1-1.6 1.9-1.9l-1.4 2.7zm-.7.7l-.9 2c-2 .3-4 .3-5.9 0l-.9-2c1.3.2 2.6.2 3.9.2 1.2 0 2.5 0 3.8-.2zm-10.1-3.5c1 .3 2 1 2.2 2 0 .3 0 .6-.2.9-.2-.1-.4-.1-.6-.2l-1.4-2.7zm-2.6 3.7L7 125.2c1-1.1 2.8-1.4 4.2-1.2l1.5 2.7c-1.3-.1-2.7.2-3.6 1.2z"/><path fill-rule="evenodd" clip-rule="evenodd" fill="#9ACA3C" d="M17.9 127.5c1.3 0 2.6-.1 3.9-.2-.7-1.4.3-2.9 2.2-3.5 1.9-.6 4.1 0 5.2 1.2 1.5-.8 2.7-1.8 3.7-2.8-1.8-.6-2.7-2.1-2.1-3.3.6-1.2 2.5-1.8 4.3-1.5.1-1.2-.1-2.4-.5-3.5-1.7.3-3.7-.3-4.6-1.4-.9-1.1-.3-2.4 1.2-2.9-1.1-.9-2.5-1.7-3.9-2.3-.8 1-2.7 1.4-4.4.9-1.7-.5-2.7-1.6-2.3-2.7-.8-.1-1.7-.2-2.6-.2-.9 0-1.7.1-2.6.2.4 1-.5 2.2-2.3 2.7-1.8.5-3.7 0-4.4-.9-1.4.6-2.8 1.4-3.9 2.3 1.5.5 2.1 1.8 1.2 2.9-.9 1.1-2.9 1.7-4.6 1.4-.5 1.2-.7 2.3-.5 3.5 1.9-.3 3.7.3 4.3 1.5.6 1.2-.3 2.7-2.1 3.3.9 1.1 2.2 2 3.7 2.8 1.1-1.2 3.3-1.7 5.2-1.2 1.9.6 2.8 2.1 2.2 3.5 1.1.2 2.4.2 3.7.2zm0-17.4c4.6 0 8.4 2.5 8.4 5.5s-3.8 5.5-8.4 5.5c-4.6 0-8.4-2.5-8.4-5.5s3.8-5.5 8.4-5.5z"/><path fill-rule="evenodd" clip-rule="evenodd" fill="#010101" d="M122 134.4H118.3l-.7-.1-1.7-3.4H113.5l-.1.1-.1.1-.1.1-.1.1-.1.1-.1.1-.1.1-.1.1-.1.1-.1.1-.6.6-.2-.1-.5-.2-.2-.1-.1-.1-.1-.1-.1-.1-.1-.1-.1-.1-.1-.1-.1-.1-.1-.1-.1-.1-.1-.1-.1-.1-.1-.1-.1-.1-.1-.1-.1-.1-.1-.1-.1-.1-.1-.1-1.2-.3-.1-.1-.1-.1-.1-.1-.1-.1-.1-.1-.1-.1-.1-.1-.1-.1-.1-.1-.1-.1-.1-.1-3.6-3.9-.4-.4-1-1.1 1.4-.5c.1 0 .1 0 .2-.1l-3.5-4.1v-.8c-.1-1.6.1-3.3.7-4.8l.3-.7.8.2c1.3.2 3.1 0 4.2-.8l-1.8-3.4 1-.8c1.5-1.2 3.2-2.2 5-3l.7-.3.5.6c.4.5 1.1.7 1.7.9.9.2 1.9.1 2.7-.1.6-.2 1.2-.4 1.7-.9.8-.8.5-1.4.1-2.3l1.1-.2c1.1-.1 2.2-.2 3.3-.2 1.1 0 2.2.1 3.3.2l1 .2c-.4.9-.6 1.5.2 2.3.5.4 1.1.7 1.7.9.9.2 1.8.3 2.7.1.6-.1 1.3-.4 1.7-.9l.5-.6.7.3c1.8.8 3.5 1.8 5 3l1 .8-1.8 3.4c1.1.8 2.9 1.1 4.2.8l.8-.2.3.7c.6 1.5.9 3.1.7 4.8l-.1.7-3.5 4.1c.1 0 .1 0 .2.1l1.4.5-1 1.1c-.1.1-.2.3-.4.4l-3.6 4-.1.1-.1.1-.1.1-.1.1-.1.1-.1.1-.1.1-.1.1-.1.1-.1.1v.1l-.1.1-.1.1-.1.1-.1.1-.1.1-.1.1-.1.1-.1.1-.1.1-.1.1-.1.1-.1.1-.1.1-.1.1-.1.1-.1.1-.1.1-.1.1-.1.1-.2.1-.4.2-.2.1-.6-.6-.1-.1-.1-.1-.1-.1-.1-.1-.1-.1-.1-.1-.1-.1-.1-.1-.1-.1-.1-.1H129.6c-.1 0-.3.1-.4.2l-1.6 3.3-.7.1H123.3l-1.3.1zm8.4-16.1c-2.2-1.7-5.9-2.4-8.4-2.4s-6.2.7-8.4 2.4c4 4.1 12.8 4.2 16.8 0z"/><path fill-rule="evenodd" clip-rule="evenodd" fill="#B92025" d="M110.2 130.3l-.1-.1c-1.4-1-2.5-2.2-3.7-3.5.5.4 1.1.7 1.6 1l.3.2 1.9 2.4zm-3.3-18.8l-1.5-2.8.2.1c1.3.4 2.2 1.5 1.3 2.7zm30.2 0l1.5-2.8-.2.1c-1.2.4-2.2 1.5-1.3 2.7zm-6.2 6.2c-1.9-1.5-5.2-2.5-8.9-2.5s-7 1.1-8.9 2.6c-.2-.4-.4-.8-.5-1.2-.1-.2-.1-.5-.1-.7 0-.2 0-.5.1-.7.3-1.6 1.6-2.8 3-3.5 1.9-1.1 4.2-1.6 6.4-1.6s4.5.5 6.4 1.6c1.3.8 2.7 2 3 3.5 0 .2.1.5.1.7 0 .2 0 .5-.1.7-.1.3-.2.7-.5 1.1zm-26.1 5l-3.7-4.3c1-.2 2.1-.1 3 .2.7.2 1.5.7 1.8 1.4.1.2.2.5.2.8-.1.8-.6 1.5-1.3 1.9zm34.5 0l3.7-4.3c-1-.2-2.1-.1-3 .2-.7.2-1.5.7-1.8 1.4-.1.2-.2.5-.2.8 0 .8.6 1.5 1.3 1.9zm-1.6 4.1c-1.2 1.3-2.3 2.5-3.8 3.5l1.9-2.4.3-.2c.5-.2 1.1-.5 1.6-.9zm-4.8 4.1c-1.2-1.2-3-1.6-4.6-1.3h-.1l1.7-3.3c1.8-.4 4.2 0 5.5 1.4l-2.5 3.2zm-5.2-1.1l-.4.1h-.1c-.2-.4-.2-.8-.2-1.2.2-1.2 1.3-2 2.4-2.4l-1.7 3.5zm-.9.9l-1.1 2.5c-2.4.3-4.9.3-7.3 0l-1.1-2.5c1.6.2 3.2.3 4.8.3 1.5 0 3.2-.1 4.7-.3zm-12.4-4.3h.1c1.1.3 2.4 1.1 2.5 2.4.1.4 0 .8-.2 1.2-.2-.1-.5-.2-.7-.2l-1.7-3.4zm-3.3 4.5l-2.6-3.2c1.2-1.3 3.4-1.8 5.2-1.5l1.8 3.4c-1.5-.2-3.2.1-4.4 1.3z"/><path fill-rule="evenodd" clip-rule="evenodd" fill="#ED2224" d="M122 130.5c1.6 0 3.2-.1 4.8-.3-.8-1.7.3-3.6 2.7-4.3 2.3-.7 5-.1 6.4 1.4 1.8-1 3.4-2.2 4.5-3.5-2.2-.8-3.4-2.5-2.6-4.1.7-1.5 3.1-2.3 5.3-1.8.1-1.4-.1-2.9-.7-4.3-2.1.4-4.6-.3-5.6-1.7-1.1-1.4-.4-2.9 1.5-3.6-1.4-1.1-3-2.1-4.8-2.8-.9 1.2-3.3 1.7-5.5 1.1-2.2-.6-3.3-2-2.8-3.3-1-.1-2.1-.2-3.2-.2s-2.1.1-3.2.2c.5 1.3-.6 2.7-2.8 3.3-2.2.6-4.5.1-5.5-1.1-1.8.8-3.4 1.7-4.8 2.8 1.9.7 2.5 2.2 1.5 3.6-1.1 1.4-3.5 2.1-5.6 1.7-.6 1.4-.8 2.9-.7 4.3 2.3-.4 4.6.3 5.3 1.8.7 1.5-.4 3.3-2.6 4.1 1.2 1.3 2.7 2.5 4.5 3.5 1.4-1.5 4.1-2.1 6.4-1.4 2.3.7 3.5 2.6 2.7 4.3 1.6.2 3.2.3 4.8.3zm0-21.5c5.7 0 10.4 3 10.4 6.8 0 3.7-4.6 6.8-10.4 6.8-5.7 0-10.4-3-10.4-6.8.1-3.7 4.7-6.8 10.4-6.8z"/></svg>