<svg xmlns="http://www.w3.org/2000/svg" viewBox="0 0 96.5 122"><path fill-rule="evenodd" clip-rule="evenodd" fill="#CBCBCB" d="M41.3 110.5c21.9 0 39.7 2.6 39.7 5.7 0 3.2-17.8 5.7-39.7 5.7-21.9 0-39.7-2.6-39.7-5.7s17.8-5.7 39.7-5.7z"/><path fill-rule="evenodd" clip-rule="evenodd" fill="#010101" d="M41.6 0c6.7 0 13 1.7 18.5 4.8 2.5-.6 5.2-.6 7.9-.1 3.9.7 7.6 2.5 10.8 4.9 1.5.1 3.1.5 4 1.9.5.8.6 1.7.5 2.7 2.6 3.5 4.4 7.7 4.4 12.1 0 2.6-.5 5.1-1.7 7.4-.9 2.3-2.3 4.2-4.2 5.8l3.1 6c.3-.1.7-.1 1-.1 2-.1 3.9.9 5.5 2.4 1.7 1.6 3 3.8 3.9 6.1 1 2.8 1.5 5.8 1.1 8.6-.4 2.6-1.5 5-3.6 6.2-.7.4-1.4.6-2.2.6-1.6.1-3.2-.6-4.6-1.7-1.2 1.1-2.6 2-4 2.7-4.4 2.3-9.2 3.8-14 5.1-1.9.5-3.6 1.1-5.5 1.3l.9 8.8c.1 1.3.2 2.1.4 3.4v.2c3.9 2.4 9 1.6 12-2 .3-.4.5-1.1.7-1.5.3-.7.6-1.3 1-1.8 2.1-2.6 6-2.9 8.5-.8 3 2.5 2.6 5.8.7 8.8l-1.5 2.1c-3.2 3.9-7.9 6.4-12.9 6.9-2.9.3-5.7-.1-8.4-1.1l.7 7c1.9 1.2 3.6 2.8 4.8 4.7 1.4 2.3.9 4.2-1.3 4.7-.5.1-1.1.1-1.7.1H53c-2.8 0-5.4-2.1-5.2-5 .1-.8.2-1.6.5-2.3l-2-7c-.9.1-1.8.2-2.7.2-.8.1-1.7.1-2.6.1-1 0-2-.1-2.9-.2-.5 0-1-.1-1.5-.1l-2 7c.3.7.5 1.5.5 2.3.2 3-2.3 5-5.2 5H16.5c-.6 0-1.1 0-1.7-.1-2.2-.5-2.7-2.5-1.3-4.7 1.2-2 2.9-3.6 4.8-4.7l.6-6c-2.2.5-4.9-.5-6.9-3-2.4-2.9-2.5-6.7-2-10.2.7-4.9 2.3-9.7 4-14.3 1-2.6 1.8-4.8 3.6-6.9.4-.5.9-1 1.4-1.4-3.2-1.7-6.1-3.9-8.6-6.7-4.9-5.6-7.1-12.6-7.1-20 0-4.2.7-8.3 2-12.1L2.2 18c-.6-1.8-1.4-3.6-2-5.4-.5-1.5-.9-3.2 0-4.6 1.2-1.6 2.9-2 4.5-2.1 2.2-.1 4.7.2 6.9.5l7.4 1C25.3 2.8 33.2 0 41.6 0zM76 56.7c-.2-.5-.4-1.1-.5-1.6 0-.3-.1-.6-.1-.9-.8 1.3-1.8 2.6-2.9 3.9l-.1.1 3.6-1.5zm2.2-7.4l-.3-.5c-.1.2-.2.5-.3.7.2-.1.4-.1.6-.2zm1.5-25l-1.4 3.6c.3 1 .5 2.1.7 3.1.2-.2.3-.5.4-.7.4-1.1.6-2.3.6-3.4 0-.8-.1-1.7-.3-2.6z"/><path fill-rule="evenodd" clip-rule="evenodd" fill="#188ECE" d="M20.4 77.8l-5.2-1.4c.3-.9.6-1.7.9-2.6.6-1.6 1.9-5.8 5.1-8.1.5.2 1.1.5 1.6.7-1.1 2.5-1.9 5.3-2.2 8.1l-.2 3.3zm46.1-14.6l3.6 9.5c-.9.3-1.8.5-2.7.7-1 .3-3 1-5.2 1.4v-.4c-.3-2.8-1-5.5-2.2-8 2.4-.8 4.5-1.8 6.5-3.2zM21.5 88l1.4-13.2c.3-2.7 1-5.3 2.1-7.6 5.4 1.8 11.2 2.6 16.7 2.6s11.2-.7 16.5-2.5c1.1 2.3 1.8 4.8 2 7.5l1.4 13.4c.3 3.1-1.1 3.3-2.4 3.5-13.2 1.9-22.2 1.9-35.5 0-1.9-.4-2.5-.6-2.2-3.7z"/><path fill-rule="evenodd" clip-rule="evenodd" fill="#004F7E" d="M20.4 77.8l-5.2-1.4c.3-.9.6-1.7.9-2.6.6-1.6 1.9-5.8 5.1-8.1.5.2 1.1.5 1.6.7-1.1 2.5-1.9 5.3-2.2 8.1l-.2 3.3zM21.5 88l1.4-13.2c.3-2.7 1-5.3 2.1-7.6 1.4.5 2.9.9 4.3 1.2-.4 3.4-.7 6.9-.8 10.5-.1 4.6.1 9.1.6 13.4-1.7-.2-3.5-.4-5.4-.7-1.9-.3-2.5-.5-2.2-3.6z"/><path fill-rule="evenodd" clip-rule="evenodd" fill="#FFF" d="M22.1 93.5l-1.2 12.3c3-.7 6.6-.2 8.4 1.8-1.2-.9-3-1.3-4.9-1.2-4.1.3-7 2.8-8.7 5.5-1.3 2 1 2 1.7 2h13.4c.8 0 2.4-.2 2.2-2.1 0-.8-.3-1.6-.6-2.3l2.4-8.2c-2.7-.8-4.8-2-5.8-3.4 3.5 1.1 7.7 1.8 12.2 1.8 4.5 0 8.7-.6 12.2-1.8-.9 1.3-2.6 2.4-4.9 3.1l2.5 8.5c-.4.7-.6 1.5-.6 2.3-.1 1.9 1.4 2.1 2.2 2.1H66c.7 0 3 .1 1.7-2-.5-.8-1.1-1.5-1.8-2.1-2-1.8-3.7-3.3-7.2-3.4-1.8-.1-3.6.3-4.7 1.2 1.8-2 5.3-2.5 8.4-1.8l-1.2-12.4c-.2 0-.3.1-.5.1-6.4 1-12.7 1.6-19.1 1.6-6.4 0-12.7-.7-19.1-1.7-.2.2-.3.2-.4.1zM68.3 62l8.8-3.7c.7.7 1.6 1.3 2.6 1.3h.6c.2 0 .3-.1.5-.1.1.4.3.8.4 1.2.8 2 1.9 4 3.4 5.6-1.2 1.1-2.5 1.8-3.5 2.3-2.9 1.5-6 2.7-9.3 3.7l-3.8-10 .3-.3zm25-7.4c1.9 5.1 1.2 10.4-1.6 11.9-2.8 1.4-6.7-1.5-8.6-6.5l-.6-1.8c.9-1.2 1.1-3 .9-4.4-.1-.9-.5-1.8-1-2.6.4-1.4 1.2-2.5 2.3-3.1 2.8-1.5 6.7 1.4 8.6 6.5zM19.4 98.5c-1.8.8-4-.2-5.6-2.1-2.2-2.7-1.9-6.6-1.6-8.7.5-3.3 1.3-6.4 2.4-9.7l5.6 1.5-.9 9c-.3 2.5-.4 3.7.7 4.4l-.6 5.6zm58.1-10c-3.4 4.1-9.1 5.3-13.8 3.1-.1.4-.2.7-.4 1l.5 4.6c6.8 3 15 1.2 19.9-4.7 1.8-2.2 4-5.5 1.1-7.8-1.7-1.4-4.1-1.1-5.5.5-.9 1-.9 2.2-1.8 3.3z"/><path fill-rule="evenodd" clip-rule="evenodd" fill="#E4E4E4" d="M21.6 98.7l-.7 7.2c.9-.2 1.9-.3 2.9-.3L25 94l-2.8-.4-.6 5.1zm4.9 7.9c-.7-.1-1.4-.1-2.2-.1-4.1.3-7 2.8-8.7 5.5-1.3 2 1 2 1.7 2h13.6-10.8c-.7 0-3 .1-1.7-2 1.7-2.5 4.4-4.9 8.1-5.4zm-7.1-8.1c-1.8.8-4-.2-5.6-2.1-2.2-2.7-1.9-6.6-1.6-8.7.5-3.3 1.3-6.4 2.4-9.7l2.6.7c-1 3-1.8 6-2.2 9-.3 2.1-.7 6 1.6 8.7.8.9 1.8 1.7 2.8 2.1zm58.1-10c-1.9 2.4-4.6 3.7-7.4 4.1 3.8.5 7.7-.9 10.3-4.1.9-1.1.9-2.3 1.8-3.4.4-.5 1-.9 1.6-1.1-1.5-.6-3.3-.2-4.4 1.1-1 1.1-1 2.3-1.9 3.4z"/><path fill="#FFF" d="M25.9 76.3c.1 0 .1.1.2.1s.2.1.3.1h.5c.1 0 .1 0 .2-.1l.1-.1v-.2c0-.1-.1-.2-.2-.3-.1-.1-.3-.1-.5-.1-.1 0-.3-.1-.4-.1-.1 0-.2-.1-.3-.2-.1-.1-.2-.2-.2-.3-.1-.1-.1-.3-.1-.4 0-.2 0-.3.1-.4l.3-.3c.1-.1.3-.2.4-.2.2 0 .3-.1.5-.1h.5c.1 0 .3.1.4.1.2.1.3.2.3.3 0 .1 0 .2-.1.2 0 .1-.1.2-.1.3 0 0-.1-.1-.2-.1s-.1-.1-.2-.1-.2-.1-.3-.1h-.6s-.1 0-.1.1v.2c0 .2.2.3.5.3.1 0 .3.1.4.1.1 0 .3.1.4.2l.3.3v.5c0 .2 0 .3-.1.5-.1.1-.2.3-.3.4-.1.1-.3.2-.4.2-.2.1-.4.1-.5.1h-.5c-.1 0-.3-.1-.3-.1-.1 0-.1-.1-.2-.1-.1-.1-.1-.1-.1-.2s0-.2.1-.2c0-.1.1-.2.2-.3-.2-.1-.1-.1 0 0zm2.9-3.7c.3 0 .5.2.5.5s-.2.5-.5.5-.5-.2-.5-.5.2-.5.5-.5zm23 4.4c-.1-.1-.1-.2-.1-.4 0-.1 0-.3.1-.4.1-.1.2-.1.4-.1.1 0 .3 0 .4.1.1.1.1.2.1.4 0 .1 0 .3-.1.4-.1.1-.2.1-.4.1-.2.1-.3 0-.4-.1zm1.2-3.2h.5c.1 0 .1 0 .2.1.1 0 .1.1.1.2s.1.2.1.3v2.7h-.5c-.1 0-.1 0-.2-.1-.1 0-.1-.1-.1-.2v-3H53zm0-.7c0-.1 0-.3.1-.4.1-.1.2-.1.4-.1.1 0 .3 0 .3.1.1.1.1.2.1.4 0 .1 0 .3-.1.4-.1.1-.2.1-.3.1-.1 0-.3 0-.4-.1 0-.1-.1-.2-.1-.4zm1.7 3.6c-.1-.2-.2-.3-.3-.5-.1-.2-.1-.4-.1-.6 0-.2 0-.4.1-.7.1-.2.2-.4.3-.5.1-.2.3-.3.5-.4.2-.1.4-.1.7-.1.3 0 .5 0 .7.1.2.1.4.2.5.4.1.2.2.3.3.5.1.2.1.4.1.6 0 .2 0 .4-.1.7-.1.2-.1.4-.3.6-.1.2-.3.3-.5.4-.2.1-.5.1-.7.1-.3 0-.5 0-.7-.1-.2-.3-.4-.4-.5-.5zm.9-.3c.1.1.2.1.3.1.1 0 .2 0 .3-.1.1-.1.2-.1.2-.2s.1-.2.1-.3v-.4-.4c0-.1-.1-.2-.1-.3-.1-.1-.1-.2-.2-.2-.1-.1-.2-.1-.3-.1-.1 0-.2 0-.3.1-.1.1-.2.1-.2.2-.1.1-.1.2-.1.3v.8c0 .1.1.2.1.3l.2.2zm-17.5-2.6H38.4c.2 0 .3 0 .4.1.1.1.2.1.2.3l.3-.3c.2-.1.4-.1.6-.1.2 0 .3 0 .5.1s.3.2.4.3c.1.1.2.3.3.5.1.2.1.5.1.8 0 .4 0 .7-.1.9l-.3.6c-.1.1-.3.2-.4.3-.2.1-.3.1-.5.1h-.3c-.1 0-.2-.1-.3-.1-.1 0-.1-.1-.2-.1l-.1-.1v1h-.9v-4.3zm.9 2.4s.1.1.2.1c.1.1.2.1.3.1.2 0 .4-.1.5-.3.1-.2.2-.4.2-.8v-.4c0-.1-.1-.2-.1-.3-.1-.1-.1-.2-.2-.2s-.2-.1-.3-.1c-.2 0-.3 0-.4.1-.2.2-.2.3-.2.3v1.5zm3.5-.6c0 .3.1.5.2.6.1.2.4.3.7.3h.3c.1 0 .2-.1.2-.1.1 0 .1-.1.2-.1s.1-.1.1-.1c.1.1.1.2.2.3.1.1.1.2.1.3 0 .1-.1.2-.2.3-.1.1-.2.1-.4.2s-.4.1-.6.1c-.2 0-.4 0-.6-.1l-.6-.3c-.2-.1-.3-.3-.4-.6-.1-.2-.2-.5-.2-.9 0-.3 0-.5.1-.7.1-.2.2-.4.4-.5.1-.1.3-.2.5-.3.2-.1.4-.1.6-.1.3 0 .5 0 .7.1.2.1.3.2.4.3.1.1.2.3.2.5.1.2.1.4.1.6v.4h-2v-.2zm1.2-.5c0-.2 0-.4-.1-.5-.1-.1-.2-.2-.5-.2-.2 0-.3.1-.5.2-.1.1-.2.3-.2.5h1.3zm2 .5c0 .3.1.5.2.6.1.2.4.3.7.3h.3c.1 0 .2-.1.2-.1.1 0 .1-.1.2-.1s.1-.1.1-.1c.1.1.1.2.2.3.1.1.1.2.1.3 0 .1-.1.2-.2.3-.1.1-.2.1-.4.2s-.4.1-.6.1c-.2 0-.4 0-.6-.1l-.6-.3c-.2-.1-.3-.3-.4-.6-.1-.2-.2-.5-.2-.9 0-.3 0-.5.1-.7.1-.2.2-.4.4-.5.1-.1.3-.2.5-.3.2-.1.4-.1.6-.1.3 0 .5 0 .7.1.2.1.3.2.4.3.1.1.2.3.2.5.1.2.1.4.1.6v.4h-2v-.2zm1.2-.5c0-.2 0-.4-.1-.5-.1-.1-.2-.2-.5-.2-.2 0-.3.1-.5.2-.1.1-.2.3-.2.5h1.3zm3.4-.5s-.1-.1-.2-.1c-.1-.1-.2-.1-.3-.1-.2 0-.4.1-.5.3-.1.2-.2.4-.2.8v.4c0 .1.1.2.1.3.1.1.1.2.2.2.1.1.2.1.4.1.1 0 .2 0 .3-.1.1-.1.1-.1.1-.2v-1.6h.1zm.3 2.4c-.1 0-.1 0-.2-.1 0-.1-.1-.1-.1-.2-.1.1-.2.2-.3.2-.2.1-.3.1-.6.1-.2 0-.3 0-.5-.1s-.3-.1-.4-.3c-.1-.1-.2-.3-.3-.5-.1-.2-.1-.5-.1-.8 0-.3 0-.6.1-.8.1-.2.2-.4.3-.5.1-.1.3-.2.4-.3.2-.1.3-.1.5-.1s.4 0 .5.1c.1.1.2.1.3.2v-1.3h.5c.1 0 .1 0 .2.1.1 0 .1.1.1.2s.1.2.1.3V77h-.5zm-15-.7c.1 0 .1.1.2.1s.2.1.3.1h.5c.1 0 .1 0 .2-.1l.1-.1v-.2c0-.1-.1-.2-.2-.3-.1-.1-.3-.1-.5-.1-.1 0-.3-.1-.4-.1-.1 0-.2-.1-.3-.2-.1-.1-.2-.2-.2-.3-.1-.1-.1-.3-.1-.4 0-.2 0-.3.1-.4l.3-.3c.1-.1.3-.2.4-.2.2 0 .3-.1.5-.1h.5c.1 0 .3.1.4.1.2.1.3.2.3.3 0 .1 0 .2-.1.2 0 .1-.1.2-.1.3 0 0-.1-.1-.2-.1s-.1-.1-.2-.1-.2-.1-.3-.1h-.6s-.1 0-.1.1v.2c0 .2.2.3.5.3.1 0 .3.1.4.1.1 0 .3.1.4.2l.3.3c.1.1.1.3.1.4 0 .2 0 .3-.1.5-.1.1-.2.3-.3.4-.1.1-.3.2-.4.2-.2.1-.3.1-.5.1H36c-.1 0-.3-.1-.3-.1-.1 0-.1-.1-.2-.1-.1-.1-.1-.1-.1-.2s0-.2.1-.2c0-.1.1-.2.2-.3-.3 0-.2 0-.1.1zm-7.3-2.5h.5c.1 0 .1 0 .2.1.1 0 .1.1.1.2s.1.2.1.3v2.8h-.5c-.1 0-.1 0-.2-.1-.1 0-.1-.1-.1-.2V73.8h-.1zm1.4-1h.5c.1 0 .1 0 .2.1.1 0 .1.1.1.2s.1.2.1.3v.5h1v.7h-1v1.5c0 .3.1.5.4.5h.2c.1 0 .1 0 .2-.1l.1-.1s.1 0 .1-.1c.1.1.1.2.2.3 0 .1.1.1.1.2s0 .1-.1.2c0 .1-.1.1-.2.2-.1 0-.2.1-.3.1h-.4c-.3 0-.5-.1-.7-.2-.2-.1-.3-.3-.3-.4 0-.1-.1-.2-.1-.3V72.8h-.1zm3.1 2.8c0 .3.1.5.2.6.1.2.4.3.7.3h.3l.2-.1c.1 0 .1-.1.2-.1s.1-.1.1-.1c.1.1.1.2.2.3.1.1.1.2.1.3 0 .1-.1.2-.2.3-.1.1-.2.1-.4.2s-.4.1-.6.1c-.2 0-.4 0-.6-.1l-.6-.3c-.2-.1-.3-.3-.4-.6-.1-.2-.2-.5-.2-.9 0-.3 0-.5.1-.7.1-.2.2-.4.4-.5.1-.1.3-.2.5-.3.2-.1.4-.1.6-.1.3 0 .5 0 .7.1.2.1.3.2.4.3.1.1.2.3.2.5.1.2.1.4.1.6v.4h-2v-.2zm1.2-.5c0-.2 0-.4-.1-.5-.1-.1-.2-.2-.5-.2-.2 0-.3.1-.5.2-.1.1-.2.3-.2.5H34z"/><path fill-rule="evenodd" clip-rule="evenodd" fill="#FFF" d="M41.6 2.3c5.6 0 10.8 1.3 15.5 3.5-1.9.8-3.7 2.1-5.1 3.7-1.1 1.2-2 2.7-2.6 4.2-1.2 2.3-1.7 4.8-1.7 7.4.1 5.2 2.4 10.1 5.9 13.9 3.6 3.9 8.5 6.8 13.7 7.7 2.5.4 5 .5 7.5 0l1.6 3.2c-3.7 14.5-17.9 21.6-34.8 21.6-19.7 0-35.7-9.7-35.7-29.5 0-8.4 2.9-16.1 7.8-22.2-.6-.8-1.1-1.6-1.7-2.3-2.7-3.1-6.2-4.6-9-4.2 2.7.9 5.4 2.7 7.7 5.4.2.2.3.4.5.6-1.8 2.5-3.4 5.1-4.6 8l-2.3-6.1c-3-8.3-5.5-10.6 7.1-8.9l5 .7 4 .3c5.9-4.4 13.3-7 21.2-7zm37.9 28.1c.4-1.1.6-2.3.6-3.4 0-3.4-1.6-6.6-3.9-9.1-2.4-2.6-5.7-4.6-9.2-5.2-4.2-.8-8.8.5-11.1 4.4-.4 1.1-.6 2.3-.6 3.4 0 3.4 1.6 6.6 3.9 9.1 2.4 2.6 5.7 4.6 9.2 5.2 4.3.7 8.9-.5 11.1-4.4z"/><path fill-rule="evenodd" clip-rule="evenodd" fill="#CBCBCB" d="M76.4 45.9c-.2.8-.5 1.6-.7 2.4l-1.9-3.7c-2.5.5-5 .5-7.5 0-5.3-.9-10.1-3.8-13.7-7.7-3.5-3.8-5.8-8.7-5.9-13.9 0-2.6.5-5.1 1.7-7.4.3-.8.7-1.6 1.2-2.4-.1.2-.1.3-.2.5-1.2 2.3-1.7 4.8-1.7 7.4.1 5.2 2.4 10.1 5.9 13.9 3.6 3.9 8.5 6.8 13.7 7.7 2.5.4 5 .5 7.5 0l1.6 3.2z"/><path fill-rule="evenodd" clip-rule="evenodd" fill="#E4E4E4" d="M29.1 66.1C15.5 62.7 5.9 53.4 5.9 38c0-8.4 2.9-16.1 7.8-22.2-.6-.8-1.1-1.6-1.7-2.3-2.7-3.1-6.2-4.6-9-4.2 2.7.9 5.4 2.7 7.7 5.4.2.2.3.4.5.6-1.8 2.5-3.4 5.1-4.6 8l-2.3-6.1c-3-8.3-5.5-10.6 7.1-8.9l5 .7 4 .3c3.8-2.8 8.1-4.8 12.8-6-12.8 5.8-21.7 19.3-21.7 34.9 0 14 7.1 23.2 17.6 27.9z"/><path fill-rule="evenodd" clip-rule="evenodd" fill="#BDBEC0" d="M2.9 9.3zm0 0c2.7.9 5.4 2.7 7.7 5.4.2.2.3.4.5.6-1 1.3-1.9 2.8-2.7 4.2-1-3.5-2.6-7.3-5.5-10.2z"/><path fill-rule="evenodd" clip-rule="evenodd" fill="#010101" d="M27.5 21.9c1.4.3 2.7 1 3.6 1.8-1.1-1.2-2.6-2.2-4.1-2.7 3.6-.8 7.1 3.4 6.3 6.3-1.5-1.8-3.7-3.2-6.4-3.8-2.7-.6-5.5-.3-7.8.6 2-2 5.2-2.9 8.4-2.2zm12.7 16.9c-.6.2-1.3.4-2.2.5-1.2.2-2.8-1-3.9-1.8-1.2-.8-1.3-.5-.4.6 1 1.2 2.1 2.5 3.7 2.8.5.1 1 .1 1.5 0 .6-.1 1.1-.3 1.4-.5.7-.4 1.3-.6 1.8-.6s1.1.2 1.8.6c.3.2.8.4 1.4.5.5.1 1 .1 1.5 0 1.6-.3 2.7-1.6 3.7-2.8.8-.9.9-1.6-.4-.6-1.1.8-2.7 2-3.9 1.8-.9-.1-1.6-.3-2.2-.5-.4-.2-.7-.4-.9-.8-.3-.6-.5-1.5-.5-2s0-.6.4-.8c1.2-.9 2.3-.7 2.8-1.3.3-.4.1-.9-.2-1.2-1-1.3-5.9-1.3-7 0-.3.4-.4.8-.2 1.2.4.7 1.7.4 2.9 1.5.3.3.3.4.3.8 0 .5-.2 1.4-.6 2 0 .2-.3.4-.8.6z"/><path fill-rule="evenodd" clip-rule="evenodd" fill="#A52622" d="M78.9 39.6l3.6 7.1c-1 .9-1.7 2.2-2.1 3.6L75.6 41c-2.4.7-5.1.8-8 .3-10-1.8-18.3-10.8-18.4-20.2-.1-9.3 7.9-15.4 18-13.6 10 1.8 18.3 10.8 18.4 20.2 0 5.3-2.6 9.6-6.7 11.9zM67.2 11.2c7.8 1.4 14.2 8.4 14.3 15.7.1 7.3-6.2 12-14 10.6-7.8-1.4-14.2-8.4-14.3-15.7-.1-7.2 6.2-12 14-10.6z"/><path fill-rule="evenodd" clip-rule="evenodd" fill="#EC252C" d="M79.5 38.3l4 7.7c-1.1.7-1.9 1.7-2.5 2.9l-4.7-9.2c-2.4.7-5.1.8-8 .3-10-1.8-18.3-10.8-18.4-20.2-.1-9.3 7.9-15.4 18-13.6C77.8 7.9 86 17 86.2 26.3c0 5.4-2.6 9.7-6.7 12zM67.8 9.9c7.8 1.4 14.2 8.4 14.3 15.7.1 7.3-6.2 12-14 10.6-7.8-1.4-14.2-8.4-14.3-15.7 0-7.3 6.2-12 14-10.6z"/><path fill-rule="evenodd" clip-rule="evenodd" fill="#CBCBCB" d="M87.8 66.1c-1.8-1.1-3.6-3.3-4.7-6.2-1.8-4.8-1.3-9.9 1.2-11.6-1.6 5.3-.5 13.4 3.5 17.8zm-8.9-15.2c.4-.1.9.1 1.2.3-.1.3-.1.5-.1.8-.3 1.9-.1 3.8.3 5.8-.1 0-.2.1-.3.1-1.2.2-2.5-1.2-2.8-3.1-.3-1.9.5-3.7 1.7-3.9z"/><path fill-rule="evenodd" clip-rule="evenodd" fill="#010101" d="M70.2 18.1c-1.9-.9-3.8-1-5.4-.4.4 0 .8.1 1.2.2 1.2.5 1.8 1.8 1.5 2.8-.4 1-1.6 1.4-2.8.8-1.2-.5-1.8-1.8-1.5-2.8 0-.1.1-.3.2-.4-.8.6-1.4 1.4-1.7 2.3-1.1 3.1 1 7 4.6 8.7 3.6 1.7 7.5.5 8.6-2.6 1-3.1-1.1-6.9-4.7-8.6z"/></svg>