<svg xmlns="http://www.w3.org/2000/svg" viewBox="0 0 128.9 126.3"><path fill-rule="evenodd" clip-rule="evenodd" fill="#CBCBCB" d="M90.4 118.7c12 0 21.8 1.7 21.8 3.8 0 2.1-9.7 3.8-21.8 3.8-12 0-21.8-1.7-21.8-3.8.1-2.1 9.8-3.8 21.8-3.8zM43.9 109.1c20.7 0 37.4 2.9 37.4 6.6s-16.8 6.6-37.4 6.6c-20.7 0-37.4-2.9-37.4-6.6s16.7-6.6 37.4-6.6z"/><path fill-rule="evenodd" clip-rule="evenodd" fill="#010101" d="M43.1 0C51.9 0 60 2.7 66.5 7.3l7.6-1c2.3-.3 4.9-.6 7.2-.5 1.6.1 3.4.4 4.3 1.8.9 1.4.5 3.1 0 4.5-.6 1.8-1.4 3.5-2 5.3l-3.2 7.9c1.3 3.7 2 7.8 2 11.9 0 3.3-.5 6.5-1.4 9.5l.3.6 2.7-.6 2.5-1c3.5-1.3 7.4-2.9 11.3-3.7 3.5-.7 6.6-.8 10 .5 3.8 1.5 8.4 5.3 7.5 9.9-.1.3-.2.7-.3 1-.1.3-.3.6-.5.9 0 0 0 .1-.1.1 4.8 3.8 8.7 8.8 11.3 14.8 8.5 19.5-.4 42.2-19.9 50.7-12.6 5.5-26.6 3.7-37.2-3.6H55.1c-2.9 0-5.5-2.1-5.4-5.2.1-.9.2-1.7.5-2.4l-2.1-7.2c-1.8.3-3.7.4-5.5.4-1.5 0-3-.1-4.5-.3l-2.1 7.2c.3.7.5 1.5.5 2.4.2 3.1-2.4 5.2-5.4 5.2H17.2c-.6 0-1.2 0-1.7-.1-2.2-.5-2.8-2.5-1.3-4.9 1.3-2 3-3.7 5-4.9l.6-6.3c-1.9.4-4.1-.2-5.9-1.8-.4-.4-.8-.8-1.2-1.3-1.1-1.4-1.8-3-2.1-4.7v-.2c-.3-1.9-.2-3.8.1-5.7.8-5.1 2.4-10 4.2-14.8 1-2.7 1.9-4.9 3.8-7.2.4-.5.8-.9 1.2-1.3-3.3-1.7-6.3-3.9-8.8-6.6C6 51.1 3.8 44.2 3.8 37c0-4.2.7-8.2 2-11.9l-3.2-7.9c-.7-1.8-1.4-3.5-2-5.3-.5-1.4-.9-3.1 0-4.5s2.7-1.8 4.3-1.8c2.2.1 4.8.5 7.1.8l7.6 1C26.2 2.7 34.3 0 43.1 0z"/><path fill-rule="evenodd" clip-rule="evenodd" fill="#FFF" d="M20.2 98.3c-1.2.6-2.6.3-4-.5-.2-.1-.4-.2-.6-.4-.5-.4-.9-.8-1.3-1.3-.9-1.1-1.4-2.4-1.7-3.8-.1-.4-.1-.7-.1-1.1-.1-1.6 0-3.1.2-4.1.5-3.4 1.4-6.7 2.5-10.1l5.8 1.5-1 9.3c-.3 2.6-.4 3.8.7 4.6l-.5 5.9zm30.1 2.8l2.6 8.8c-.4.7-.6 1.5-.7 2.3-.1 1.9 1.5 2.1 2.3 2.1h11.2c-2.6-2.2-5-4.8-7-7.8-.9.2-1.8.6-2.6 1.2.6-.7 1.4-1.2 2.4-1.6-1.2-1.9-2.3-3.9-3.3-6l-.6-1.5c-1.1 1.1-2.5 1.9-4.3 2.5zm2.8-6.6c-3.3.3-6.7.5-10.1.5-6.6 0-13.2-.7-19.7-1.7-.1 0-.2 0-.3-.1L21.7 106c3.1-.8 6.8-.2 8.6 1.9-4.4-3.4-11.7-.1-14.1 4.5-1.1 2.2 1 2 1.7 2h13.9c.8 0 2.4-.2 2.3-2.1-.1-.8-.3-1.6-.7-2.3l2.5-8.5c-2.8-.8-4.9-2-6-3.5 3.6 1.2 7.9 1.8 12.6 1.8 4.2 0 8.2-.5 11.6-1.5-.3-1.4-.7-2.6-1-3.8z"/><path fill-rule="evenodd" clip-rule="evenodd" fill="#E4E4E4" d="M20.2 98.3c-1.2.6-2.6.3-3.9-.5-.2-.1-.4-.2-.6-.4-.5-.4-.9-.8-1.3-1.3-.9-1.1-1.4-2.4-1.7-3.8-.1-.4-.1-.7-.1-1.1-.1-1.6 0-3.1.2-4.1.5-3.4 1.4-6.7 2.5-10.1l2.6.7c-1 3.1-1.8 6.2-2.3 9.3-.2 1.1-.3 2.5-.2 4.1 0 .4.1.7.1 1.1.2 1.3.7 2.6 1.7 3.8.4.5.9.9 1.3 1.3.2.1.4.3.6.4.4.3.7.4 1.1.6zm5.7-4.7c-.8-.1-2.1-.3-2.8-.4l-.5 5.3-.7 7.5c.9-.2 1.9-.3 2.9-.3l1.1-12.1zm1.6 12.9c-4.2-.7-9.3 2.1-11.2 5.8-1.1 2.2 1 2 1.7 2h14.1-11.2c-.7 0-2.9.2-1.7-2 1.4-2.9 4.9-5.2 8.3-5.8z"/><path fill-rule="evenodd" clip-rule="evenodd" fill="#188ECE" d="M22.4 87.4l1.4-13.6c.3-2.7 1-5.3 2.1-7.7 5.5 1.8 11.5 2.5 17.2 2.5 4.4 0 8.9-.4 13.2-1.4-3.9 7.6-5.3 16.4-3.6 25.1-9.4.8-17.4.5-28-1.1-2-.3-2.7-.6-2.3-3.8zm-1.2-10.5l-5.4-1.4c.3-.9.6-1.8 1-2.7.6-1.6 1.9-5.8 5.1-8.2.6.3 1.2.5 1.8.8-1.1 2.6-1.9 5.3-2.2 8.2l-.3 3.3z"/><path fill-rule="evenodd" clip-rule="evenodd" fill="#004F7E" d="M22.4 87.4l1.4-13.6c.3-2.7 1-5.3 2.1-7.7 1.4.4 2.8.8 4.2 1.1-.6 3.3-.9 6.7-.9 10.2 0 5.1.6 10 1.8 14.7-2-.2-4.2-.5-6.4-.8-1.9-.4-2.6-.7-2.2-3.9zm-1.2-10.5l-5.4-1.4c.3-.9.6-1.8 1-2.7.6-1.6 1.9-5.8 5.1-8.2.6.3 1.2.5 1.8.8-1.1 2.6-1.9 5.3-2.2 8.2l-.3 3.3z"/><path fill-rule="evenodd" clip-rule="evenodd" fill="#FFF" d="M43.1 2.2c8.2 0 15.8 2.6 22 6.9l3.9-.3 5.5-.7c13-1.7 10.4.6 7.3 8.7l-2.4 6c-1.2-2.8-2.8-5.5-4.7-7.9.2-.2.3-.4.5-.6 2.4-2.6 5.2-4.4 8-5.3-2.6-.4-5.8.8-8.4 3.2-1.1 1-1.7 2-2.6 3.3 5 6 7.9 13.5 7.9 21.7v1L79 35.6c-.8-1.8-2.8-2.6-4.6-1.8l-10.1 4.4c-1.8.8-2.6 2.8-1.8 4.6l2 4.7c.6 1.5 2.2 2.3 3.7 2.1l1.3 3c-2.8 1.8-5.4 4-7.6 6.5L60.3 58c-1.3-1-3.2-.7-4.1.6l-1.6 2.1c-1 1.3-.7 3.2.6 4.1l.2.2c-3.9.9-8 1.3-12.4 1.3-20.4 0-37-9.6-37-29 0-8.3 3-15.8 8-21.8-.6-.8-1.1-1.6-1.8-2.3-2.8-3-6.4-4.6-9.3-4.1 2.8.9 5.6 2.7 8 5.3.2.2.4.4.5.6-1.9 2.4-3.5 5.1-4.7 7.9l-2.4-6c-3-8.2-5.6-10.4 7.4-8.7l5.3.6 4.1.3c6.1-4.3 13.7-6.9 22-6.9z"/><path fill-rule="evenodd" clip-rule="evenodd" fill="#E4E4E4" d="M30.1 64.9c-14-3.3-24-12.5-24-27.5 0-8.3 3-15.8 8-21.8-.6-.8-1.1-1.6-1.8-2.3-2.8-3-6.4-4.6-9.3-4.1 2.8.9 5.6 2.7 8 5.3.2.2.4.4.5.6C9.6 17.5 8 20.2 6.8 23l-2.4-6c-3-8.2-5.6-10.4 7.4-8.7l5.2.5 4.1.3c3.9-2.7 8.4-4.8 13.2-5.9-13.2 5.7-22.4 19-22.4 34.4 0 13.7 7.3 22.7 18.2 27.3z"/><path fill="#FFF" d="M26.9 75.3c.1 0 .1.1.2.1s.2.1.3.1h.5c.1 0 .1 0 .2-.1l.1-.1v-.2c0-.1-.1-.2-.2-.3-.1-.1-.3-.1-.5-.2-.1 0-.3-.1-.4-.1-.1 0-.2-.1-.3-.2-.1-.1-.2-.2-.2-.3-.1-.1-.1-.3-.1-.4 0-.2 0-.3.1-.4l.3-.3c.1-.1.3-.2.4-.2s.3-.1.5-.1h.5c.1 0 .3.1.4.1.2.1.3.2.3.3 0 .1 0 .2-.1.3 0 .1-.1.2-.1.3 0 0-.1-.1-.2-.1s-.1-.1-.2-.1-.2-.1-.3-.1h-.7l-.1.1v.2c0 .2.2.3.5.4.1 0 .3.1.4.1.1 0 .3.1.4.2l.3.3c.1.1.1.3.1.5s0 .4-.1.5c-.1.1-.2.3-.3.4-.1.1-.3.2-.5.2-.2.1-.4.1-.6.1H27c-.1 0-.3-.1-.4-.1-.1 0-.1-.1-.2-.1-.1-.1-.1-.1-.1-.2s0-.2.1-.3c0-.1.1-.2.2-.3.2-.1.2 0 .3 0zm3-3.8c.3 0 .5.2.5.5s-.2.5-.5.5-.5-.2-.5-.5.2-.5.5-.5zm9.6 1.2s.1 0 0 0H39.8c.2 0 .3 0 .4.1.1.1.2.1.2.3.1-.1.2-.2.4-.3.2-.1.4-.1.6-.1.2 0 .3 0 .5.1s.3.2.4.3c.1.1.2.3.3.5.1.2.1.5.1.8 0 .4 0 .7-.1.9l-.3.6c-.1.1-.3.2-.5.3-.2.1-.3.1-.5.1h-.4c-.1 0-.2-.1-.3-.1-.1 0-.1-.1-.2-.1l-.1-.1v1h-1v-4.3h.2zm1 2.5s.1.1.2.1c.1.1.2.1.3.1.2 0 .4-.1.5-.3.1-.2.2-.5.2-.8v-.4c0-.1-.1-.2-.1-.3-.1-.1-.1-.2-.2-.2s-.2-.1-.3-.1c-.2 0-.3 0-.4.1-.1.1-.1.2-.1.2v1.6h-.1zm3.5-.6c0 .3.1.5.2.7.1.2.4.3.7.3h.3c.1 0 .2-.1.2-.1.1 0 .1-.1.2-.1s.1-.1.1-.1c.1.1.1.2.2.3.1.1.1.2.1.3 0 .1-.1.2-.2.3-.1.1-.2.1-.4.2s-.4.1-.6.1c-.2 0-.4 0-.7-.1l-.6-.3c-.2-.1-.3-.3-.4-.6-.1-.2-.2-.5-.2-.9 0-.3 0-.6.1-.8.1-.2.2-.4.4-.5s.3-.2.5-.3c.2-.1.4-.1.6-.1.3 0 .5 0 .7.1.2.1.3.2.5.3.1.1.2.3.3.5.1.2.1.4.1.6v.4H44v-.2zm1.3-.5c0-.2 0-.4-.1-.6-.1-.1-.2-.2-.5-.2-.2 0-.3.1-.5.2-.1.1-.2.3-.2.6h1.3zm2.1.5c0 .3.1.5.2.7.1.2.4.3.7.3h.3c.1 0 .2-.1.2-.1.1 0 .1-.1.2-.1s.1-.1.1-.1c.1.1.1.2.2.3.1.1.1.2.1.3 0 .1-.1.2-.2.3-.1.1-.2.1-.4.2s-.4.1-.6.1c-.2 0-.4 0-.7-.1l-.6-.3c-.2-.1-.3-.3-.4-.6-.1-.2-.2-.5-.2-.9 0-.3 0-.6.1-.8.1-.2.2-.4.4-.5s.3-.2.5-.3c.2-.1.4-.1.6-.1.3 0 .5 0 .7.1.2.1.3.2.5.3.1.1.2.3.3.5.1.2.1.4.1.6v.4h-2.1v-.2zm1.3-.5c0-.2 0-.4-.1-.6-.1-.1-.2-.2-.5-.2-.2 0-.4.1-.5.2-.1.1-.2.3-.2.6h1.3zm3.4-.5s-.1-.1-.2-.1c-.1-.1-.2-.1-.3-.1-.2 0-.4.1-.5.3-.1.2-.2.4-.2.8v.5c0 .1.1.2.1.3.1.1.1.2.2.2.1.1.2.1.4.1.1 0 .3 0 .4-.1.1-.1.1-.1.1-.2v-1.7zm.4 2.5c-.1 0-.1 0-.2-.1 0-.1-.1-.1-.1-.2-.1.1-.2.2-.3.2-.2.1-.4.1-.6.1-.2 0-.3 0-.5-.1s-.3-.2-.4-.3c-.1-.1-.2-.3-.3-.5-.1-.2-.1-.5-.1-.8 0-.3 0-.6.1-.8l.3-.6c.1-.1.3-.3.4-.3.2-.1.3-.1.5-.1s.4 0 .5.1c.1.1.2.1.3.2v-1.3h.5c.1 0 .1 0 .2.1.1 0 .1.1.1.2s.1.2.1.3v3.2c-.1.2-.1.5-.2.7h-.3zm-15.6-.8c.1 0 .1.1.2.1s.2.1.3.1h.5c.1 0 .1 0 .2-.1l.1-.1v-.2c0-.1-.1-.2-.2-.3-.1-.1-.3-.1-.5-.2-.1 0-.3-.1-.4-.1-.1 0-.2-.1-.3-.2-.1-.1-.2-.2-.2-.3-.1-.1-.1-.3-.1-.4 0-.2 0-.3.1-.4l.3-.3c.1-.1.3-.2.4-.2.2 0 .3-.1.5-.1h.5c.1 0 .3.1.4.1.2.1.3.2.3.3 0 .1 0 .2-.1.3 0 .1-.1.2-.1.3 0 0-.1-.1-.2-.1s-.1-.1-.2-.1-.2-.1-.3-.1h-.7l-.1.1v.2c0 .2.2.3.5.4.1 0 .3.1.4.1.1 0 .3.1.4.2l.3.3c.1.1.1.3.1.5s0 .4-.1.5c-.1.1-.2.3-.3.4-.1.1-.3.2-.5.2-.2.1-.4.1-.6.1H37c-.1 0-.3-.1-.4-.1-.1 0-.1-.1-.2-.1-.1-.1-.1-.1-.1-.2s0-.2.1-.3c0-.1.1-.2.2-.3.2-.1.3 0 .3 0zm-7.4-2.6h.5c.1 0 .1 0 .2.1.1 0 .1.1.1.2s.1.2.1.3v2.9H29.8c-.1 0-.1 0-.2-.1-.1 0-.1-.1-.1-.2V72.7zm1.4-1h.5c.1 0 .1 0 .2.1.1 0 .1.1.2.2 0 .1.1.2.1.3v.5h1v.7h-1V75c0 .3.1.5.4.5h.2c.1 0 .1 0 .2-.1l.1-.1s.1 0 .1-.1c.1.1.1.2.2.3 0 .1.1.1.1.2s0 .1-.1.2c0 .1-.1.1-.2.2-.1 0-.2.1-.3.1h-.4c-.3 0-.5-.1-.7-.2-.2-.1-.3-.3-.3-.4 0-.1-.1-.2-.1-.3V71.7h-.2zm3.2 2.9c0 .3.1.5.2.7.1.2.4.3.7.3h.3c.1 0 .2-.1.2-.1.1 0 .1-.1.2-.1s.1-.1.1-.1c.1.1.1.2.2.3.1.1.1.2.1.3 0 .1-.1.2-.2.3-.1.1-.2.1-.4.2s-.4.1-.6.1c-.2 0-.4 0-.7-.1l-.6-.3c-.2-.1-.3-.3-.4-.6-.1-.2-.2-.5-.2-.9 0-.3 0-.6.1-.8.1-.2.2-.4.4-.5.2-.1.3-.2.5-.3.2-.1.4-.1.6-.1.3 0 .5 0 .7.1.2.1.3.2.5.3.1.1.2.3.3.5.1.2.1.4.1.6v.4h-2.1v-.2zm1.2-.5c0-.2 0-.4-.1-.6-.1-.1-.2-.2-.5-.2-.2 0-.3.1-.5.2-.1.1-.2.3-.2.6h1.3z"/><path fill-rule="evenodd" clip-rule="evenodd" fill="#010101" d="M58.3 29.3c-1.5.3-2.8 1-3.8 1.9 1.2-1.3 2.7-2.3 4.2-2.7-3.8-.8-7.3 3.5-6.5 6.5 1.5-1.9 3.8-3.3 6.6-3.9 2.8-.6 5.6-.4 8.1.6-2-2.1-5.3-3.1-8.6-2.4zm-30.4-3.2c1.5 0 2.9.6 3.8 1.7-.3-.2-.6-.2-.9-.2-.9 0-1.7.8-1.7 1.7 0 .9.8 1.7 1.7 1.7.9 0 1.7-.8 1.7-1.7v-.4c.4.7.6 1.6.6 2.5 0 2.9-2.4 5.3-5.3 5.3s-5.3-2.4-5.3-5.3c.2-2.9 2.5-5.3 5.4-5.3zM44 42.8c1.2-.9 2.4-.7 2.8-1.4.3-.4.2-.9-.2-1.3-1.1-1.3-6.1-1.3-7.2 0-.3.4-.4.8-.2 1.3.5.7 1.7.4 3 1.5.3.3.3.4.3.8v1c0 .4 0 .6-.2.9-.2.3-.6.6-1.2.9-3.1 1.7-6.1.4-8.8-1.1-1.5-.9-1.7-.5-.5.7 3.1 2.9 5.8 6.8 11.2 6.8 5.4 0 8.1-3.8 11.2-6.8 1-1 1.2-1.6-.5-.7-2.6 1.5-5.7 2.8-8.7 1.1-.5-.3-1-.6-1.2-.9-.2-.3-.3-.6-.3-1v-1c0-.4.1-.5.5-.8z"/><path fill-rule="evenodd" clip-rule="evenodd" fill="#F58220" d="M37.9 50c1.4 1.1 3.4 1.6 5.2 1.6 1.8 0 3.8-.5 5.2-1.6-1.4-1.1-3.4-1.6-5.2-1.6-1.9 0-3.9.6-5.2 1.6z"/><path fill-rule="evenodd" clip-rule="evenodd" fill="#BDBEC0" d="M3.1 9.1zm0 .1c2.7.9 5.5 2.7 7.9 5.3.2.2.4.4.5.6-1.1 1.4-2 2.8-2.9 4.3-1-3.8-2.3-7.2-5.5-10.2z"/><path fill-rule="evenodd" clip-rule="evenodd" fill="#CBCBCB" d="M75.9 51.6c4.2-1.8 7.5-2.3 12-2.4l6.8-.1c.7 3.6 4.2 6.5 7.5 7.8 3.2 1.2 7.8 1.7 10.7-.5 4.6 3.6 8.4 8.3 10.8 14.1 8 18.4-.4 39.8-18.8 47.8s-39.8-.4-47.8-18.8c-8-18.5.4-39.9 18.8-47.9zM56.5 62.2l1.6-2.1c.2-.2.5-.3.8-.1l1.4 1c-.8 1-1.5 2-2.2 3.1L56.6 63c-.2-.2-.3-.6-.1-.8zm8.7-21.7l2-.9 2.9 6.7-2 .9-2.9-6.7zm2.6-1.1l2-.9 2.9 6.7-2 .9-2.9-6.7zm2.7-1.2l2-.9 2.9 6.7-2 .9-2.9-6.7zm2.6-1.1l2-.9 2.9 6.7-2 .9-2.9-6.7zm2.7-1c.4.1.7.3.8.6l2 4.7c.2.4.1.8-.1 1.1l-2.7-6.4zm-8.4 11.2c-.4-.1-.7-.3-.8-.6l-2-4.7c-.2-.4-.1-.8.1-1.1l2.7 6.4zm10.4-1.7l1.1 2.5c-1.3.4-2.6.9-3.8 1.4-1.3.5-2.5 1.2-3.6 1.8l-1.1-2.5 7.4-3.2zm.9 12.4c14.8-6.5 32.1.3 38.6 15.2 6.5 14.8-.3 32.1-15.2 38.6-14.8 6.5-32.1-.3-38.6-15.2-6.4-14.9.4-32.1 15.2-38.6z"/><path fill-rule="evenodd" clip-rule="evenodd" fill="#FFF" d="M76.4 52.7c.2-.1.5-.2.7-.3-17.3 8-25.1 28.4-17.5 45.9 7.6 17.5 27.9 25.7 45.5 18.5-.2.1-.5.2-.7.3-17.8 7.7-38.5-.4-46.2-18.2-7.7-17.8.4-38.5 18.2-46.2zm-2.8-5.3l1 2.3-2.4 1.2-1.1-2.5 2.5-1z"/><path fill-rule="evenodd" clip-rule="evenodd" fill="#FFF" d="M79.4 59.6c13.9-6.1 30.2.3 36.2 14.3 6.1 13.9-.3 30.2-14.3 36.2-13.9 6.1-30.2-.3-36.2-14.3-6-13.9.4-30.1 14.3-36.2z"/><path fill-rule="evenodd" clip-rule="evenodd" fill="#E84125" d="M80.9 63c.3-.1.7-.3 1-.4l2.3 5.3c-.3.1-.7.3-1 .4-.3.1-.7.3-1 .5l-2.3-5.3c.3-.2.7-.4 1-.5zM92 61.1c.7 0 1.4.1 2.2.2l-.3 2.5c-.7-.1-1.4-.2-2.2-.2l.3-2.5zm11.7 4c.6.4 1.2.8 1.7 1.3l-1.5 2c-.6-.5-1.1-.9-1.7-1.3l1.5-2zm8.2 9.3c.2.3.3.7.5 1 .1.3.3.7.4 1l-5.3 2.3c-.1-.3-.3-.7-.4-1-.1-.3-.3-.7-.5-1l5.3-2.3zm2.4 12.1c0 .7-.1 1.4-.2 2.2l-2.5-.3c.1-.7.2-1.4.2-2.2l2.5.3zm-4 11.7c-.4.6-.8 1.2-1.3 1.7l-2-1.5c.5-.6.9-1.1 1.3-1.7l2 1.5zm-9.4 8.1c-.3.2-.7.3-1 .5s-.7.3-1 .4l-2.3-5.3c.3-.1.7-.3 1-.4.3-.1.7-.3 1-.5l2.3 5.3zm-12.1 2.4c-.7 0-1.4-.1-2.2-.2l.3-2.5c.7.1 1.4.2 2.2.2l-.3 2.5zm-11.7-4c-.6-.4-1.2-.8-1.7-1.3l1.5-2c.6.5 1.1.9 1.7 1.3l-1.5 2zM69 95.4c-.2-.3-.3-.7-.5-1-.1-.3-.3-.7-.4-1l5.3-2.3c.1.3.3.7.4 1 .1.3.3.7.5 1L69 95.4zm-2.4-12.1c0-.7.1-1.4.2-2.2l2.5.3c-.1.7-.2 1.4-.2 2.2l-2.5-.3zm4-11.7c.4-.6.8-1.2 1.3-1.7l2 1.5c-.5.6-.9 1.1-1.3 1.7l-2-1.5z"/><path fill-rule="evenodd" clip-rule="evenodd" fill="#010101" d="M86.5 61.9l.2 1.3c.2 0 .3-.1.5-.1s.3 0 .5-.1l-.2-1.3c-.2 0-.3 0-.5.1s-.3.1-.5.1zm12 1.2l-.5 1.1c.3.1.6.2.9.4l.5-1.2-.9-.3zm9.8 6.9l-1 .8c.2.2.4.5.6.8l1-.8c-.2-.3-.4-.5-.6-.8zm5.1 11l-1.3.2c0 .2.1.3.1.5s0 .3.1.5l1.3-.2c0-.2 0-.3-.1-.5s-.1-.4-.1-.5zm-1.1 12l-1.2-.5c-.1.3-.2.6-.4.9l1.2.5c.1-.3.3-.6.4-.9zm-7 9.8l-.8-1c-.2.2-.5.4-.8.6l.8 1c.3-.2.6-.4.8-.6zm-10.9 5l-.2-1.3c-.2 0-.3.1-.5.1s-.3 0-.5.1l.2 1.3c.2 0 .3 0 .5-.1.1 0 .3 0 .5-.1zm-12-1.1l.5-1.2c-.3-.1-.6-.2-.9-.4l-.5 1.2c.2.2.5.3.9.4zm-9.9-6.9l1-.8c-.2-.2-.4-.5-.6-.8l-1 .8c.2.3.4.5.6.8zm-5-11l1.3-.2c0-.2-.1-.3-.1-.5s0-.3-.1-.5l-1.3.2c0 .2 0 .3.1.5 0 .2 0 .4.1.5zm1.1-12l1.2.5c.1-.3.2-.6.4-.9l-1.2-.5c-.2.3-.3.6-.4.9zm6.9-9.8l.8 1c.2-.2.5-.4.8-.6l-.8-1c-.2.2-.5.4-.8.6z"/><path fill-rule="evenodd" clip-rule="evenodd" fill="#9F3636" d="M88.7 81c.4-.2.7-.3 1.1-.3l4.4-4.1 6.6-6.1-3.8 8.1-2.5 5.1c.6 2-.4 4.1-2.4 5-2.1.9-4.6 0-5.6-2.2-.9-2.1.1-4.6 2.2-5.5z"/><path fill-rule="evenodd" clip-rule="evenodd" fill="#FFF" d="M106.9 45c4.3 1.7 6.9 5.2 5.8 7.8-1 2.6-5.3 3.4-9.6 1.7-3-1.2-5.1-3.3-5.8-5.3-.5-1.5.6-2.3-1.5-2.5l-3.8-.3c3.2-.7 7.1-2.2 10.3-2.3 1.5 0 3 .3 4.6.9z"/></svg>