<svg xmlns="http://www.w3.org/2000/svg" viewBox="0 0 117.8 127.9"><path fill-rule="evenodd" clip-rule="evenodd" fill="#CBCBCB" d="M17.2 118.4c9.5 0 17.2 2.1 17.2 4.8 0 2.6-7.7 4.8-17.2 4.8S0 125.9 0 123.2c0-2.7 7.7-4.8 17.2-4.8zM69.2 109.1c20.7 0 37.4 2.9 37.4 6.6s-16.8 6.6-37.4 6.6c-20.7 0-37.4-2.9-37.4-6.6s16.7-6.6 37.4-6.6z"/><path fill-rule="evenodd" clip-rule="evenodd" fill="#010101" d="M68.3 0c8.8 0 16.9 2.7 23.4 7.3l7.6-1c2.3-.3 4.9-.6 7.2-.5 1.6.1 3.4.4 4.3 1.8.9 1.4.5 3.1 0 4.5-.6 1.8-1.4 3.5-2 5.3l-3.2 7.9c1.3 3.7 2 7.8 2 11.9 0 7-2 13.6-6.7 19l7.8-3.3c6.3-2.6 10.4 2.1 8.8 8.2-1 3.7-4.1 6.2-7.4 7.9-4.6 2.4-9.5 3.9-14.4 5.3-1.9.5-3.7 1.1-5.7 1.4l1.3 12.6v.2c4 2.4 9.4 1.6 12.4-2.1.3-.4.6-1.1.8-1.6.3-.7.6-1.3 1.1-1.9 2.2-2.7 6.2-3 8.8-.8 3.1 2.5 2.7 6 .7 9.1-.5.7-1 1.5-1.6 2.1-3.4 4.1-8.1 6.6-13.4 7.1-3 .3-5.9-.1-8.7-1.1l.7 7.3c2 1.2 3.7 2.9 5 4.9 1.5 2.3.9 4.4-1.3 4.9-.6.1-1.1.1-1.7.1H80.2c-2.9 0-5.5-2.1-5.4-5.2.1-.9.2-1.7.5-2.4l-2.1-7.2c-1.8.3-3.7.4-5.5.4-1.5 0-3-.1-4.5-.3l-2.1 7.2c.3.7.5 1.5.5 2.4.2 3.1-2.4 5.2-5.4 5.2H42.3c-.6 0-1.2 0-1.7-.1-2.2-.5-2.8-2.5-1.3-4.9 1.3-2 3-3.7 5-4.9l.6-6.3c-1.9.4-4.1-.2-6-1.9l-7 3.6c.7 1.8 1 3.7 1 5.6 0 9.1-7.4 16.5-16.5 16.5S-.1 116.8-.1 107.7s7.4-16.5 16.5-16.5c4.5 0 8.8 1.9 11.9 5.1l7.3-3.7c-.4-1.9-.3-4 0-5.9.8-5.1 2.4-10 4.2-14.8 1-2.7 1.9-4.9 3.8-7.2.4-.5.8-.9 1.2-1.3-3.3-1.7-6.3-3.9-8.8-6.6-4.8-5.3-7-12.1-7-19.4 0-4.2.7-8.2 2-11.9l-3.2-7.9c-.7-1.8-1.4-3.5-2-5.3-.5-1.4-.9-3.1 0-4.5S28.5 6 30.1 6c2.3-.1 4.9.2 7.2.5l7.6 1C51.4 2.7 59.5 0 68.3 0zM7.1 107.8c0-5.3 4.3-9.6 9.6-9.6s9.6 4.3 9.6 9.6-4.3 9.6-9.6 9.6-9.6-4.3-9.6-9.6z"/><path fill-rule="evenodd" clip-rule="evenodd" fill="#FFF" d="M45.4 98.3c-1.3.6-2.8.3-4.2-.7l1.2-.6c.5.6.9.9 1.2.8.5-.2.7-2-.6-4.6-1.3-2.6-2.8-3.4-3.3-3.2-.2.1-.2.4-.2.9l-1.7.9c-.2-1.8 0-3.5.1-4.6.5-3.4 1.4-6.7 2.5-10.1l5.8 1.5-1 9.3c-.3 2.6-.4 3.8.7 4.6l-.5 5.8zm51.4-38l12.7-5.3c5.2-2.2 7.1 1.8 6.1 5.8-.9 3.5-4.4 5.6-6.3 6.6-3 1.6-6.2 2.8-9.6 3.8l-4-10.2c.4-.2.7-.5 1.1-.7zm8.7 27.7c-3.5 4.3-9.4 5.5-14.2 3.2-.1.4-.3.8-.4 1l.5 4.8c7 3.1 15.5 1.3 20.6-4.9 1.8-2.2 4.1-5.6 1.1-8.1-1.7-1.4-4.2-1.2-5.7.5-.9 1-.9 2.3-1.9 3.5zm-30 13.1l2.6 8.8c-.4.7-.6 1.5-.7 2.3-.1 1.9 1.5 2.1 2.3 2.1h13.9c.7 0 2.9.1 1.7-2-2.5-4.5-9.7-7.9-14.1-4.5 1.8-2.1 5.5-2.6 8.6-1.9l-1.3-12.8c-.2 0-.3.1-.5.1-6.6 1-13.1 1.7-19.8 1.7-6.6 0-13.2-.7-19.7-1.7-.1 0-.2 0-.3-.1L47 105.9c3.1-.8 6.8-.2 8.6 1.9-4.4-3.4-11.7-.1-14.1 4.5-1.1 2.2 1 2 1.7 2h13.9c.8 0 2.4-.2 2.3-2.1-.1-.8-.3-1.6-.7-2.3l2.5-8.5c-2.8-.8-4.9-2-6-3.5 3.6 1.2 7.9 1.8 12.6 1.8 4.7 0 9-.7 12.6-1.8-.8 1.3-2.5 2.4-4.9 3.2z"/><path fill-rule="evenodd" clip-rule="evenodd" fill="#E4E4E4" d="M40.6 90.2c-.4-.2-.7-.3-.9-.2-.2.1-.2.4-.2.9l-1.7.9c-.2-1.8 0-3.5.1-4.6.5-3.4 1.4-6.7 2.5-10.1l2.6.7c-1 3.1-1.8 6.2-2.3 9.3 0 .8-.1 1.9-.1 3.1zm64.9-2.2c-2 2.4-4.8 3.9-7.7 4.2 3.9.5 7.9-1 10.6-4.2.9-1.1 1-2.4 1.8-3.5.5-.6 1-1 1.7-1.2-1.6-.6-3.4-.2-4.5 1.2-.9 1-.9 2.3-1.9 3.5zm-54.4 5.6l-2.8-.5-.5 5.4-.7 7.5c.9-.2 1.9-.3 2.9-.3l1.1-12.1zm1.6 12.9c-4.2-.7-9.3 2.1-11.2 5.8-1.1 2.2 1 2 1.7 2H46c-.8 0-2.8.1-1.7-2 1.6-2.9 5-5.2 8.4-5.8z"/><path fill-rule="evenodd" clip-rule="evenodd" fill="#188ECE" d="M47.6 87.4L49 73.8c.3-2.7 1-5.3 2.1-7.7 5.5 1.8 11.5 2.5 17.2 2.5 5.7 0 11.7-.7 17.2-2.5 1.1 2.4 1.8 5 2.1 7.7L89 87.6c.3 3.3-1.1 3.4-2.5 3.6-13.7 2-23 2-36.7 0-1.8-.3-2.5-.6-2.2-3.8zM94.3 62l3.7 9.7c-.9.3-1.8.5-2.7.8-1 .3-3.1 1.1-5.3 1.5v-.4c-.3-2.9-1-5.7-2.2-8.2 2.2-1 4.4-2.1 6.5-3.4zM46.4 76.9L41 75.5c.3-.9.6-1.8 1-2.7.6-1.6 1.9-5.8 5.1-8.2.6.3 1.2.5 1.8.8-1.1 2.6-1.9 5.3-2.2 8.2l-.3 3.3z"/><path fill-rule="evenodd" clip-rule="evenodd" fill="#004F7E" d="M47.6 87.4L49 73.8c.3-2.7 1-5.3 2.1-7.7 1.4.4 2.8.8 4.2 1.1-.6 3.3-.9 6.7-.9 10.2 0 5.1.6 10 1.8 14.7-2-.2-4.2-.5-6.4-.8-1.8-.4-2.5-.7-2.2-3.9zm-1.2-10.5L41 75.5c.3-.9.6-1.8 1-2.7.6-1.6 1.9-5.8 5.1-8.2.6.3 1.2.5 1.8.8-1.1 2.6-1.9 5.3-2.2 8.2l-.3 3.3z"/><path fill-rule="evenodd" clip-rule="evenodd" fill="#FFF" d="M68.3 2.2c8.2 0 15.8 2.6 22 6.9l3.9-.3 5.5-.7c13-1.7 10.4.6 7.4 8.7l-2.4 6c-1.2-2.8-2.8-5.5-4.7-7.9.2-.2.3-.4.5-.6 2.4-2.6 5.2-4.4 8-5.3-2.6-.4-5.8.8-8.4 3.2-1.1 1-1.7 2-2.6 3.3 5 6 7.9 13.5 7.9 21.7 0 19.4-16.6 29-37 29s-37-9.6-37-29c0-8.3 3-15.9 8.1-22-.1 0-.1.1-.1.1-.6-.8-1.1-1.6-1.8-2.3-2.8-3-6.4-4.6-9.3-4.1 2.8.9 5.6 2.7 8 5.3.2.2.4.4.5.6-1.9 2.4-3.5 5.1-4.7 7.9l-2.4-6C26.6 8.7 24 6.5 37 8.2l5.3.7 4.1.3c6.1-4.4 13.7-7 21.9-7z"/><path fill-rule="evenodd" clip-rule="evenodd" fill="#E4E4E4" d="M55.3 64.9c-14-3.3-24-12.5-24-27.5 0-8.3 3-15.8 8-21.8-.6-.8-1.1-1.6-1.8-2.3-2.8-3-6.4-4.6-9.3-4.1 2.8.9 5.6 2.7 8 5.3.2.2.4.4.5.6-1.9 2.4-3.5 5.1-4.7 7.9l-2.4-6C26.6 8.7 24 6.5 37 8.2l5.3.7 4.1.3c3.9-2.7 8.4-4.8 13.2-5.9-13.2 5.6-22.5 18.9-22.5 34.3 0 13.7 7.3 22.7 18.2 27.3z"/><path fill="#FFF" d="M52.1 75.3c.1 0 .1.1.2.1s.2.1.3.1h.5c.1 0 .1 0 .2-.1l.1-.1v-.2c0-.1-.1-.2-.2-.3-.1-.1-.3-.1-.5-.2-.1 0-.3-.1-.4-.1-.1 0-.2-.1-.3-.2-.1-.1-.2-.2-.2-.3-.1-.1-.1-.3-.1-.4 0-.2 0-.3.1-.4l.3-.3c.1-.1.3-.2.4-.2.2 0 .3-.1.5-.1h.5c.1 0 .3.1.4.1.2.1.3.2.3.3 0 .1 0 .2-.1.3 0 .1-.1.2-.1.3 0 0-.1-.1-.2-.1s-.1-.1-.2-.1-.2-.1-.3-.1h-.7l-.1.1v.2c0 .2.2.3.5.4.1 0 .3.1.4.1.1 0 .3.1.4.2l.3.3c.1.1.1.3.1.5s0 .4-.1.5c-.1.1-.2.3-.3.4-.1.1-.3.2-.5.2-.2.1-.4.1-.6.1h-.5c-.1 0-.3-.1-.4-.1-.1 0-.1-.1-.2-.1-.1-.1-.1-.1-.1-.2s0-.2.1-.3c0-.1.1-.2.2-.3.2-.1.3 0 .3 0zm3.1-3.8c.3 0 .5.2.5.5s-.2.5-.5.5-.5-.2-.5-.5.2-.5.5-.5zm23.7 4.6c-.1-.1-.1-.2-.1-.4s0-.3.1-.4c.1-.1.2-.1.4-.1.1 0 .3 0 .4.1.1.1.1.2.1.4 0 .1 0 .3-.1.4-.1.1-.2.2-.4.2-.1-.1-.3-.1-.4-.2zm1.3-3.3h.5c.1 0 .1 0 .2.1.1 0 .1.1.1.2s.1.2.1.3v2.8H80.5c-.1 0-.1 0-.2-.1-.1 0-.1-.1-.1-.2V72.8zm0-.8c0-.2 0-.3.1-.4.1-.1.2-.1.4-.1.1 0 .3 0 .4.1.1.1.2.2.2.4 0 .1-.1.3-.2.4-.1.1-.2.1-.4.1-.1 0-.3 0-.4-.1 0-.1-.1-.2-.1-.4zm1.7 3.7l-.3-.6c-.1-.2-.1-.4-.1-.7 0-.2 0-.5.1-.7l.3-.6c.1-.2.3-.3.5-.4.2-.1.5-.1.7-.1.3 0 .5 0 .8.1.2.1.4.2.5.4.1.2.2.3.3.6.1.2.1.4.1.7 0 .2 0 .5-.1.7l-.3.6c-.1.2-.3.3-.5.4-.2.1-.5.1-.8.1-.3 0-.6 0-.8-.1l-.4-.4zm1-.3c.1.1.2.1.3.1.1 0 .3 0 .3-.1.1-.1.2-.1.2-.2.1-.1.1-.2.1-.3v-.4-.4c0-.1-.1-.2-.1-.3-.1-.1-.1-.2-.2-.2-.1-.1-.2-.1-.3-.1-.1 0-.2 0-.3.1-.1.1-.2.1-.2.2-.1.1-.1.2-.1.3v.8c0 .1.1.2.1.3s.1.2.2.2zm-18.2-2.7c.1 0 .1 0 0 0H65c.2 0 .3 0 .4.1.1.1.2.1.2.3.1-.1.2-.2.4-.3.2-.1.4-.1.6-.1.2 0 .3 0 .5.1s.3.2.4.3c.1.1.2.3.3.5.1.2.1.5.1.8 0 .4 0 .7-.1.9l-.3.6c-.1.1-.3.2-.5.3-.2.1-.3.1-.5.1h-.4c-.1 0-.2-.1-.3-.1-.1 0-.1-.1-.2-.1l-.1-.1v1h-1v-4.3h.2zm1 2.5s.1.1.2.1c.1.1.2.1.3.1.2 0 .4-.1.5-.3.1-.2.2-.5.2-.8v-.4c0-.1-.1-.2-.1-.3-.1-.1-.1-.2-.2-.2s-.2-.1-.3-.1c-.2 0-.3 0-.4.1-.1.1-.1.2-.1.2v1.6h-.1zm3.6-.6c0 .3.1.5.2.7.1.2.4.3.7.3h.3c.1 0 .2-.1.2-.1.1 0 .1-.1.2-.1s.1-.1.1-.1c.1.1.1.2.2.3.1.1.1.2.1.3 0 .1-.1.2-.2.3-.1.1-.2.1-.4.2s-.4.1-.6.1c-.2 0-.4 0-.7-.1l-.6-.3c-.2-.1-.3-.3-.4-.6-.1-.2-.2-.5-.2-.9 0-.3 0-.6.1-.8.1-.2.2-.4.4-.5.2-.1.3-.2.5-.3.2-.1.4-.1.6-.1.3 0 .5 0 .7.1.2.1.3.2.5.3.1.1.2.3.3.5.1.2.1.4.1.6v.4h-2.1v-.2zm1.2-.5c0-.2 0-.4-.1-.6-.1-.1-.2-.2-.5-.2-.2 0-.4.1-.5.2-.1.1-.2.3-.2.6h1.3zm2.2.5c0 .3.1.5.2.7.1.2.4.3.7.3h.3c.1 0 .2-.1.2-.1.1 0 .1-.1.2-.1s.1-.1.1-.1c.1.1.1.2.2.3.1.1.1.2.1.3 0 .1-.1.2-.2.3-.1.1-.2.1-.4.2s-.4.1-.6.1c-.2 0-.4 0-.7-.1l-.6-.3c-.2-.1-.3-.3-.4-.6-.1-.2-.2-.5-.2-.9 0-.3 0-.6.1-.8.1-.2.2-.4.4-.5.2-.1.3-.2.5-.3.2-.1.4-.1.6-.1.3 0 .5 0 .7.1.2.1.3.2.5.3.1.1.2.3.3.5.1.2.1.4.1.6v.4h-2.1v-.2zm1.2-.5c0-.2 0-.4-.1-.6-.1-.1-.2-.2-.5-.2-.2 0-.4.1-.5.2-.1.1-.2.3-.2.6h1.3zm3.5-.5s-.1-.1-.2-.1c-.1-.1-.2-.1-.3-.1-.2 0-.4.1-.5.3-.1.2-.2.4-.2.8v.5c0 .1.1.2.1.3.1.1.1.2.2.2.1.1.2.1.4.1.1 0 .3 0 .4-.1.1-.1.1-.1.1-.2v-1.7zm.3 2.5c-.1 0-.1 0-.2-.1 0-.1-.1-.1-.1-.2-.1.1-.2.2-.3.2-.2.1-.4.1-.6.1-.2 0-.3 0-.5-.1s-.3-.2-.4-.3c-.1-.1-.2-.3-.3-.5-.1-.2-.1-.5-.1-.8 0-.3 0-.6.1-.8l.3-.6c.1-.1.3-.3.4-.3.2-.1.3-.1.5-.1s.4 0 .5.1c.1.1.2.1.3.2v-1.3h.5c.1 0 .1 0 .2.1.1 0 .1.1.1.2s.1.2.1.3v3.9h-.5zm-15.5-.8c.1 0 .1.1.2.1s.2.1.3.1h.5c.1 0 .1 0 .2-.1l.1-.1v-.2c0-.1-.1-.2-.2-.3-.1-.1-.3-.1-.5-.2-.1 0-.3-.1-.4-.1-.1 0-.2-.1-.3-.2-.1-.1-.2-.2-.2-.3-.1-.1-.1-.3-.1-.4 0-.2 0-.3.1-.4l.3-.3c.1-.1.3-.2.4-.2s.3-.1.5-.1h.5c.1 0 .3.1.4.1.2.1.3.2.3.3 0 .1 0 .2-.1.3 0 .1-.1.2-.1.3 0 0-.1-.1-.2-.1s-.1-.1-.2-.1-.2-.1-.3-.1h-.7l-.1.1v.2c0 .2.2.3.5.4.1 0 .3.1.4.1.1 0 .3.1.4.2l.3.3c.1.1.1.3.1.5s0 .4-.1.5c-.1.1-.2.3-.3.4-.1.1-.3.2-.5.2-.2.1-.4.1-.6.1h-.5c-.1 0-.3-.1-.4-.1.1-.2.1-.2 0-.3-.1-.1-.1-.1-.1-.2s0-.2.1-.3c0-.1.1-.2.2-.3-.1.1 0 .2.1.2zm-7.5-2.6h.5c.1 0 .1 0 .2.1.1 0 .1.1.1.2s.1.2.1.3v2.9H55c-.1 0-.1 0-.2-.1-.1 0-.1-.1-.1-.2V72.7zm1.4-1h.5c.1 0 .1 0 .2.1.1 0 .1.1.1.2s.1.2.1.3v.5h1v.7h-1V75c0 .3.1.5.4.5h.2c.1 0 .1 0 .2-.1l.1-.1s.1 0 .1-.1c.1.1.1.2.2.3 0 .1.1.1.1.2s0 .1-.1.2c0 .1-.1.1-.2.2-.1 0-.2.1-.3.1h-.4c-.3 0-.5-.1-.7-.2-.2-.1-.3-.3-.3-.4 0-.1-.1-.2-.1-.3V71.7h-.1zm3.2 2.9c0 .3.1.5.2.7.1.2.4.3.7.3h.3c.1 0 .2-.1.2-.1.1 0 .1-.1.2-.1s.1-.1.1-.1c.1.1.1.2.2.3.1.1.1.2.1.3 0 .1-.1.2-.2.3-.1.1-.2.1-.4.2s-.4.1-.6.1c-.2 0-.4 0-.7-.1l-.6-.3c-.2-.1-.3-.3-.4-.6-.1-.2-.2-.5-.2-.9 0-.3 0-.6.1-.8.1-.2.2-.4.4-.5.2-.1.3-.2.5-.3.2-.1.4-.1.6-.1.3 0 .5 0 .7.1.2.1.3.2.5.3.1.1.2.3.3.5.1.2.1.4.1.6v.4h-2.1v-.2zm1.3-.5c0-.2 0-.4-.1-.6-.1-.1-.2-.2-.5-.2-.2 0-.4.1-.5.2-.1.1-.2.3-.2.6h1.3z"/><path fill-rule="evenodd" clip-rule="evenodd" fill="#EC252C" d="M28.2 98.7l11.7-6c1.1.8 1.5 1.8 1.4 2.8l-11.5 5.9c1 1.9 1.5 4.1 1.5 6.5 0 8.1-6.6 14.7-14.7 14.7S1.9 116 1.9 107.9s6.6-14.7 14.7-14.7c4.8 0 8.9 2.1 11.6 5.5zm-22.9 9.1c0-6.3 5.1-11.4 11.4-11.4 6.3 0 11.4 5.1 11.4 11.4 0 6.3-5.1 11.4-11.4 11.4-6.3 0-11.4-5.1-11.4-11.4z"/><path fill-rule="evenodd" clip-rule="evenodd" fill="#A52622" d="M41.3 94.8c0 .2.1.5.1.7l-11.5 5.9-.2-.4 11.6-6.2zm-9.9 12.3v.7c0 8.1-6.6 14.7-14.7 14.7S2 115.9 2 107.8v-.7c1.2 19.3 28.1 20.1 29.4 0zm-26 0c.4-5.9 5.3-10.7 11.4-10.7 6 0 11 4.7 11.4 10.7 0-.2.1-.5 0-.7-1.9-14.6-21.6-13.6-22.8 0-.1.2-.1.4 0 .7z"/><path fill-rule="evenodd" clip-rule="evenodd" fill="#BDBEC0" d="M28.3 9.1zm.1.1c2.7.9 5.5 2.7 7.9 5.3.2.2.4.4.5.6-1.1 1.4-2.1 2.8-2.9 4.3-1.1-3.8-2.4-7.2-5.5-10.2z"/><path fill-rule="evenodd" clip-rule="evenodd" fill="#010101" d="M53.2 30.2c1.5 0 2.9.6 3.8 1.7-.3-.2-.6-.2-.9-.2-.9 0-1.7.8-1.7 1.7 0 .9.8 1.7 1.7 1.7.9 0 1.7-.8 1.7-1.7V33c.4.7.6 1.6.6 2.5 0 2.9-2.4 5.3-5.3 5.3s-5.3-2.4-5.3-5.3c.1-2.9 2.5-5.3 5.4-5.3zm15.5 17.6c0-.5 0-.6.4-.8 1.2-.9 2.3-.7 2.8-1.3.3-.4.1-.9-.2-1.2-1-1.3-5.9-1.3-7 0-.3.4-.4.8-.2 1.2.4.7 1.7.4 2.9 1.5.3.3.3.4.3.8 0 1.3-1 2.4-2.2 2.8-.7.2-1.7.4-2.8.5-1.5.2-3.6-1-5-1.8-1.5-.8-1.6-.5-.5.6 1.3 1.2 2.7 2.5 4.8 2.8.7.1 1.3.1 1.9 0 .8-.1 1.4-.3 1.8-.5.9-.4 1.6-.6 2.3-.6s1.4.2 2.3.6c.4.2 1.1.4 1.8.5.6.1 1.2.1 1.9 0 2.1-.3 3.5-1.6 4.8-2.8 1-.9 1.2-1.6-.5-.6-1.4.8-3.5 2-5 1.8-1.1-.1-2.1-.3-2.8-.5-.9-.6-1.8-1.8-1.8-3zm14.5-17.6c1.5 0 2.9.6 3.8 1.7-.3-.2-.6-.2-.9-.2-.9 0-1.7.8-1.7 1.7 0 .9.8 1.7 1.7 1.7.9 0 1.7-.8 1.7-1.7V33c.4.7.6 1.6.6 2.5 0 2.9-2.4 5.3-5.3 5.3s-5.3-2.4-5.3-5.3c.1-2.9 2.5-5.3 5.4-5.3z"/></svg>