<svg xmlns="http://www.w3.org/2000/svg" viewBox="0 0 114.6 102.8"><path fill-rule="evenodd" clip-rule="evenodd" fill="#010101" d="M99.7 25l1.4-3.7c.8-2.2 1.7-4.3 2.4-6.5.6-1.8 1-3.8 0-5.5-1.1-1.7-3.1-2.2-5-2.3-2.6-.1-5.7.3-8.3.6l-8.8 1.2C73.9 3.3 64.5 0 54.4 0S34.9 3.3 27.3 8.9l-8.8-1.2c-2.6-.4-5.6-.8-8.3-.6-1.9.1-3.9.5-5 2.3-1 1.7-.6 3.7 0 5.5.7 2.2 1.6 4.3 2.4 6.5l3.7 9.6c-1.5 4.6-2.4 9.4-2.4 14.5 0 8.9 2.6 17.2 8.5 23.9.6.7 1.2 1.3 1.8 1.9v.1c-2.9.3-5.9-1-7.6-3.6-.2-.3-.3-1-.5-1.4-.2-.6-.4-1.2-.8-1.8C8.7 62 5.2 61.3 2.5 63c-3 1.9-3 5.1-1.6 8.1.3.7.7 1.4 1.1 2 4.1 6.3 11.5 9 18.4 7.5.7 1.9 1.5 3.6 2 4.7 2 4.3 4.4 7.7 9.5 8.2 1.5.2 3.1 0 4.3-.9.2.3.3.5.5.8 1.6 5.4 8.9 9.5 17.7 9.5 8.9 0 16.3-4.2 17.8-9.8.8-1.2 1.5-2.4 2.1-3.6v-.1c2.8-2.1 5.5-4.6 7.9-7.6.7 1.6 1.7 3.1 2.9 4.5 4.1 4.8 16.6 8.9 23.4 6 .1-.1.2-.1.3-.2 2.8-1.3 4.5-4 5.2-7 .8-3.2.5-6.6-.5-9.7-.9-2.6-2.3-5-4.3-6.8-1.9-1.7-4.3-2.7-6.8-2.6-.2 0-.4 0-.6.1l-1.7-3.3c5.3-4.7 8.3-11.5 8.3-18.6.1-7.8-3.3-14.6-8.7-19.2zM92 68.7c.3-.4.7-.8 1-1.3l2 4c-.4.2-.7.4-1.1.3-1-.2-1.7-2-1.9-3z"/><path fill-rule="evenodd" clip-rule="evenodd" fill="#FFF" d="M9.7 69c2.1 3.2 5.6 4.9 9.2 4.6 0 1.5.4 3.1.8 4.7-6 1.3-12.3-1.1-15.8-6.5-1.3-2.1-2.9-5.2-.2-7 1.6-1 3.7-.6 4.8 1 .6 1 .5 2.1 1.2 3.2z"/><path fill-rule="evenodd" clip-rule="evenodd" fill="#9ACA3C" d="M61.7 92.3c7.9-2 15.4-7.2 21-15.8-5 3-10.6 4.8-16.4 5.9l-4.6 9.9z"/><path fill-rule="evenodd" clip-rule="evenodd" fill="#ED2224" d="M26.1 76.5c5.6 8.5 13.1 13.8 21 15.8l-4.6-9.9c-5.8-1-11.4-2.9-16.4-5.9z"/><path fill-rule="evenodd" clip-rule="evenodd" fill="#FFCD05" d="M48.8 92.7c3.7.7 7.5.7 11.2 0l4.6-10c-3.4.5-6.9.8-10.2.8-3.4 0-6.8-.2-10.2-.8l4.6 10z"/><path fill-rule="evenodd" clip-rule="evenodd" fill="#FFF" d="M54.4 2.7c9.5 0 18.3 3.1 25.4 8.4l6.8-.6c3-.4 6-.9 9.1-1.1 9.1-.6 6.5 2.6 3.4 11.2l-1.1 3c-1.7-1.2-3.5-2.2-5.5-2.9-.5-.8-1.1-1.6-1.7-2.4.2-.2.4-.5.6-.7 2.8-3.2 6.1-5.4 9.3-6.4-5.8-.5-9.8 3.8-12.7 7.9.1.1.2.3.3.4-1.6-.3-3.2-.5-4.8-.5-13.9 0-25.1 11.2-25.1 25s11.2 25.1 25.1 25.1c1.6 0 3.3-.2 4.9-.5-7.8 8.1-20.1 12.1-34 12.1-23.6 0-42.8-11.6-42.8-35.3 0-10 3.5-19.3 9.3-26.6-2.7-4.2-7.1-8.7-12.8-7.8 3.2 1.1 6.5 3.3 9.3 6.4.2.2.4.5.6.7-2.2 2.9-4 6.1-5.5 9.6l-2.8-7.3C6.6 12 4 8.8 12.8 9.3c2.7.2 5.5.6 8.2 1 2.7.4 5.3.6 7.9.8 7.2-5.3 15.9-8.4 25.5-8.4zm29.1 25.1c-9 0-16.2 7.3-16.2 16.2s7.3 16.2 16.2 16.2S99.7 53 99.7 44s-7.3-16.2-16.2-16.2z"/><path fill-rule="evenodd" clip-rule="evenodd" fill="#E8E8E8" d="M39.3 79c-16.2-4.1-27.7-15.2-27.7-33.5 0-6.1 1.3-11.8 3.5-17 .1-.1.1-.2.2-.4s.2-.4.2-.5l.1-.2.1-.2.1-.3.1-.2.1-.2c.1-.1.1-.3.2-.4l.2-.4c.1-.1.1-.3.2-.4l.1-.2.1-.2.3-.6.1-.2.1-.2.2-.3c.1-.1.2-.3.2-.4.1-.1.2-.3.2-.4l.1-.2.1-.1.2-.3.1-.1.1-.1c.1-.2.2-.4.4-.5.1-.1.2-.2.2-.4l.2-.3c.1-.1.2-.2.2-.3l.2-.3c.1-.2.2-.3.4-.5l.1-.2c.1-.2.3-.4.4-.6-2.7-4.2-7.1-8.7-12.8-7.8 3.2 1.1 6.5 3.3 9.3 6.4.2.2.4.5.6.7-2.2 2.9-4 6.1-5.5 9.6l-2.8-7.3C6.6 12 4 8.8 12.8 9.3c2.7.2 5.5.6 8.2 1 2.7.4 5.3.6 7.9.8.4-.3.9-.6 1.3-.9 4.2-2.9 8.9-5 13.9-6.2-15.2 7-25.9 23-25.9 41.8.1 16.6 8.6 27.6 21.1 33.2z"/><path fill-rule="evenodd" clip-rule="evenodd" fill="#BDBEC0" d="M17.9 18.3c-1.2 1.7-2.4 3.4-3.4 5.2-1.2-4.3-2.4-8.5-5.8-12.1 3 1.1 6 3.2 8.6 6.2.2.2.4.4.6.7z"/><path fill="#010101" d="M58.9 64.5c1.4.2 3.3-1.2 4.7-2.2 1.6-1.1 1.4-.4.5.8-1.2 1.5-2.5 3.1-4.5 3.4-.6.1-1.2.1-1.8 0-.7-.1-1.3-.3-1.7-.6-.8-.4-1.5-.7-2.1-.7-.6 0-1.3.2-2.1.7-.4.2-1 .4-1.7.6-.5.1-1.1.1-1.8 0-2-.3-3.3-1.9-4.5-3.4-1.1-1.3-.9-1.8.5-.8 1.3 1 3.3 2.4 4.7 2.2 1.4-.2 2.5-.4 3.3-.9.7-.5 1-1.2.8-2.4 0-.1 0-.3-.1-.4-2.4-2.4-4.9-1.7-5.7-3.1-.5-.8-.3-1.6.3-2.3 1.9-2.3 10.9-2.3 12.8 0 .6.7.8 1.5.3 2.3-.8 1.4-3.2.8-5.5 2.9 0 .2-.1.4-.1.6-.2 1.2.1 1.9.7 2.4s1.7.8 3 .9z"/><path fill-rule="evenodd" clip-rule="evenodd" fill="#0795D1" d="M97.9 62.2l2.2 4.3c-.1.1-.3.1-.4.2-1.5.7-2.6 1.7-3.5 3l-2.4-4.8c-3.1 1.5-6.6 2.4-10.2 2.4-12.8 0-23.2-10.4-23.2-23.2 0-12.8 10.4-23.2 23.2-23.2 12.8 0 23.2 10.4 23.2 23.2-.1 7.3-3.5 13.9-8.9 18.1zM83.5 26c10 0 18.1 8.1 18.1 18.1 0 10-8.1 18.1-18.1 18.1-10 0-18.1-8.1-18.1-18.1 0-10 8.1-18.1 18.1-18.1z"/><path fill-rule="evenodd" clip-rule="evenodd" fill="#02527D" d="M96.2 69.6l-2.4-4.8c.7-.3.1 0 .7-.3l2.3 4.3c-.3.4-.5.6-.6.8zm-11.5-2.4h-1.2c-12.8 0-23.2-10.4-23.2-23.2 0-12.8 10.4-23.2 23.2-23.2h1.2c-30.7 1.9-31.8 44.4 0 46.4zm0-41.2c9.4.6 16.9 8.4 16.9 18s-7.5 17.4-16.9 18c.4 0 .8.1 1.2 0 23.2-3.1 21.6-34.2 0-36.1-.5 0-.9.1-1.2.1z"/><path fill-rule="evenodd" clip-rule="evenodd" fill="#FFF" d="M111 76.2c1.9 5.6.4 11.6-3.4 13.3-3.8 1.7-8.4-1.4-10.2-7.1-1.9-5.6-.4-11.6 3.4-13.3 3.8-1.7 8.3 1.4 10.2 7.1zm-21.5-6.4c.9 3 2.7 4.6 4.7 4.6-.6 2.9-.3 6.1.7 8.9.9 2.6 2.3 5 4.3 6.8l.2.2c-7.8-.9-13-5-15.2-11.2 1.2-1.7 2.2-3.4 3.2-5.3l1.6-3 .5-1z"/><path fill-rule="evenodd" clip-rule="evenodd" fill="#D2D3D4" d="M102.7 89.3c-2.2-1.1-4.2-3.6-5.3-6.8-1.8-5.4-.5-11.1 2.9-13.1-2.3 3.3-2.9 8.6-1.2 13.8.8 2.4 2.1 4.5 3.6 6.1z"/><path fill-rule="evenodd" clip-rule="evenodd" fill="#010101" d="M83.5 34.6c.6 0 1.2.1 1.8.2-1 .5-1.7 1.6-1.7 2.8 0 1.7 1.4 3.1 3.1 3.1 1.7 0 3.1-1.4 3.1-3.1 0-.2 0-.4-.1-.6 1.9 1.7 3.1 4.2 3.1 7 0 5.2-4.2 9.4-9.4 9.4S74 49.2 74 44c.1-5.2 4.3-9.4 9.5-9.4zM37.5 41.8c4.5 1.2 7.6 4.9 8.3 9.2-2.1-3-5.2-5.4-9.1-6.4-3.8-1-7.7-.6-11.1 1 2.9-3.4 7.5-5 11.9-3.8z"/><path fill-rule="evenodd" clip-rule="evenodd" fill="#FFF" d="M57.4 95.8c3.6 3.1 8 2 12-3.5-3.9 2-7.9 3.1-12 3.5zM51.3 95.8c-3.6 3.1-8 2-12-3.5 3.9 2 8 3.1 12 3.5zM32.2 90.7c-4.2-.4-5.9-3.5-7.3-6.7-2-4.3-2.9-7.4-3.2-9.6C25.3 81 29.8 86.1 35 89.7c-.3.8-1.1 1.2-2.8 1z"/></svg>