<svg xmlns="http://www.w3.org/2000/svg" viewBox="0 0 133.1 152.4"><path fill-rule="evenodd" clip-rule="evenodd" fill="#9ACA3C" d="M81.3 123h26.5L133.1 0H89.6l-8.3 123"/><path fill-rule="evenodd" clip-rule="evenodd" fill="#ED2224" d="M25.3 123h26.5L43.5 0H0l25.3 123"/><path fill-rule="evenodd" clip-rule="evenodd" fill="#FFCD05" d="M51.8 123h29.5L89.6 0H43.5l8.3 123"/><path fill-rule="evenodd" clip-rule="evenodd" fill="#010101" d="M110 55.9l1.4-3.7c.8-2.2 1.7-4.3 2.4-6.5.6-1.8 1-3.8 0-5.5-1.1-1.7-3.1-2.2-5-2.2-2.6-.1-5.7.3-8.3.6l-8.8 1.2c-7.6-5.6-16.9-8.9-27.1-8.9-10.1 0-19.5 3.3-27.1 8.9l-8.8-1.2c-2.6-.4-5.6-.8-8.3-.6-1.9.1-3.9.5-5 2.2-1 1.7-.6 3.7 0 5.5.7 2.2 1.6 4.3 2.4 6.5l3.7 9.6c-1.5 4.6-2.4 9.4-2.4 14.5 0 8.9 2.6 17.2 8.5 23.9.6.7 1.2 1.3 1.8 1.9v.1c-2.9.3-5.9-1-7.6-3.6-.2-.3-.3-1-.5-1.4-.2-.6-.4-1.2-.8-1.8-1.7-2.6-5.2-3.4-7.8-1.7-3 1.9-3 5.1-1.6 8.1.3.7.7 1.4 1.1 2 4.1 6.3 11.5 9 18.4 7.5.7 1.9 1.5 3.6 2 4.7 2 4.3 4.4 7.7 9.5 8.2 1.5.2 3.1 0 4.3-.9.2.3.3.5.5.8 1.6 5.4 8.9 9.5 17.7 9.5 8.9 0 16.3-4.2 17.8-9.8.8-1.2 1.5-2.4 2.1-3.6v-.1c2.8-2.1 5.5-4.6 7.9-7.6.7 1.6 1.7 3.1 2.9 4.5 4.1 4.8 16.6 8.9 23.4 6 .1-.1.2-.1.3-.2 2.8-1.3 4.5-4 5.2-7 .8-3.2.5-6.6-.5-9.7-.9-2.6-2.3-5-4.3-6.8-1.9-1.7-4.3-2.7-6.8-2.6-.2 0-.4 0-.6.1l-1.7-3.3c5.3-4.7 8.3-11.5 8.3-18.6.2-7.6-3.2-14.4-8.6-19zm-7.7 43.7c.3-.4.7-.8 1-1.3l2 4c-.4.2-.7.4-1.1.3-1-.2-1.7-2-1.9-3z"/><path fill-rule="evenodd" clip-rule="evenodd" fill="#FFF" d="M20 99.9c2.1 3.2 5.6 4.9 9.2 4.6 0 1.5.4 3.1.8 4.7-6 1.3-12.3-1.1-15.8-6.5-1.3-2.1-2.9-5.2-.2-7 1.6-1 3.7-.6 4.8 1 .6 1 .5 2.1 1.2 3.2z"/><path fill-rule="evenodd" clip-rule="evenodd" fill="#0795D1" d="M36.4 107.4c14.6 22.3 42 22.3 56.6 0-8.4 5-18.6 6.9-28.3 6.9s-19.9-1.9-28.3-6.9z"/><path fill-rule="evenodd" clip-rule="evenodd" fill="#02527D" d="M36.4 107.4c7 10.7 17.1 16.3 27.2 16.7.6 0 1.3-.1 1.9-.1-8.5-.9-16.8-5.4-23.2-13.7-2.1-.8-4.1-1.8-5.9-2.9z"/><path fill-rule="evenodd" clip-rule="evenodd" fill="#FFF" d="M64.7 33.6c9.5 0 18.3 3.1 25.4 8.4l6.8-.6c3-.4 6-.9 9.1-1.1 9.1-.6 6.5 2.6 3.4 11.2l-1.1 3c-1.7-1.2-3.5-2.2-5.5-2.9-.5-.8-1.1-1.6-1.7-2.4.2-.2.4-.5.6-.7 2.8-3.2 6.1-5.4 9.3-6.4-5.8-.5-9.8 3.8-12.7 7.9.1.1.2.3.3.4-1.6-.3-3.2-.5-4.8-.5C80 49.9 68.7 61.1 68.7 75c0 13.8 11.2 25.1 25.1 25.1 1.6 0 3.3-.2 4.9-.5-7.8 8.1-20.1 12.1-34 12.1-23.6 0-42.8-11.6-42.8-35.3 0-10 3.5-19.3 9.3-26.6-2.7-4.2-7.1-8.7-12.8-7.8 3.2 1.1 6.5 3.3 9.3 6.4.2.2.4.5.6.7-2.2 2.9-4 6.1-5.5 9.6L20 51.5c-3-8.5-5.7-11.8 3.2-11.2 2.7.2 5.5.6 8.2 1 2.7.4 5.3.6 7.9.8 7.1-5.4 15.9-8.5 25.4-8.5zm29.1 25.1c-9 0-16.2 7.3-16.2 16.2 0 9 7.3 16.2 16.2 16.2S110 83.9 110 74.9c0-8.9-7.3-16.2-16.2-16.2z"/><path fill-rule="evenodd" clip-rule="evenodd" fill="#E8E8E8" d="M49.6 109.9c-16.2-4.1-27.7-15.2-27.7-33.5 0-4.4.7-8.6 1.9-12.6v-.1c.1-.2.2-.5.2-.7v-.1c.1-.2.1-.4.2-.6l.1-.3c.1-.2.1-.4.2-.5l.1-.3c.1-.2.1-.4.2-.5l.1-.3c.1-.2.2-.4.2-.6l.1-.3c.1-.2.2-.3.2-.5l.1-.3.3-.6.1-.2.3-.6.1-.2.3-.6.1-.1c.1-.2.2-.4.3-.5.1-.1.1-.2.2-.4.1-.1.2-.3.2-.4l.1-.2c.1-.2.2-.3.3-.5l.2-.3c.1-.2.2-.3.3-.5l.1-.2c.1-.2.2-.3.3-.5l.2-.3c.1-.2.2-.3.3-.5l.1-.2c.1-.2.2-.3.4-.5l.2-.2c.1-.2.3-.4.4-.5l.1-.1c.1-.2.3-.4.4-.6-2.7-4.2-7.1-8.7-12.8-7.8 3.2 1.1 6.5 3.3 9.3 6.4.2.2.4.5.6.7-2.2 2.9-4 6.1-5.5 9.6L20 51.5c-3-8.5-5.7-11.8 3.2-11.2 2.7.2 5.5.6 8.2 1 2.7.4 5.3.6 7.9.8.3-.3.7-.5 1-.8 4.2-2.9 9-5.1 14.2-6.4-15.2 7-25.9 23-25.9 41.8 0 16.5 8.5 27.6 21 33.2z"/><path fill="#010101" d="M69.2 95.4c1.4.2 3.3-1.2 4.7-2.2 1.6-1.1 1.4-.4.5.8-1.2 1.5-2.5 3.1-4.5 3.4-.6.1-1.2.1-1.8 0-.7-.1-1.3-.3-1.7-.6-.8-.4-1.5-.7-2.1-.7-.6 0-1.3.2-2.1.7-.4.2-1 .4-1.7.6-.5.1-1.1.1-1.8 0-2-.3-3.3-1.9-4.5-3.4-1.1-1.3-.9-1.8.5-.8 1.3 1 3.3 2.4 4.7 2.2 1.4-.2 2.5-.4 3.3-.9.7-.5 1-1.2.8-2.4 0-.1 0-.3-.1-.4-2.4-2.4-4.9-1.7-5.7-3.1-.5-.8-.3-1.6.3-2.3 1.9-2.3 10.9-2.3 12.8 0 .6.7.8 1.5.3 2.3-.8 1.4-3.2.8-5.5 2.9 0 .2-.1.4-.1.6-.2 1.2.1 1.9.7 2.4s1.7.8 3 .9z"/><path fill-rule="evenodd" clip-rule="evenodd" fill="#ED2224" d="M108.2 93.1l2.2 4.3c-.1.1-.3.1-.4.2-1.5.7-2.6 1.7-3.5 3l-2.4-4.8c-3.1 1.5-6.6 2.4-10.2 2.4-12.8 0-23.2-10.4-23.2-23.2 0-12.8 10.4-23.2 23.2-23.2 12.8 0 23.2 10.4 23.2 23.2-.1 7.3-3.5 13.8-8.9 18.1zM93.8 56.9c10 0 18.1 8.1 18.1 18.1 0 10-8.1 18.1-18.1 18.1-10 0-18.1-8.1-18.1-18.1 0-10 8.1-18.1 18.1-18.1z"/><path fill-rule="evenodd" clip-rule="evenodd" fill="#9A1B1F" d="M106.5 100.5l-2.4-4.8c.7-.3.1 0 .7-.3l2.3 4.3c-.3.4-.5.6-.6.8zM95 98.1h-1.2c-12.8 0-23.2-10.4-23.2-23.2 0-12.8 10.4-23.2 23.2-23.2H95c-30.7 1.8-31.8 44.4 0 46.4zm0-41.2c9.4.6 16.9 8.4 16.9 18s-7.5 17.4-16.9 18c.4 0 .8.1 1.2 0 23.2-3.1 21.6-34.2 0-36.1-.5 0-.9.1-1.2.1z"/><path fill-rule="evenodd" clip-rule="evenodd" fill="#FFF" d="M121.3 107.1c1.9 5.6.4 11.6-3.4 13.3-3.8 1.7-8.4-1.4-10.2-7.1-1.9-5.6-.4-11.6 3.4-13.3 3.8-1.7 8.3 1.4 10.2 7.1zm-21.5-6.4c.9 3 2.7 4.6 4.7 4.6-.6 2.9-.3 6.1.7 8.9.9 2.6 2.3 5 4.3 6.8l.2.2c-7.8-.9-13-5-15.2-11.2 1.2-1.7 2.2-3.4 3.2-5.3l1.6-3 .5-1z"/><path fill-rule="evenodd" clip-rule="evenodd" fill="#D2D3D4" d="M113 120.2c-2.2-1.1-4.2-3.6-5.3-6.8-1.8-5.4-.5-11.1 2.9-13.1-2.3 3.3-2.9 8.6-1.2 13.8.8 2.4 2.1 4.5 3.6 6.1z"/><path fill-rule="evenodd" clip-rule="evenodd" fill="#010101" d="M93.8 65.5c.6 0 1.2.1 1.8.2-1 .5-1.7 1.6-1.7 2.8 0 1.7 1.4 3.1 3.1 3.1 1.7 0 3.1-1.4 3.1-3.1v-.6c1.9 1.7 3.1 4.2 3.1 7 0 5.2-4.2 9.4-9.4 9.4s-9.4-4.2-9.4-9.4 4.2-9.4 9.4-9.4zM47.8 72.7c4.5 1.2 7.6 4.9 8.3 9.2-2.1-3-5.2-5.4-9.1-6.4-3.8-1-7.7-.6-11.1 1 2.9-3.4 7.5-5 11.9-3.8z"/><path fill-rule="evenodd" clip-rule="evenodd" fill="#0795D1" d="M99.8 100.7c.7 2.3 1.9 3.8 3.3 4.3-1.1.2-5.1 8.1-4.8 11.1-1.7-1.7-3-3.8-3.8-6.2 1.2-1.7 2.2-3.4 3.2-5.3l1.6-3 .5-.9z"/><path fill-rule="evenodd" clip-rule="evenodd" fill="#FFF" d="M67.7 126.7c3.6 3.1 8 2 12-3.5-3.9 1.9-7.9 3.1-12 3.5zM61.6 126.7c-3.6 3.1-8 2-12-3.5 3.9 1.9 8 3.1 12 3.5zM42.5 121.6c-4.2-.4-5.9-3.5-7.3-6.7-2-4.3-2.9-7.4-3.2-9.6 3.6 6.6 8.2 11.7 13.3 15.3-.3.8-1.1 1.2-2.8 1z"/><path fill-rule="evenodd" clip-rule="evenodd" fill="#0795D1" d="M35.5 115.7c-.1-.2-.2-.5-.3-.7-2-4.3-2.9-7.4-3.2-9.6 2 3.6 4.2 6.7 6.7 9.4h-.1c-1 .4-2.1.7-3.1.9z"/><path fill-rule="evenodd" clip-rule="evenodd" fill="#BDBEC0" d="M28.2 49.2c-1.2 1.7-2.4 3.4-3.4 5.2-1.2-4.3-2.4-8.5-5.8-12.1 3 1.1 6 3.2 8.6 6.2.2.2.4.4.6.7z"/><path fill="#0795D1" d="M9.2 146.6c.2.1.5.3.8.4l.9.3c.3.1.7.1 1 .1.2 0 .4 0 .7-.1.2 0 .4-.1.6-.2.2-.1.3-.2.4-.4.1-.2.2-.4.2-.7 0-.5-.2-.8-.6-1-.4-.2-.9-.4-1.7-.5-.5-.1-1-.2-1.4-.4-.5-.2-.9-.4-1.2-.7-.4-.3-.6-.6-.8-1-.2-.4-.3-.9-.3-1.5s.1-1.1.4-1.6c.3-.5.6-.8 1.1-1.2.4-.3 1-.6 1.6-.7.6-.2 1.2-.2 1.8-.2.7 0 1.3.1 1.8.2s1 .2 1.4.4c.7.3 1.1.7 1.2 1.2 0 .3-.1.6-.2.9-.2.3-.3.7-.5 1-.2-.1-.4-.3-.6-.4-.2-.1-.5-.3-.8-.4l-.9-.3c-.3-.1-.7-.1-1-.1h-.6c-.2 0-.4.1-.5.2-.2.1-.3.2-.4.3-.1.1-.2.3-.2.6 0 .6.6 1 1.8 1.3.5.1 1 .2 1.5.4s.9.4 1.3.7c.4.3.7.6 1 1.1.2.4.4 1 .4 1.6 0 .7-.1 1.3-.4 1.8-.3.5-.6 1-1.1 1.3-.5.4-1 .6-1.6.8-.6.2-1.3.3-2 .3s-1.4-.1-1.9-.2-.9-.2-1.3-.4c-.2-.1-.5-.2-.8-.4-.3-.2-.4-.5-.4-.8 0-.3.1-.6.3-.9.2-.3.4-.6.6-1 0-.1.2 0 .4.2zm10.7-13.5c1 0 1.8.8 1.8 1.8s-.8 1.8-1.8 1.8-1.8-.8-1.8-1.8c.1-1 .9-1.8 1.8-1.8zm-1.6 4.4c.1 0 .2 0 .4-.1h.7c.3 0 .5 0 .8.1.3.1.5.1.7.3.2.1.4.3.5.6.1.3.2.6.2 1v10.2c-.1 0-.2.1-.5.1h-.8c-.3 0-.6 0-.9-.1-.3-.1-.5-.2-.7-.3-.2-.2-.3-.4-.5-.6-.1-.3-.2-.6-.2-1v-10.2h.3zm5.1-3.8c.1 0 .2 0 .4-.1h.8c.3 0 .5 0 .8.1.3.1.5.2.7.3.2.2.4.4.5.6.1.3.2.6.2 1v1.8h3.5v2.6h-3.5v5.4c0 1.2.5 1.8 1.4 1.8.2 0 .5 0 .7-.1l.6-.3c.2-.1.3-.2.4-.3.1-.1.2-.2.3-.2.3.4.4.7.6 1 .1.3.2.5.2.8 0 .2-.1.4-.3.6-.2.2-.4.4-.7.6-.3.2-.7.3-1.2.4-.5.1-1 .2-1.5.2-1 0-1.9-.2-2.4-.6-.6-.4-1-.9-1.2-1.6-.1-.3-.2-.7-.2-1.1 0-.4-.1-.7-.1-1.1v-11.8zm11.4 10.4c.1.9.4 1.7.9 2.3.5.6 1.3.9 2.4.9.4 0 .8 0 1.1-.1l.9-.3c.3-.1.5-.3.7-.4.2-.2.4-.3.5-.4.2.3.4.6.6 1 .2.4.3.7.3 1 0 .4-.2.7-.6 1-.4.3-.9.5-1.5.7-.6.2-1.4.3-2.3.3-.8 0-1.6-.1-2.3-.3-.8-.2-1.4-.6-2-1.1-.6-.5-1.1-1.2-1.5-2-.4-.9-.6-1.9-.6-3.2 0-1.1.2-2 .5-2.7.3-.8.8-1.4 1.3-1.9s1.2-.9 1.9-1.1c.7-.2 1.4-.4 2.1-.4.9 0 1.7.1 2.4.4.7.3 1.2.7 1.6 1.2.4.5.7 1.1.9 1.7.2.6.3 1.3.3 2V144.2h-7.6v-.1zm4.4-1.9c0-.8-.2-1.5-.5-2s-.9-.8-1.7-.8c-.7 0-1.2.2-1.7.7-.4.5-.6 1.1-.6 2h4.5v.1z"/><path fill="#02527D" d="M44.8 146.6c.2.1.5.3.8.4l.9.3c.3.1.7.1 1 .1.2 0 .4 0 .7-.1.2 0 .4-.1.6-.2.2-.1.3-.2.4-.4.1-.2.2-.4.2-.7 0-.5-.2-.8-.6-1-.4-.2-.9-.4-1.7-.5-.5-.1-1-.2-1.4-.4-.5-.2-.9-.4-1.2-.7-.4-.3-.6-.6-.8-1-.2-.4-.3-.9-.3-1.5s.1-1.1.4-1.6c.3-.5.6-.8 1.1-1.2.4-.3 1-.6 1.6-.7.6-.2 1.2-.2 1.8-.2.7 0 1.3.1 1.8.2s1 .2 1.4.4c.7.3 1.1.7 1.2 1.2 0 .3-.1.6-.2.9-.2.3-.3.7-.5 1-.2-.1-.4-.3-.6-.4-.2-.1-.5-.3-.8-.4l-.9-.3c-.3-.1-.7-.1-1-.1h-.6c-.2 0-.4.1-.5.2-.2.1-.3.2-.4.3-.1.1-.2.3-.2.6 0 .6.6 1 1.8 1.3.5.1 1 .2 1.5.4s.9.4 1.3.7c.4.3.7.6 1 1.1.2.4.4 1 .4 1.6 0 .7-.1 1.3-.4 1.8-.3.5-.6 1-1.1 1.3-.5.4-1 .6-1.6.8-.6.2-1.3.3-2 .3s-1.4-.1-1.9-.2-.9-.2-1.3-.4c-.2-.1-.5-.2-.8-.4-.3-.2-.4-.5-.4-.8 0-.3.1-.6.3-.9.2-.3.4-.6.6-1 0-.1.2 0 .4.2zm9.2-9.1c.1 0 .2 0 .3-.1h.9c.6 0 1 .1 1.4.3.4.2.6.5.7.9.3-.3.7-.6 1.3-1 .6-.3 1.3-.5 2.2-.5.6 0 1.2.1 1.8.3.6.2 1.1.6 1.5 1 .4.5.8 1.1 1 1.9.3.8.4 1.7.4 2.9 0 1.3-.2 2.4-.5 3.2-.3.9-.7 1.5-1.2 2s-1 .8-1.6 1c-.6.2-1.2.3-1.8.3-.5 0-.9-.1-1.3-.2s-.7-.2-.9-.4c-.3-.1-.4-.3-.6-.4l-.3-.3v3.8H54v-14.7zm3.4 8.9c.1.1.4.3.7.5.3.2.7.3 1.2.3.9 0 1.5-.3 1.9-1 .4-.7.6-1.6.6-2.8 0-.5 0-1-.1-1.4-.1-.4-.2-.8-.4-1.1-.2-.3-.5-.6-.8-.7-.3-.2-.7-.3-1.2-.3-.7 0-1.2.1-1.5.4-.3.3-.4.6-.4.9v5.2zm12.7-2.3c.1.9.4 1.7.9 2.3.5.6 1.3.9 2.4.9.4 0 .8 0 1.1-.1l.9-.3c.3-.1.5-.3.7-.4.2-.2.4-.3.5-.4.2.3.4.6.6 1 .2.4.3.7.3 1 0 .4-.2.7-.6 1-.4.3-.9.5-1.5.7-.6.2-1.4.3-2.3.3-.8 0-1.6-.1-2.3-.3-.8-.2-1.4-.6-2-1.1-.6-.5-1.1-1.2-1.5-2-.4-.9-.6-1.9-.6-3.2 0-1.1.2-2 .5-2.7.3-.8.8-1.4 1.3-1.9s1.2-.9 1.9-1.1c.7-.2 1.4-.4 2.1-.4.9 0 1.7.1 2.4.4.7.3 1.2.7 1.6 1.2.4.5.7 1.1.9 1.7.2.6.3 1.3.3 2V144.2h-7.6v-.1zm4.4-1.9c0-.8-.2-1.5-.5-2s-.9-.8-1.7-.8c-.7 0-1.2.2-1.7.7-.4.5-.6 1.1-.6 2h4.5v.1zm7.5 1.9c.1.9.4 1.7.9 2.3.5.6 1.3.9 2.4.9.4 0 .8 0 1.1-.1l.9-.3c.3-.1.5-.3.7-.4.2-.2.4-.3.5-.4.2.3.4.6.6 1 .2.4.3.7.3 1 0 .4-.2.7-.6 1-.4.3-.9.5-1.5.7-.6.2-1.4.3-2.3.3-.8 0-1.6-.1-2.3-.3-.8-.2-1.4-.6-2-1.1-.6-.5-1.1-1.2-1.5-2-.4-.9-.6-1.9-.6-3.2 0-1.1.2-2 .5-2.7.3-.8.8-1.4 1.3-1.9s1.2-.9 1.9-1.1c.7-.2 1.4-.4 2.1-.4.9 0 1.7.1 2.4.4.7.3 1.2.7 1.6 1.2.4.5.7 1.1.9 1.7.2.6.3 1.3.3 2V144.2H82v-.1zm4.4-1.9c0-.8-.2-1.5-.5-2s-.9-.8-1.7-.8c-.7 0-1.2.2-1.7.7-.4.5-.6 1.1-.6 2h4.5v.1zm12.4-1.7c-.1-.1-.4-.3-.7-.5-.3-.2-.7-.3-1.2-.3-.9 0-1.5.3-1.9 1-.4.6-.6 1.6-.6 2.8 0 .6 0 1.1.1 1.6s.2.9.4 1.2c.2.3.5.6.8.8.3.2.8.3 1.3.3s.9-.1 1.2-.3c.3-.2.5-.5.5-.9v-5.7h.1zm1.1 8.9c-.3 0-.5-.1-.7-.3-.2-.2-.3-.4-.3-.7-.2.3-.6.6-1.2.9-.6.3-1.3.5-2.2.5-.6 0-1.2-.1-1.8-.3-.6-.2-1.1-.5-1.6-1s-.8-1.1-1.1-1.9c-.3-.8-.4-1.8-.4-2.9 0-1.2.1-2.2.4-3 .3-.8.6-1.5 1.1-2 .5-.5 1-.9 1.6-1.1.6-.2 1.2-.4 1.9-.4.8 0 1.4.1 1.9.4.5.3.9.5 1.1.8v-4.7c.1 0 .3-.1.5-.1h.6c.3 0 .5 0 .8.1.3.1.5.2.7.3.2.2.4.4.5.6.1.3.2.6.2 1v13.9h-2v-.1z"/><path fill="#ED2224" d="M104.2 149.3c-.3-.4-.5-.8-.5-1.3s.2-1 .5-1.3c.3-.3.8-.5 1.3-.5s1 .2 1.3.5c.3.3.5.8.5 1.3s-.2 1-.5 1.3c-.3.4-.8.5-1.3.5-.5.1-.9-.1-1.3-.5zm4.6-11.6c.1 0 .2 0 .4-.1h.7c.3 0 .5 0 .8.1.3 0 .5.1.7.3.2.1.4.3.5.6.1.3.2.6.2 1v10.1c-.1 0-.2.1-.4.1h-.7c-.3 0-.6 0-.9-.1-.3-.1-.5-.2-.7-.3-.2-.2-.3-.4-.4-.6-.1-.3-.2-.6-.2-1v-10.1zm0-2.7c0-.5.2-1 .5-1.3.3-.3.8-.5 1.3-.5s.9.2 1.3.5.5.8.5 1.3-.2 1-.5 1.3c-.4.3-.8.5-1.3.5s-.9-.2-1.3-.5-.5-.8-.5-1.3zm6.1 13c-.5-.6-.8-1.2-1-2-.2-.8-.3-1.5-.3-2.4 0-.8.1-1.6.4-2.4.2-.8.6-1.4 1.1-2 .5-.6 1.1-1 1.9-1.4.7-.3 1.6-.5 2.6-.5s1.9.2 2.7.5c.7.3 1.3.8 1.8 1.3.5.6.8 1.2 1 2 .2.7.3 1.5.3 2.4 0 .8-.1 1.6-.3 2.4-.2.8-.5 1.4-1 2-.5.6-1.1 1-1.8 1.4-.7.3-1.7.5-2.7.5s-2-.2-2.7-.5c-.9-.3-1.5-.7-2-1.3zm3.3-1c.3.2.7.3 1.2.3s.9-.1 1.2-.3c.3-.2.6-.5.8-.9.2-.4.3-.8.4-1.2.1-.4.1-.9.1-1.4 0-.4 0-.9-.1-1.3s-.2-.8-.4-1.2c-.2-.3-.4-.6-.7-.8-.3-.2-.7-.3-1.2-.3s-.9.1-1.2.3c-.3.2-.6.5-.8.8-.2.3-.3.7-.4 1.2-.1.4-.1.9-.1 1.3s0 .9.1 1.3.2.9.4 1.2c.2.5.4.8.7 1z"/></svg>