<svg xmlns="http://www.w3.org/2000/svg" viewBox="0 0 151.8 124.8"><path fill-rule="evenodd" clip-rule="evenodd" fill="#CBCBCB" d="M55.2 109.1c13.1 0 24.2 1.6 28.5 3.9v.2c5.7-.3 12-.4 18.6-.4 27.4 0 49.5 2.7 49.5 6s-22.2 6-49.5 6c-20.4 0-38-1.5-45.6-3.7h-1.5c-16.8 0-30.4-2.7-30.4-6s13.6-6 30.4-6z"/><path fill-rule="evenodd" clip-rule="evenodd" fill="#010101" d="M52.2 0C61 0 69 2.7 75.6 7.3l7.6-1c2.2-.3 4.8-.6 7.1-.5 1.6.1 3.4.4 4.3 1.8.9 1.4.5 3.1 0 4.5-.6 1.8-1.4 3.5-2 5.3l-3.2 7.9c1.3 3.7 2 7.7 2 11.9 0 7.3-2.2 14.1-7.3 19.6l-.5.5h8.3c3.2-1.7 6.6-3.6 10.1-4.9 3.3-1.2 6.4-1.7 10-.9 3 .7 6.7 2.7 8.1 5.7h26.6c1.6 0 2.9 1.3 2.9 2.9v56.4c0 1.6-1.3 2.9-2.9 2.9H66.3c-1.6 0-2.9-1.3-2.9-2.9v-.4c-2.6-.4-4.7-2.4-4.5-5.1.1-.9.2-1.7.5-2.4l-2.1-7.2c-2.5.4-5 .2-7.5-.1v7.3c.5.7.9 1.5 1.2 2.4 1.1 3-.9 5.2-3.8 5.2H33.3c-.6 0-1.2 0-1.8-.1-2.4-.5-3.5-2.5-2.7-4.9.7-2 2-3.7 3.6-4.9l-.7-3.7c-.7.6-1.4 1.1-2.2 1.6-4.4 2.8-9.7 3.8-14.8 2.7-5.1-1.1-9.6-4.2-12.4-8.6-.5-.7-.9-1.5-1.3-2.3-1.6-3.3-1.6-6.8 1.8-8.9 2.9-1.9 6.8-1 8.6 1.9.4.6.7 1.3.9 2 .1.5.3 1.2.6 1.7 2 3.2 5.7 4.7 9.2 4.3-2.4-2.9-2.6-6.9-2-10.5.8-5.1 2.3-9.9 4.2-14.7 1-2.7 1.9-4.9 3.8-7.1.4-.5.8-.9 1.2-1.3-3.3-1.7-6.3-3.8-8.8-6.6-5.3-5.5-7.5-12.3-7.5-19.6 0-4.2.7-8.2 2-11.9l-3.2-7.9c-.7-1.8-1.4-3.5-2-5.3-.5-1.4-.9-3.1 0-4.5s2.7-1.8 4.3-1.8c2.3-.1 4.9.2 7.2.5l7.6 1C35.4 2.7 43.5 0 52.2 0z"/><path fill-rule="evenodd" clip-rule="evenodd" fill="#FFF" d="M11 93.9c2.9 4.5 8.3 6.3 13.1 5 2.4 1.6 5 1.8 7 .4l.2.8c-.9.9-1.8 1.6-2.9 2.3-8.1 5.2-18.9 2.9-24.2-5.2-1.6-2.4-3.4-6.1-.2-8.1 1.9-1.2 4.3-.7 5.5 1.2.8 1.1.7 2.4 1.5 3.6zm100.4-40c4.5 1.1 7.5 4.2 6.9 6.9-.7 2.8-4.8 4.1-9.3 3-3.1-.8-5.5-2.5-6.5-4.5-.7-1.4.3-2.4-1.8-2.3l-3.8.2c3-1.1 6.7-3.2 9.9-3.7 1.4 0 3 0 4.6.4zM30.6 97c-1.9 2.3-5 1.3-7-1.2-2.3-2.8-1.9-6.8-1.6-9 .5-3.4 1.4-6.6 2.5-10l5.7 1.5-1 9.3c-.2 2.3-.4 3.5.4 4.3l1 5.1zm32.8 17c-.9 0-2.2-.4-2.1-2.1.1-.8.3-1.6.7-2.3l-2.6-9.1c1.1-.6 2-1.4 2.5-2.4-2.3.9-5.1 1.4-7.6 1.4h-1.8c-2.9-.2-5.6-.8-7.8-1.8.5 1.1 1.6 2 2.9 2.7v9.1c.6.7 1 1.5 1.3 2.3.7 1.9-.9 2.1-1.7 2.1H33.3c-.7 0-3 .1-2.3-2 .3-.9.8-1.8 1.5-2.6 1.4-1.7 3.1-2.5 5.2-2.8 2.8-.4 6.1.1 7.9 1.5-2.1-2.5-7.1-3.3-11-2.2l-2.5-13c.1 0 .3 0 .4.1 6.5 1 13 1.7 19.7 1.7 3.8 0 7.5-.2 11.2-.6v20z"/><path fill-rule="evenodd" clip-rule="evenodd" fill="#E4E4E4" d="M20.3 105.1c-6.2.5-12.5-2.3-16.1-7.9-1.6-2.4-3.4-6.1-.2-8.1 1.1-.7 2.5-.8 3.6-.4-.3.1-.5.2-.7.4-3.2 2.1-1.4 5.7.2 8.1 3 4.7 8 7.5 13.2 7.9zm9.1-7.2c-1.8.8-4.2-.2-5.8-2.2-2.3-2.8-1.9-6.8-1.6-9 .5-3.4 1.4-6.6 2.5-10l2.6.7c-1 3.1-1.8 6.2-2.3 9.3-.3 2.2-.7 6.2 1.6 9 .9 1.1 2 1.8 3 2.2zm18 16.1H33.3c-.7 0-3 .1-2.3-2 .3-.9.8-1.8 1.5-2.6 1.4-1.7 3.1-2.5 5.2-2.8 1.1-.2 2.3-.2 3.5-.1-.2 0-.4 0-.6.1-2.1.3-3.8 1.1-5.2 2.8-.7.8-1.2 1.6-1.5 2.6-.7 2.1 1.6 2 2.3 2h11.2zm-10-8.6c-1 0-1.9.2-2.8.4L33 97.5l-.9-4.6c.8.1 2.2.3 3 .4l2.3 12.1z"/><path fill-rule="evenodd" clip-rule="evenodd" fill="#188ECE" d="M30.4 76.6L25 75.2c.3-.9.6-1.8 1-2.7.6-1.6 1.9-5.8 5.1-8.2.6.3 1.2.5 1.8.7-1.1 2.6-1.9 5.3-2.2 8.2l-.3 3.4zm1.2 10.5L33 73.5c.3-2.7 1-5.3 2.1-7.7 5.5 1.8 11.4 2.5 17.1 2.5 3.7 0 7.5-.3 11.2-1v24.4c-10.1 1-18.4.7-29.6-.9-1.8-.2-2.5-.5-2.2-3.7z"/><path fill-rule="evenodd" clip-rule="evenodd" fill="#004F7E" d="M30.4 76.6L25 75.2c.3-.9.6-1.8 1-2.7.6-1.6 1.9-5.8 5.1-8.2.6.3 1.2.5 1.8.7-1.1 2.6-1.9 5.3-2.2 8.2l-.3 3.4zm1.2 10.5L33 73.5c.3-2.7 1-5.3 2.1-7.7 1.7.6 3.5 1 5.3 1.4-1 4.2-1.6 8.7-1.6 13.4 0 3.8.4 7.5 1.1 11-1.9-.2-3.9-.5-6.1-.8-1.8-.2-2.5-.5-2.2-3.7z"/><path fill-rule="evenodd" clip-rule="evenodd" fill="#FFF" d="M52.2 2.2c8.2 0 15.8 2.6 21.9 6.9l3.9-.3 5.4-.7c12.9-1.7 10.4.6 7.3 8.7l-2.4 6c-1.2-2.8-2.8-5.4-4.7-7.8.2-.2.3-.4.5-.6 2.4-2.6 5.2-4.4 8-5.3-2.9-.4-6.5 1.1-9.3 4.1-.6.6-1.3 1.5-1.7 2.4 4.9 6 7.9 13.5 7.9 21.6 0 8.6-3.3 15.3-8.8 20.1h-14c-1.6 0-2.9 1.3-2.9 2.9v4.9c-3.5.7-7.3 1.1-11.2 1.1-20.3 0-36.9-9.5-36.9-28.9 0-8.2 3-15.8 8-21.8-.6-.8-1.1-1.6-1.8-2.3-2.8-3-6.4-4.5-9.3-4.1 2.8.9 5.6 2.7 8 5.3.2.2.4.4.5.6-1.9 2.4-3.5 5-4.7 7.8l-2.4-6c-3-8.1-5.6-10.4 7.3-8.7l5.2.7 4.1.3C36.5 4.8 44 2.2 52.2 2.2z"/><path fill-rule="evenodd" clip-rule="evenodd" fill="#E4E4E4" d="M39.3 64.7c-14-3.3-23.9-12.4-23.9-27.4 0-8.2 3-15.8 8-21.8-.6-.8-1.1-1.6-1.8-2.3-2.8-3-6.4-4.5-9.3-4.1 2.8.9 5.6 2.7 8 5.3.2.2.4.4.5.6-1.9 2.4-3.5 5-4.7 7.8l-2.4-6c-3-8.1-5.6-10.4 7.3-8.7l5.2.7 4.1.3c3.9-2.7 8.3-4.7 13.2-5.9-13.1 5.7-22.3 18.9-22.3 34.2 0 13.7 7.2 22.7 18.1 27.3z"/><path fill="#FFF" d="M36.1 75.1c.1 0 .1.1.2.1s.2.1.3.1h.5c.1 0 .1 0 .2-.1l.1-.1s.1-.1.1-.2-.1-.2-.2-.3c-.1-.1-.3-.1-.5-.2-.1 0-.3-.1-.4-.1-.1 0-.2-.1-.3-.2-.1-.1-.2-.2-.2-.3-.1-.1-.1-.3-.1-.4 0-.2 0-.3.1-.4l.3-.3c.1-.1.3-.2.4-.2.2 0 .3-.1.5-.1h.5c.1 0 .3.1.4.1.2.1.3.2.3.3 0 .1 0 .2-.1.3 0 .1-.1.2-.1.3 0 0-.1-.1-.2-.1s-.1-.1-.2-.1-.2-.1-.3-.1h-.7l-.1.1v.2c0 .2.2.3.5.4.1 0 .3.1.4.1.1 0 .3.1.4.2l.3.3c.1.1.1.3.1.5s0 .4-.1.5c-.1.1-.2.3-.3.4-.1.1-.3.2-.5.2-.2.1-.4.1-.6.1h-.5c-.1 0-.3-.1-.4-.1-.1 0-.1-.1-.2-.1-.1-.1-.1-.1-.1-.2s0-.2.1-.3c0-.1.1-.2.2-.3.1-.1.1-.1.2 0zm3-3.8c.3 0 .5.2.5.5s-.2.5-.5.5-.5-.2-.5-.5.2-.5.5-.5zm23.7 4.5c-.1-.1-.1-.2-.1-.4s0-.3.1-.4c.1-.1.2-.1.4-.1h.2v1h-.2c-.2.1-.3 0-.4-.1zm-14.1-3.3H49c.2 0 .3 0 .4.1.1.1.2.1.2.3.1-.1.2-.2.4-.3.2-.1.4-.1.6-.1.2 0 .3 0 .5.1s.3.2.4.3c.1.1.2.3.3.5.1.2.1.5.1.8 0 .4 0 .7-.1.9l-.3.6c-.1.1-.3.2-.5.3-.2.1-.3.1-.5.1h-.4c-.1 0-.2-.1-.3-.1-.1 0-.1-.1-.2-.1l-.1-.1v1.1h-1v-4.4h.2zm.9 2.5s.1.1.2.1c.1.1.2.1.3.1.2 0 .4-.1.5-.3.1-.2.2-.5.2-.8v-.4c0-.1-.1-.2-.1-.3-.1-.1-.1-.2-.2-.2s-.2-.1-.3-.1c-.2 0-.3 0-.4.1-.1.1-.1.2-.1.2V75h-.1zm3.6-.7c0 .3.1.5.2.6.1.2.4.3.7.3h.3c.1 0 .2-.1.2-.1.1 0 .1-.1.2-.1s.1-.1.1-.1c.1.1.1.2.2.3.1.1.1.2.1.3 0 .1-.1.2-.2.3-.1.1-.2.1-.4.2-.1-.1-.3 0-.6 0-.2 0-.4 0-.7-.1l-.6-.3c-.2-.1-.3-.3-.4-.6-.1-.2-.2-.5-.2-.9 0-.3 0-.6.1-.8.1-.2.2-.4.4-.5.2-.1.3-.2.5-.3.2-.1.4-.1.6-.1.3 0 .5 0 .7.1.2.1.3.2.5.3.1.1.2.3.3.5.1.2.1.4.1.6v.4h-2.1zm1.2-.5c0-.2 0-.4-.1-.6-.1-.1-.2-.2-.5-.2-.2 0-.3.1-.5.2-.1.1-.2.3-.2.6h1.3zm2.2.5c0 .3.1.5.2.6.1.2.4.3.7.3h.3c.1 0 .2-.1.2-.1.1 0 .1-.1.2-.1s.1-.1.1-.1c.1.1.1.2.2.3.1.1.1.2.1.3 0 .1-.1.2-.2.3-.1.1-.2.1-.4.2s-.4.1-.6.1c-.2 0-.4 0-.7-.1l-.6-.3c-.2-.1-.3-.3-.4-.6-.1-.2-.2-.5-.2-.9 0-.3 0-.6.1-.8.1-.2.2-.4.4-.5.2-.1.3-.2.5-.3.2-.1.4-.1.6-.1.3 0 .5 0 .7.1s.3.2.5.3c.1.1.2.3.3.5.1.2.1.4.1.6v.4h-2.1v-.1zm1.2-.5c0-.2 0-.4-.1-.6-.1-.1-.2-.2-.5-.2-.2 0-.3.1-.5.2-.1.1-.2.3-.2.6h1.3zm3.5-.5s-.1-.1-.2-.1c-.1-.1-.2-.1-.3-.1-.2 0-.4.1-.5.3-.1.2-.2.4-.2.8v.5c0 .1.1.2.1.3.1.1.1.2.2.2.1.1.2.1.4.1.1 0 .3 0 .4-.1.1-.1.1-.1.1-.2v-1.7zm.3 2.6c-.1 0-.1 0-.2-.1 0-.1-.1-.1-.1-.2-.1.1-.2.2-.3.2-.2.1-.4.1-.6.1-.2 0-.3 0-.5-.1s-.3-.2-.4-.3c-.1-.1-.2-.3-.3-.5-.1-.2-.1-.5-.1-.8 0-.3 0-.6.1-.8l.3-.6c.1-.1.3-.2.4-.3.2-.1.3-.1.5-.1s.4 0 .5.1c.1.1.2.1.3.2v-1.3h.5c.1 0 .1 0 .2.1.1 0 .1.1.1.2s.1.2.1.3v3.9h-.5zm-15.5-.8c.1 0 .1.1.2.1s.2.1.3.1h.5c.1 0 .1 0 .2-.1l.1-.1v-.2c0-.1-.1-.2-.2-.3-.1-.1-.3-.1-.5-.2-.1 0-.3-.1-.4-.1-.1 0-.2-.1-.3-.2-.1-.1-.2-.2-.2-.3-.1-.1-.1-.3-.1-.4 0-.2 0-.3.1-.4l.3-.3c.1-.1.3-.2.4-.2.2 0 .3-.1.5-.1h.5c.1 0 .3.1.4.1.2.1.3.2.3.3 0 .1 0 .2-.1.3 0 .1-.1.2-.1.3 0 0-.1-.1-.2-.1s-.1-.1-.2-.1-.2-.1-.3-.1h-.7l-.1.1v.2c0 .2.2.3.5.4.1 0 .3.1.4.1.1 0 .3.1.4.2l.3.3c.1.1.1.3.1.5s0 .4-.1.5c-.1.1-.2.3-.3.4-.1.1-.3.2-.5.2-.2.1-.4.1-.6.1h-.5c-.1 0-.3-.1-.4-.1-.1 0-.1-.1-.2-.1-.1-.1-.1-.1-.1-.2s0-.2.1-.3c0-.1.1-.2.2-.3.2-.1.2-.1.3 0zm-7.4-2.6h.5c.1 0 .1 0 .2.1.1 0 .1.1.1.2s.1.2.1.3V76H39c-.1 0-.1 0-.2-.1-.1 0-.1-.1-.1-.2V72.5zm1.4-1.1h.5c.1 0 .1 0 .2.1.1 0 .1.1.1.2s.1.2.1.3v.5h1v.7h-1v1.5c0 .3.1.5.4.5h.2c.1 0 .1 0 .2-.1l.1-.1s.1 0 .1-.1c.1.1.1.2.2.3 0 .1.1.1.1.2s0 .1-.1.2c0 .1-.1.1-.2.2-.1 0-.2.1-.3.1h-.4c-.3 0-.5-.1-.7-.2-.2-.1-.3-.3-.3-.4 0-.1-.1-.2-.1-.3V71.4h-.1zm3.2 2.9c0 .3.1.5.2.6.1.2.4.3.7.3h.3c.1 0 .2-.1.2-.1.1 0 .1-.1.2-.1s.1-.1.1-.1c.1.1.1.2.2.3.1.1.1.2.1.3 0 .1-.1.2-.2.3-.1.1-.2.1-.4.2s-.4.1-.6.1c-.2 0-.4 0-.7-.1l-.6-.3c-.2-.1-.3-.3-.4-.6-.1-.2-.2-.5-.2-.9 0-.3 0-.6.1-.8.1-.2.2-.4.4-.5.2-.1.3-.2.5-.3.2-.1.4-.1.6-.1.3 0 .5 0 .7.1.2.1.3.2.5.3.1.1.2.3.3.5.1.2.1.4.1.6v.4h-2.1v-.1zm1.2-.5c0-.2 0-.4-.1-.6-.1-.1-.2-.2-.5-.2-.2 0-.3.1-.5.2-.1.1-.2.3-.2.6h1.3z"/><path fill-rule="evenodd" clip-rule="evenodd" fill="#010101" d="M53.1 44.9c1.2-.9 2.4-.7 2.8-1.4.3-.4.2-.9-.2-1.3-1.1-1.3-6.1-1.3-7.2 0-.3.4-.4.8-.2 1.3.5.7 1.7.4 3 1.5.3.3.3.4.3.8v1c0 .4 0 .6-.2.9-.2.3-.6.6-1.2.9-3.1 1.7-6.1.4-8.8-1.1-1.5-.9-1.7-.5-.5.6C44 51 46.7 54.9 52 54.9c5.4 0 8.1-3.8 11.1-6.8 1-1 1.2-1.6-.5-.6-2.6 1.5-5.7 2.8-8.7 1.1-.5-.3-.9-.6-1.2-.9-.2-.3-.3-.6-.3-.9v-1c.3-.5.3-.6.7-.9zm-16-15.1c1.5 0 2.9.6 3.8 1.6-.3-.1-.5-.2-.9-.2-.9 0-1.7.7-1.7 1.6 0 .9.8 1.6 1.7 1.6.9 0 1.7-.7 1.7-1.6v-.3c.4.7.6 1.5.6 2.4 0 2.8-2.4 5-5.2 5-2.9 0-5.2-2.2-5.2-5s2.3-5.1 5.2-5.1zm31.6 0c1.5 0 2.9.6 3.8 1.6-.3-.1-.5-.2-.9-.2-.9 0-1.7.7-1.7 1.6 0 .9.8 1.6 1.7 1.6.9 0 1.7-.7 1.7-1.6v-.3c.4.7.6 1.5.6 2.4 0 2.8-2.3 5-5.2 5-2.9 0-5.2-2.2-5.2-5-.1-2.8 2.3-5.1 5.2-5.1z"/><path fill-rule="evenodd" clip-rule="evenodd" fill="#F58220" d="M47.1 52.1c1.4 1.1 3.4 1.6 5.2 1.6 1.8 0 3.8-.5 5.2-1.6-1.5-1.1-3.5-1.6-5.3-1.6-1.8 0-3.8.5-5.1 1.6z"/><path fill="#BDBEC0" d="M12.3 9.1c2.8.9 5.6 2.7 8 5.3.2.2.4.4.5.6-1.1 1.4-2 2.8-2.9 4.3-1.1-3.7-2.4-7.1-5.6-10.2z"/><path fill-rule="evenodd" clip-rule="evenodd" fill="#F5EB22" d="M103 99.5l12.8-8.1 12.7 8.1 11.7-10.2v2.2l-11.5 10-12.9-8.2-12.9 8.2-15.7-12.3-13.4 11.6v-2.1l13.3-11.6L103 99.5"/><path fill-rule="evenodd" clip-rule="evenodd" fill="#E84125" d="M93.5 99.1l20.7-14.8 12.6 7.7 13.4-16.5v2.6l-13 16-12.9-7.8-20.8 14.8-5.8-4.6-13.9 6.5v-1.8l14.1-6.6 5.6 4.5"/><path fill-rule="evenodd" clip-rule="evenodd" fill="#3188C8" d="M103 79.9l12.8-9 12.7 7.3 11.7-10.9v2.2l-11.5 10.7-12.9-7.4-12.9 9.1-15.7-11.3L73.8 83v-2.1l13.3-12.4L103 79.9"/><path fill-rule="evenodd" clip-rule="evenodd" fill="#FFF" d="M74.3 111.4h65.8v1.5H72.8v-49h1.5v47.5"/></svg>