<svg xmlns="http://www.w3.org/2000/svg" viewBox="0 0 67.4 57.4"><path fill-rule="evenodd" clip-rule="evenodd" fill="#010101" d="M33.7 0c5.6 0 10.7 1.8 14.9 4.9l4.9-.7c1.3-.2 3-.4 4.5-.3 1 0 2.2.3 2.7 1.2.6.9.3 2.1 0 3-.4 1.2-.9 2.4-1.3 3.5l-2 5.3c.8 2.5 1.3 5.2 1.3 8 0 2-.2 4-.8 5.8 1 0 1.9.6 2.5 1.5.4.8.6 1.8.7 2.8 1.3 0 2.5.4 3.4 1.1 1.2.9 2 2.1 2.4 3.4.6 1.6.7 3.4.1 5.2-.5 1.6-1.5 3.2-3.2 4-.5.3-1.1.4-1.7.5-.6.1-1.2.1-1.7 0-3.1.3-6.6-.3-8.4-1.5-1.2-.8-2.2-1.9-3-3.1-1.4 1.7-2.9 3.2-4.5 4.3v.1c-.3.7-.7 1.4-1.2 2-.8 3-4.9 5.4-9.8 5.4-4.8 0-8.9-2.3-9.7-5.2-.5-.7-.9-1.4-1.2-2.1V49c-.1 0-.1-.1-.2-.1-.6.9-.9 2-.7 3.2 0 .2.2.5.3.7.2.3.3.7.3 1 .3 1.7-.9 3.3-2.6 3.5-1.9.3-3.1-1-3.6-2.7l-.3-1.2c-.5-3.1.6-6.1 2.7-8.2-.1-.2-.3-.3-.4-.5-.8 1.2-1.8 2.3-3 3.1-1.8 1.2-5.2 1.8-8.4 1.5-.5.1-1.1.1-1.7 0-.6-.1-1.1-.3-1.7-.5-1.7-.8-2.7-2.4-3.2-4-.5-1.7-.4-3.6.1-5.2.5-1.3 1.3-2.6 2.4-3.4.9-.7 2.1-1.1 3.3-1.1 0-1 .2-2 .7-2.8.5-1 1.5-1.6 2.6-1.5-.3-1.9-.5-3.8-.5-5.8 0-2.8.5-5.5 1.3-8l-2-5.3c-.4-1.2-.9-2.4-1.3-3.5-.3-1-.6-2.1 0-3C7.3 4.2 8.4 4 9.4 4c1.5-.2 3.1 0 4.6.2l4.9.7C23 1.8 28.1 0 33.7 0zm21.4 36.7c-.3.5-.7.9-1.1 1.4-.1.1-.1.2-.2.2.6.6 1.2.4 1.8 0-.2-.6-.3-1.2-.5-1.6 0 .1 0 .1 0 0zm-41.5 1.6c-.1-.1-.1-.2-.2-.2-.4-.5-.8-.9-1.1-1.4l-.1.1c-.1.2-.3.8-.4 1.5.6.5 1.2.6 1.8 0z"/><path fill-rule="evenodd" clip-rule="evenodd" fill="#FFF" d="M52.7 39.4c.9.9 1.9 1.2 2.8.7-.4 1.6-.2 3.3.3 4.7.4 1.2 1.2 2.4 2.2 3.2-3.5-.1-6.3-1.8-7.9-4.7.6-.9 1.2-1.9 1.8-2.9l.3-.6c.1 0 .3-.2.5-.4z"/><path fill-rule="evenodd" clip-rule="evenodd" fill="#0795D1" d="M52.7 39.4c.5.6 1.1.9 1.7.9-.5 1.3-1.3 5.8-.9 6.6-1.4-.8-2.5-2-3.4-3.5.6-.9 1.2-1.9 1.8-2.9l.3-.6.5-.5z"/><path fill-rule="evenodd" clip-rule="evenodd" fill="#FFF" d="M14.6 39.4c-.9.9-1.9 1.2-2.8.7.4 1.6.2 3.3-.3 4.7-.4 1.2-1.2 2.4-2.2 3.2 3.5-.1 6.3-1.8 7.9-4.7-.6-.9-1.2-1.9-1.8-2.9l-.3-.6c-.1 0-.3-.2-.5-.4z"/><path fill-rule="evenodd" clip-rule="evenodd" fill="#0795D1" d="M14.6 39.4c-.5.6-1.1.9-1.7.9.7 2.2 1.3 4.4 1 6.6 1.4-.8 2.5-2 3.4-3.5-.6-.9-1.2-1.9-1.8-2.9l-.3-.6c-.2-.1-.4-.3-.6-.5z"/><path fill-rule="evenodd" clip-rule="evenodd" fill="#FFF" d="M35.3 52.6c2 1.7 4.4 1.1 6.6-1.9-2.1 1.1-4.3 1.7-6.6 1.9zM32 52.6c-2 1.7-4.4 1.1-6.6-1.9 2.2 1.1 4.4 1.7 6.6 1.9z"/><path fill-rule="evenodd" clip-rule="evenodd" fill="#0795D1" d="M18.1 42c8 12.2 23.1 12.2 31.1 0-4.6 2.7-10.2 3.8-15.5 3.8-5.3 0-11-1-15.6-3.8z"/><path fill-rule="evenodd" clip-rule="evenodd" fill="#02527D" d="M18.1 42c3.9 5.9 9.4 9 14.9 9.2.3 0 .7 0 1-.1-4.7-.5-9.3-3-12.8-7.5-1-.4-2-1-3.1-1.6z"/><path fill-rule="evenodd" clip-rule="evenodd" fill="#FFF" d="M33.7 1.5c5.2 0 10.1 1.7 14 4.6 2-.1 4-.4 5.9-.6 8.2-1.1 6.6.4 4.7 5.8l-1.5 4c-.8-1.9-1.8-3.6-3-5.3.1-.1.2-.3.3-.4 1.5-1.7 3.3-2.9 5.1-3.5-1.6-.2-3.6.5-5.3 2.1-.7.7-1.2 1.3-1.7 2.2 3.1 4 5 9 5 14.5 0 2.3-.3 4.4-1 6.3-.2.1-.4.3-.6.4-.8.7-1.4 1.6-1.4 2.6 0 .4 0 .7.1 1-4 6-11.7 9-20.6 9-8.9 0-16.7-3-20.6-9.1.1-.3.1-.6.1-.9 0-1-.6-1.9-1.4-2.6-.2-.1-.3-.3-.5-.4-.6-1.9-1-4-1-6.4 0-5.5 1.9-10.6 5.1-14.6-.5-.8-1-1.4-1.6-2.1-1.8-1.5-3.9-2.3-5.6-2 1.8.6 3.6 1.8 5.1 3.5.1.1.2.3.3.4-1.2 1.6-2.2 3.4-3 5.3l-1.5-4c-1.9-5.5-3.6-7 4.7-5.8 2 .3 3.9.5 5.9.6 3.9-2.9 8.8-4.6 14-4.6z"/><path fill-rule="evenodd" clip-rule="evenodd" fill="#E5E5E5" d="M25.4 43.4c-5.3-1.3-9.7-4-12.4-8.2.1-.3.1-.6.1-.9 0-1-.6-1.9-1.4-2.6-.2-.1-.3-.3-.5-.4-.6-1.9-1-4-1-6.4 0-5.5 1.9-10.6 5.1-14.6-.5-.8-1-1.4-1.6-2.1C12 6.6 9.9 5.8 8.2 6.1c1.8.6 3.6 1.8 5.1 3.5.1.1.2.3.3.4-1.2 1.6-2.2 3.4-3 5.3l-1.5-4c-1.9-5.5-3.6-7 4.7-5.8 2 .3 3.9.5 5.9.6 2.5-1.8 5.3-3.2 8.4-3.9C19.7 6 13.9 14.8 13.9 25.1c0 9.1 4.6 15.2 11.5 18.3z"/><path fill-rule="evenodd" clip-rule="evenodd" fill="#B3B3B3" d="M8.4 6c.1 0 .1 0 .2.1 0 0-.1 0-.2-.1zm3.4 6.9c-.6-2.4-1.3-4.7-3.2-6.7 1.6.6 3.3 1.8 4.7 3.4.1.1.2.3.3.4-.6.9-1.2 1.9-1.8 2.9z"/><path fill-rule="evenodd" clip-rule="evenodd" fill="#010101" d="M34.6 33.1c1.2-.9 2.4-.7 2.8-1.4.3-.4.1-.9-.2-1.3-1-1.3-6-1.3-7 0-.3.4-.4.8-.2 1.3.4.7 1.7.4 2.9 1.5.8.7.5 1.3-.4 1.8-2 1.1-3.9.3-5.6-.7-1-.5-1.1-.3-.3.4 2 1.9 3.7 4.3 7.1 4.3 3.4 0 5.1-2.4 7.1-4.3.6-.6.8-1-.3-.4-1.6.9-3.6 1.8-5.5.7-1.1-.7-1.4-1.2-.4-1.9zM23.6 21.9c1.8 0 3.3 1.7 3.3 3.9 0 2.1-1.5 3.9-3.3 3.9-1.8 0-3.3-1.7-3.3-3.9s1.5-3.9 3.3-3.9zm20.1 0c1.8 0 3.3 1.7 3.3 3.9 0 2.1-1.5 3.9-3.3 3.9-1.8 0-3.3-1.7-3.3-3.9s1.5-3.9 3.3-3.9zm1.8 1.4c.6 0 1.1.5 1.1 1.1 0 .6-.5 1.1-1.1 1.1-.6 0-1.1-.5-1.1-1.1 0-.6.5-1.1 1.1-1.1zm-20.1 0c.6 0 1.1.5 1.1 1.1 0 .6-.5 1.1-1.1 1.1-.6 0-1.1-.5-1.1-1.1 0-.6.5-1.1 1.1-1.1z"/><path fill-rule="evenodd" clip-rule="evenodd" fill="#F58220" d="M30.4 37.2c.9.7 2.1 1 3.3 1 1.1 0 2.4-.3 3.3-1-.9-.7-2.1-1-3.3-1-1.2 0-2.4.3-3.3 1z"/><path fill-rule="evenodd" clip-rule="evenodd" fill="#FFF" d="M56.5 35.9c.1.2.3.8.4 1.4.5-.6 1.2-1.2 1.9-1.6.2-.1.4-.2.7-.3 0-.8-.2-1.6-.5-2.2-.4-.8-1.4-1.5-2.6-.4-1.6 1.3-.3 2.4.1 3.1zM65.4 40.3c1 2.9.1 6.2-2.2 7.3-2.2 1.1-4.9-.4-5.9-3.3 1.3-.4 2.7-.5 3.8-.2-.2-.1-.3-.2-.5-.3-1-.4-2.2-.5-3.5-.2-.2-1-.3-2.1-.1-3.1 1.5-.4 2.9-.6 4.2-.3l-.6-.3c-.9-.3-2.1-.4-3.4-.2.4-1.2 1.2-2.2 2.2-2.8 2.3-1.1 4.9.4 6 3.4z"/><path fill-rule="evenodd" clip-rule="evenodd" fill="#CDCCCC" d="M60.3 47.7c-1.3-.5-2.4-1.7-3-3.4.3-.1.5-.2.8-.2 0 .2.1.3.2.5.4 1.3 1.2 2.4 2 3.1zm-3.2-4.1c-.2-1-.3-2.1-.1-3.1.3-.1.6-.2.9-.2-.2 1-.1 2.1.1 3.2-.3 0-.6 0-.9.1zm.2-3.9c.4-1.1 1-2 1.9-2.6-.5.7-.9 1.6-1.2 2.5-.2.1-.5.1-.7.1z"/><path fill-rule="evenodd" clip-rule="evenodd" fill="#FFF" d="M10.8 35.9c-.1.2-.3.7-.4 1.3-.5-.6-1.1-1.1-1.9-1.5-.2-.1-.5-.2-.8-.3 0-.8.2-1.6.5-2.1.4-.8 1.4-1.5 2.6-.4 1.6 1.2.4 2.3 0 3zM2 40.3c-1 2.9-.1 6.2 2.2 7.3 2.2 1.1 4.9-.4 5.9-3.3-1.3-.4-2.7-.5-3.8-.2.2-.1.3-.2.5-.3 1-.4 2.2-.5 3.5-.2.2-1 .3-2.1.1-3.1-1.5-.4-2.9-.6-4.2-.3l.6-.3c.9-.3 2.1-.4 3.4-.2-.4-1.2-1.2-2.2-2.2-2.8-2.3-1.1-5 .4-6 3.4z"/><path fill-rule="evenodd" clip-rule="evenodd" fill="#CDCCCC" d="M7 47.7c1.3-.5 2.4-1.7 3-3.4-.3-.1-.5-.2-.8-.2 0 .2-.1.3-.2.5-.4 1.3-1.1 2.4-2 3.1zm3.3-4.1c.2-1 .3-2.1.1-3.1-.3-.1-.6-.2-.9-.2.2 1 .1 2.1-.1 3.2.3 0 .6 0 .9.1zm-.2-3.9c-.4-1.1-1-2-1.9-2.6.5.7.9 1.6 1.2 2.5.2.1.4.1.7.1z"/><path fill-rule="evenodd" clip-rule="evenodd" fill="#FFF" d="M20.6 52.2c-.2-1.5.2-2.9 1-4.1-.7-.6-1.4-1.3-2.1-2-1.8 1.8-2.7 4.4-2.3 7.1.2 1.3.7 3.2 2.5 2.9 1-.2 1.7-1.1 1.6-2.2-.2-.6-.6-1-.7-1.7z"/></svg>