<svg xmlns="http://www.w3.org/2000/svg" viewBox="0 0 119.5 126.6"><path fill-rule="evenodd" clip-rule="evenodd" fill="#CBCBCB" d="M55.2 109.1c16.8 0 30.4 2.7 30.4 6s-13.6 6-30.4 6-30.4-2.7-30.4-6 13.6-6 30.4-6zM102.1 119.8c9.5 0 17.2 1.5 17.2 3.4s-7.7 3.4-17.2 3.4-17.2-1.5-17.2-3.4 7.7-3.4 17.2-3.4z"/><path fill-rule="evenodd" clip-rule="evenodd" fill="#010101" d="M52.2 0C61 0 69 2.7 75.6 7.3l7.6-1c2.2-.3 4.8-.6 7.1-.5 1.6.1 3.4.4 4.3 1.8.9 1.4.5 3.1 0 4.5-.6 1.8-1.4 3.5-2 5.3l-3.2 7.9.3.9c.9.4 1.7.9 2.4 1.5l3.1-14.8 2.9 5.3 6.3-14.4-5.3 26.6-2.5-3.5-.8 5.5c.8 1.6 1.2 3.5 1.2 5.4 0 5.4-3.4 10.1-8.2 11.9-1.2 2.5-2.7 4.9-4.8 7.1-2.5 2.7-5.5 4.9-8.8 6.6.4.4.8.8 1.2 1.3 1.9 2.2 2.7 4.5 3.8 7.1 1.8 4.8 3.4 9.7 4.2 14.7.3 2.1.4 4.4-.1 6.5l6.9 3.5c3.1-3.2 7.3-5.1 11.9-5.1 9.1 0 16.4 7.3 16.4 16.4 0 9.1-7.3 16.4-16.4 16.4-9.1 0-16.4-7.3-16.4-16.4 0-1.9.3-3.8 1-5.6l-7-3.6c-1.7 1.3-3.5 1.8-5.2 1.5l.6 6.2c2 1.2 3.7 2.9 5 4.9 1.5 2.3.9 4.3-1.3 4.9-.6.1-1.1.1-1.7.1H64.2c-2.9 0-5.5-2.1-5.3-5.2.1-.9.2-1.7.5-2.4l-2.1-7.2c-1.4.2-2.8.3-4.2.3-1.1 0-2.3-.1-3.4-.2v7.2c.5.7.9 1.5 1.2 2.4 1.1 3-.9 5.2-3.8 5.2H33.2c-.6 0-1.2 0-1.8-.1-2.4-.5-3.5-2.5-2.7-4.9.7-2 2-3.7 3.6-4.9l-.7-3.7c-.7.6-1.4 1.1-2.2 1.6-4.4 2.8-9.7 3.8-14.8 2.7-5.1-1.1-9.6-4.2-12.4-8.6-.5-.7-.9-1.5-1.3-2.3-1.6-3.3-1.6-6.8 1.8-8.9 2.9-1.9 6.8-1 8.6 1.9.4.6.7 1.3.9 2 .1.5.3 1.2.6 1.7 2 3.2 5.7 4.7 9.2 4.3-2.4-2.9-2.6-6.9-2-10.5.8-5.1 2.3-9.9 4.2-14.7 1-2.7 1.9-4.9 3.8-7.1.4-.5.8-.9 1.2-1.3-3.3-1.7-6.3-3.8-8.8-6.6-2-2.2-3.6-4.6-4.8-7.1-4.8-1.8-8.2-6.5-8.2-11.9 0-1.9.4-3.8 1.2-5.4L7.8 27l-2.5 3.5L0 3.8l6.3 14.4 2.9-5.3 3.1 14.8c.7-.6 1.5-1.1 2.4-1.5l.3-.9-3.2-7.9c-.7-1.8-1.4-3.5-2-5.3-.4-1.4-.8-3.1.1-4.4.9-1.4 2.7-1.8 4.3-1.8 2.2-.2 4.8.1 7.1.4l7.6 1C35.4 2.7 43.5 0 52.2 0zm60.5 107.9c0-5.3-4.3-9.6-9.6-9.6s-9.6 4.3-9.6 9.6 4.3 9.6 9.6 9.6c5.3-.1 9.6-4.3 9.6-9.6z"/><path fill-rule="evenodd" clip-rule="evenodd" fill="#FEC909" d="M90.4 28.7c3 2 4.9 5.3 4.9 9.1 0 4-2.2 7.6-5.4 9.4 1.1-3.2 1.6-6.5 1.6-10-.1-2.9-.4-5.8-1.1-8.5zm4.5 2l1.1-6.9 2.6 3.7 3.6-16.4-3.9 9.8-2.6-4.7-2.6 12.3c.7.7 1.3 1.4 1.8 2.2z"/><path fill-rule="evenodd" clip-rule="evenodd" fill="#FFF" d="M30.6 97c-1.9 2.3-5 1.3-7-1.2-2.3-2.8-1.9-6.8-1.6-9 .5-3.4 1.4-6.6 2.5-10l5.8 1.5-1 9.3c-.2 2.3-.4 3.5.4 4.3l.9 5.1zm44.7 1c1 .4 2.2.2 3.3-.4l-1.1-.6c-.5.6-.9.9-1.2.8-.5-.2-.7-2 .6-4.6 1.3-2.6 2.8-3.4 3.2-3.1.2.1.2.4.2.9l2.1 1.1c.4-2 .2-4 0-5.3-.5-3.4-1.4-6.6-2.5-10l-5.8 1.5 1 9.8c.2 2 0 3.1-.5 3.7l.7 6.2zm-43.1-5.2l2.5 13c3.8-1 8.8-.3 11 2.2-1.8-1.5-5.3-1.9-8.2-1.4-1.8.3-3.1.9-4.3 2.2-.9.9-1.6 2-2 3.1-.7 2.1 1.6 2 2.3 2h13.9c.8 0 2.4-.2 1.7-2.1-.3-.8-.8-1.6-1.3-2.3v-9.1c-1.4-.7-2.4-1.7-2.9-2.7 3.1 1.4 6.3 1.8 9.6 1.8 2.5 0 5.2-.5 7.6-1.4-.5.9-1.3 1.7-2.5 2.4l2.6 9.1c-.4.7-.6 1.5-.7 2.3-.1 1.9 1.5 2.1 2.3 2.1h13.9c.7 0 3 .1 1.7-2-.8-1.3-2-2.5-3.3-3.4-1.4-.9-2.8-1.7-4.5-1.9-2.3-.4-4.9-.1-6.3 1.1 1.8-2.1 5.6-2.6 8.7-1.8l-1.3-13c-.2 0-.3.1-.5.1-6.5 1-13.1 1.7-19.7 1.7s-13.1-.7-19.7-1.7c-.4-.2-.5-.2-.6-.3zM11 93.9c2.9 4.5 8.3 6.3 13.1 5 2.4 1.6 5 1.8 7 .4l.2.8c-.9.9-1.8 1.6-2.9 2.3-8.1 5.2-18.9 2.9-24.2-5.2-1.6-2.4-3.4-6.1-.2-8.1 1.9-1.2 4.3-.7 5.5 1.2.8 1.1.7 2.4 1.5 3.6z"/><path fill-rule="evenodd" clip-rule="evenodd" fill="#E84125" d="M74 76.6l5.4-1.4c-.3-.9-.6-1.8-1-2.7-.6-1.6-1.9-5.8-5.1-8.2-.6.3-1.2.5-1.8.8 1.1 2.6 1.9 5.3 2.2 8.2l.3 3.3zm-43.5 0l-5.4-1.4c.3-.9.6-1.8 1-2.7.6-1.6 1.9-5.8 5.1-8.2.6.3 1.2.5 1.8.7-1.1 2.6-1.9 5.3-2.2 8.2l-.3 3.4zm1.1 10.5L33 73.5c.3-2.7 1-5.3 2.1-7.7 5.5 1.8 11.4 2.5 17.1 2.5 5.7 0 11.6-.7 17.1-2.5 1.1 2.4 1.8 5 2.1 7.7l1.4 13.8c.3 3.2-1.1 3.4-2.5 3.6-13.6 2-22.9 2-36.6 0-1.7-.3-2.4-.6-2.1-3.8z"/><path fill-rule="evenodd" clip-rule="evenodd" fill="#EC252C" d="M91.7 98.8l-11.7-6c-1.1.8-1.4 1.8-1.4 2.8l11.4 5.9c-1 1.9-1.5 4.1-1.5 6.4 0 8.1 6.5 14.6 14.6 14.6s14.6-6.5 14.6-14.6-6.5-14.6-14.6-14.6c-4.6 0-8.7 2.1-11.4 5.5zm22.8 9.1c0-6.3-5.1-11.4-11.4-11.4-6.3 0-11.4 5.1-11.4 11.4 0 6.3 5.1 11.4 11.4 11.4 6.3-.1 11.4-5.2 11.4-11.4z"/><path fill-rule="evenodd" clip-rule="evenodd" fill="#A52622" d="M78.6 94.9c0 .2-.1.5-.1.7l11.4 5.9.2-.4-11.5-6.2zm9.9 12.2v.7c0 8.1 6.5 14.6 14.6 14.6s14.6-6.5 14.6-14.6v-.7c-1.1 19.3-27.9 20-29.2 0zm26 0c-.4-5.9-5.3-10.6-11.3-10.6-6 0-11 4.7-11.3 10.6 0-.2-.1-.5 0-.7 1.9-14.6 21.5-13.6 22.7 0-.1.2-.1.5-.1.7z"/><path fill-rule="evenodd" clip-rule="evenodd" fill="#010101" d="M52.2 70.4c2.6 0 4.9 1 6.7 2.6l5-4.8-3.6 6.5c1 1.5 1.6 3.4 1.6 5.4 0 5.4-4.4 9.7-9.7 9.7-2.7 0-5.2-1.1-7-3l-4.6 4.4 3.4-5.9c-1-1.5-1.5-3.3-1.5-5.2 0-5.4 4.4-9.7 9.7-9.7z"/><path fill-rule="evenodd" clip-rule="evenodd" fill="#FFF" d="M52.2 71.5c2.3 0 4.3.9 5.9 2.3l-4.3 4.1-2.8-4.7-6.3 10.9c-.7-1.2-1-2.6-1-4.1-.1-4.7 3.8-8.5 8.5-8.5zm7.5 4.3c.7 1.3 1.1 2.7 1.1 4.3 0 4.8-3.9 8.6-8.6 8.6-2.4 0-4.6-1-6.2-2.6l4.8-4.6 2.8 5.4 6.1-11.1z"/><path fill-rule="evenodd" clip-rule="evenodd" fill="#FEC909" d="M59.3 74.1l-5.7 5.6-2.6-4.3-5.6 9.7 5.7-5.4 2.6 4.8 5.6-10.4"/><path fill-rule="evenodd" clip-rule="evenodd" fill="#E84125" d="M52.2 2.2c8.2 0 15.8 2.6 21.9 6.9l3.9-.3 5.4-.7c12.9-1.7 10.4.6 7.3 8.7l-2.4 6c-1.2-2.8-2.8-5.4-4.7-7.8.2-.2.3-.4.5-.6 2.4-2.6 5.2-4.4 8-5.3-2.9-.4-6.5 1.1-9.3 4.1-.6.6-1.2 1.6-1.7 2.4l.1.1c4.9 5.9 7.8 13.4 7.8 21.5 0 7.2-2.3 13.1-6.3 17.6l-3.3-9.7-16.2-3c-3-3.1-6.4-5.7-10.3-7.6l-.8-.4-.8.4c-3.9 1.9-7.3 4.4-10.3 7.6l-16.2 3-3.3 9.7c-4-4.5-6.3-10.4-6.3-17.6 0-8.2 3-15.8 8-21.8-.6-.8-1.1-1.6-1.8-2.3-2.8-3-6.4-4.5-9.3-4.1 2.8.9 5.6 2.7 8 5.3.2.2.4.4.5.6-1.9 2.4-3.5 5-4.7 7.8l-2.4-6c-3-8.1-5.6-10.4 7.3-8.7l5.2.7 4.1.3C36.5 4.8 44 2.2 52.2 2.2z"/><path fill-rule="evenodd" clip-rule="evenodd" fill="#BA3B26" d="M21.6 13.2c-2.8-3-6.4-4.5-9.3-4.1 2.8.9 5.6 2.7 8 5.3.2.2.4.4.5.6-1.9 2.4-3.5 5-4.7 7.8l-2.4-6c-3-8.1-5.6-10.4 7.3-8.7l5.2.7 4.1.3c3.9-2.7 8.3-4.7 13.2-5.9-13.1 5.7-22.3 18.9-22.3 34.2 0 4.5.8 8.6 2.3 12.1l-1.8 5.3c-4-4.5-6.3-10.4-6.3-17.6 0-8.2 3-15.8 8-21.8-.6-.7-1.2-1.5-1.8-2.2z"/><path fill-rule="evenodd" clip-rule="evenodd" fill="#FFF" d="M81.4 56.3c-6.7 6.6-17.3 9.8-29.2 9.8-11.9 0-22.5-3.3-29.2-9.8l3.3-9.6 15.8-3c2.6-2.9 5.9-5.6 10.1-7.6 4.2 2 7.5 4.7 10.1 7.6l15.8 3 3.3 9.6z"/><path fill-rule="evenodd" clip-rule="evenodd" fill="#E4E4E4" d="M31.9 62.2c-.3-.1-.4-.2-.6-.3-.2-.1-.4-.2-.5-.3l-.1-.1c-.1-.1-.3-.1-.4-.2l-.2-.1c-.1-.1-.2-.1-.3-.2l-.2-.1c-.2-.1-.3-.2-.5-.3H29c-.1-.1-.3-.2-.4-.2l-.1-.1c-.1-.1-.2-.1-.3-.2l-.2.1c-.1-.1-.2-.1-.3-.2-.1-.1-.2-.1-.3-.2-.1 0-.1-.1-.2-.1-.1-.1-.2-.1-.2-.2l-.2-.1c-.1-.1-.2-.1-.3-.2l-.1-.1c-.2-.1-.4-.3-.5-.4l-.1-.1c-.1-.1-.2-.1-.3-.2l-.1-.1c-.3-.3-.6-.5-1-.8-.4-.4-.9-.8-1.3-1.2l1.5-4.4c3.1 5.9 8.3 10.1 14.7 12.8-2.6-.6-5.1-1.5-7.4-2.5z"/><path fill-rule="evenodd" clip-rule="evenodd" fill="#010101" d="M37 29.8c2.9 0 5.2 2.3 5.2 5.2 0 2.9-2.4 5.2-5.2 5.2-2.9 0-5.2-2.3-5.2-5.2 0-2.8 2.3-5.2 5.2-5.2zm30.4 0c2.9 0 5.2 2.3 5.2 5.2 0 2.9-2.4 5.2-5.2 5.2-2.9 0-5.2-2.3-5.2-5.2 0-2.8 2.3-5.2 5.2-5.2z"/><path fill-rule="evenodd" clip-rule="evenodd" fill="#FFF" d="M39.8 31.3c.9 0 1.7.8 1.7 1.7 0 .9-.8 1.7-1.7 1.7-.9 0-1.7-.8-1.7-1.7 0-1 .8-1.7 1.7-1.7zm30.4 0c.9 0 1.7.8 1.7 1.7 0 .9-.8 1.7-1.7 1.7-.9 0-1.7-.8-1.7-1.7.1-1 .8-1.7 1.7-1.7z"/><path fill-rule="evenodd" clip-rule="evenodd" fill="#010101" d="M53.2 45.2c1.2-.9 2.4-.7 2.8-1.4.3-.4.2-.9-.2-1.3-1.1-1.3-6.1-1.3-7.2 0-.3.4-.4.8-.2 1.3.5.7 1.7.4 3 1.5.3.3.3.4.3.8v1c0 .4 0 .6-.2.9-.2.3-.6.6-1.2.9-3.1 1.7-6.1.4-8.8-1.1-1.5-.9-1.7-.5-.5.6 3.1 2.9 5.8 6.8 11.1 6.8 5.4 0 8.1-3.8 11.1-6.8 1-1 1.2-1.6-.5-.6-2.6 1.5-5.7 2.8-8.7 1.1-.5-.3-.9-.6-1.2-.9-.2-.3-.3-.6-.3-.9v-1c.2-.5.3-.6.7-.9z"/><path fill-rule="evenodd" clip-rule="evenodd" fill="#F58220" d="M47.1 52.5c1.4 1.1 3.4 1.6 5.2 1.6 1.8 0 3.8-.5 5.2-1.6-1.4-1.1-3.4-1.6-5.2-1.6-1.9 0-3.9.5-5.2 1.6z"/><path fill="#AC2931" d="M12.9 9h-.2l-.1-.1c.1.1.2.1.3.1zm0 .3c2.6.9 5.2 2.7 7.4 5.1.2.2.4.4.5.6-1.1 1.4-2 2.8-2.9 4.3-1-3.6-2.1-7-5-10z"/><path fill-rule="evenodd" clip-rule="evenodd" fill="#E3AD24" d="M9.5 30.7l-1.1-6.9-2.6 3.7-3.6-16.4 3.9 9.8 2.6-4.7 2.6 12.3c-.6.7-1.2 1.4-1.8 2.2zm5.1 16.5c-3.2-1.9-5.4-5.4-5.4-9.4 0-3.8 1.9-7.2 4.9-9.1-.7 2.8-1 5.6-1 8.6-.1 3.4.4 6.8 1.5 9.9z"/><path fill-rule="evenodd" clip-rule="evenodd" fill="#BA3B26" d="M30.5 76.6l-5.4-1.4c.3-.9.6-1.8 1-2.7.6-1.6 1.9-5.8 5.1-8.2.6.3 1.2.5 1.8.7-1.1 2.6-1.9 5.3-2.2 8.2l-.3 3.4zm1.1 10.5L33 73.5c.3-2.7 1-5.3 2.1-7.7 1.7.6 3.5 1 5.3 1.4-1 4.2-1.6 8.7-1.6 13.4 0 3.8.4 7.5 1.1 11-1.9-.2-3.9-.5-6.1-.8-1.8-.2-2.5-.5-2.2-3.7z"/><path fill-rule="evenodd" clip-rule="evenodd" fill="#E4E4E4" d="M20.3 105.1c-6.2.5-12.5-2.3-16.1-7.9-1.6-2.4-3.4-6.1-.2-8.1 1.1-.7 2.5-.8 3.6-.4-.3.1-.5.2-.7.4-3.2 2.1-1.4 5.7.2 8.1 3 4.7 8 7.5 13.2 7.9zm9.1-7.2c-1.8.8-4.1-.2-5.8-2.2-2.3-2.8-1.9-6.8-1.6-9 .5-3.4 1.4-6.6 2.5-10l2.6.7c-1 3.1-1.8 6.2-2.3 9.3-.3 2.2-.7 6.2 1.6 9 1 1.1 2 1.8 3 2.2zm18 16.1H33.3c-.7 0-3 .1-2.3-2 .3-.9.8-1.8 1.5-2.6 1.4-1.7 3.1-2.5 5.2-2.8 1.1-.2 2.3-.2 3.5-.1-.2 0-.4 0-.6.1-2.1.3-3.8 1.1-5.2 2.8-.7.8-1.2 1.6-1.5 2.6-.7 2.1 1.6 2 2.3 2h11.2zm-10-8.6c-1 0-1.9.2-2.8.4L33 97.5l-.9-4.6c.8.1 2.2.3 3 .4l2.3 12.1z"/></svg>