<svg xmlns="http://www.w3.org/2000/svg" viewBox="0 0 71.5 113.2"><path fill-rule="evenodd" clip-rule="evenodd" fill="#010101" d="M30.8 45.8c-6.5-.6-13-2.3-18.6-5.5C6.7 37.3 1.5 32.4.3 26c-.2-1-.3-2-.3-3s.1-2 .3-2.9C1.5 13.7 6.7 8.8 12.2 5.7c7-4 15.5-5.7 23.6-5.7 8 0 16.5 1.7 23.6 5.7 5.5 3.1 10.7 8 11.9 14.4.2 1 .3 1.9.3 2.9s-.1 2-.3 2.9c-1.3 6.4-6.4 11.3-11.9 14.4-5.6 3.1-12.1 4.9-18.6 5.5l-5 6.8-5-6.8z"/><path fill-rule="evenodd" clip-rule="evenodd" fill="#9ACA3C" d="M35.8 1.2C54.9 1.2 70.4 11 70.4 23c0 10.9-12.6 19.9-29.1 21.6.5-.7 1.1-2 1.2-3.1-2.2 3.1-4.5 6.1-6.7 9.2l-4.3-5.9C14.4 43.4 1.2 34.2 1.2 23c0-12 15.5-21.8 34.6-21.8z"/><path fill-rule="evenodd" clip-rule="evenodd" fill="#010101" d="M58.1 26.8c.5.1 1 .3 1.4.7.6.5.9 1.2.9 2 0 .9-.3 1.6-1 2.2-.7.6-1.6.9-2.6.9-.5 0-.9-.1-1.3-.3-.3-.2-.6-.4-.9-.7-.5-.6-.7-1.2-.7-2 0-1.2.6-2.2 1.7-2.7h.1l.3-1c.5-1.8.9-3.6 1.4-5.5.4-1.8.9-3.7 1.4-5.5l.1-.5.5-.1c.3-.1.7-.1 1-.1.4-.1.7-.1 1.1-.2.4-.1.7-.1 1.1-.2.3 0 .6-.1.8-.1l1.4-.3-.6 1.4c-.8 1.9-1.5 3.7-2.2 5.6-.7 1.9-1.3 3.8-2 5.8l-.2.5h-.6c-.3 0-.7.1-1.1.1zm-18.6-8.7c.1-.3.2-.5.2-.8.2-.7.4-1.5.6-2.2l.2-.5h.6c2-.1 4.1-.3 6.1-.7l1-.2-.1 1.1c-.2 1.7-.2 3.4-.3 5.1-.2 3.6-.3 7.3-.5 10.9v.6l-.6.1c-.4.1-.9.1-1.3.2s-.9.1-1.3.2-.8.1-1.2.2l-1 .2.1-1c.1-1 .2-1.9.3-2.9h-.5l-.9 3.2-.5.1c-.4.1-.8.1-1.2.2-.4.1-.9.1-1.3.2-.5.1-.9.1-1.4.2l-1.2.2.3-.9-7.2 1.1.3-1.4-3.1.7-.2-.8c-.4-1.2-.7-2.3-1-3.5-.2.9-.4 1.9-.5 2.8l-.2.5-5.4 1.4.3-1.2c.1-.7.3-1.4.4-2.1-.3.4-.5.7-.8 1.1-.7.8-1.5 1.4-2.5 1.9-.8.4-1.6.6-2.5.6-.7 0-1.4-.1-2-.4-.6-.3-1.2-.8-1.6-1.3-1-1.4-1.3-3.2-1.3-4.9 0-1.8.2-3.6.9-5.3.5-1.4 1.3-2.7 2.2-3.8.8-1 1.8-1.8 3-2.3.9-.4 1.9-.8 2.9-.8.7 0 1.4.1 2.1.4.5.3 1 .6 1.4 1.1.3.4.5.7.7 1.1 0-.2.1-.5.1-.7l.1-.5.5-.2c1.9-.6 3.9-.8 5.9-.8 1.6 0 3.1.5 3.6 2.2l.3-1.6 8.9-.8-.3 1.1c-.1.3-.2.6-.2.9-.1.3-.1.6-.2.9-.1.3-.1.5-.2.8l-.5.3zm0 .1l-.6.1c-.6.1-1.3.1-1.9.1h-.9l-.5 2.4h2l1-.1-.1.6c.1-.4.2-.8.4-1.2.3-.8.4-1.4.6-1.9zm-1.9 6.5h-2.5l-.4 2.4 2.3-.4.3-.9c0-.3.1-.7.3-1.1zm-7.1-3.5c-.1.1-.1.2-.2.3-.6.9-1.4 1.7-2.3 2.3.4.9.8 1.9 1.2 2.9.1.2.1.3.2.5l1.1-6zm-10.1.7v-.2c.2-.9.3-1.7.4-2.6l-3.7.7-.2-.8c0-.2-.3-1-.5-1s-.5.4-.6.5c-.5.6-.8 1.2-1.2 1.9-.8 1.7-1.3 3.5-1.4 5.4v.7l.7-3.8.6-.1c1.8-.2 3.7-.5 5.5-.8l.4.1zm-7.1 4.8c0 .3.1.5.2.7.1.1.2.3.3.3.2 0 .5 0 .7-.2.2-.1.4-.3.6-.5.2-.2.4-.4.5-.7l-2.3.4zM50.2 19h-.1c-.4 0-.9 0-1.3-.2l-.6-.2.2-4.3.8.1c.7.1 1.5.1 2.2.1 2 0 3.9-.1 5.9-.4l1.1-.1-.5 2.3c-.1.3-.1.7-.2 1-.1.3-.1.6-.2 1l-.1.5-.5.1c-.4.1-.7.2-1.1.2-.1 0-.3 0-.4.1-.3 1.2-.5 2.4-.7 3.6-.4 2.7-.9 5.4-1.2 8l-.1.6-5.8.9.2-1.1c.5-2.5 1-4.9 1.5-7.4.4-1.7.6-3.2.9-4.8zm-23.9-.3H26l-.3 1.5c.3-.2.5-.3.7-.5.2-.1.8-.7 1-1-.1 0-.3-.1-.4-.1-.3.1-.5.1-.7.1z"/><path fill="#FFF" d="M17.7 18.9c-.2-1.1-.7-1.7-1.3-1.7-.4 0-.8.3-1.2.8-.4.5-.9 1.2-1.3 2.1-.9 1.9-1.4 3.9-1.4 5.7 0 .9.1 1.6.4 2 .3.4.6.6 1 .6s.7-.1 1-.2l.9-.6c.6-.6.9-1.3.9-2.2l-2.4.3.4-2.2c2.1-.3 3.9-.5 5.6-.8-.1 1.5-.4 2.9-.9 4s-1.1 2.1-1.8 2.8c-.7.8-1.4 1.3-2.3 1.7-.8.4-1.5.6-2.2.6s-1.2-.1-1.7-.4c-.5-.2-.9-.6-1.3-1.1-.7-1-1.1-2.5-1.1-4.4 0-1.9.3-3.6.8-5 .6-1.4 1.3-2.6 2.1-3.6s1.8-1.7 2.7-2.1c1-.5 1.8-.7 2.5-.7s1.3.1 1.7.3c.4.2.8.5 1.1.8.6.7.8 1.6.8 2.7l-3 .6zm8.4 12c-1.1-3.7-1.7-5.8-1.8-6.3l-.3.1c-.1.7-.3 1.6-.5 2.8-.2 1.2-.4 2.2-.6 2.9l-3.6.9c1.5-7.4 2.5-12.6 2.8-15.7 1.7-.5 3.6-.8 5.7-.8 1.6 0 2.5.6 2.8 1.6.1.3.1.8.1 1.3s-.1 1-.3 1.6c-.2.6-.5 1.1-.8 1.7-.7 1.1-1.6 1.9-2.7 2.5.6 1.2 1.1 2.4 1.5 3.5.4 1.1.8 2 1.1 2.8l-3.4 1.1zm.2-13h-1l-.7 3.6c.6-.1 1.3-.4 2.2-1.1.9-.7 1.4-1.3 1.4-1.7 0-.4-.4-.7-1.2-.7-.2 0-.5-.1-.7-.1zm3.1 13.4l2.9-16 7.1-.6c-.1.3-.2.7-.3 1-.1.3-.1.6-.2.9-.1.3-.1.6-.2.8-.4 0-1 .1-1.8.1h-1.5l-.8 4c.8 0 1.5-.1 2-.1h1.1c-.1.4-.1.8-.2 1.2 0 .4-.1.8-.2 1.2h-3.1l-.8 4.2 3.3-.5-.2 2.6-7.1 1.2zm11.8-3.9l-.9 3.2c-.3 0-.7.1-1.2.2-.4.1-.9.1-1.3.2s-.9.1-1.4.2c.6-2 1.1-3.7 1.5-5.1.4-1.4.8-2.5 1-3.4.3-.9.5-1.8.8-2.6.3-.9.5-1.7.7-2.5.2-.8.5-1.6.6-2.2 2.7-.2 4.8-.4 6.2-.7-.1 1.4-.2 3.2-.3 5.1-.2 3.9-.3 7.6-.5 10.9-.4.1-.9.1-1.3.2s-.9.1-1.3.2-.9.1-1.2.2c.2-1.4.3-2.7.4-3.8h-1.8v-.1zm.5-2.2l1.6-.1v-.4c0-.2 0-.5.1-.7.1-1.6.2-3 .4-4.4l.2-2h-.4l-1.9 7.6zm7.2-7.1l.1-2.9c.8.1 1.5.1 2.3.1 2.1 0 4-.1 6-.4l-.2 1.2c-.1.3-.1.7-.2 1-.1.4-.1.7-.2.9-.3.1-.7.1-1 .2-.3 0-.7.1-1 .1-.3 1.1-.5 2.5-.8 4.2-.6 3.7-1 6.4-1.2 8.1l-4 .6c1.2-5.6 2-9.9 2.4-13.1-.4 0-.7-.1-1.1 0-.4.1-.7.1-1.1 0zm14.6-3.6c-.8 1.9-1.5 3.8-2.2 5.7-.7 1.9-1.3 3.8-2 5.8H58c-.4 0-.9.1-1.3.1.5-1.8.9-3.7 1.4-5.5.4-1.8.9-3.7 1.4-5.5.3 0 .6-.1 1-.1.4-.1.7-.1 1.1-.2.4-.1.7-.1 1.1-.2.3 0 .6-.1.8-.1zm-6.7 17.3c-.4 0-.7-.1-1-.2-.2-.1-.5-.3-.6-.5-.3-.4-.5-.9-.5-1.5 0-1 .4-1.6 1.3-2 .3-.1.6-.2 1-.2.9 0 1.5.2 2 .6.4.4.6.9.6 1.4 0 .6-.2 1.2-.7 1.6-.6.6-1.3.8-2.1.8z"/><path fill-rule="evenodd" clip-rule="evenodd" fill="#010101" d="M35.8 55.9c5.6 0 10.7 1.8 14.9 4.9l4.9-.7c1.4-.2 3.1-.4 4.5-.4 1 0 2.2.3 2.7 1.2.6.9.3 2.1 0 3-.4 1.2-.9 2.4-1.3 3.5l-2 5.3c.8 2.5 1.3 5.2 1.3 8 0 2-.2 4-.8 5.8 1 0 1.9.6 2.5 1.5.4.8.6 1.8.7 2.8 1.3 0 2.5.4 3.4 1.1 1.2.9 2 2.1 2.4 3.4.6 1.6.7 3.4.1 5.2-.5 1.6-1.5 3.2-3.2 4-.5.3-1.1.4-1.7.5-.6.1-1.2.1-1.7 0-3.1.3-6.6-.3-8.4-1.5-1.2-.8-2.2-1.9-3-3.1-1.4 1.7-2.9 3.2-4.5 4.3v.1c-.3.7-.7 1.4-1.2 2-.8 3-4.9 5.4-9.8 5.4-4.8 0-8.9-2.3-9.7-5.2-.5-.7-.9-1.4-1.2-2.1v-.1c-.1 0-.1-.1-.2-.1-.6.9-.9 2-.7 3.2 0 .2.2.5.3.7.2.3.3.7.3 1 .3 1.7-.9 3.3-2.6 3.5-1.9.3-3.1-1-3.6-2.7l-.3-1.2c-.5-3.1.6-6.1 2.7-8.2-.1-.2-.3-.3-.4-.5-.8 1.2-1.8 2.3-3 3.1-1.8 1.2-5.2 1.8-8.4 1.5-.5.1-1.1.1-1.7 0-.6-.1-1.1-.3-1.7-.5-1.7-.8-2.7-2.4-3.2-4-.3-1.6-.2-3.5.4-5.1C3 94.2 3.8 93 5 92.1c.9-.7 2.1-1.1 3.3-1.1 0-1 .2-2 .7-2.8.5-1 1.5-1.6 2.6-1.5-.5-1.9-.8-3.8-.8-5.8 0-2.8.5-5.5 1.3-8l-2-5.3c-.4-1.2-.9-2.4-1.3-3.5-.3-1-.6-2.1 0-3 .6-1 1.7-1.2 2.7-1.2 1.5-.1 3.1.2 4.5.4l4.9.7c4.2-3.3 9.3-5.1 14.9-5.1zm21.4 36.7c-.3.5-.7.9-1.1 1.4-.1.1-.1.2-.2.2.6.6 1.2.4 1.8 0-.2-.6-.4-1.3-.5-1.6 0 .1 0 0 0 0zm-41.5 1.6c-.1-.1-.1-.2-.2-.2-.4-.5-.8-.9-1.1-1.4l-.1.1c-.1.2-.3.8-.4 1.5.6.4 1.2.6 1.8 0z"/><path fill-rule="evenodd" clip-rule="evenodd" fill="#FFF" d="M54.8 95.3c.9.9 1.9 1.2 2.8.7-.4 1.6-.2 3.3.3 4.7.4 1.2 1.2 2.4 2.2 3.2-3.5-.1-6.3-1.8-7.9-4.7.6-.9 1.2-1.9 1.8-2.9l.3-.6c.1-.1.3-.2.5-.4z"/><path fill-rule="evenodd" clip-rule="evenodd" fill="#0795D1" d="M54.8 95.3c.5.6 1.1.9 1.7.9-.5 1.3-1.3 5.8-.9 6.6-1.4-.8-2.5-2-3.4-3.5.6-.9 1.2-1.9 1.8-2.9l.3-.6c.1-.2.3-.3.5-.5z"/><path fill-rule="evenodd" clip-rule="evenodd" fill="#FFF" d="M16.7 95.3c-.9.9-1.9 1.2-2.8.7.4 1.6.2 3.3-.3 4.7-.4 1.2-1.2 2.4-2.2 3.2 3.5-.1 6.3-1.8 7.9-4.7-.6-.9-1.2-1.9-1.8-2.9l-.3-.6c-.1-.1-.3-.2-.5-.4z"/><path fill-rule="evenodd" clip-rule="evenodd" fill="#0795D1" d="M16.7 95.3c-.5.6-1.1.9-1.7.9.7 2.2 1.3 4.4 1 6.6 1.4-.8 2.5-2 3.4-3.5-.6-.9-1.2-1.9-1.8-2.9l-.3-.6c-.2-.2-.4-.3-.6-.5z"/><path fill-rule="evenodd" clip-rule="evenodd" fill="#FFF" d="M37.4 108.5c2 1.7 4.4 1.1 6.6-1.9-2.1 1-4.3 1.7-6.6 1.9zM34.1 108.5c-2 1.7-4.4 1.1-6.6-1.9 2.2 1 4.4 1.7 6.6 1.9z"/><path fill-rule="evenodd" clip-rule="evenodd" fill="#0795D1" d="M20.2 97.9c8 12.2 23.1 12.2 31.1 0-4.6 2.7-10.2 3.8-15.5 3.8-5.3 0-11-1.1-15.6-3.8z"/><path fill-rule="evenodd" clip-rule="evenodd" fill="#02527D" d="M20.2 97.9c3.9 5.9 9.4 9 14.9 9.2.3 0 .7 0 1-.1-4.7-.5-9.3-3-12.8-7.5-1-.5-2-1-3.1-1.6z"/><path fill-rule="evenodd" clip-rule="evenodd" fill="#FFF" d="M35.8 57.4c5.2 0 10.1 1.7 14 4.6 2-.1 4-.4 5.9-.6 8.2-1.1 6.6.4 4.7 5.8l-1.5 4c-.8-1.9-1.8-3.6-3-5.3.1-.1.2-.3.3-.4 1.5-1.7 3.3-2.9 5.1-3.5-1.6-.2-3.6.5-5.3 2.1-.7.7-1.2 1.3-1.7 2.2 3.1 4 5 9 5 14.5 0 2.3-.3 4.4-1 6.3-.2.1-.4.3-.6.4-.8.7-1.4 1.6-1.4 2.6 0 .4 0 .7.1 1-4 6-11.7 9-20.6 9-8.9 0-16.7-3-20.6-9.1.1-.3.1-.6.1-.9 0-1-.6-1.9-1.4-2.6-.2-.1-.3-.3-.5-.4-.6-1.9-1-4-1-6.4 0-5.5 1.9-10.6 5.1-14.6-.5-.8-1-1.4-1.6-2.1-1.7-1.7-3.8-2.5-5.4-2.2 1.8.6 3.6 1.8 5.1 3.5.1.1.2.3.3.4-1.2 1.6-2.2 3.4-3 5.3l-1.5-4c-1.9-5.5-3.6-7 4.7-5.8 2 .3 3.9.5 5.9.6 3.7-2.7 8.5-4.4 13.8-4.4z"/><path fill-rule="evenodd" clip-rule="evenodd" fill="#E5E5E5" d="M27.5 99.2c-5.3-1.3-9.7-4-12.4-8.2.1-.3.1-.6.1-.9 0-1-.6-1.9-1.4-2.6-.2-.1-.3-.3-.5-.4-.6-1.9-1-4-1-6.4 0-5.5 1.9-10.6 5.1-14.6-.5-.8-1-1.4-1.6-2.1-1.7-1.7-3.8-2.5-5.4-2.2 1.8.6 3.6 1.8 5.1 3.5.1.1.2.3.3.4-1.2 1.6-2.2 3.4-3 5.3l-1.5-4c-1.9-5.5-3.6-7 4.7-5.8 2 .3 3.9.5 5.9.6 2.5-1.8 5.3-3.2 8.4-3.9C21.8 61.9 16 70.7 16 81c0 9.1 4.6 15.2 11.5 18.2z"/><path fill-rule="evenodd" clip-rule="evenodd" fill="#B3B3B3" d="M10.5 61.9c.1 0 .1 0 .2.1 0-.1-.1-.1-.2-.1zm3.4 6.9c-.6-2.4-1.3-4.7-3.2-6.7 1.6.6 3.3 1.8 4.7 3.4.1.1.2.3.3.4-.6.9-1.2 1.9-1.8 2.9z"/><path fill-rule="evenodd" clip-rule="evenodd" fill="#010101" d="M36.7 88.9c1.2-.9 2.4-.7 2.8-1.4.3-.4.1-.9-.2-1.3-1-1.3-6-1.3-7 0-.3.4-.4.8-.2 1.3.4.7 1.7.4 2.9 1.5.8.7.5 1.3-.4 1.8-2 1.1-3.9.3-5.6-.7-1-.5-1.1-.3-.3.4 2 1.9 3.7 4.3 7.1 4.3 3.4 0 5.1-2.4 7.1-4.3.6-.6.8-1-.3-.4-1.6.9-3.6 1.8-5.5.7-1.1-.6-1.4-1.1-.4-1.9zM25.7 77.8c1.8 0 3.3 1.7 3.3 3.9 0 2.1-1.5 3.9-3.3 3.9-1.8 0-3.3-1.7-3.3-3.9s1.5-3.9 3.3-3.9zm20.1 0c1.8 0 3.3 1.7 3.3 3.9 0 2.1-1.5 3.9-3.3 3.9-1.8 0-3.3-1.7-3.3-3.9s1.5-3.9 3.3-3.9zm1.8 1.4c.6 0 1.1.5 1.1 1.1 0 .6-.5 1.1-1.1 1.1-.6 0-1.1-.5-1.1-1.1 0-.6.5-1.1 1.1-1.1zm-20.1 0c.6 0 1.1.5 1.1 1.1 0 .6-.5 1.1-1.1 1.1-.6 0-1.1-.5-1.1-1.1 0-.6.5-1.1 1.1-1.1z"/><path fill-rule="evenodd" clip-rule="evenodd" fill="#F58220" d="M32.5 93.1c.9.7 2.1 1 3.3 1 1.1 0 2.4-.3 3.3-1-.9-.7-2.1-1-3.3-1-1.2-.1-2.4.3-3.3 1z"/><path fill-rule="evenodd" clip-rule="evenodd" fill="#FFF" d="M58.6 91.8c.1.2.3.8.4 1.4.5-.6 1.2-1.2 1.9-1.6.2-.1.4-.2.7-.3 0-.8-.2-1.6-.5-2.2-.4-.8-1.4-1.5-2.6-.4-1.6 1.3-.3 2.3.1 3.1zM67.5 96.1c1 2.9.1 6.2-2.2 7.3-2.2 1.1-4.9-.4-5.9-3.3 1.3-.4 2.7-.5 3.8-.2-.2-.1-.3-.2-.5-.3-1-.4-2.2-.5-3.5-.2-.2-1-.3-2.1-.1-3.1 1.5-.4 2.9-.6 4.2-.3l-.6-.3c-.9-.3-2.1-.4-3.4-.2.4-1.2 1.2-2.2 2.2-2.8 2.3-1 4.9.5 6 3.4z"/><path fill-rule="evenodd" clip-rule="evenodd" fill="#CDCCCC" d="M62.4 103.6c-1.3-.5-2.4-1.7-3-3.4.3-.1.5-.2.8-.2 0 .2.1.3.2.5.4 1.3 1.2 2.3 2 3.1zm-3.2-4.1c-.2-1-.3-2.1-.1-3.1.3-.1.6-.2.9-.2-.2 1-.1 2.1.1 3.2-.3-.1-.6 0-.9.1zm.1-3.9c.4-1.1 1-2 1.9-2.6-.5.7-.9 1.6-1.2 2.5-.1 0-.4.1-.7.1z"/><path fill-rule="evenodd" clip-rule="evenodd" fill="#FFF" d="M12.9 91.8c-.1.2-.3.7-.4 1.3-.5-.6-1.1-1.1-1.9-1.5-.2-.1-.5-.2-.8-.3 0-.8.2-1.6.5-2.1.4-.8 1.4-1.5 2.6-.4 1.6 1.2.4 2.2 0 3zM4.1 96.1c-1 2.9-.1 6.2 2.2 7.3 2.2 1.1 4.9-.4 5.9-3.3-1.3-.4-2.7-.5-3.8-.2.2-.1.3-.2.5-.3 1-.4 2.2-.5 3.5-.2.2-1 .3-2.1.1-3.1-1.5-.4-2.9-.6-4.2-.3l.6-.3c.9-.3 2.1-.4 3.4-.2-.4-1.2-1.2-2.2-2.2-2.8-2.3-1-5 .5-6 3.4z"/><path fill-rule="evenodd" clip-rule="evenodd" fill="#CDCCCC" d="M9.1 103.6c1.3-.5 2.4-1.7 3-3.4-.3-.1-.5-.2-.8-.2 0 .2-.1.3-.2.5-.4 1.3-1.1 2.3-2 3.1zm3.3-4.1c.2-1 .3-2.1.1-3.1-.3-.1-.6-.2-.9-.2.2 1 .1 2.1-.1 3.2.3-.1.6 0 .9.1zm-.2-3.9c-.4-1.1-1-2-1.9-2.6.5.7.9 1.6 1.2 2.5.2 0 .4.1.7.1z"/><path fill-rule="evenodd" clip-rule="evenodd" fill="#FFF" d="M22.7 108.1c-.2-1.5.2-2.9 1-4.1-.7-.6-1.4-1.3-2.1-2-1.8 1.8-2.7 4.4-2.3 7.1.2 1.3.7 3.2 2.5 2.9 1-.2 1.7-1.1 1.6-2.2-.2-.6-.6-1-.7-1.7z"/></svg>