<svg xmlns="http://www.w3.org/2000/svg" viewBox="0 0 548.9 381.2"><g fill-rule="evenodd" clip-rule="evenodd"><path fill="#CBCBCB" d="M445.6 179.5l15.9-42.5-7.1-4.1-13.4 45.2c2.4.5 2.3.5 4.6 1.4z"/><path d="M432.9 13.5l113.3 50.8c2.2 1 3.2 3.6 2.2 5.9l-35.7 79.5c-1 2.2-3.6 3.2-5.9 2.2l-113.3-50.8c-2.2-1-3.2-3.6-2.2-5.9L427 15.7c1-2.2 3.7-3.2 5.9-2.2z"/><path fill="#FCFA00" d="M458 96.2l23.2-3.4 12.8 19.5 22.8-7-1.3 3.1-22.5 6.9-13-19.8-23.4 3.4-14.4-27.2-25.2 7.6 1.4-3 25.1-7.6L458 96.2"/><path fill="#FF3800" d="M444.9 89.6l38.5-7.7 12.9 18.7 29.3-14.8-1.7 3.7-28.4 14.3-13.2-19.1-38.8 7.7-5.2-10.1-22.8.3 1.2-2.5 23.1-.4 5.1 9.9"/><path fill="#008ED4" d="M470.4 68.5l23.7-4.6 13.4 18.4 23.3-8-1.4 3-23 8-13.5-18.7-23.9 4.6-15-25.8-25.7 8.7 1.4-3 25.6-8.7 15.1 26.1"/><path fill="#FFF" d="M410.1 94.8l92.7 41.5-.9 2.2L407 95.9l31-69 2.1 1-30 66.9"/><path fill="#CBCBCB" d="M187.1 342.9c65.4 0 118.5 8.6 118.5 19.1 0 10.6-53.1 19.1-118.5 19.1S68.6 372.5 68.6 362c0-10.5 53.1-19.1 118.5-19.1z"/><path d="M188.8 33.6c24.7 0 47.6 7.7 66.1 20.7l21.6-2.8c6.4-.8 13.7-1.8 20.2-1.5 4.6.2 9.6 1.2 12.2 5.2 2.5 3.9 1.4 8.7 0 12.8-1.7 5-3.9 10-5.8 15v.1l-9 22.3c3.7 10.6 5.8 21.9 5.8 33.7 0 19.7-5.8 38.3-19 53.5l10.3-3.7.2.4 7.1-2.9c17.8-7.4 29.2 5.9 24.8 23.1-1.7 6.4-6.4 12.1-11.8 16.6l.3.5-9.8 6.4.9 2.1c-17.8 6.5-34.4 12.1-52.3 14.9l2 19.7c1.1 5.8 2.3 10.7 3.7 15.3 11 5.3 24.7 2.7 32.8-7.1 1-1.2 1.6-3.1 2.1-4.5.8-1.9 1.7-3.7 3.1-5.3 6.2-7.5 17.4-8.6 24.9-2.4 8.7 7.2 7.5 17 2.1 25.7-1.3 2.1-2.8 4.1-4.4 6-9.5 11.4-23 18.6-37.7 20-4.4.4-8.7.3-13-.3 1.1 4.4 2.3 9.4 3.4 15.1-5.6-3.4-9.5-9.6-14.5-13.5l1.6 16.1c5.6 3.4 10.6 8.1 14.1 13.8 4.1 6.6 2.6 12.3-3.7 13.8-1.6.4-3.1.4-4.8.4l-39.2.1c-8.3 0-15.6-6-15.1-14.6.1-2.4.7-4.7 1.5-6.7l-5.9-20.4c-2.9.4-5.9.6-8.9.6h-11.2c-2.8 0-5.5-.2-8.1-.5l-5.9 20.3c.8 2 1.3 4.3 1.5 6.7.5 8.6-6.8 14.6-15.1 14.6l-39.2-.1c-1.7 0-3.3 0-4.8-.4-6.3-1.5-7.8-7.2-3.7-13.8 3.6-5.7 8.5-10.4 14.1-13.8l1.4-14.4c-.7-.1-1.4-.3-2-.5-4.3 3.9-7.9 9.3-13 12.3 1.4-6.7 2.8-12.5 4.2-17.8-.9-.8-1.7-1.7-2.5-2.7-1.1-1.4-2.1-2.9-2.9-4.5L7 330.3c-2.1.5-3.1 1.2-4.8-.4-2-1.9-2.7-4.5-1.8-7.4.7-2.2 1.3-2.1 3.4-2.6l100.1-23.3c-.2-1.5-.4-3-.5-4.5l-.5-.1.6-11.7-2.3-.5c5.7-19.5 12.4-49.6 28.3-64-11.7-5.1-22.4-12.1-31-21.5-14.4-15.6-20.7-34.9-20.7-55.4 0-11.8 2-23.1 5.8-33.7l-9-22.3v-.1c-1.9-5-4.1-9.9-5.8-15-1.4-4.1-2.5-8.8 0-12.8 2.6-4 7.6-5 12.2-5.2 6.5-.3 13.8.6 20.2 1.5l21.6 2.8c18.4-12.7 41.3-20.5 66-20.5z"/><path fill="#E4E4E4" d="M114.2 307.8l-1.5-2.1.8-.2c.8-.2 1.2-.3 1.5-.5-.3 1-.5 1.9-.8 2.8zm-4.8-12.3c-.1-.8-.2-1.7-.2-2.5l9.1 1.2c-.9 3.1-1.9 6.3-2.9 9.6v-.7c.1-2.3-.4-4.7-1.6-6.8-1.1-1.9-1.3-1.5-3.3-1.1l-1.1.3zM119.5 290.1l-11.5-1.5.3-7 13 2.5-1.8 6z"/><path fill="#FFF" d="M294.1 194.3l6.5-2.7c14.6-6.1 20 5.2 17.1 16.4-1.4 5.5-5.1 9.8-9.1 13l-14.5-26.7zM284.2 195.4l4.9-1.1 16.7 30.2-5.8 4-15.8-33.1M293.9 281.8c-8.8 10.7-22.8 14.5-35.3 10.8 1.7 5.3 3.6 10.8 5.5 17.7 17.2 3.4 35.7-2.6 47.7-17.1 5.2-6.3 11.6-15.9 3.2-22.8-4.8-4-12-3.3-15.9 1.5-2.5 3.1-2.6 6.7-5.2 9.9z"/><path fill="#E4E4E4" d="M293.9 281.8c-8.8 10.7-22.8 14.5-35.3 10.8.6 1.9 1.3 3.9 1.9 5.9 12 2.7 25-1.2 33.3-11.3 2.6-3.2 2.7-6.8 5.2-9.8 4-4.8 11.1-5.5 15.9-1.5 2 1.7 3.2 3.5 3.7 5.4.9-3.8.2-7.6-3.7-10.8-4.8-4-12-3.3-15.9 1.5-2.4 3-2.5 6.6-5.1 9.8z"/><path fill="#FFF" d="M130.4 315.1l-1.8 17.5c8.8-2.1 19.2-.6 24.4 5.2-17.3-9.4-32.4.9-39.8 12.8-3.7 6 2.9 5.7 4.9 5.7l39.2.1c2.3 0 6.9-.6 6.5-6.1-.1-2.4-.8-4.6-1.9-6.6l7-24c-7.9-2.2-13.9-5.7-16.8-10 10.2 3.3 22.4 5.2 35.5 5.2 13.2 0 25.4-1.9 35.5-5.1-2.5 3.7-7.6 6.9-14.2 9.1l7.2 24.8c-1.1 2-1.7 4.2-1.9 6.6-.3 5.4 4.2 6.1 6.5 6.1l39.2-.1c2 0 8.6.2 4.9-5.7-7.3-11.6-22.9-22.2-39.8-12.8 5.2-5.8 15.6-7.4 24.4-5.2l-1.7-17.4c-7.4-4.6-16.3-8.4-25.1-9.9-.5-2.5-1-5.3-1.5-8.3-10.8 1.1-21.6 1.8-32.4 1.8-10.9 0-21.8-.7-32.6-1.8-.6 3.2-1.1 6.1-1.6 8.7-8.3 1.4-16.8 5-24.1 9.4z"/><path fill="#E4E4E4" d="M130.4 315.1l-1.8 17.5c3.4-.8 7-1.1 10.4-.8l1.7-16.7c7.2-4.3 15.8-7.9 24.3-9.4.4-2.4.9-5 1.4-7.8l-10.2-.9c-.6 3.2-1.1 6.1-1.6 8.7-8.4 1.4-16.9 5-24.2 9.4zm14.3 19.6c-13.7-2.8-25.2 6-31.4 15.9-3.7 6 2.9 5.7 4.9 5.7l39.2.1h.7l-29.5-.1c-2 0-8.6.2-4.9-5.7 4.5-7.3 12-14 21-15.9z"/><path fill="#FFF" d="M212.8 246.4c2.7 15.9 5.6 33.3 8 47.1-10.6 1.1-20.4 1.7-30.2 1.7v-51.7c3.1-.4 5.9-1.8 7.9-3.9 4.2 3.6 9 6.8 14.3 6.8zm-25.7-3v51.8c-9.8-.1-19.6-.6-30.1-1.7 2.4-13.8 5.3-31.2 7.9-47.1h.5c5.2 0 10-3.2 14.2-6.8 2 2 4.6 3.4 7.5 3.8zm7.3 43.8c1.2 0 2.2 1 2.2 2.2 0 1.2-1 2.2-2.2 2.2-1.2 0-2.2-1-2.2-2.2 0-1.2 1-2.2 2.2-2.2zm0-38.6c1.2 0 2.2 1 2.2 2.2s-1 2.2-2.2 2.2c-1.2 0-2.2-1-2.2-2.2s1-2.2 2.2-2.2zm0 19.6c1.2 0 2.2 1 2.2 2.2s-1 2.2-2.2 2.2c-1.2 0-2.2-1-2.2-2.2s1-2.2 2.2-2.2z"/><path fill="#E4E4E4" d="M169.4 294.5c-4-.3-8.2-.6-12.4-1.1 2.4-13.8 5.3-31.2 7.9-47.1h.5c3.7 0 7.1-1.6 10.4-3.8-2.2 17.5-4.4 36-6.4 52z"/><path fill="#7E7E7E" d="M223.2 281.8c-2-12.2-3.8-24.4-5.8-36.6 3.2-1.7 5.4-5.1 5.4-8.9 0-2.4-.7-4.3-1.8-5.9 1.1-1.5 1.8-3.4 1.8-5.7l9.1 9.3-6.6 9.7 8.5 17.9-10.6 20.2zm-68.5 0c2-12.2 3.8-24.5 5.8-36.7-3.1-1.7-5.2-5-5.2-8.8 0-2.4.7-4.3 1.8-5.9-1.2-1.6-1.8-3.5-1.8-5.9v-.1l-9.3 9.5 6.6 9.7-8.5 17.9 10.6 20.3z"/><path fill="#FFF" d="M188.8 39.9c23.2 0 44.7 7.2 62 19.4l10.9-.7 15.4-2c36.6-4.8 29.3 1.6 20.7 24.7L291 98.2c-3.5-7.9-8-15.4-13.4-22.2.5-.6 1-1.1 1.5-1.7 6.8-7.4 14.8-12.5 22.6-14.9-7.1-1-16 2.1-23.4 8.8-3.4 3-5.1 5.4-7.6 9.6 14 16.9 22.3 38.1 22.3 61.3 0 44.3-30.6 70.4-72.8 78.8-1.9-2.2-4.6-3.5-7.7-3.5-4.9 0-9.4 2.8-13.5 6.2-.4 0-.9 0-1.3.1-2.3-2.1-5.4-3.4-8.9-3.4-3.4 0-6.5 1.3-8.9 3.4-.4 0-.9 0-1.3-.1-4-3.4-8.6-6.2-13.5-6.2-3.1 0-5.9 1.4-7.7 3.6-42.4-8.3-73.2-34.4-73.2-78.9 0-23.3 8.5-44.7 22.6-61.6-7.1-9.8-17.6-20.1-31.3-18.1 7.8 2.5 15.8 7.6 22.6 14.9.5.6 1 1.1 1.5 1.7-5.4 6.8-9.9 14.3-13.4 22.2l-6.8-16.9c-8.6-23.1-15.9-29.4 20.7-24.7l14.8 1.9 11.6.7c17.7-12 39.1-19.3 62.3-19.3z"/><path fill="#E4E4E4" d="M152.1 216.8c-39.5-9.4-67.6-35.2-67.6-77.7 0-23.3 8.5-44.7 22.6-61.6-7.1-9.8-17.6-20.1-31.3-18.1 7.8 2.5 15.8 7.6 22.6 14.9.5.6 1 1.1 1.5 1.7-5.4 6.8-9.9 14.3-13.4 22.2l-6.8-16.9c-8.6-23.1-15.9-29.4 20.7-24.7l14.8 1.9 11.6.8c11-7.7 23.6-13.4 37.2-16.6-37.2 16.1-63.2 53.4-63.2 96.9.1 38.6 20.7 64.3 51.3 77.2z"/><path fill="#B1B1B1" d="M76.1 59.3zm.1.2c7.7 2.5 15.6 7.6 22.2 14.8.5.6 1 1.1 1.5 1.7-3.2 4-6.1 8.3-8.6 12.8-2.9-10.5-6.2-20.5-15.1-29.3z"/><path d="M231.8 116.4c-4.2 1-7.8 2.8-10.6 5.2 3.4-3.6 7.6-6.4 12-7.7-10.6-2.3-20.7 9.8-18.4 18.5v.1-.1c4.3-5.3 10.7-9.3 18.6-11.1 7.9-1.8 15.9-1 22.8 1.8-5.7-6-15.1-8.8-24.4-6.7zM146.1 107.4c8.2 0 14.9 6.7 14.9 14.9s-6.7 14.9-14.9 14.9-14.9-6.7-14.9-14.9c.1-8.3 6.7-14.9 14.9-14.9z"/><path fill="#FFF" d="M154.5 111.4c2.6 0 4.8 2.1 4.8 4.8 0 2.6-2.1 4.8-4.8 4.8-2.6 0-4.8-2.1-4.8-4.8.1-2.7 2.2-4.8 4.8-4.8z"/><path d="M191.4 154.3c3.4-2.6 6.8-1.9 8-3.9.8-1.3.4-2.5-.5-3.6-3-3.7-17.3-3.7-20.3 0-.9 1.1-1.2 2.4-.5 3.6 1.3 2.1 4.9 1.3 8.4 4.2 1 .8.9 1.1.9 2.3v2.6c0 1 0 1.7-.6 2.6-.7.9-1.8 1.8-3.4 2.7-8.8 4.7-17.3 1.2-24.9-3-4.3-2.4-4.7-1.3-1.4 1.8 8.7 8.3 16.3 19.2 31.5 19.2 15.3 0 22.8-10.9 31.5-19.2 2.9-2.7 3.5-4.6-1.4-1.8-7.3 4.1-16 7.8-24.5 3.1-1.5-.9-2.7-1.7-3.4-2.6-.7-.8-.8-1.6-.8-2.7v-2.7c.2-1.5.3-1.7 1.4-2.6z"/><path fill="#F48000" d="M174.2 174.8c3.9 3 9.5 4.5 14.6 4.5s10.8-1.5 14.6-4.5c-3.9-3-9.5-4.5-14.6-4.5s-10.7 1.5-14.6 4.5z"/><path fill="#FFF" d="M23.4 318.5l-18.9 4.4c-1.2.3-1.3.2-1.5 1.3-.2 1.1.1 2.2.7 3.1.6.8 1.2.4 2.5.1l18.4-4.3c.4-.1.8-.1.5-.9-.4-.9-.5-1.9-.6-3 0-1.1-.5-.9-1.1-.7z"/><path fill="#FF3800" d="M189.1 221.4c4.9 0 8.9 4 8.9 8.9s-4 8.9-8.9 8.9-8.9-4-8.9-8.9c-.1-4.9 3.9-8.9 8.9-8.9zm25.1 9c2.9 1.5 4.4 2.9 4.4 5.9 0 3.3-2.6 5.9-5.9 5.9-3.9 0-7.8-2.6-11.8-6.1.7-1.4 1.1-2.9 1.2-4.6 2.3.9 3.9 2.2 4.6 3.6.2-.4.2-.9.2-1.3-.1-1.8-1.6-3.4-4.1-4.5 2.6-.5 5.1-.4 7 .3-.3-.4-.7-.7-1.2-1-1.7-1.1-4.2-1.5-6.9-1.3-.2-.9-.5-1.7-.9-2.5 3.9-3.5 7.8-6.1 11.8-6.1 3.3 0 5.9 2.6 5.9 5.9.1 2.8-1.4 4.3-4.3 5.8zm-50.3 0c-2.9 1.5-4.4 2.9-4.4 5.9 0 3.3 2.6 5.9 5.9 5.9 3.9 0 7.8-2.6 11.8-6.1-.7-1.4-1.1-2.9-1.2-4.6-2.3.9-3.9 2.2-4.6 3.6-.2-.4-.2-.9-.2-1.3.1-1.8 1.6-3.4 4.1-4.5-2.6-.5-5.1-.4-7 .3.3-.4.7-.7 1.2-1 1.7-1.1 4.2-1.5 6.9-1.3.2-.9.5-1.7.9-2.5-3.9-3.5-7.8-6.1-11.8-6.1-3.3 0-5.9 2.6-5.9 5.9-.1 2.8 1.4 4.3 4.3 5.8z"/><path fill="#A62200" d="M189.1 221.4c.4 0 .9 0 1.3.1-4.3.6-7.7 4.4-7.7 8.9s3.3 8.2 7.7 8.9c-.4.1-.8.1-1.3.1-4.9 0-8.9-4-8.9-8.9-.1-5.1 3.9-9.1 8.9-9.1zm-25.2 9c-2.9 1.5-4.4 2.9-4.4 5.9 0 3.3 2.6 5.9 5.9 5.9.8 0 1.5-.1 2.3-.3-2.4-.8-4.1-3-4.1-5.6 0-2.9 1.5-4.4 4.4-5.9-2.9-1.5-4.4-2.9-4.4-5.9 0-2.6 1.7-4.9 4.1-5.6-.8-.2-1.5-.3-2.3-.3-3.3 0-5.9 2.6-5.9 5.9 0 2.9 1.5 4.4 4.4 5.9z"/><path fill="#CBCBCB" d="M411.6 342.2c38.3 0 69.3 8.6 69.3 19.1 0 10.6-31 19.1-69.3 19.1s-69.3-8.6-69.3-19.1c0-10.5 31-19.1 69.3-19.1z"/><path d="M411.6 243.9h5.1l3.1-5c-6.7-7.5-10.2-17.5-9.4-27.7 1.6-20.4 19.5-35.7 39.9-34.1 20.4 1.6 35.7 19.5 34.1 39.9-1.1 14-9.9 25.6-21.8 31 21.6 3.9 35.7 10.3 35.7 17.4 0 8-17.6 15-43.7 18.7l7 65.1c.9 6.2 3 9.3-6.3 11.9-30.3 8.7-58.6 8.5-88.8-.4-5.7-1.7-6.1-4-5.5-6.4l7.6-70.3c-26.1-3.7-43.6-10.7-43.6-18.7-.1-11.7 38.8-21.4 86.6-21.4zm37.6-51.3c-11.9-.9-22.3 8-23.3 19.9-.9 11.9 8 22.3 19.9 23.3 11.9.9 22.3-8 23.3-19.9.9-12-8-22.4-19.9-23.3z"/><path fill="#363636" d="M411.6 248.1h2.6l-3.7 6.1c-53.9.3-53.5 20.1 1.2 20.1 49 0 54.4-15.9 16.2-19.5l3.8-6.2c.8 0 1.6.1 2.5.1 3.3 1.3 6.9 2.1 10.4 2.4 3.3.3 6.6.1 9.7-.5 23.8 3 39.8 8.6 39.8 14.8 0 9.6-36.9 17.3-82.5 17.3-45.5 0-82.5-7.8-82.5-17.3.1-9.5 37-17.3 82.5-17.3z"/><path fill="#FF3800" d="M425 238.3l-15.6 25.3c1.6 2.6 3.7 3.6 6 3.7l15.2-24.8c4.2 2.5 9 4.1 14.3 4.5 18.2 1.4 34.1-12.2 35.5-30.4 1.4-18.2-12.2-34.1-30.4-35.5-18.2-1.4-34.1 12.2-35.5 30.4-.8 10.5 3.3 20.2 10.5 26.8zm24.5-49.8c-14.2-1.1-26.5 9.5-27.6 23.6-1.1 14.2 9.5 26.5 23.6 27.6 14.2 1.1 26.5-9.5 27.6-23.6 1.1-14.1-9.5-26.5-23.6-27.6z"/><path fill="#A62200" d="M413.8 267.1c.5.1 1 .2 1.6.2l15.2-24.8c-.9-.4-.1 0-.9-.5l-15.9 25.1zm29.4-20.2c.5.1 1.1.1 1.7.2 18.2 1.4 34.1-12.2 35.5-30.4 1.4-18.2-12.2-34.1-30.4-35.5-.6 0-1.1-.1-1.7-.1 43.4 6 40.3 66.5-5.1 65.8zm4.6-58.5c-13.4-.2-24.9 10.1-26 23.7-1.1 13.6 8.7 25.5 22 27.4-.6 0-1.1 0-1.7-.1-32.6-6.9-26.9-51 4-51.3.6.2 1.2.3 1.7.3z"/><path fill="#1F1F1F" d="M442 360.2c4-.8 8.1-1.8 12.2-3 .7-.2 3.5-1.1 4-1.7.1-.8-.7-4.7-.8-5.5v-.1l-7-65.1c-5 .6-10.3 1.1-15.9 1.5l7.1 71.6v.1c0 .3.2 1.2.4 2.2z"/><path fill="#FF3800" d="M372.7 284.7l-1.5 13.8c30.8 8.4 48.9 8.2 80.6 0l-1.5-13.8c-11.7 1.5-24.8 2.3-38.8 2.3-13.9 0-27.1-.8-38.8-2.3z"/><path fill="#EF7157" d="M436.1 302.2c4.9-.9 10.1-2.2 15.8-3.6l-1.5-13.8c-5 .6-10.3 1.1-15.9 1.5l1.6 15.9z"/><path fill="#FF3800" d="M527.9 164.4l-3.7 12.2 9.3 8.8-12.8.2-5.5 11.5L511 185l-12.7-1.6 10.3-7.7-2.4-12.6 10.5 7.4 11.2-6.1"/><path fill="#009147" d="M365.2 13.7l11 10.9-4.9 14.8 13.8-7.1 12.5 9.2-2.5-15.3 12.7-9-15.4-2.4L387.8 0l-7.1 13.8-15.5-.1"/><path fill="#CBCBCB" d="M404.3 269l1.6-41 1.6-45-6.5 4 1.6 41 1.7 41M391.3 263.1l-18-34.4-4.7-8.9h-2.2l-1.1 2.3 5.2 8.2 20.8 32.8"/><path fill="#FEC800" d="M341.4 213.5l12.6 1.6 4.2 12.1 5.5-11.5 12.8-.3-9.3-8.8 3.7-12.2-11.2 6.1-10.5-7.3 2.4 12.6-10.2 7.7"/><path d="M362.4 74.1c26.7-6.9 55.3 6.2 67 32.2 13 29 .1 63.1-29 76.1-29 13-63.1.1-76.1-29-7.7-17.1-6.3-35.9 2-51.1l-2.5-1.8c-2-1.4-2.4-4.2-1-6.2l2.3-3.2c1.4-2 4.2-2.4 6.2-1l2.3 1.7c3.2-3.7 7-7 11.2-9.8l-2-4.4c-2.3.3-4.6-.8-5.5-3l-3.1-7c-1.2-2.6 0-5.7 2.6-6.9l15.1-6.8c2.6-1.2 5.7 0 6.9 2.6l3.1 7c1 2.2.3 4.7-1.4 6.2l1.9 4.4z"/><path fill="#FFF" d="M360 92.2c20.8-9.3 45.1 0 54.5 20.7 9.3 20.8 0 45.1-20.7 54.5-20.8 9.3-45.1 0-54.5-20.7-9.3-20.7-.1-45.1 20.7-54.5z"/><path fill="#ED1C24" d="M362.3 97.3l1.5-.6 3.6 7.9-1.5.6c-.5.2-1 .5-1.5.7l-3.6-7.9c.5-.3 1-.5 1.5-.7zm16.6-3.1c1.1.1 2.2.2 3.2.3l-.4 3.7c-1.1-.2-2.1-.3-3.2-.3l.4-3.7zm17.6 5.8c.9.6 1.8 1.2 2.6 1.9l-2.2 3c-.8-.7-1.7-1.3-2.6-1.9l2.2-3zm12.3 13.7c.2.5.5 1 .7 1.5l.6 1.5-7.9 3.6-.6-1.5c-.2-.5-.5-1-.7-1.5l7.9-3.6zm3.7 18.1c-.1 1.1-.2 2.2-.3 3.2l-3.7-.4c.2-1.1.3-2.1.3-3.2l3.7.4zm-5.7 17.6c-.6.9-1.2 1.8-1.9 2.6l-3-2.2c.7-.8 1.3-1.7 1.9-2.6l3 2.2zM393 161.7c-.5.2-1 .5-1.5.7l-1.5.6-3.6-7.9 1.5-.6c.5-.2 1-.5 1.5-.7l3.6 7.9zm-18.1 3.8c-1.1-.1-2.2-.2-3.2-.3l.4-3.7c1.1.2 2.1.3 3.2.3l-.4 3.7zm-17.6-5.8c-.9-.6-1.8-1.2-2.6-1.9l2.2-3c.8.7 1.7 1.3 2.6 1.9l-2.2 3zM345 145.9c-.2-.5-.5-1-.7-1.5l-.6-1.5 8-3.6.6 1.5c.2.5.5 1 .7 1.5l-8 3.6zm-3.8-18.1c.1-1.1.2-2.2.3-3.2l3.7.4c-.2 1.1-.3 2.1-.3 3.2l-3.7-.4zm5.8-17.5c.6-.9 1.2-1.8 1.9-2.6l3 2.2c-.7.8-1.3 1.7-1.9 2.6l-3-2.2z"/><path d="M370.6 95.6l.3 1.9c.2 0 .5-.1.7-.1.2 0 .5-.1.7-.1l-.3-1.9c-.2 0-.5.1-.7.1-.2 0-.5 0-.7.1zm18 1.4l-.7 1.8c.5.2.9.3 1.4.5l.7-1.8c-.5-.1-1-.3-1.4-.5zm14.8 10.3l-1.5 1.2c.3.4.6.7.9 1.1l1.5-1.2c-.3-.4-.6-.7-.9-1.1zm7.7 16.3l-1.9.3c0 .2.1.5.1.7 0 .2.1.5.1.7l1.9-.3c0-.2-.1-.5-.1-.7 0-.3 0-.5-.1-.7zm-1.4 17.9l-1.8-.7c-.2.5-.3.9-.5 1.4l1.8.7c.1-.4.3-.9.5-1.4zm-10.3 14.9l-1.2-1.5c-.4.3-.7.6-1.1.9l1.2 1.5c.4-.3.8-.6 1.1-.9zm-16.3 7.7l-.3-1.9c-.2 0-.5.1-.7.1-.2 0-.5.1-.7.1l.3 1.9c.2 0 .5-.1.7-.1.3 0 .5-.1.7-.1zm-17.9-1.5l.7-1.8c-.5-.2-.9-.3-1.4-.5l-.7 1.8c.5.2.9.4 1.4.5zm-14.9-10.2l1.5-1.2c-.3-.4-.6-.7-.9-1.1l-1.5 1.2c.3.4.6.7.9 1.1zm-7.7-16.3l1.9-.3c0-.2-.1-.5-.1-.7 0-.2-.1-.5-.1-.7l-1.9.3c0 .2.1.5.1.7 0 .2.1.5.1.7zm1.5-18l1.8.7c.2-.5.3-.9.5-1.4l-1.8-.7c-.2.5-.4 1-.5 1.4zm10.2-14.8l1.2 1.5c.4-.3.7-.6 1.1-.9l-1.2-1.5c-.3.3-.7.6-1.1.9z"/><path fill="#AB2930" d="M374.3 124.1c.5-.2 1.1-.4 1.6-.5l6.5-6.2 9.8-9.2-5.7 12.2-3.6 7.7c.9 3-.6 6.2-3.5 7.5-3.2 1.4-6.9 0-8.4-3.2-1.3-3.2.1-6.9 3.3-8.3z"/><path fill="#CBCBCB" d="M325.7 96.4l2.3-3.2c.3-.4.8-.5 1.2-.2l2.1 1.5c-1.1 1.5-2.2 3-3.2 4.6l-2.2-1.6c-.3-.2-.4-.7-.2-1.1zm12.7-32.5l3-1.3 4.5 10-3 1.3-4.5-10zm3.9-1.8l3-1.3 4.5 10-3 1.3-4.5-10zm4-1.7l3-1.3 4.5 10-3 1.3-4.5-10zm3.9-1.8l3-1.3 4.5 10-3 1.3-4.5-10zm4-1.5c.5.1 1 .4 1.3 1l3.1 7c.2.5.2 1.1-.1 1.6l-4.3-9.6zM341.8 74c-.5-.1-1-.4-1.3-.9l-3.1-7c-.2-.5-.2-1.1.1-1.6l4.3 9.5zm15.5-2.7l1.7 3.8c-1.9.6-3.8 1.4-5.7 2.2-1.9.8-3.7 1.8-5.4 2.8l-1.7-3.8 11.1-5zm-2.7 8.9c27.4-12.3 59.6-.1 71.9 27.3 12.3 27.4.1 59.6-27.3 71.9-27.4 12.3-59.6.1-71.9-27.3-12.3-27.4-.1-59.6 27.3-71.9zm4.3 9.6c22.1-9.9 48.1 0 58 22.1 9.9 22.1 0 48.1-22.1 58-22.1 9.9-48.1 0-58-22.1-9.9-22.1 0-48.1 22.1-58z"/><path fill="#FFF" d="M355.4 81.9c.4-.2.7-.3 1.1-.5-25.7 12.2-37.1 42.9-25.4 69 11.7 26.1 42.2 38 68.4 26.9-.4.2-.7.3-1.1.5-26.5 11.9-57.6 0-69.5-26.4-11.9-26.5 0-57.6 26.5-69.5zm-4.3-7.8l1.6 3.5-3.6 1.8-1.6-3.7 3.6-1.6z"/></g></svg>