<svg xmlns="http://www.w3.org/2000/svg" viewBox="0 0 57.2 56.5"><path fill-rule="evenodd" clip-rule="evenodd" fill="#010101" d="M39.6 51.1c-.8 3-4.9 5.4-9.8 5.4-4.8 0-8.9-2.3-9.7-5.2-.1-.2-.3-.4-.4-.6-.7.7-1.6.8-2.6.7-2.8-.3-4.1-2.2-5.2-4.5-.3-.6-.8-1.7-1.2-2.8-3.7.7-7.6-.8-9.7-4.2-.2-.4-.4-.7-.6-1.1-.8-1.6-.8-3.4.9-4.4 1.4-.9 3.4-.5 4.3.9.2.3.3.6.4 1 .1.2.1.6.2.7.9 1.4 2.4 2.1 3.9 2-.3-.3-.5-.5-.7-.8-3.1-3.8-4.5-8.4-4.5-13.2 0-2.8.5-5.5 1.3-8l-2-5.3c-.4-1.2-.9-2.4-1.3-3.5-.3-1-.6-2.1 0-3C3.5 4.2 4.6 4 5.6 4c1.4-.2 3.1 0 4.5.2l4.9.7C19.1 1.8 24.3 0 29.9 0s10.7 1.8 14.9 4.9l4.9-.7c1.3-.2 3-.4 4.4-.3 1 0 2.2.3 2.7 1.2.6.9.3 2.1 0 3-.4 1.2-.9 2.4-1.3 3.5l-2 5.3c.8 2.5 1.3 5.2 1.3 8 0 4.9-1.4 9.4-4.7 13.1-.3.3-.5.6-.8.8.9 2.2-1 6.3-1.7 7.9-1.1 2.4-2.4 4.2-5.2 4.5-.9.1-1.9 0-2.6-.7 0 .3-.1.4-.2.6z"/><path fill-rule="evenodd" clip-rule="evenodd" fill="#FFF" d="M17.4 49.8c-2.3-.2-3.2-1.9-4-3.7-1.3-2.8-1.8-4.7-1.8-5.9l.1.2c1.9 3.7 4.5 6.6 7.3 8.6-.1.6-.6.9-1.6.8zM42.3 49.8c2.3-.2 3.2-1.9 4-3.7 1.3-2.8 1.8-4.7 1.8-5.9l-.1.3c-1.9 3.7-4.5 6.6-7.3 8.6.1.5.6.8 1.6.7zM31.5 52.6c2 1.7 4.4 1.1 6.6-1.9-2.1 1.1-4.3 1.7-6.6 1.9zM28.2 52.6c-2 1.7-4.4 1.1-6.6-1.9 2.1 1.1 4.4 1.7 6.6 1.9z"/><path fill-rule="evenodd" clip-rule="evenodd" fill="#0795D1" d="M14.3 42c8 12.2 23.1 12.2 31.1 0-4.6 2.7-10.2 3.8-15.5 3.8-5.3 0-11-1-15.6-3.8z"/><path fill-rule="evenodd" clip-rule="evenodd" fill="#02527D" d="M14.3 42c3.9 5.9 9.4 9 14.9 9.2.3 0 .7 0 1-.1-4.7-.5-9.3-3-12.8-7.5-1-.4-2.1-1-3.1-1.6z"/><path fill-rule="evenodd" clip-rule="evenodd" fill="#FFF" d="M29.9 1.5c5.2 0 10.1 1.7 14 4.6 2-.1 4-.4 5.9-.6 8.2-1.1 6.6.4 4.7 5.8l-1.5 4c-.8-1.9-1.8-3.6-3-5.3.1-.1.2-.3.3-.4 1.5-1.7 3.3-2.9 5.1-3.5-1.6-.2-3.6.5-5.3 2.1-.7.7-1.2 1.3-1.7 2.2 3.1 4 5 9 5 14.5 0 13-10.5 19.4-23.5 19.4S6.4 37.9 6.4 25c0-5.5 1.9-10.6 5.1-14.6-.5-.8-1-1.4-1.6-2.1-1.8-1.7-3.8-2.5-5.5-2.2 1.8.6 3.6 1.8 5.1 3.5.1.2.2.3.3.4-1.2 1.6-2.2 3.4-3 5.3l-1.5-4c-1.9-5.5-3.6-7 4.7-5.8 2 .3 3.9.5 5.9.6 3.9-2.9 8.7-4.6 14-4.6z"/><path fill-rule="evenodd" clip-rule="evenodd" fill="#E5E5E5" d="M21.6 43.4C12.7 41.1 6.4 35 6.4 25c0-5.5 1.9-10.6 5.1-14.6-.5-.8-1-1.4-1.6-2.1-1.8-1.7-3.8-2.5-5.5-2.2 1.8.6 3.6 1.8 5.1 3.5.1.2.2.3.3.4-1.2 1.6-2.2 3.4-3 5.3l-1.5-4c-1.9-5.5-3.6-7 4.7-5.8 2 .3 3.9.5 5.9.6 2.5-1.8 5.3-3.2 8.4-3.9C15.9 6 10.1 14.8 10.1 25.1c0 9.1 4.6 15.2 11.5 18.3z"/><path fill-rule="evenodd" clip-rule="evenodd" fill="#B3B3B3" d="M4.6 6c.1 0 .1 0 .2.1 0 0-.1 0-.2-.1zM8 12.9c-.6-2.4-1.3-4.7-3.2-6.7 1.6.7 3.3 1.8 4.7 3.4.1.2.2.3.3.4-.6.9-1.3 1.9-1.8 2.9z"/><path fill-rule="evenodd" clip-rule="evenodd" fill="#010101" d="M31.2 32.8c1-.5 1.9-.4 2.3-1.1.3-.4.1-.9-.2-1.3-1-1.3-6-1.3-7 0-.3.4-.4.8-.2 1.3.4.7 1.4.5 2.5 1.2.3.2.6.4.7.7.1.4 0 .7-.1 1-.2.3-.4.4-.7.5-1.1.3-2.1.6-3 1.2-.4.3-.7.7-1 1.1-.5.6-.6 1 .2.4.4-.3.8-.6 1.3-.9.5-.3 1.5-.6 2.4-.8.8-.2 1.5-.3 2.3-.1 1 .2 2.4.6 2.9.9.5.2.9.6 1.3.9.9.6.8.2.2-.4-.3-.4-.6-.8-1-1.1-.8-.6-1.8-.9-2.9-1.2-.2-.1-.5-.1-.7-.5-.2-.2-.2-.6-.1-1 .1-.5.3-.6.8-.8z"/><path fill-rule="evenodd" clip-rule="evenodd" fill="#FFF" d="M5.3 37.6c1.1 1.7 2.9 2.6 4.8 2.6 0 .8.1 1.7.4 2.7-3.2.4-6.5-.9-8.4-3.8-.7-1.1-1.6-2.9-.1-3.8.9-.6 2-.3 2.6.6.4.5.4 1.1.7 1.7z"/><path fill-rule="evenodd" clip-rule="evenodd" fill="#0795D1" d="M46.3 46.3l.1-.1c1.3-2.8 1.8-4.7 1.8-5.9l-.2.2c-1 2-2.2 3.7-3.6 5.2.7.2 1.3.4 1.9.6zM13.4 46.3l-.1-.1c-1.3-2.8-1.8-4.7-1.8-5.9l.1.2c1 2 2.2 3.7 3.6 5.2l-1.8.6z"/><path fill-rule="evenodd" clip-rule="evenodd" fill="#010101" d="M43 24.1c.2.5.2 1 .2 1.5 0 2.2-1.6 4-3.5 4s-3.5-1.8-3.5-4c0-1.3.5-2.5 1.4-3.2 1.5.9 3.3 1.6 5.4 1.7zm-20.9-1.7c.8.7 1.4 1.9 1.4 3.2 0 2.2-1.6 4-3.5 4s-3.5-1.8-3.5-4c0-.5.1-1 .2-1.5 2.1-.1 3.9-.8 5.4-1.7zm0 2.3c.6 0 1.1.5 1.1 1.1 0 .6-.5 1.1-1.1 1.1-.6 0-1.1-.5-1.1-1.1 0-.6.5-1.1 1.1-1.1zm19.8 0c.6 0 1.1.5 1.1 1.1 0 .6-.5 1.1-1.1 1.1-.6 0-1.1-.5-1.1-1.1-.1-.6.4-1.1 1.1-1.1z"/></svg>