<svg xmlns="http://www.w3.org/2000/svg" viewBox="0 0 63.7 56.5"><path fill-rule="evenodd" clip-rule="evenodd" fill="#010101" d="M29.9 0c5.6 0 10.7 1.8 14.9 4.9l4.9-.7c1.3-.2 3-.4 4.4-.3 1 0 2.2.3 2.7 1.2.6.9.3 2.1 0 3-.4 1.2-.9 2.4-1.3 3.5l-2 5.3c.8 2.5 1.3 5.2 1.3 8 0 2-.2 4-.8 5.8 1.1 0 2 .5 2.6 1.5.4.8.6 1.8.7 2.8 1.3-.1 2.5.4 3.5 1.1 1.2.9 2 2.1 2.4 3.4.6 1.6.7 3.4.2 5.2-.5 1.6-1.5 3.2-3.2 4-.5.3-1.1.4-1.7.5-.6.1-1.2.1-1.7 0-3.1.3-6.6-.3-8.4-1.5-1.2-.9-2.3-2-3-3.2-1.4 1.8-2.9 3.2-4.6 4.4v.1c-.3.7-.7 1.4-1.2 2-.8 3-4.9 5.4-9.8 5.4-4.8 0-8.9-2.3-9.7-5.2-.1-.1-.2-.3-.3-.4-.7.5-1.5.6-2.4.5-2.8-.3-4.1-2.2-5.2-4.5-.3-.6-.7-1.5-1.1-2.6-3.8.9-7.9-.6-10.1-4.1-.2-.4-.4-.7-.6-1.1-.8-1.6-.8-3.4.9-4.4 1.4-.9 3.4-.5 4.3.9.2.3.3.6.4 1 .1.2.1.6.2.7.9 1.4 2.6 2.2 4.2 2v-.1l-1-1C6.3 34.4 4.9 29.8 4.9 25c0-2.8.5-5.5 1.3-8l-2-5.3c-.4-1.2-.9-2.4-1.3-3.5-.3-1-.6-2.1 0-3C3.5 4.2 4.6 4 5.6 4c1.4-.2 3.1 0 4.5.2l4.9.7C19.1 1.8 24.3 0 29.9 0zm21.4 36.7c-.3.5-.7 1-1.1 1.4 0 .1-.1.1-.1.2.6.6 1.2.5 1.8.1-.1-.7-.3-1.3-.4-1.6-.1 0-.2-.1-.2-.1z"/><path fill-rule="evenodd" clip-rule="evenodd" fill="#FFF" d="M49 39.3c.9 1 2 1.3 2.9.8-.4 1.6-.2 3.3.3 4.7.4 1.2 1.2 2.4 2.2 3.2-3.6-.1-6.3-1.8-8-4.9.6-.9 1.1-1.8 1.7-2.8l.3-.6c.2 0 .4-.2.6-.4z"/><path fill-rule="evenodd" clip-rule="evenodd" fill="#0795D1" d="M49 39.3c.5.6 1.1.9 1.7 1-.7 2.2-1.3 4.4-1 6.5-1.4-.8-2.5-2-3.3-3.6.6-.9 1.1-1.8 1.7-2.8l.3-.6c.2-.1.4-.3.6-.5z"/><path fill-rule="evenodd" clip-rule="evenodd" fill="#FFF" d="M5.3 37.9c1.1 1.7 3.2 2.7 5.2 2.6 0 .9.2 1.7.4 2.6-3.3.8-6.9-.6-8.8-3.6-.7-1.1-1.6-2.9-.1-3.9.9-.6 2.1-.3 2.6.6.4.5.4 1.1.7 1.7zM17.7 49.8c-2.3-.2-3.2-1.9-4-3.7-1.1-2.3-1.6-4.1-1.7-5.3 2 3.6 4.5 6.4 7.3 8.4-.2.5-.7.7-1.6.6z"/><path fill-rule="evenodd" clip-rule="evenodd" fill="#0795D1" d="M13.7 46.3l-.1-.1c-1.1-2.3-1.6-4.1-1.7-5.3 1 1.9 2.2 3.5 3.4 4.9-.5.1-1.1.3-1.6.5z"/><path fill-rule="evenodd" clip-rule="evenodd" fill="#FFF" d="M31.5 52.6c2 1.7 4.4 1.1 6.6-1.9-2.1 1.1-4.3 1.7-6.6 1.9zM28.2 52.6c-2 1.7-4.4 1.1-6.6-1.9 2.1 1.1 4.4 1.7 6.6 1.9z"/><path fill-rule="evenodd" clip-rule="evenodd" fill="#0795D1" d="M14.3 42c8 12.2 23.1 12.2 31.1 0-4.6 2.7-10.2 3.8-15.5 3.8-5.3 0-11-1-15.6-3.8z"/><path fill-rule="evenodd" clip-rule="evenodd" fill="#FFF" d="M29.9 1.5c5.2 0 10.1 1.7 14 4.6 2-.1 4-.4 5.9-.6 8.2-1.1 6.6.4 4.7 5.8l-1.5 4c-.8-1.9-1.8-3.6-3-5.3.1-.1.2-.3.3-.4 1.5-1.7 3.3-2.9 5.1-3.5-1.6-.2-3.6.5-5.3 2.1-.7.7-1.2 1.3-1.7 2.2 3.1 4 5 9 5 14.5 0 2.3-.3 4.5-1 6.4-.2.1-.4.2-.5.4-.8.7-1.4 1.6-1.4 2.6 0 .3 0 .6.1.9-4 6.1-11.7 9.1-20.6 9.1-13 0-23.5-6.4-23.5-19.4 0-5.5 1.9-10.6 5.1-14.6-.5-.8-1-1.4-1.6-2.1-1.9-1.6-3.9-2.4-5.6-2.1 1.8.6 3.6 1.8 5.1 3.5.1.2.2.3.3.4-1.2 1.6-2.2 3.4-3 5.3l-1.5-4c-1.9-5.5-3.6-7 4.7-5.8 2 .3 3.9.5 5.9.6 3.9-2.9 8.7-4.6 14-4.6z"/><path fill-rule="evenodd" clip-rule="evenodd" fill="#E5E5E5" d="M21.6 43.4C12.7 41.1 6.4 35 6.4 25c0-5.5 1.9-10.6 5.1-14.6-.5-.8-1-1.4-1.6-2.1-1.8-1.7-3.8-2.5-5.5-2.2 1.8.6 3.6 1.8 5.1 3.5.1.2.2.3.3.4-1.2 1.6-2.2 3.4-3 5.3l-1.5-4c-1.9-5.5-3.6-7 4.7-5.8 2 .3 3.9.5 5.9.6 2.5-1.8 5.3-3.2 8.4-3.9C15.9 6 10.1 14.8 10.1 25.1c0 9.1 4.6 15.2 11.5 18.3z"/><path fill-rule="evenodd" clip-rule="evenodd" fill="#B3B3B3" d="M4.6 6c.1 0 .1 0 .2.1 0 0-.1 0-.2-.1zM8 12.9c-.6-2.4-1.3-4.7-3.2-6.7 1.6.7 3.3 1.8 4.7 3.4.1.2.2.3.3.4-.6.9-1.3 1.9-1.8 2.9z"/><path fill-rule="evenodd" clip-rule="evenodd" fill="#010101" d="M30.5 33.3c1.3-1.2 2.6-.8 3-1.6.3-.4.1-.9-.2-1.3-1-1.3-6-1.3-7 0-.3.4-.4.8-.2 1.3.5.8 1.9.4 3.2 1.7v.2c.1.7-.1 1.1-.4 1.3-.4.3-1.1.4-1.8.5-.8.1-1.8-.7-2.6-1.2s-.8-.3-.2.4c.7.8 1.4 1.7 2.4 1.9.3.1.7 0 1 0 .4-.1.7-.2.9-.3.5-.2.8-.4 1.2-.4.4 0 .7.1 1.2.4.2.1.6.2.9.3.3 0 .6.1 1 0 1.1-.2 1.8-1 2.4-1.9.5-.6.6-1-.2-.4-.7.5-1.8 1.3-2.6 1.2-.7-.1-1.4-.2-1.7-.5-.4-.3-.5-.7-.4-1.3.1-.1.1-.2.1-.3z"/><path fill-rule="evenodd" clip-rule="evenodd" fill="#FFF" d="M52.7 35.9c.1.3.3.8.5 1.4.5-.7 1.2-1.2 2-1.7l.6-.3c0-.8-.2-1.6-.5-2.2-.4-.8-1.4-1.5-2.6-.4-1.6 1.4-.4 2.5 0 3.2zM61.7 40.3c1 2.9.1 6.2-2.2 7.3-2.2 1.1-4.9-.4-5.9-3.3 1.3-.4 2.7-.5 3.8-.2-.2-.1-.3-.2-.5-.3-1-.4-2.2-.5-3.5-.2-.2-1-.3-2.1-.1-3.1 1.5-.4 2.9-.6 4.2-.3l-.6-.3c-.9-.3-2.1-.4-3.4-.2.4-1.2 1.2-2.2 2.2-2.8 2.3-1.1 5 .4 6 3.4z"/><path fill-rule="evenodd" clip-rule="evenodd" fill="#CDCCCC" d="M56.7 47.7c-1.3-.5-2.4-1.7-3-3.4.3-.1.5-.2.8-.2 0 .2.1.3.2.5.4 1.3 1.1 2.4 2 3.1zm-3.3-4.1c-.2-1-.3-2.1-.1-3.1.3-.1.6-.2.9-.2-.2 1-.1 2.1.1 3.2-.3 0-.6 0-.9.1zm.2-3.9c.4-1.1 1-2 1.9-2.6-.5.7-.9 1.6-1.2 2.5-.2.1-.4.1-.7.1z"/><path fill-rule="evenodd" clip-rule="evenodd" fill="#02527D" d="M14.3 42c3.9 5.9 9.4 9 14.9 9.2.3 0 .7 0 1-.1-4.7-.5-9.3-3-12.8-7.5-1-.4-2.1-1-3.1-1.6z"/><path fill-rule="evenodd" clip-rule="evenodd" fill="#010101" d="M19.8 21.9c1.8 0 3.3 1.7 3.3 3.9 0 2.1-1.5 3.9-3.3 3.9-1.8 0-3.3-1.7-3.3-3.9s1.5-3.9 3.3-3.9zm20.1 0c1.8 0 3.3 1.7 3.3 3.9 0 2.1-1.5 3.9-3.3 3.9-1.8 0-3.3-1.7-3.3-3.9-.1-2.2 1.4-3.9 3.3-3.9zm1.7 1.4c.6 0 1.1.5 1.1 1.1 0 .6-.5 1.1-1.1 1.1-.6 0-1.1-.5-1.1-1.1.1-.6.6-1.1 1.1-1.1zm-20 0c.6 0 1.1.5 1.1 1.1 0 .6-.5 1.1-1.1 1.1-.6 0-1.1-.5-1.1-1.1 0-.6.5-1.1 1.1-1.1z"/></svg>